<svg xmlns="http://www.w3.org/2000/svg" width="35" height="27" viewBox="0 0 35 27"><g><g><path fill="#00bda2" d="M27.156 27c-2.227 0-4.13-.912-5.71-2.735-.75-.844-1.345-1.871-1.786-3.081-.44-1.211-.66-2.428-.66-3.653 0-2.586.802-5.204 2.408-7.857 1.605-2.653 3.754-4.905 6.446-6.756C30.133 1.341 31.92.551 33.214.551c.518 0 .945.163 1.281.49.337.327.505.762.505 1.306 0 .816-.491 1.497-1.476 2.04-2.355 1.281-4.078 2.546-5.164 3.797-1.036 1.17-1.554 2.027-1.554 2.571 0 .517.388.83 1.165.94l.504.08.583.041c1.683.273 3.049 1.095 4.098 2.47 1.048 1.373 1.572 3.04 1.572 5 0 2.013-.646 3.754-1.941 5.224C31.31 26.17 29.434 27 27.156 27M8.505 25.983c-2.323 0-4.307-.896-5.953-2.687-.782-.83-1.404-1.838-1.864-3.027A9.898 9.898 0 0 1 0 16.68c0-2.54.836-5.112 2.511-7.719 1.674-2.606 3.915-4.818 6.722-6.636C11.61.776 13.473 0 14.823 0c.54 0 .985.16 1.336.482.351.32.526.748.526 1.282 0 .802-.512 1.47-1.54 2.005-2.455 1.258-4.251 2.5-5.385 3.73-1.08 1.148-1.62 1.99-1.62 2.525 0 .508.405.816 1.216.923l.526.08.607.04c1.755.268 3.18 1.076 4.273 2.425 1.093 1.35 1.639 2.988 1.639 4.913 0 1.977-.674 3.687-2.024 5.132-1.54 1.63-3.495 2.446-5.872 2.446"/></g></g></svg>