<svg xmlns="http://www.w3.org/2000/svg" width="29" height="29" viewBox="0 0 29 29"><g><g><g><path fill="#fff" d="M6.923 15.644l-4.848 3.6C1.217 19.88 0 19.268 0 18.2V3.924C0 1.76 1.743 0 3.9 0h10.4c2.157 0 3.9 1.76 3.9 3.924v7.795c0 2.165-1.743 3.925-3.9 3.925zM2.6 15.615L5.718 13.3a1.3 1.3 0 0 1 .775-.256H14.3c.715 0 1.3-.59 1.3-1.325V3.924c0-.734-.585-1.324-1.3-1.324H3.9c-.715 0-1.3.59-1.3 1.324z"/></g><g><path fill="#fff" d="M22.882 22.4a1.3 1.3 0 0 0-.775-.256H14.3c-.715 0-1.3-.59-1.3-1.325v-6.495a1.3 1.3 0 0 0-2.6 0v6.495c0 2.165 1.743 3.925 3.9 3.925h7.377l4.848 3.6c.858.637 2.075.024 2.075-1.044V13.024c0-2.164-1.743-3.924-3.9-3.924h-7.8a1.3 1.3 0 0 0 0 2.6h7.8c.715 0 1.3.59 1.3 1.324v11.691z"/></g><g><path fill="#00bda2" d="M6.44 9.1a1.3 1.3 0 0 1 0-2.6h5.197a1.3 1.3 0 0 1 0 2.6z"/></g><g><path fill="#00bda2" d="M16.87 18.2a1.3 1.3 0 0 1 0-2.6h5.197a1.3 1.3 0 0 1 0 2.6z"/></g></g></g></svg>