<?xml version="1.0" encoding="UTF-8"?>
<svg width="875px" height="900px" viewBox="0 0 875 900" version="1.1" xmlns="http://www.w3.org/2000/svg" xmlns:xlink="http://www.w3.org/1999/xlink">
    <!-- Generator: Sketch 56.3 (81716) - https://sketch.com -->
    <title>bg-form</title>
    <desc>Created with Sketch.</desc>
    <defs>
        <linearGradient x1="60.7122466%" y1="-359.976825%" x2="43.1440679%" y2="151.973732%" id="linearGradient-1">
            <stop stop-color="#00BDA2" offset="0%"></stop>
            <stop stop-color="#0F0119" offset="100%"></stop>
        </linearGradient>
        <rect id="path-2" x="0.0307785628" y="0" width="875" height="900"></rect>
        <linearGradient x1="5.61877931%" y1="44.926699%" x2="98.9736238%" y2="47.0347357%" id="linearGradient-4">
            <stop stop-color="#00A99A" stop-opacity="0.178895323" offset="0%"></stop>
            <stop stop-color="#007060" stop-opacity="0" offset="100%"></stop>
        </linearGradient>
        <linearGradient x1="104.566331%" y1="48.5198441%" x2="15.3613851%" y2="56.6861544%" id="linearGradient-5">
            <stop stop-color="#00BDA2" stop-opacity="0" offset="0%"></stop>
            <stop stop-color="#008A76" offset="100%"></stop>
        </linearGradient>
        <linearGradient x1="5.61877931%" y1="44.926699%" x2="98.9736238%" y2="47.0347357%" id="linearGradient-6">
            <stop stop-color="#00A99A" offset="0%"></stop>
            <stop stop-color="#007060" stop-opacity="0" offset="100%"></stop>
        </linearGradient>
    </defs>
    <g id="05---Layout" stroke="none" stroke-width="1" fill="none" fill-rule="evenodd">
        <g id="fale-conosco">
            <g id="bg-form" transform="translate(-0.030779, 0.000000)">
                <mask id="mask-3" fill="white">
                    <use xlink:href="#path-2"></use>
                </mask>
                <use id="Mask" fill="url(#linearGradient-1)" xlink:href="#path-2"></use>
                <path d="M212.530779,155 C213.359206,155 214.030779,155.671573 214.030779,156.5 C214.030779,157.328427 213.359206,158 212.530779,158 C211.702351,158 211.030779,157.328427 211.030779,156.5 C211.030779,155.671573 211.702351,155 212.530779,155 Z M308.530779,155 C309.359206,155 310.030779,155.671573 310.030779,156.5 C310.030779,157.328427 309.359206,158 308.530779,158 C307.702351,158 307.030779,157.328427 307.030779,156.5 C307.030779,155.671573 307.702351,155 308.530779,155 Z M244.530779,155 C245.359206,155 246.030779,155.671573 246.030779,156.5 C246.030779,157.328427 245.359206,158 244.530779,158 C243.702351,158 243.030779,157.328427 243.030779,156.5 C243.030779,155.671573 243.702351,155 244.530779,155 Z M340.530779,155 C341.359206,155 342.030779,155.671573 342.030779,156.5 C342.030779,157.328427 341.359206,158 340.530779,158 C339.702351,158 339.030779,157.328427 339.030779,156.5 C339.030779,155.671573 339.702351,155 340.530779,155 Z M276.530779,155 C277.359206,155 278.030779,155.671573 278.030779,156.5 C278.030779,157.328427 277.359206,158 276.530779,158 C275.702351,158 275.030779,157.328427 275.030779,156.5 C275.030779,155.671573 275.702351,155 276.530779,155 Z M372.530779,155 C373.359206,155 374.030779,155.671573 374.030779,156.5 C374.030779,157.328427 373.359206,158 372.530779,158 C371.702351,158 371.030779,157.328427 371.030779,156.5 C371.030779,155.671573 371.702351,155 372.530779,155 Z M228.530779,155 C229.359206,155 230.030779,155.671573 230.030779,156.5 C230.030779,157.328427 229.359206,158 228.530779,158 C227.702351,158 227.030779,157.328427 227.030779,156.5 C227.030779,155.671573 227.702351,155 228.530779,155 Z M324.530779,155 C325.359206,155 326.030779,155.671573 326.030779,156.5 C326.030779,157.328427 325.359206,158 324.530779,158 C323.702351,158 323.030779,157.328427 323.030779,156.5 C323.030779,155.671573 323.702351,155 324.530779,155 Z M260.530779,155 C261.359206,155 262.030779,155.671573 262.030779,156.5 C262.030779,157.328427 261.359206,158 260.530779,158 C259.702351,158 259.030779,157.328427 259.030779,156.5 C259.030779,155.671573 259.702351,155 260.530779,155 Z M356.530779,155 C357.359206,155 358.030779,155.671573 358.030779,156.5 C358.030779,157.328427 357.359206,158 356.530779,158 C355.702351,158 355.030779,157.328427 355.030779,156.5 C355.030779,155.671573 355.702351,155 356.530779,155 Z M292.530779,155 C293.359206,155 294.030779,155.671573 294.030779,156.5 C294.030779,157.328427 293.359206,158 292.530779,158 C291.702351,158 291.030779,157.328427 291.030779,156.5 C291.030779,155.671573 291.702351,155 292.530779,155 Z M388.530779,155 C389.359206,155 390.030779,155.671573 390.030779,156.5 C390.030779,157.328427 389.359206,158 388.530779,158 C387.702351,158 387.030779,157.328427 387.030779,156.5 C387.030779,155.671573 387.702351,155 388.530779,155 Z M212.530779,187 C213.359206,187 214.030779,187.671573 214.030779,188.5 C214.030779,189.328427 213.359206,190 212.530779,190 C211.702351,190 211.030779,189.328427 211.030779,188.5 C211.030779,187.671573 211.702351,187 212.530779,187 Z M308.530779,187 C309.359206,187 310.030779,187.671573 310.030779,188.5 C310.030779,189.328427 309.359206,190 308.530779,190 C307.702351,190 307.030779,189.328427 307.030779,188.5 C307.030779,187.671573 307.702351,187 308.530779,187 Z M244.530779,187 C245.359206,187 246.030779,187.671573 246.030779,188.5 C246.030779,189.328427 245.359206,190 244.530779,190 C243.702351,190 243.030779,189.328427 243.030779,188.5 C243.030779,187.671573 243.702351,187 244.530779,187 Z M340.530779,187 C341.359206,187 342.030779,187.671573 342.030779,188.5 C342.030779,189.328427 341.359206,190 340.530779,190 C339.702351,190 339.030779,189.328427 339.030779,188.5 C339.030779,187.671573 339.702351,187 340.530779,187 Z M276.530779,187 C277.359206,187 278.030779,187.671573 278.030779,188.5 C278.030779,189.328427 277.359206,190 276.530779,190 C275.702351,190 275.030779,189.328427 275.030779,188.5 C275.030779,187.671573 275.702351,187 276.530779,187 Z M372.530779,187 C373.359206,187 374.030779,187.671573 374.030779,188.5 C374.030779,189.328427 373.359206,190 372.530779,190 C371.702351,190 371.030779,189.328427 371.030779,188.5 C371.030779,187.671573 371.702351,187 372.530779,187 Z M228.530779,187 C229.359206,187 230.030779,187.671573 230.030779,188.5 C230.030779,189.328427 229.359206,190 228.530779,190 C227.702351,190 227.030779,189.328427 227.030779,188.5 C227.030779,187.671573 227.702351,187 228.530779,187 Z M324.530779,187 C325.359206,187 326.030779,187.671573 326.030779,188.5 C326.030779,189.328427 325.359206,190 324.530779,190 C323.702351,190 323.030779,189.328427 323.030779,188.5 C323.030779,187.671573 323.702351,187 324.530779,187 Z M260.530779,187 C261.359206,187 262.030779,187.671573 262.030779,188.5 C262.030779,189.328427 261.359206,190 260.530779,190 C259.702351,190 259.030779,189.328427 259.030779,188.5 C259.030779,187.671573 259.702351,187 260.530779,187 Z M356.530779,187 C357.359206,187 358.030779,187.671573 358.030779,188.5 C358.030779,189.328427 357.359206,190 356.530779,190 C355.702351,190 355.030779,189.328427 355.030779,188.5 C355.030779,187.671573 355.702351,187 356.530779,187 Z M292.530779,187 C293.359206,187 294.030779,187.671573 294.030779,188.5 C294.030779,189.328427 293.359206,190 292.530779,190 C291.702351,190 291.030779,189.328427 291.030779,188.5 C291.030779,187.671573 291.702351,187 292.530779,187 Z M388.530779,187 C389.359206,187 390.030779,187.671573 390.030779,188.5 C390.030779,189.328427 389.359206,190 388.530779,190 C387.702351,190 387.030779,189.328427 387.030779,188.5 C387.030779,187.671573 387.702351,187 388.530779,187 Z M212.530779,171 C213.359206,171 214.030779,171.671573 214.030779,172.5 C214.030779,173.328427 213.359206,174 212.530779,174 C211.702351,174 211.030779,173.328427 211.030779,172.5 C211.030779,171.671573 211.702351,171 212.530779,171 Z M308.530779,171 C309.359206,171 310.030779,171.671573 310.030779,172.5 C310.030779,173.328427 309.359206,174 308.530779,174 C307.702351,174 307.030779,173.328427 307.030779,172.5 C307.030779,171.671573 307.702351,171 308.530779,171 Z M244.530779,171 C245.359206,171 246.030779,171.671573 246.030779,172.5 C246.030779,173.328427 245.359206,174 244.530779,174 C243.702351,174 243.030779,173.328427 243.030779,172.5 C243.030779,171.671573 243.702351,171 244.530779,171 Z M340.530779,171 C341.359206,171 342.030779,171.671573 342.030779,172.5 C342.030779,173.328427 341.359206,174 340.530779,174 C339.702351,174 339.030779,173.328427 339.030779,172.5 C339.030779,171.671573 339.702351,171 340.530779,171 Z M276.530779,171 C277.359206,171 278.030779,171.671573 278.030779,172.5 C278.030779,173.328427 277.359206,174 276.530779,174 C275.702351,174 275.030779,173.328427 275.030779,172.5 C275.030779,171.671573 275.702351,171 276.530779,171 Z M372.530779,171 C373.359206,171 374.030779,171.671573 374.030779,172.5 C374.030779,173.328427 373.359206,174 372.530779,174 C371.702351,174 371.030779,173.328427 371.030779,172.5 C371.030779,171.671573 371.702351,171 372.530779,171 Z M228.530779,171 C229.359206,171 230.030779,171.671573 230.030779,172.5 C230.030779,173.328427 229.359206,174 228.530779,174 C227.702351,174 227.030779,173.328427 227.030779,172.5 C227.030779,171.671573 227.702351,171 228.530779,171 Z M324.530779,171 C325.359206,171 326.030779,171.671573 326.030779,172.5 C326.030779,173.328427 325.359206,174 324.530779,174 C323.702351,174 323.030779,173.328427 323.030779,172.5 C323.030779,171.671573 323.702351,171 324.530779,171 Z M260.530779,171 C261.359206,171 262.030779,171.671573 262.030779,172.5 C262.030779,173.328427 261.359206,174 260.530779,174 C259.702351,174 259.030779,173.328427 259.030779,172.5 C259.030779,171.671573 259.702351,171 260.530779,171 Z M356.530779,171 C357.359206,171 358.030779,171.671573 358.030779,172.5 C358.030779,173.328427 357.359206,174 356.530779,174 C355.702351,174 355.030779,173.328427 355.030779,172.5 C355.030779,171.671573 355.702351,171 356.530779,171 Z M292.530779,171 C293.359206,171 294.030779,171.671573 294.030779,172.5 C294.030779,173.328427 293.359206,174 292.530779,174 C291.702351,174 291.030779,173.328427 291.030779,172.5 C291.030779,171.671573 291.702351,171 292.530779,171 Z M388.530779,171 C389.359206,171 390.030779,171.671573 390.030779,172.5 C390.030779,173.328427 389.359206,174 388.530779,174 C387.702351,174 387.030779,173.328427 387.030779,172.5 C387.030779,171.671573 387.702351,171 388.530779,171 Z M212.530779,204 C213.359206,204 214.030779,204.671573 214.030779,205.5 C214.030779,206.328427 213.359206,207 212.530779,207 C211.702351,207 211.030779,206.328427 211.030779,205.5 C211.030779,204.671573 211.702351,204 212.530779,204 Z M308.530779,204 C309.359206,204 310.030779,204.671573 310.030779,205.5 C310.030779,206.328427 309.359206,207 308.530779,207 C307.702351,207 307.030779,206.328427 307.030779,205.5 C307.030779,204.671573 307.702351,204 308.530779,204 Z M244.530779,204 C245.359206,204 246.030779,204.671573 246.030779,205.5 C246.030779,206.328427 245.359206,207 244.530779,207 C243.702351,207 243.030779,206.328427 243.030779,205.5 C243.030779,204.671573 243.702351,204 244.530779,204 Z M340.530779,204 C341.359206,204 342.030779,204.671573 342.030779,205.5 C342.030779,206.328427 341.359206,207 340.530779,207 C339.702351,207 339.030779,206.328427 339.030779,205.5 C339.030779,204.671573 339.702351,204 340.530779,204 Z M276.530779,204 C277.359206,204 278.030779,204.671573 278.030779,205.5 C278.030779,206.328427 277.359206,207 276.530779,207 C275.702351,207 275.030779,206.328427 275.030779,205.5 C275.030779,204.671573 275.702351,204 276.530779,204 Z M372.530779,204 C373.359206,204 374.030779,204.671573 374.030779,205.5 C374.030779,206.328427 373.359206,207 372.530779,207 C371.702351,207 371.030779,206.328427 371.030779,205.5 C371.030779,204.671573 371.702351,204 372.530779,204 Z M228.530779,204 C229.359206,204 230.030779,204.671573 230.030779,205.5 C230.030779,206.328427 229.359206,207 228.530779,207 C227.702351,207 227.030779,206.328427 227.030779,205.5 C227.030779,204.671573 227.702351,204 228.530779,204 Z M324.530779,204 C325.359206,204 326.030779,204.671573 326.030779,205.5 C326.030779,206.328427 325.359206,207 324.530779,207 C323.702351,207 323.030779,206.328427 323.030779,205.5 C323.030779,204.671573 323.702351,204 324.530779,204 Z M260.530779,204 C261.359206,204 262.030779,204.671573 262.030779,205.5 C262.030779,206.328427 261.359206,207 260.530779,207 C259.702351,207 259.030779,206.328427 259.030779,205.5 C259.030779,204.671573 259.702351,204 260.530779,204 Z M356.530779,204 C357.359206,204 358.030779,204.671573 358.030779,205.5 C358.030779,206.328427 357.359206,207 356.530779,207 C355.702351,207 355.030779,206.328427 355.030779,205.5 C355.030779,204.671573 355.702351,204 356.530779,204 Z M292.530779,204 C293.359206,204 294.030779,204.671573 294.030779,205.5 C294.030779,206.328427 293.359206,207 292.530779,207 C291.702351,207 291.030779,206.328427 291.030779,205.5 C291.030779,204.671573 291.702351,204 292.530779,204 Z M388.530779,204 C389.359206,204 390.030779,204.671573 390.030779,205.5 C390.030779,206.328427 389.359206,207 388.530779,207 C387.702351,207 387.030779,206.328427 387.030779,205.5 C387.030779,204.671573 387.702351,204 388.530779,204 Z M212.530779,236 C213.359206,236 214.030779,236.671573 214.030779,237.5 C214.030779,238.328427 213.359206,239 212.530779,239 C211.702351,239 211.030779,238.328427 211.030779,237.5 C211.030779,236.671573 211.702351,236 212.530779,236 Z M308.530779,236 C309.359206,236 310.030779,236.671573 310.030779,237.5 C310.030779,238.328427 309.359206,239 308.530779,239 C307.702351,239 307.030779,238.328427 307.030779,237.5 C307.030779,236.671573 307.702351,236 308.530779,236 Z M244.530779,236 C245.359206,236 246.030779,236.671573 246.030779,237.5 C246.030779,238.328427 245.359206,239 244.530779,239 C243.702351,239 243.030779,238.328427 243.030779,237.5 C243.030779,236.671573 243.702351,236 244.530779,236 Z M340.530779,236 C341.359206,236 342.030779,236.671573 342.030779,237.5 C342.030779,238.328427 341.359206,239 340.530779,239 C339.702351,239 339.030779,238.328427 339.030779,237.5 C339.030779,236.671573 339.702351,236 340.530779,236 Z M276.530779,236 C277.359206,236 278.030779,236.671573 278.030779,237.5 C278.030779,238.328427 277.359206,239 276.530779,239 C275.702351,239 275.030779,238.328427 275.030779,237.5 C275.030779,236.671573 275.702351,236 276.530779,236 Z M372.530779,236 C373.359206,236 374.030779,236.671573 374.030779,237.5 C374.030779,238.328427 373.359206,239 372.530779,239 C371.702351,239 371.030779,238.328427 371.030779,237.5 C371.030779,236.671573 371.702351,236 372.530779,236 Z M228.530779,236 C229.359206,236 230.030779,236.671573 230.030779,237.5 C230.030779,238.328427 229.359206,239 228.530779,239 C227.702351,239 227.030779,238.328427 227.030779,237.5 C227.030779,236.671573 227.702351,236 228.530779,236 Z M324.530779,236 C325.359206,236 326.030779,236.671573 326.030779,237.5 C326.030779,238.328427 325.359206,239 324.530779,239 C323.702351,239 323.030779,238.328427 323.030779,237.5 C323.030779,236.671573 323.702351,236 324.530779,236 Z M260.530779,236 C261.359206,236 262.030779,236.671573 262.030779,237.5 C262.030779,238.328427 261.359206,239 260.530779,239 C259.702351,239 259.030779,238.328427 259.030779,237.5 C259.030779,236.671573 259.702351,236 260.530779,236 Z M356.530779,236 C357.359206,236 358.030779,236.671573 358.030779,237.5 C358.030779,238.328427 357.359206,239 356.530779,239 C355.702351,239 355.030779,238.328427 355.030779,237.5 C355.030779,236.671573 355.702351,236 356.530779,236 Z M292.530779,236 C293.359206,236 294.030779,236.671573 294.030779,237.5 C294.030779,238.328427 293.359206,239 292.530779,239 C291.702351,239 291.030779,238.328427 291.030779,237.5 C291.030779,236.671573 291.702351,236 292.530779,236 Z M388.530779,236 C389.359206,236 390.030779,236.671573 390.030779,237.5 C390.030779,238.328427 389.359206,239 388.530779,239 C387.702351,239 387.030779,238.328427 387.030779,237.5 C387.030779,236.671573 387.702351,236 388.530779,236 Z M212.530779,220 C213.359206,220 214.030779,220.671573 214.030779,221.5 C214.030779,222.328427 213.359206,223 212.530779,223 C211.702351,223 211.030779,222.328427 211.030779,221.5 C211.030779,220.671573 211.702351,220 212.530779,220 Z M308.530779,220 C309.359206,220 310.030779,220.671573 310.030779,221.5 C310.030779,222.328427 309.359206,223 308.530779,223 C307.702351,223 307.030779,222.328427 307.030779,221.5 C307.030779,220.671573 307.702351,220 308.530779,220 Z M244.530779,220 C245.359206,220 246.030779,220.671573 246.030779,221.5 C246.030779,222.328427 245.359206,223 244.530779,223 C243.702351,223 243.030779,222.328427 243.030779,221.5 C243.030779,220.671573 243.702351,220 244.530779,220 Z M340.530779,220 C341.359206,220 342.030779,220.671573 342.030779,221.5 C342.030779,222.328427 341.359206,223 340.530779,223 C339.702351,223 339.030779,222.328427 339.030779,221.5 C339.030779,220.671573 339.702351,220 340.530779,220 Z M276.530779,220 C277.359206,220 278.030779,220.671573 278.030779,221.5 C278.030779,222.328427 277.359206,223 276.530779,223 C275.702351,223 275.030779,222.328427 275.030779,221.5 C275.030779,220.671573 275.702351,220 276.530779,220 Z M372.530779,220 C373.359206,220 374.030779,220.671573 374.030779,221.5 C374.030779,222.328427 373.359206,223 372.530779,223 C371.702351,223 371.030779,222.328427 371.030779,221.5 C371.030779,220.671573 371.702351,220 372.530779,220 Z M228.530779,220 C229.359206,220 230.030779,220.671573 230.030779,221.5 C230.030779,222.328427 229.359206,223 228.530779,223 C227.702351,223 227.030779,222.328427 227.030779,221.5 C227.030779,220.671573 227.702351,220 228.530779,220 Z M324.530779,220 C325.359206,220 326.030779,220.671573 326.030779,221.5 C326.030779,222.328427 325.359206,223 324.530779,223 C323.702351,223 323.030779,222.328427 323.030779,221.5 C323.030779,220.671573 323.702351,220 324.530779,220 Z M260.530779,220 C261.359206,220 262.030779,220.671573 262.030779,221.5 C262.030779,222.328427 261.359206,223 260.530779,223 C259.702351,223 259.030779,222.328427 259.030779,221.5 C259.030779,220.671573 259.702351,220 260.530779,220 Z M356.530779,220 C357.359206,220 358.030779,220.671573 358.030779,221.5 C358.030779,222.328427 357.359206,223 356.530779,223 C355.702351,223 355.030779,222.328427 355.030779,221.5 C355.030779,220.671573 355.702351,220 356.530779,220 Z M292.530779,220 C293.359206,220 294.030779,220.671573 294.030779,221.5 C294.030779,222.328427 293.359206,223 292.530779,223 C291.702351,223 291.030779,222.328427 291.030779,221.5 C291.030779,220.671573 291.702351,220 292.530779,220 Z M388.530779,220 C389.359206,220 390.030779,220.671573 390.030779,221.5 C390.030779,222.328427 389.359206,223 388.530779,223 C387.702351,223 387.030779,222.328427 387.030779,221.5 C387.030779,220.671573 387.702351,220 388.530779,220 Z" id="Combined-Shape" fill="url(#linearGradient-4)" mask="url(#mask-3)"></path>
                <path d="M715.030779,899.662939 L0.0307785628,899.662939 C-0.0563827165,676.054436 0.0415788929,517.634737 0.324663391,424.403841 C39.3862018,396.382094 97.9785094,354.349474 176.101586,298.305981 C190.763051,289.451282 209.626011,266.224384 224.364065,274.912223 L682.666142,546.393282 C702.929599,558.340451 715.030779,578.219027 715.030779,599.443607 L715.030779,899.662939 Z" id="Fill-1-Copy-2" fill="url(#linearGradient-5)" opacity="0.102167039" mask="url(#mask-3)"></path>
                <path d="M697.530779,852 C698.359206,852 699.030779,852.671573 699.030779,853.5 C699.030779,854.328427 698.359206,855 697.530779,855 C696.702351,855 696.030779,854.328427 696.030779,853.5 C696.030779,852.671573 696.702351,852 697.530779,852 Z M793.530779,852 C794.359206,852 795.030779,852.671573 795.030779,853.5 C795.030779,854.328427 794.359206,855 793.530779,855 C792.702351,855 792.030779,854.328427 792.030779,853.5 C792.030779,852.671573 792.702351,852 793.530779,852 Z M729.530779,852 C730.359206,852 731.030779,852.671573 731.030779,853.5 C731.030779,854.328427 730.359206,855 729.530779,855 C728.702351,855 728.030779,854.328427 728.030779,853.5 C728.030779,852.671573 728.702351,852 729.530779,852 Z M825.530779,852 C826.359206,852 827.030779,852.671573 827.030779,853.5 C827.030779,854.328427 826.359206,855 825.530779,855 C824.702351,855 824.030779,854.328427 824.030779,853.5 C824.030779,852.671573 824.702351,852 825.530779,852 Z M761.530779,852 C762.359206,852 763.030779,852.671573 763.030779,853.5 C763.030779,854.328427 762.359206,855 761.530779,855 C760.702351,855 760.030779,854.328427 760.030779,853.5 C760.030779,852.671573 760.702351,852 761.530779,852 Z M857.530779,852 C858.359206,852 859.030779,852.671573 859.030779,853.5 C859.030779,854.328427 858.359206,855 857.530779,855 C856.702351,855 856.030779,854.328427 856.030779,853.5 C856.030779,852.671573 856.702351,852 857.530779,852 Z M713.530779,852 C714.359206,852 715.030779,852.671573 715.030779,853.5 C715.030779,854.328427 714.359206,855 713.530779,855 C712.702351,855 712.030779,854.328427 712.030779,853.5 C712.030779,852.671573 712.702351,852 713.530779,852 Z M809.530779,852 C810.359206,852 811.030779,852.671573 811.030779,853.5 C811.030779,854.328427 810.359206,855 809.530779,855 C808.702351,855 808.030779,854.328427 808.030779,853.5 C808.030779,852.671573 808.702351,852 809.530779,852 Z M745.530779,852 C746.359206,852 747.030779,852.671573 747.030779,853.5 C747.030779,854.328427 746.359206,855 745.530779,855 C744.702351,855 744.030779,854.328427 744.030779,853.5 C744.030779,852.671573 744.702351,852 745.530779,852 Z M841.530779,852 C842.359206,852 843.030779,852.671573 843.030779,853.5 C843.030779,854.328427 842.359206,855 841.530779,855 C840.702351,855 840.030779,854.328427 840.030779,853.5 C840.030779,852.671573 840.702351,852 841.530779,852 Z M777.530779,852 C778.359206,852 779.030779,852.671573 779.030779,853.5 C779.030779,854.328427 778.359206,855 777.530779,855 C776.702351,855 776.030779,854.328427 776.030779,853.5 C776.030779,852.671573 776.702351,852 777.530779,852 Z M873.530779,852 C874.359206,852 875.030779,852.671573 875.030779,853.5 C875.030779,854.328427 874.359206,855 873.530779,855 C872.702351,855 872.030779,854.328427 872.030779,853.5 C872.030779,852.671573 872.702351,852 873.530779,852 Z M697.530779,884 C698.359206,884 699.030779,884.671573 699.030779,885.5 C699.030779,886.328427 698.359206,887 697.530779,887 C696.702351,887 696.030779,886.328427 696.030779,885.5 C696.030779,884.671573 696.702351,884 697.530779,884 Z M793.530779,884 C794.359206,884 795.030779,884.671573 795.030779,885.5 C795.030779,886.328427 794.359206,887 793.530779,887 C792.702351,887 792.030779,886.328427 792.030779,885.5 C792.030779,884.671573 792.702351,884 793.530779,884 Z M729.530779,884 C730.359206,884 731.030779,884.671573 731.030779,885.5 C731.030779,886.328427 730.359206,887 729.530779,887 C728.702351,887 728.030779,886.328427 728.030779,885.5 C728.030779,884.671573 728.702351,884 729.530779,884 Z M825.530779,884 C826.359206,884 827.030779,884.671573 827.030779,885.5 C827.030779,886.328427 826.359206,887 825.530779,887 C824.702351,887 824.030779,886.328427 824.030779,885.5 C824.030779,884.671573 824.702351,884 825.530779,884 Z M761.530779,884 C762.359206,884 763.030779,884.671573 763.030779,885.5 C763.030779,886.328427 762.359206,887 761.530779,887 C760.702351,887 760.030779,886.328427 760.030779,885.5 C760.030779,884.671573 760.702351,884 761.530779,884 Z M857.530779,884 C858.359206,884 859.030779,884.671573 859.030779,885.5 C859.030779,886.328427 858.359206,887 857.530779,887 C856.702351,887 856.030779,886.328427 856.030779,885.5 C856.030779,884.671573 856.702351,884 857.530779,884 Z M713.530779,884 C714.359206,884 715.030779,884.671573 715.030779,885.5 C715.030779,886.328427 714.359206,887 713.530779,887 C712.702351,887 712.030779,886.328427 712.030779,885.5 C712.030779,884.671573 712.702351,884 713.530779,884 Z M809.530779,884 C810.359206,884 811.030779,884.671573 811.030779,885.5 C811.030779,886.328427 810.359206,887 809.530779,887 C808.702351,887 808.030779,886.328427 808.030779,885.5 C808.030779,884.671573 808.702351,884 809.530779,884 Z M745.530779,884 C746.359206,884 747.030779,884.671573 747.030779,885.5 C747.030779,886.328427 746.359206,887 745.530779,887 C744.702351,887 744.030779,886.328427 744.030779,885.5 C744.030779,884.671573 744.702351,884 745.530779,884 Z M841.530779,884 C842.359206,884 843.030779,884.671573 843.030779,885.5 C843.030779,886.328427 842.359206,887 841.530779,887 C840.702351,887 840.030779,886.328427 840.030779,885.5 C840.030779,884.671573 840.702351,884 841.530779,884 Z M777.530779,884 C778.359206,884 779.030779,884.671573 779.030779,885.5 C779.030779,886.328427 778.359206,887 777.530779,887 C776.702351,887 776.030779,886.328427 776.030779,885.5 C776.030779,884.671573 776.702351,884 777.530779,884 Z M873.530779,884 C874.359206,884 875.030779,884.671573 875.030779,885.5 C875.030779,886.328427 874.359206,887 873.530779,887 C872.702351,887 872.030779,886.328427 872.030779,885.5 C872.030779,884.671573 872.702351,884 873.530779,884 Z M697.530779,868 C698.359206,868 699.030779,868.671573 699.030779,869.5 C699.030779,870.328427 698.359206,871 697.530779,871 C696.702351,871 696.030779,870.328427 696.030779,869.5 C696.030779,868.671573 696.702351,868 697.530779,868 Z M793.530779,868 C794.359206,868 795.030779,868.671573 795.030779,869.5 C795.030779,870.328427 794.359206,871 793.530779,871 C792.702351,871 792.030779,870.328427 792.030779,869.5 C792.030779,868.671573 792.702351,868 793.530779,868 Z M729.530779,868 C730.359206,868 731.030779,868.671573 731.030779,869.5 C731.030779,870.328427 730.359206,871 729.530779,871 C728.702351,871 728.030779,870.328427 728.030779,869.5 C728.030779,868.671573 728.702351,868 729.530779,868 Z M825.530779,868 C826.359206,868 827.030779,868.671573 827.030779,869.5 C827.030779,870.328427 826.359206,871 825.530779,871 C824.702351,871 824.030779,870.328427 824.030779,869.5 C824.030779,868.671573 824.702351,868 825.530779,868 Z M761.530779,868 C762.359206,868 763.030779,868.671573 763.030779,869.5 C763.030779,870.328427 762.359206,871 761.530779,871 C760.702351,871 760.030779,870.328427 760.030779,869.5 C760.030779,868.671573 760.702351,868 761.530779,868 Z M857.530779,868 C858.359206,868 859.030779,868.671573 859.030779,869.5 C859.030779,870.328427 858.359206,871 857.530779,871 C856.702351,871 856.030779,870.328427 856.030779,869.5 C856.030779,868.671573 856.702351,868 857.530779,868 Z M713.530779,868 C714.359206,868 715.030779,868.671573 715.030779,869.5 C715.030779,870.328427 714.359206,871 713.530779,871 C712.702351,871 712.030779,870.328427 712.030779,869.5 C712.030779,868.671573 712.702351,868 713.530779,868 Z M809.530779,868 C810.359206,868 811.030779,868.671573 811.030779,869.5 C811.030779,870.328427 810.359206,871 809.530779,871 C808.702351,871 808.030779,870.328427 808.030779,869.5 C808.030779,868.671573 808.702351,868 809.530779,868 Z M745.530779,868 C746.359206,868 747.030779,868.671573 747.030779,869.5 C747.030779,870.328427 746.359206,871 745.530779,871 C744.702351,871 744.030779,870.328427 744.030779,869.5 C744.030779,868.671573 744.702351,868 745.530779,868 Z M841.530779,868 C842.359206,868 843.030779,868.671573 843.030779,869.5 C843.030779,870.328427 842.359206,871 841.530779,871 C840.702351,871 840.030779,870.328427 840.030779,869.5 C840.030779,868.671573 840.702351,868 841.530779,868 Z M777.530779,868 C778.359206,868 779.030779,868.671573 779.030779,869.5 C779.030779,870.328427 778.359206,871 777.530779,871 C776.702351,871 776.030779,870.328427 776.030779,869.5 C776.030779,868.671573 776.702351,868 777.530779,868 Z M873.530779,868 C874.359206,868 875.030779,868.671573 875.030779,869.5 C875.030779,870.328427 874.359206,871 873.530779,871 C872.702351,871 872.030779,870.328427 872.030779,869.5 C872.030779,868.671573 872.702351,868 873.530779,868 Z M697.530779,901 C698.359206,901 699.030779,901.671573 699.030779,902.5 C699.030779,903.328427 698.359206,904 697.530779,904 C696.702351,904 696.030779,903.328427 696.030779,902.5 C696.030779,901.671573 696.702351,901 697.530779,901 Z M793.530779,901 C794.359206,901 795.030779,901.671573 795.030779,902.5 C795.030779,903.328427 794.359206,904 793.530779,904 C792.702351,904 792.030779,903.328427 792.030779,902.5 C792.030779,901.671573 792.702351,901 793.530779,901 Z M729.530779,901 C730.359206,901 731.030779,901.671573 731.030779,902.5 C731.030779,903.328427 730.359206,904 729.530779,904 C728.702351,904 728.030779,903.328427 728.030779,902.5 C728.030779,901.671573 728.702351,901 729.530779,901 Z M825.530779,901 C826.359206,901 827.030779,901.671573 827.030779,902.5 C827.030779,903.328427 826.359206,904 825.530779,904 C824.702351,904 824.030779,903.328427 824.030779,902.5 C824.030779,901.671573 824.702351,901 825.530779,901 Z M761.530779,901 C762.359206,901 763.030779,901.671573 763.030779,902.5 C763.030779,903.328427 762.359206,904 761.530779,904 C760.702351,904 760.030779,903.328427 760.030779,902.5 C760.030779,901.671573 760.702351,901 761.530779,901 Z M857.530779,901 C858.359206,901 859.030779,901.671573 859.030779,902.5 C859.030779,903.328427 858.359206,904 857.530779,904 C856.702351,904 856.030779,903.328427 856.030779,902.5 C856.030779,901.671573 856.702351,901 857.530779,901 Z M713.530779,901 C714.359206,901 715.030779,901.671573 715.030779,902.5 C715.030779,903.328427 714.359206,904 713.530779,904 C712.702351,904 712.030779,903.328427 712.030779,902.5 C712.030779,901.671573 712.702351,901 713.530779,901 Z M809.530779,901 C810.359206,901 811.030779,901.671573 811.030779,902.5 C811.030779,903.328427 810.359206,904 809.530779,904 C808.702351,904 808.030779,903.328427 808.030779,902.5 C808.030779,901.671573 808.702351,901 809.530779,901 Z M745.530779,901 C746.359206,901 747.030779,901.671573 747.030779,902.5 C747.030779,903.328427 746.359206,904 745.530779,904 C744.702351,904 744.030779,903.328427 744.030779,902.5 C744.030779,901.671573 744.702351,901 745.530779,901 Z M841.530779,901 C842.359206,901 843.030779,901.671573 843.030779,902.5 C843.030779,903.328427 842.359206,904 841.530779,904 C840.702351,904 840.030779,903.328427 840.030779,902.5 C840.030779,901.671573 840.702351,901 841.530779,901 Z M777.530779,901 C778.359206,901 779.030779,901.671573 779.030779,902.5 C779.030779,903.328427 778.359206,904 777.530779,904 C776.702351,904 776.030779,903.328427 776.030779,902.5 C776.030779,901.671573 776.702351,901 777.530779,901 Z M873.530779,901 C874.359206,901 875.030779,901.671573 875.030779,902.5 C875.030779,903.328427 874.359206,904 873.530779,904 C872.702351,904 872.030779,903.328427 872.030779,902.5 C872.030779,901.671573 872.702351,901 873.530779,901 Z M697.530779,933 C698.359206,933 699.030779,933.671573 699.030779,934.5 C699.030779,935.328427 698.359206,936 697.530779,936 C696.702351,936 696.030779,935.328427 696.030779,934.5 C696.030779,933.671573 696.702351,933 697.530779,933 Z M793.530779,933 C794.359206,933 795.030779,933.671573 795.030779,934.5 C795.030779,935.328427 794.359206,936 793.530779,936 C792.702351,936 792.030779,935.328427 792.030779,934.5 C792.030779,933.671573 792.702351,933 793.530779,933 Z M729.530779,933 C730.359206,933 731.030779,933.671573 731.030779,934.5 C731.030779,935.328427 730.359206,936 729.530779,936 C728.702351,936 728.030779,935.328427 728.030779,934.5 C728.030779,933.671573 728.702351,933 729.530779,933 Z M825.530779,933 C826.359206,933 827.030779,933.671573 827.030779,934.5 C827.030779,935.328427 826.359206,936 825.530779,936 C824.702351,936 824.030779,935.328427 824.030779,934.5 C824.030779,933.671573 824.702351,933 825.530779,933 Z M761.530779,933 C762.359206,933 763.030779,933.671573 763.030779,934.5 C763.030779,935.328427 762.359206,936 761.530779,936 C760.702351,936 760.030779,935.328427 760.030779,934.5 C760.030779,933.671573 760.702351,933 761.530779,933 Z M857.530779,933 C858.359206,933 859.030779,933.671573 859.030779,934.5 C859.030779,935.328427 858.359206,936 857.530779,936 C856.702351,936 856.030779,935.328427 856.030779,934.5 C856.030779,933.671573 856.702351,933 857.530779,933 Z M713.530779,933 C714.359206,933 715.030779,933.671573 715.030779,934.5 C715.030779,935.328427 714.359206,936 713.530779,936 C712.702351,936 712.030779,935.328427 712.030779,934.5 C712.030779,933.671573 712.702351,933 713.530779,933 Z M809.530779,933 C810.359206,933 811.030779,933.671573 811.030779,934.5 C811.030779,935.328427 810.359206,936 809.530779,936 C808.702351,936 808.030779,935.328427 808.030779,934.5 C808.030779,933.671573 808.702351,933 809.530779,933 Z M745.530779,933 C746.359206,933 747.030779,933.671573 747.030779,934.5 C747.030779,935.328427 746.359206,936 745.530779,936 C744.702351,936 744.030779,935.328427 744.030779,934.5 C744.030779,933.671573 744.702351,933 745.530779,933 Z M841.530779,933 C842.359206,933 843.030779,933.671573 843.030779,934.5 C843.030779,935.328427 842.359206,936 841.530779,936 C840.702351,936 840.030779,935.328427 840.030779,934.5 C840.030779,933.671573 840.702351,933 841.530779,933 Z M777.530779,933 C778.359206,933 779.030779,933.671573 779.030779,934.5 C779.030779,935.328427 778.359206,936 777.530779,936 C776.702351,936 776.030779,935.328427 776.030779,934.5 C776.030779,933.671573 776.702351,933 777.530779,933 Z M873.530779,933 C874.359206,933 875.030779,933.671573 875.030779,934.5 C875.030779,935.328427 874.359206,936 873.530779,936 C872.702351,936 872.030779,935.328427 872.030779,934.5 C872.030779,933.671573 872.702351,933 873.530779,933 Z M697.530779,917 C698.359206,917 699.030779,917.671573 699.030779,918.5 C699.030779,919.328427 698.359206,920 697.530779,920 C696.702351,920 696.030779,919.328427 696.030779,918.5 C696.030779,917.671573 696.702351,917 697.530779,917 Z M793.530779,917 C794.359206,917 795.030779,917.671573 795.030779,918.5 C795.030779,919.328427 794.359206,920 793.530779,920 C792.702351,920 792.030779,919.328427 792.030779,918.5 C792.030779,917.671573 792.702351,917 793.530779,917 Z M729.530779,917 C730.359206,917 731.030779,917.671573 731.030779,918.5 C731.030779,919.328427 730.359206,920 729.530779,920 C728.702351,920 728.030779,919.328427 728.030779,918.5 C728.030779,917.671573 728.702351,917 729.530779,917 Z M825.530779,917 C826.359206,917 827.030779,917.671573 827.030779,918.5 C827.030779,919.328427 826.359206,920 825.530779,920 C824.702351,920 824.030779,919.328427 824.030779,918.5 C824.030779,917.671573 824.702351,917 825.530779,917 Z M761.530779,917 C762.359206,917 763.030779,917.671573 763.030779,918.5 C763.030779,919.328427 762.359206,920 761.530779,920 C760.702351,920 760.030779,919.328427 760.030779,918.5 C760.030779,917.671573 760.702351,917 761.530779,917 Z M857.530779,917 C858.359206,917 859.030779,917.671573 859.030779,918.5 C859.030779,919.328427 858.359206,920 857.530779,920 C856.702351,920 856.030779,919.328427 856.030779,918.5 C856.030779,917.671573 856.702351,917 857.530779,917 Z M713.530779,917 C714.359206,917 715.030779,917.671573 715.030779,918.5 C715.030779,919.328427 714.359206,920 713.530779,920 C712.702351,920 712.030779,919.328427 712.030779,918.5 C712.030779,917.671573 712.702351,917 713.530779,917 Z M809.530779,917 C810.359206,917 811.030779,917.671573 811.030779,918.5 C811.030779,919.328427 810.359206,920 809.530779,920 C808.702351,920 808.030779,919.328427 808.030779,918.5 C808.030779,917.671573 808.702351,917 809.530779,917 Z M745.530779,917 C746.359206,917 747.030779,917.671573 747.030779,918.5 C747.030779,919.328427 746.359206,920 745.530779,920 C744.702351,920 744.030779,919.328427 744.030779,918.5 C744.030779,917.671573 744.702351,917 745.530779,917 Z M841.530779,917 C842.359206,917 843.030779,917.671573 843.030779,918.5 C843.030779,919.328427 842.359206,920 841.530779,920 C840.702351,920 840.030779,919.328427 840.030779,918.5 C840.030779,917.671573 840.702351,917 841.530779,917 Z M777.530779,917 C778.359206,917 779.030779,917.671573 779.030779,918.5 C779.030779,919.328427 778.359206,920 777.530779,920 C776.702351,920 776.030779,919.328427 776.030779,918.5 C776.030779,917.671573 776.702351,917 777.530779,917 Z M873.530779,917 C874.359206,917 875.030779,917.671573 875.030779,918.5 C875.030779,919.328427 874.359206,920 873.530779,920 C872.702351,920 872.030779,919.328427 872.030779,918.5 C872.030779,917.671573 872.702351,917 873.530779,917 Z" id="Combined-Shape" fill="url(#linearGradient-6)" mask="url(#mask-3)"></path>
            </g>
        </g>
    </g>
</svg>