<?xml version="1.0" encoding="UTF-8"?>
<svg width="1920px" height="900px" viewBox="0 0 1920 900" version="1.1" xmlns="http://www.w3.org/2000/svg" xmlns:xlink="http://www.w3.org/1999/xlink">
    <!-- Generator: Sketch 56.3 (81716) - https://sketch.com -->
    <title>bg-menu</title>
    <desc>Created with Sketch.</desc>
    <defs>
        <linearGradient x1="61.3331196%" y1="-39.8827257%" x2="42.7467037%" y2="72.3565734%" id="linearGradient-1">
            <stop stop-color="#00BDA2" offset="0%"></stop>
            <stop stop-color="#0F0119" offset="100%"></stop>
        </linearGradient>
        <linearGradient x1="99.5267172%" y1="50%" x2="0.378626252%" y2="50%" id="linearGradient-2">
            <stop stop-color="#3EFFE3" offset="0.0527871622%"></stop>
            <stop stop-color="#00EA99" offset="99.9577703%"></stop>
        </linearGradient>
        <linearGradient x1="5.61877931%" y1="44.926699%" x2="98.9736238%" y2="47.0347357%" id="linearGradient-3">
            <stop stop-color="#00A99A" offset="0%"></stop>
            <stop stop-color="#007060" stop-opacity="0" offset="100%"></stop>
        </linearGradient>
        <linearGradient x1="79.2289181%" y1="48.072968%" x2="31.4455321%" y2="58.7047811%" id="linearGradient-4">
            <stop stop-color="#00BDA2" stop-opacity="0" offset="0%"></stop>
            <stop stop-color="#008A76" offset="100%"></stop>
        </linearGradient>
        <linearGradient x1="104.566331%" y1="49.3904336%" x2="15.3613851%" y2="52.753531%" id="linearGradient-5">
            <stop stop-color="#00BDA2" stop-opacity="0" offset="0%"></stop>
            <stop stop-color="#008A76" offset="100%"></stop>
        </linearGradient>
        <linearGradient x1="172.021785%" y1="-13.0948291%" x2="-3.03034374%" y2="34.9934552%" id="linearGradient-6">
            <stop stop-color="#008A76" offset="0%"></stop>
            <stop stop-color="#00BDA2" stop-opacity="0" offset="100%"></stop>
        </linearGradient>
        <linearGradient x1="100%" y1="60.543669%" x2="0%" y2="60.543669%" id="linearGradient-7">
            <stop stop-color="#00A99A" offset="0%"></stop>
            <stop stop-color="#007060" stop-opacity="0" offset="100%"></stop>
        </linearGradient>
    </defs>
    <g id="05---Layout" stroke="none" stroke-width="1" fill="none" fill-rule="evenodd">
        <g id="menu">
            <g id="bg-menu" transform="translate(-1.198428, 0.000000)">
                <rect id="Rectangle" fill="url(#linearGradient-1)" x="1.19842751" y="0" width="1920" height="899"></rect>
                <path d="M1278.06148,461.092212 L1054.64004,461.092212 L943.238767,461.092212 C930.241952,461.092212 919.720721,471.595672 919.720721,484.570534 L919.720721,829.331165 L765.615625,732.946473 L765.615625,328.872185 L987.180381,184.912997 L987.180381,414.753417 L1033.59758,414.753417 L1033.59758,142.281306 C1033.59758,133.631398 1028.64641,126.21719 1021.21966,121.892236 C1013.79291,117.567282 1004.50947,118.185133 997.701612,123.127937 L729.719659,296.743954 C722.911803,301.068908 719.198428,308.483115 719.198428,315.897322 L719.198428,745.303485 C719.198428,753.335542 723.530699,760.749749 730.338555,765.074704 L920.339616,884.319868 C920.339616,890.430674 920.339616,895.403493 920.339616,899.238323 C993.578751,896.392617 1050.88352,900.13105 1102.29503,899.238323 C1102.29503,895.511211 1102.29503,889.920542 1102.29503,882.466316 L1291.6772,759.514048 C1298.48505,755.189094 1302.19843,747.774887 1302.19843,740.36068 L1302.19843,485.188385 C1301.57953,471.595672 1291.0583,461.092212 1278.06148,461.092212 Z M1255.16233,727.385817 L1101.67613,826.859763 L1101.67613,554.387651 L1055.25894,554.387651 L1055.25894,857.134442 L1010.69843,886.17342 L966.756814,858.987994 L966.756814,508.048857 L1255.16233,508.048857 L1255.16233,727.385817 Z" id="Shape" fill="url(#linearGradient-2)" fill-rule="nonzero" opacity="0.0370861235"></path>
                <path d="M496.698428,785 C497.526855,785 498.198428,785.671573 498.198428,786.5 C498.198428,787.328427 497.526855,788 496.698428,788 C495.87,788 495.198428,787.328427 495.198428,786.5 C495.198428,785.671573 495.87,785 496.698428,785 Z M592.698428,785 C593.526855,785 594.198428,785.671573 594.198428,786.5 C594.198428,787.328427 593.526855,788 592.698428,788 C591.87,788 591.198428,787.328427 591.198428,786.5 C591.198428,785.671573 591.87,785 592.698428,785 Z M528.698428,785 C529.526855,785 530.198428,785.671573 530.198428,786.5 C530.198428,787.328427 529.526855,788 528.698428,788 C527.87,788 527.198428,787.328427 527.198428,786.5 C527.198428,785.671573 527.87,785 528.698428,785 Z M624.698428,785 C625.526855,785 626.198428,785.671573 626.198428,786.5 C626.198428,787.328427 625.526855,788 624.698428,788 C623.87,788 623.198428,787.328427 623.198428,786.5 C623.198428,785.671573 623.87,785 624.698428,785 Z M560.698428,785 C561.526855,785 562.198428,785.671573 562.198428,786.5 C562.198428,787.328427 561.526855,788 560.698428,788 C559.87,788 559.198428,787.328427 559.198428,786.5 C559.198428,785.671573 559.87,785 560.698428,785 Z M656.698428,785 C657.526855,785 658.198428,785.671573 658.198428,786.5 C658.198428,787.328427 657.526855,788 656.698428,788 C655.87,788 655.198428,787.328427 655.198428,786.5 C655.198428,785.671573 655.87,785 656.698428,785 Z M512.698428,785 C513.526855,785 514.198428,785.671573 514.198428,786.5 C514.198428,787.328427 513.526855,788 512.698428,788 C511.87,788 511.198428,787.328427 511.198428,786.5 C511.198428,785.671573 511.87,785 512.698428,785 Z M608.698428,785 C609.526855,785 610.198428,785.671573 610.198428,786.5 C610.198428,787.328427 609.526855,788 608.698428,788 C607.87,788 607.198428,787.328427 607.198428,786.5 C607.198428,785.671573 607.87,785 608.698428,785 Z M544.698428,785 C545.526855,785 546.198428,785.671573 546.198428,786.5 C546.198428,787.328427 545.526855,788 544.698428,788 C543.87,788 543.198428,787.328427 543.198428,786.5 C543.198428,785.671573 543.87,785 544.698428,785 Z M640.698428,785 C641.526855,785 642.198428,785.671573 642.198428,786.5 C642.198428,787.328427 641.526855,788 640.698428,788 C639.87,788 639.198428,787.328427 639.198428,786.5 C639.198428,785.671573 639.87,785 640.698428,785 Z M576.698428,785 C577.526855,785 578.198428,785.671573 578.198428,786.5 C578.198428,787.328427 577.526855,788 576.698428,788 C575.87,788 575.198428,787.328427 575.198428,786.5 C575.198428,785.671573 575.87,785 576.698428,785 Z M672.698428,785 C673.526855,785 674.198428,785.671573 674.198428,786.5 C674.198428,787.328427 673.526855,788 672.698428,788 C671.87,788 671.198428,787.328427 671.198428,786.5 C671.198428,785.671573 671.87,785 672.698428,785 Z M496.698428,817 C497.526855,817 498.198428,817.671573 498.198428,818.5 C498.198428,819.328427 497.526855,820 496.698428,820 C495.87,820 495.198428,819.328427 495.198428,818.5 C495.198428,817.671573 495.87,817 496.698428,817 Z M592.698428,817 C593.526855,817 594.198428,817.671573 594.198428,818.5 C594.198428,819.328427 593.526855,820 592.698428,820 C591.87,820 591.198428,819.328427 591.198428,818.5 C591.198428,817.671573 591.87,817 592.698428,817 Z M528.698428,817 C529.526855,817 530.198428,817.671573 530.198428,818.5 C530.198428,819.328427 529.526855,820 528.698428,820 C527.87,820 527.198428,819.328427 527.198428,818.5 C527.198428,817.671573 527.87,817 528.698428,817 Z M624.698428,817 C625.526855,817 626.198428,817.671573 626.198428,818.5 C626.198428,819.328427 625.526855,820 624.698428,820 C623.87,820 623.198428,819.328427 623.198428,818.5 C623.198428,817.671573 623.87,817 624.698428,817 Z M560.698428,817 C561.526855,817 562.198428,817.671573 562.198428,818.5 C562.198428,819.328427 561.526855,820 560.698428,820 C559.87,820 559.198428,819.328427 559.198428,818.5 C559.198428,817.671573 559.87,817 560.698428,817 Z M656.698428,817 C657.526855,817 658.198428,817.671573 658.198428,818.5 C658.198428,819.328427 657.526855,820 656.698428,820 C655.87,820 655.198428,819.328427 655.198428,818.5 C655.198428,817.671573 655.87,817 656.698428,817 Z M512.698428,817 C513.526855,817 514.198428,817.671573 514.198428,818.5 C514.198428,819.328427 513.526855,820 512.698428,820 C511.87,820 511.198428,819.328427 511.198428,818.5 C511.198428,817.671573 511.87,817 512.698428,817 Z M608.698428,817 C609.526855,817 610.198428,817.671573 610.198428,818.5 C610.198428,819.328427 609.526855,820 608.698428,820 C607.87,820 607.198428,819.328427 607.198428,818.5 C607.198428,817.671573 607.87,817 608.698428,817 Z M544.698428,817 C545.526855,817 546.198428,817.671573 546.198428,818.5 C546.198428,819.328427 545.526855,820 544.698428,820 C543.87,820 543.198428,819.328427 543.198428,818.5 C543.198428,817.671573 543.87,817 544.698428,817 Z M640.698428,817 C641.526855,817 642.198428,817.671573 642.198428,818.5 C642.198428,819.328427 641.526855,820 640.698428,820 C639.87,820 639.198428,819.328427 639.198428,818.5 C639.198428,817.671573 639.87,817 640.698428,817 Z M576.698428,817 C577.526855,817 578.198428,817.671573 578.198428,818.5 C578.198428,819.328427 577.526855,820 576.698428,820 C575.87,820 575.198428,819.328427 575.198428,818.5 C575.198428,817.671573 575.87,817 576.698428,817 Z M672.698428,817 C673.526855,817 674.198428,817.671573 674.198428,818.5 C674.198428,819.328427 673.526855,820 672.698428,820 C671.87,820 671.198428,819.328427 671.198428,818.5 C671.198428,817.671573 671.87,817 672.698428,817 Z M496.698428,801 C497.526855,801 498.198428,801.671573 498.198428,802.5 C498.198428,803.328427 497.526855,804 496.698428,804 C495.87,804 495.198428,803.328427 495.198428,802.5 C495.198428,801.671573 495.87,801 496.698428,801 Z M592.698428,801 C593.526855,801 594.198428,801.671573 594.198428,802.5 C594.198428,803.328427 593.526855,804 592.698428,804 C591.87,804 591.198428,803.328427 591.198428,802.5 C591.198428,801.671573 591.87,801 592.698428,801 Z M528.698428,801 C529.526855,801 530.198428,801.671573 530.198428,802.5 C530.198428,803.328427 529.526855,804 528.698428,804 C527.87,804 527.198428,803.328427 527.198428,802.5 C527.198428,801.671573 527.87,801 528.698428,801 Z M624.698428,801 C625.526855,801 626.198428,801.671573 626.198428,802.5 C626.198428,803.328427 625.526855,804 624.698428,804 C623.87,804 623.198428,803.328427 623.198428,802.5 C623.198428,801.671573 623.87,801 624.698428,801 Z M560.698428,801 C561.526855,801 562.198428,801.671573 562.198428,802.5 C562.198428,803.328427 561.526855,804 560.698428,804 C559.87,804 559.198428,803.328427 559.198428,802.5 C559.198428,801.671573 559.87,801 560.698428,801 Z M656.698428,801 C657.526855,801 658.198428,801.671573 658.198428,802.5 C658.198428,803.328427 657.526855,804 656.698428,804 C655.87,804 655.198428,803.328427 655.198428,802.5 C655.198428,801.671573 655.87,801 656.698428,801 Z M512.698428,801 C513.526855,801 514.198428,801.671573 514.198428,802.5 C514.198428,803.328427 513.526855,804 512.698428,804 C511.87,804 511.198428,803.328427 511.198428,802.5 C511.198428,801.671573 511.87,801 512.698428,801 Z M608.698428,801 C609.526855,801 610.198428,801.671573 610.198428,802.5 C610.198428,803.328427 609.526855,804 608.698428,804 C607.87,804 607.198428,803.328427 607.198428,802.5 C607.198428,801.671573 607.87,801 608.698428,801 Z M544.698428,801 C545.526855,801 546.198428,801.671573 546.198428,802.5 C546.198428,803.328427 545.526855,804 544.698428,804 C543.87,804 543.198428,803.328427 543.198428,802.5 C543.198428,801.671573 543.87,801 544.698428,801 Z M640.698428,801 C641.526855,801 642.198428,801.671573 642.198428,802.5 C642.198428,803.328427 641.526855,804 640.698428,804 C639.87,804 639.198428,803.328427 639.198428,802.5 C639.198428,801.671573 639.87,801 640.698428,801 Z M576.698428,801 C577.526855,801 578.198428,801.671573 578.198428,802.5 C578.198428,803.328427 577.526855,804 576.698428,804 C575.87,804 575.198428,803.328427 575.198428,802.5 C575.198428,801.671573 575.87,801 576.698428,801 Z M672.698428,801 C673.526855,801 674.198428,801.671573 674.198428,802.5 C674.198428,803.328427 673.526855,804 672.698428,804 C671.87,804 671.198428,803.328427 671.198428,802.5 C671.198428,801.671573 671.87,801 672.698428,801 Z M496.698428,834 C497.526855,834 498.198428,834.671573 498.198428,835.5 C498.198428,836.328427 497.526855,837 496.698428,837 C495.87,837 495.198428,836.328427 495.198428,835.5 C495.198428,834.671573 495.87,834 496.698428,834 Z M592.698428,834 C593.526855,834 594.198428,834.671573 594.198428,835.5 C594.198428,836.328427 593.526855,837 592.698428,837 C591.87,837 591.198428,836.328427 591.198428,835.5 C591.198428,834.671573 591.87,834 592.698428,834 Z M528.698428,834 C529.526855,834 530.198428,834.671573 530.198428,835.5 C530.198428,836.328427 529.526855,837 528.698428,837 C527.87,837 527.198428,836.328427 527.198428,835.5 C527.198428,834.671573 527.87,834 528.698428,834 Z M624.698428,834 C625.526855,834 626.198428,834.671573 626.198428,835.5 C626.198428,836.328427 625.526855,837 624.698428,837 C623.87,837 623.198428,836.328427 623.198428,835.5 C623.198428,834.671573 623.87,834 624.698428,834 Z M560.698428,834 C561.526855,834 562.198428,834.671573 562.198428,835.5 C562.198428,836.328427 561.526855,837 560.698428,837 C559.87,837 559.198428,836.328427 559.198428,835.5 C559.198428,834.671573 559.87,834 560.698428,834 Z M656.698428,834 C657.526855,834 658.198428,834.671573 658.198428,835.5 C658.198428,836.328427 657.526855,837 656.698428,837 C655.87,837 655.198428,836.328427 655.198428,835.5 C655.198428,834.671573 655.87,834 656.698428,834 Z M512.698428,834 C513.526855,834 514.198428,834.671573 514.198428,835.5 C514.198428,836.328427 513.526855,837 512.698428,837 C511.87,837 511.198428,836.328427 511.198428,835.5 C511.198428,834.671573 511.87,834 512.698428,834 Z M608.698428,834 C609.526855,834 610.198428,834.671573 610.198428,835.5 C610.198428,836.328427 609.526855,837 608.698428,837 C607.87,837 607.198428,836.328427 607.198428,835.5 C607.198428,834.671573 607.87,834 608.698428,834 Z M544.698428,834 C545.526855,834 546.198428,834.671573 546.198428,835.5 C546.198428,836.328427 545.526855,837 544.698428,837 C543.87,837 543.198428,836.328427 543.198428,835.5 C543.198428,834.671573 543.87,834 544.698428,834 Z M640.698428,834 C641.526855,834 642.198428,834.671573 642.198428,835.5 C642.198428,836.328427 641.526855,837 640.698428,837 C639.87,837 639.198428,836.328427 639.198428,835.5 C639.198428,834.671573 639.87,834 640.698428,834 Z M576.698428,834 C577.526855,834 578.198428,834.671573 578.198428,835.5 C578.198428,836.328427 577.526855,837 576.698428,837 C575.87,837 575.198428,836.328427 575.198428,835.5 C575.198428,834.671573 575.87,834 576.698428,834 Z M672.698428,834 C673.526855,834 674.198428,834.671573 674.198428,835.5 C674.198428,836.328427 673.526855,837 672.698428,837 C671.87,837 671.198428,836.328427 671.198428,835.5 C671.198428,834.671573 671.87,834 672.698428,834 Z M496.698428,866 C497.526855,866 498.198428,866.671573 498.198428,867.5 C498.198428,868.328427 497.526855,869 496.698428,869 C495.87,869 495.198428,868.328427 495.198428,867.5 C495.198428,866.671573 495.87,866 496.698428,866 Z M592.698428,866 C593.526855,866 594.198428,866.671573 594.198428,867.5 C594.198428,868.328427 593.526855,869 592.698428,869 C591.87,869 591.198428,868.328427 591.198428,867.5 C591.198428,866.671573 591.87,866 592.698428,866 Z M528.698428,866 C529.526855,866 530.198428,866.671573 530.198428,867.5 C530.198428,868.328427 529.526855,869 528.698428,869 C527.87,869 527.198428,868.328427 527.198428,867.5 C527.198428,866.671573 527.87,866 528.698428,866 Z M624.698428,866 C625.526855,866 626.198428,866.671573 626.198428,867.5 C626.198428,868.328427 625.526855,869 624.698428,869 C623.87,869 623.198428,868.328427 623.198428,867.5 C623.198428,866.671573 623.87,866 624.698428,866 Z M560.698428,866 C561.526855,866 562.198428,866.671573 562.198428,867.5 C562.198428,868.328427 561.526855,869 560.698428,869 C559.87,869 559.198428,868.328427 559.198428,867.5 C559.198428,866.671573 559.87,866 560.698428,866 Z M656.698428,866 C657.526855,866 658.198428,866.671573 658.198428,867.5 C658.198428,868.328427 657.526855,869 656.698428,869 C655.87,869 655.198428,868.328427 655.198428,867.5 C655.198428,866.671573 655.87,866 656.698428,866 Z M512.698428,866 C513.526855,866 514.198428,866.671573 514.198428,867.5 C514.198428,868.328427 513.526855,869 512.698428,869 C511.87,869 511.198428,868.328427 511.198428,867.5 C511.198428,866.671573 511.87,866 512.698428,866 Z M608.698428,866 C609.526855,866 610.198428,866.671573 610.198428,867.5 C610.198428,868.328427 609.526855,869 608.698428,869 C607.87,869 607.198428,868.328427 607.198428,867.5 C607.198428,866.671573 607.87,866 608.698428,866 Z M544.698428,866 C545.526855,866 546.198428,866.671573 546.198428,867.5 C546.198428,868.328427 545.526855,869 544.698428,869 C543.87,869 543.198428,868.328427 543.198428,867.5 C543.198428,866.671573 543.87,866 544.698428,866 Z M640.698428,866 C641.526855,866 642.198428,866.671573 642.198428,867.5 C642.198428,868.328427 641.526855,869 640.698428,869 C639.87,869 639.198428,868.328427 639.198428,867.5 C639.198428,866.671573 639.87,866 640.698428,866 Z M576.698428,866 C577.526855,866 578.198428,866.671573 578.198428,867.5 C578.198428,868.328427 577.526855,869 576.698428,869 C575.87,869 575.198428,868.328427 575.198428,867.5 C575.198428,866.671573 575.87,866 576.698428,866 Z M672.698428,866 C673.526855,866 674.198428,866.671573 674.198428,867.5 C674.198428,868.328427 673.526855,869 672.698428,869 C671.87,869 671.198428,868.328427 671.198428,867.5 C671.198428,866.671573 671.87,866 672.698428,866 Z M496.698428,850 C497.526855,850 498.198428,850.671573 498.198428,851.5 C498.198428,852.328427 497.526855,853 496.698428,853 C495.87,853 495.198428,852.328427 495.198428,851.5 C495.198428,850.671573 495.87,850 496.698428,850 Z M592.698428,850 C593.526855,850 594.198428,850.671573 594.198428,851.5 C594.198428,852.328427 593.526855,853 592.698428,853 C591.87,853 591.198428,852.328427 591.198428,851.5 C591.198428,850.671573 591.87,850 592.698428,850 Z M528.698428,850 C529.526855,850 530.198428,850.671573 530.198428,851.5 C530.198428,852.328427 529.526855,853 528.698428,853 C527.87,853 527.198428,852.328427 527.198428,851.5 C527.198428,850.671573 527.87,850 528.698428,850 Z M624.698428,850 C625.526855,850 626.198428,850.671573 626.198428,851.5 C626.198428,852.328427 625.526855,853 624.698428,853 C623.87,853 623.198428,852.328427 623.198428,851.5 C623.198428,850.671573 623.87,850 624.698428,850 Z M560.698428,850 C561.526855,850 562.198428,850.671573 562.198428,851.5 C562.198428,852.328427 561.526855,853 560.698428,853 C559.87,853 559.198428,852.328427 559.198428,851.5 C559.198428,850.671573 559.87,850 560.698428,850 Z M656.698428,850 C657.526855,850 658.198428,850.671573 658.198428,851.5 C658.198428,852.328427 657.526855,853 656.698428,853 C655.87,853 655.198428,852.328427 655.198428,851.5 C655.198428,850.671573 655.87,850 656.698428,850 Z M512.698428,850 C513.526855,850 514.198428,850.671573 514.198428,851.5 C514.198428,852.328427 513.526855,853 512.698428,853 C511.87,853 511.198428,852.328427 511.198428,851.5 C511.198428,850.671573 511.87,850 512.698428,850 Z M608.698428,850 C609.526855,850 610.198428,850.671573 610.198428,851.5 C610.198428,852.328427 609.526855,853 608.698428,853 C607.87,853 607.198428,852.328427 607.198428,851.5 C607.198428,850.671573 607.87,850 608.698428,850 Z M544.698428,850 C545.526855,850 546.198428,850.671573 546.198428,851.5 C546.198428,852.328427 545.526855,853 544.698428,853 C543.87,853 543.198428,852.328427 543.198428,851.5 C543.198428,850.671573 543.87,850 544.698428,850 Z M640.698428,850 C641.526855,850 642.198428,850.671573 642.198428,851.5 C642.198428,852.328427 641.526855,853 640.698428,853 C639.87,853 639.198428,852.328427 639.198428,851.5 C639.198428,850.671573 639.87,850 640.698428,850 Z M576.698428,850 C577.526855,850 578.198428,850.671573 578.198428,851.5 C578.198428,852.328427 577.526855,853 576.698428,853 C575.87,853 575.198428,852.328427 575.198428,851.5 C575.198428,850.671573 575.87,850 576.698428,850 Z M672.698428,850 C673.526855,850 674.198428,850.671573 674.198428,851.5 C674.198428,852.328427 673.526855,853 672.698428,853 C671.87,853 671.198428,852.328427 671.198428,851.5 C671.198428,850.671573 671.87,850 672.698428,850 Z" id="Combined-Shape" fill="url(#linearGradient-3)"></path>
                <path d="M619.198428,899.780703 L0,903.030171 C0.1891146,495.419975 0.369591337,240.910139 0.541430209,139.500665 C18.2587202,126.790735 44.8346552,107.725841 80.2692352,82.3059811 C94.9307002,73.4512823 113.79366,50.2243841 128.531714,58.9122229 L586.833791,330.393282 C607.097248,342.340451 619.198428,362.219027 619.198428,383.443607 L619.198428,899.780703 Z" id="Fill-1" fill="url(#linearGradient-4)" opacity="0.167736235"></path>
                <path d="M1028.19843,896.033462 L167.198428,902.249535 L167.198428,674.351324 L489.269235,443.305981 C503.9307,434.451282 522.79366,411.224384 537.531714,419.912223 L995.833791,691.393282 C1016.09725,703.340451 1028.19843,723.219027 1028.19843,744.443607 L1028.19843,896.033462 Z" id="Fill-1-Copy-2" fill="url(#linearGradient-5)" opacity="0.102167039"></path>
                <polygon id="Fill-1-Copy" fill="url(#linearGradient-6)" opacity="0.167736235" points="1921.19843 1.56600185 1921.19843 491.402511 1521.27198 734 1122.19843 479.093103 1122.19843 1.60223208 1795.85924 1.57168529"></polygon>
                <path d="M1332.69843,334 C1333.52685,334 1334.19843,334.671573 1334.19843,335.5 C1334.19843,336.328427 1333.52685,337 1332.69843,337 C1331.87,337 1331.19843,336.328427 1331.19843,335.5 C1331.19843,334.671573 1331.87,334 1332.69843,334 Z M1428.69843,334 C1429.52685,334 1430.19843,334.671573 1430.19843,335.5 C1430.19843,336.328427 1429.52685,337 1428.69843,337 C1427.87,337 1427.19843,336.328427 1427.19843,335.5 C1427.19843,334.671573 1427.87,334 1428.69843,334 Z M1364.69843,334 C1365.52685,334 1366.19843,334.671573 1366.19843,335.5 C1366.19843,336.328427 1365.52685,337 1364.69843,337 C1363.87,337 1363.19843,336.328427 1363.19843,335.5 C1363.19843,334.671573 1363.87,334 1364.69843,334 Z M1460.69843,334 C1461.52685,334 1462.19843,334.671573 1462.19843,335.5 C1462.19843,336.328427 1461.52685,337 1460.69843,337 C1459.87,337 1459.19843,336.328427 1459.19843,335.5 C1459.19843,334.671573 1459.87,334 1460.69843,334 Z M1396.69843,334 C1397.52685,334 1398.19843,334.671573 1398.19843,335.5 C1398.19843,336.328427 1397.52685,337 1396.69843,337 C1395.87,337 1395.19843,336.328427 1395.19843,335.5 C1395.19843,334.671573 1395.87,334 1396.69843,334 Z M1492.69843,334 C1493.52685,334 1494.19843,334.671573 1494.19843,335.5 C1494.19843,336.328427 1493.52685,337 1492.69843,337 C1491.87,337 1491.19843,336.328427 1491.19843,335.5 C1491.19843,334.671573 1491.87,334 1492.69843,334 Z M1348.69843,334 C1349.52685,334 1350.19843,334.671573 1350.19843,335.5 C1350.19843,336.328427 1349.52685,337 1348.69843,337 C1347.87,337 1347.19843,336.328427 1347.19843,335.5 C1347.19843,334.671573 1347.87,334 1348.69843,334 Z M1444.69843,334 C1445.52685,334 1446.19843,334.671573 1446.19843,335.5 C1446.19843,336.328427 1445.52685,337 1444.69843,337 C1443.87,337 1443.19843,336.328427 1443.19843,335.5 C1443.19843,334.671573 1443.87,334 1444.69843,334 Z M1380.69843,334 C1381.52685,334 1382.19843,334.671573 1382.19843,335.5 C1382.19843,336.328427 1381.52685,337 1380.69843,337 C1379.87,337 1379.19843,336.328427 1379.19843,335.5 C1379.19843,334.671573 1379.87,334 1380.69843,334 Z M1476.69843,334 C1477.52685,334 1478.19843,334.671573 1478.19843,335.5 C1478.19843,336.328427 1477.52685,337 1476.69843,337 C1475.87,337 1475.19843,336.328427 1475.19843,335.5 C1475.19843,334.671573 1475.87,334 1476.69843,334 Z M1412.69843,334 C1413.52685,334 1414.19843,334.671573 1414.19843,335.5 C1414.19843,336.328427 1413.52685,337 1412.69843,337 C1411.87,337 1411.19843,336.328427 1411.19843,335.5 C1411.19843,334.671573 1411.87,334 1412.69843,334 Z M1508.69843,334 C1509.52685,334 1510.19843,334.671573 1510.19843,335.5 C1510.19843,336.328427 1509.52685,337 1508.69843,337 C1507.87,337 1507.19843,336.328427 1507.19843,335.5 C1507.19843,334.671573 1507.87,334 1508.69843,334 Z M1332.69843,366 C1333.52685,366 1334.19843,366.671573 1334.19843,367.5 C1334.19843,368.328427 1333.52685,369 1332.69843,369 C1331.87,369 1331.19843,368.328427 1331.19843,367.5 C1331.19843,366.671573 1331.87,366 1332.69843,366 Z M1428.69843,366 C1429.52685,366 1430.19843,366.671573 1430.19843,367.5 C1430.19843,368.328427 1429.52685,369 1428.69843,369 C1427.87,369 1427.19843,368.328427 1427.19843,367.5 C1427.19843,366.671573 1427.87,366 1428.69843,366 Z M1364.69843,366 C1365.52685,366 1366.19843,366.671573 1366.19843,367.5 C1366.19843,368.328427 1365.52685,369 1364.69843,369 C1363.87,369 1363.19843,368.328427 1363.19843,367.5 C1363.19843,366.671573 1363.87,366 1364.69843,366 Z M1460.69843,366 C1461.52685,366 1462.19843,366.671573 1462.19843,367.5 C1462.19843,368.328427 1461.52685,369 1460.69843,369 C1459.87,369 1459.19843,368.328427 1459.19843,367.5 C1459.19843,366.671573 1459.87,366 1460.69843,366 Z M1396.69843,366 C1397.52685,366 1398.19843,366.671573 1398.19843,367.5 C1398.19843,368.328427 1397.52685,369 1396.69843,369 C1395.87,369 1395.19843,368.328427 1395.19843,367.5 C1395.19843,366.671573 1395.87,366 1396.69843,366 Z M1492.69843,366 C1493.52685,366 1494.19843,366.671573 1494.19843,367.5 C1494.19843,368.328427 1493.52685,369 1492.69843,369 C1491.87,369 1491.19843,368.328427 1491.19843,367.5 C1491.19843,366.671573 1491.87,366 1492.69843,366 Z M1348.69843,366 C1349.52685,366 1350.19843,366.671573 1350.19843,367.5 C1350.19843,368.328427 1349.52685,369 1348.69843,369 C1347.87,369 1347.19843,368.328427 1347.19843,367.5 C1347.19843,366.671573 1347.87,366 1348.69843,366 Z M1444.69843,366 C1445.52685,366 1446.19843,366.671573 1446.19843,367.5 C1446.19843,368.328427 1445.52685,369 1444.69843,369 C1443.87,369 1443.19843,368.328427 1443.19843,367.5 C1443.19843,366.671573 1443.87,366 1444.69843,366 Z M1380.69843,366 C1381.52685,366 1382.19843,366.671573 1382.19843,367.5 C1382.19843,368.328427 1381.52685,369 1380.69843,369 C1379.87,369 1379.19843,368.328427 1379.19843,367.5 C1379.19843,366.671573 1379.87,366 1380.69843,366 Z M1476.69843,366 C1477.52685,366 1478.19843,366.671573 1478.19843,367.5 C1478.19843,368.328427 1477.52685,369 1476.69843,369 C1475.87,369 1475.19843,368.328427 1475.19843,367.5 C1475.19843,366.671573 1475.87,366 1476.69843,366 Z M1412.69843,366 C1413.52685,366 1414.19843,366.671573 1414.19843,367.5 C1414.19843,368.328427 1413.52685,369 1412.69843,369 C1411.87,369 1411.19843,368.328427 1411.19843,367.5 C1411.19843,366.671573 1411.87,366 1412.69843,366 Z M1508.69843,366 C1509.52685,366 1510.19843,366.671573 1510.19843,367.5 C1510.19843,368.328427 1509.52685,369 1508.69843,369 C1507.87,369 1507.19843,368.328427 1507.19843,367.5 C1507.19843,366.671573 1507.87,366 1508.69843,366 Z M1332.69843,350 C1333.52685,350 1334.19843,350.671573 1334.19843,351.5 C1334.19843,352.328427 1333.52685,353 1332.69843,353 C1331.87,353 1331.19843,352.328427 1331.19843,351.5 C1331.19843,350.671573 1331.87,350 1332.69843,350 Z M1428.69843,350 C1429.52685,350 1430.19843,350.671573 1430.19843,351.5 C1430.19843,352.328427 1429.52685,353 1428.69843,353 C1427.87,353 1427.19843,352.328427 1427.19843,351.5 C1427.19843,350.671573 1427.87,350 1428.69843,350 Z M1364.69843,350 C1365.52685,350 1366.19843,350.671573 1366.19843,351.5 C1366.19843,352.328427 1365.52685,353 1364.69843,353 C1363.87,353 1363.19843,352.328427 1363.19843,351.5 C1363.19843,350.671573 1363.87,350 1364.69843,350 Z M1460.69843,350 C1461.52685,350 1462.19843,350.671573 1462.19843,351.5 C1462.19843,352.328427 1461.52685,353 1460.69843,353 C1459.87,353 1459.19843,352.328427 1459.19843,351.5 C1459.19843,350.671573 1459.87,350 1460.69843,350 Z M1396.69843,350 C1397.52685,350 1398.19843,350.671573 1398.19843,351.5 C1398.19843,352.328427 1397.52685,353 1396.69843,353 C1395.87,353 1395.19843,352.328427 1395.19843,351.5 C1395.19843,350.671573 1395.87,350 1396.69843,350 Z M1492.69843,350 C1493.52685,350 1494.19843,350.671573 1494.19843,351.5 C1494.19843,352.328427 1493.52685,353 1492.69843,353 C1491.87,353 1491.19843,352.328427 1491.19843,351.5 C1491.19843,350.671573 1491.87,350 1492.69843,350 Z M1348.69843,350 C1349.52685,350 1350.19843,350.671573 1350.19843,351.5 C1350.19843,352.328427 1349.52685,353 1348.69843,353 C1347.87,353 1347.19843,352.328427 1347.19843,351.5 C1347.19843,350.671573 1347.87,350 1348.69843,350 Z M1444.69843,350 C1445.52685,350 1446.19843,350.671573 1446.19843,351.5 C1446.19843,352.328427 1445.52685,353 1444.69843,353 C1443.87,353 1443.19843,352.328427 1443.19843,351.5 C1443.19843,350.671573 1443.87,350 1444.69843,350 Z M1380.69843,350 C1381.52685,350 1382.19843,350.671573 1382.19843,351.5 C1382.19843,352.328427 1381.52685,353 1380.69843,353 C1379.87,353 1379.19843,352.328427 1379.19843,351.5 C1379.19843,350.671573 1379.87,350 1380.69843,350 Z M1476.69843,350 C1477.52685,350 1478.19843,350.671573 1478.19843,351.5 C1478.19843,352.328427 1477.52685,353 1476.69843,353 C1475.87,353 1475.19843,352.328427 1475.19843,351.5 C1475.19843,350.671573 1475.87,350 1476.69843,350 Z M1412.69843,350 C1413.52685,350 1414.19843,350.671573 1414.19843,351.5 C1414.19843,352.328427 1413.52685,353 1412.69843,353 C1411.87,353 1411.19843,352.328427 1411.19843,351.5 C1411.19843,350.671573 1411.87,350 1412.69843,350 Z M1508.69843,350 C1509.52685,350 1510.19843,350.671573 1510.19843,351.5 C1510.19843,352.328427 1509.52685,353 1508.69843,353 C1507.87,353 1507.19843,352.328427 1507.19843,351.5 C1507.19843,350.671573 1507.87,350 1508.69843,350 Z M1332.69843,383 C1333.52685,383 1334.19843,383.671573 1334.19843,384.5 C1334.19843,385.328427 1333.52685,386 1332.69843,386 C1331.87,386 1331.19843,385.328427 1331.19843,384.5 C1331.19843,383.671573 1331.87,383 1332.69843,383 Z M1428.69843,383 C1429.52685,383 1430.19843,383.671573 1430.19843,384.5 C1430.19843,385.328427 1429.52685,386 1428.69843,386 C1427.87,386 1427.19843,385.328427 1427.19843,384.5 C1427.19843,383.671573 1427.87,383 1428.69843,383 Z M1364.69843,383 C1365.52685,383 1366.19843,383.671573 1366.19843,384.5 C1366.19843,385.328427 1365.52685,386 1364.69843,386 C1363.87,386 1363.19843,385.328427 1363.19843,384.5 C1363.19843,383.671573 1363.87,383 1364.69843,383 Z M1460.69843,383 C1461.52685,383 1462.19843,383.671573 1462.19843,384.5 C1462.19843,385.328427 1461.52685,386 1460.69843,386 C1459.87,386 1459.19843,385.328427 1459.19843,384.5 C1459.19843,383.671573 1459.87,383 1460.69843,383 Z M1396.69843,383 C1397.52685,383 1398.19843,383.671573 1398.19843,384.5 C1398.19843,385.328427 1397.52685,386 1396.69843,386 C1395.87,386 1395.19843,385.328427 1395.19843,384.5 C1395.19843,383.671573 1395.87,383 1396.69843,383 Z M1492.69843,383 C1493.52685,383 1494.19843,383.671573 1494.19843,384.5 C1494.19843,385.328427 1493.52685,386 1492.69843,386 C1491.87,386 1491.19843,385.328427 1491.19843,384.5 C1491.19843,383.671573 1491.87,383 1492.69843,383 Z M1348.69843,383 C1349.52685,383 1350.19843,383.671573 1350.19843,384.5 C1350.19843,385.328427 1349.52685,386 1348.69843,386 C1347.87,386 1347.19843,385.328427 1347.19843,384.5 C1347.19843,383.671573 1347.87,383 1348.69843,383 Z M1444.69843,383 C1445.52685,383 1446.19843,383.671573 1446.19843,384.5 C1446.19843,385.328427 1445.52685,386 1444.69843,386 C1443.87,386 1443.19843,385.328427 1443.19843,384.5 C1443.19843,383.671573 1443.87,383 1444.69843,383 Z M1380.69843,383 C1381.52685,383 1382.19843,383.671573 1382.19843,384.5 C1382.19843,385.328427 1381.52685,386 1380.69843,386 C1379.87,386 1379.19843,385.328427 1379.19843,384.5 C1379.19843,383.671573 1379.87,383 1380.69843,383 Z M1476.69843,383 C1477.52685,383 1478.19843,383.671573 1478.19843,384.5 C1478.19843,385.328427 1477.52685,386 1476.69843,386 C1475.87,386 1475.19843,385.328427 1475.19843,384.5 C1475.19843,383.671573 1475.87,383 1476.69843,383 Z M1412.69843,383 C1413.52685,383 1414.19843,383.671573 1414.19843,384.5 C1414.19843,385.328427 1413.52685,386 1412.69843,386 C1411.87,386 1411.19843,385.328427 1411.19843,384.5 C1411.19843,383.671573 1411.87,383 1412.69843,383 Z M1508.69843,383 C1509.52685,383 1510.19843,383.671573 1510.19843,384.5 C1510.19843,385.328427 1509.52685,386 1508.69843,386 C1507.87,386 1507.19843,385.328427 1507.19843,384.5 C1507.19843,383.671573 1507.87,383 1508.69843,383 Z M1332.69843,415 C1333.52685,415 1334.19843,415.671573 1334.19843,416.5 C1334.19843,417.328427 1333.52685,418 1332.69843,418 C1331.87,418 1331.19843,417.328427 1331.19843,416.5 C1331.19843,415.671573 1331.87,415 1332.69843,415 Z M1428.69843,415 C1429.52685,415 1430.19843,415.671573 1430.19843,416.5 C1430.19843,417.328427 1429.52685,418 1428.69843,418 C1427.87,418 1427.19843,417.328427 1427.19843,416.5 C1427.19843,415.671573 1427.87,415 1428.69843,415 Z M1364.69843,415 C1365.52685,415 1366.19843,415.671573 1366.19843,416.5 C1366.19843,417.328427 1365.52685,418 1364.69843,418 C1363.87,418 1363.19843,417.328427 1363.19843,416.5 C1363.19843,415.671573 1363.87,415 1364.69843,415 Z M1460.69843,415 C1461.52685,415 1462.19843,415.671573 1462.19843,416.5 C1462.19843,417.328427 1461.52685,418 1460.69843,418 C1459.87,418 1459.19843,417.328427 1459.19843,416.5 C1459.19843,415.671573 1459.87,415 1460.69843,415 Z M1396.69843,415 C1397.52685,415 1398.19843,415.671573 1398.19843,416.5 C1398.19843,417.328427 1397.52685,418 1396.69843,418 C1395.87,418 1395.19843,417.328427 1395.19843,416.5 C1395.19843,415.671573 1395.87,415 1396.69843,415 Z M1492.69843,415 C1493.52685,415 1494.19843,415.671573 1494.19843,416.5 C1494.19843,417.328427 1493.52685,418 1492.69843,418 C1491.87,418 1491.19843,417.328427 1491.19843,416.5 C1491.19843,415.671573 1491.87,415 1492.69843,415 Z M1348.69843,415 C1349.52685,415 1350.19843,415.671573 1350.19843,416.5 C1350.19843,417.328427 1349.52685,418 1348.69843,418 C1347.87,418 1347.19843,417.328427 1347.19843,416.5 C1347.19843,415.671573 1347.87,415 1348.69843,415 Z M1444.69843,415 C1445.52685,415 1446.19843,415.671573 1446.19843,416.5 C1446.19843,417.328427 1445.52685,418 1444.69843,418 C1443.87,418 1443.19843,417.328427 1443.19843,416.5 C1443.19843,415.671573 1443.87,415 1444.69843,415 Z M1380.69843,415 C1381.52685,415 1382.19843,415.671573 1382.19843,416.5 C1382.19843,417.328427 1381.52685,418 1380.69843,418 C1379.87,418 1379.19843,417.328427 1379.19843,416.5 C1379.19843,415.671573 1379.87,415 1380.69843,415 Z M1476.69843,415 C1477.52685,415 1478.19843,415.671573 1478.19843,416.5 C1478.19843,417.328427 1477.52685,418 1476.69843,418 C1475.87,418 1475.19843,417.328427 1475.19843,416.5 C1475.19843,415.671573 1475.87,415 1476.69843,415 Z M1412.69843,415 C1413.52685,415 1414.19843,415.671573 1414.19843,416.5 C1414.19843,417.328427 1413.52685,418 1412.69843,418 C1411.87,418 1411.19843,417.328427 1411.19843,416.5 C1411.19843,415.671573 1411.87,415 1412.69843,415 Z M1508.69843,415 C1509.52685,415 1510.19843,415.671573 1510.19843,416.5 C1510.19843,417.328427 1509.52685,418 1508.69843,418 C1507.87,418 1507.19843,417.328427 1507.19843,416.5 C1507.19843,415.671573 1507.87,415 1508.69843,415 Z M1332.69843,399 C1333.52685,399 1334.19843,399.671573 1334.19843,400.5 C1334.19843,401.328427 1333.52685,402 1332.69843,402 C1331.87,402 1331.19843,401.328427 1331.19843,400.5 C1331.19843,399.671573 1331.87,399 1332.69843,399 Z M1428.69843,399 C1429.52685,399 1430.19843,399.671573 1430.19843,400.5 C1430.19843,401.328427 1429.52685,402 1428.69843,402 C1427.87,402 1427.19843,401.328427 1427.19843,400.5 C1427.19843,399.671573 1427.87,399 1428.69843,399 Z M1364.69843,399 C1365.52685,399 1366.19843,399.671573 1366.19843,400.5 C1366.19843,401.328427 1365.52685,402 1364.69843,402 C1363.87,402 1363.19843,401.328427 1363.19843,400.5 C1363.19843,399.671573 1363.87,399 1364.69843,399 Z M1460.69843,399 C1461.52685,399 1462.19843,399.671573 1462.19843,400.5 C1462.19843,401.328427 1461.52685,402 1460.69843,402 C1459.87,402 1459.19843,401.328427 1459.19843,400.5 C1459.19843,399.671573 1459.87,399 1460.69843,399 Z M1396.69843,399 C1397.52685,399 1398.19843,399.671573 1398.19843,400.5 C1398.19843,401.328427 1397.52685,402 1396.69843,402 C1395.87,402 1395.19843,401.328427 1395.19843,400.5 C1395.19843,399.671573 1395.87,399 1396.69843,399 Z M1492.69843,399 C1493.52685,399 1494.19843,399.671573 1494.19843,400.5 C1494.19843,401.328427 1493.52685,402 1492.69843,402 C1491.87,402 1491.19843,401.328427 1491.19843,400.5 C1491.19843,399.671573 1491.87,399 1492.69843,399 Z M1348.69843,399 C1349.52685,399 1350.19843,399.671573 1350.19843,400.5 C1350.19843,401.328427 1349.52685,402 1348.69843,402 C1347.87,402 1347.19843,401.328427 1347.19843,400.5 C1347.19843,399.671573 1347.87,399 1348.69843,399 Z M1444.69843,399 C1445.52685,399 1446.19843,399.671573 1446.19843,400.5 C1446.19843,401.328427 1445.52685,402 1444.69843,402 C1443.87,402 1443.19843,401.328427 1443.19843,400.5 C1443.19843,399.671573 1443.87,399 1444.69843,399 Z M1380.69843,399 C1381.52685,399 1382.19843,399.671573 1382.19843,400.5 C1382.19843,401.328427 1381.52685,402 1380.69843,402 C1379.87,402 1379.19843,401.328427 1379.19843,400.5 C1379.19843,399.671573 1379.87,399 1380.69843,399 Z M1476.69843,399 C1477.52685,399 1478.19843,399.671573 1478.19843,400.5 C1478.19843,401.328427 1477.52685,402 1476.69843,402 C1475.87,402 1475.19843,401.328427 1475.19843,400.5 C1475.19843,399.671573 1475.87,399 1476.69843,399 Z M1412.69843,399 C1413.52685,399 1414.19843,399.671573 1414.19843,400.5 C1414.19843,401.328427 1413.52685,402 1412.69843,402 C1411.87,402 1411.19843,401.328427 1411.19843,400.5 C1411.19843,399.671573 1411.87,399 1412.69843,399 Z M1508.69843,399 C1509.52685,399 1510.19843,399.671573 1510.19843,400.5 C1510.19843,401.328427 1509.52685,402 1508.69843,402 C1507.87,402 1507.19843,401.328427 1507.19843,400.5 C1507.19843,399.671573 1507.87,399 1508.69843,399 Z" id="Combined-Shape" fill="url(#linearGradient-7)"></path>
            </g>
        </g>
    </g>
</svg>