<?xml version="1.0" encoding="UTF-8"?>
<svg width="1920px" height="989px" viewBox="0 0 1920 989" version="1.1" xmlns="http://www.w3.org/2000/svg" xmlns:xlink="http://www.w3.org/1999/xlink">
    <!-- Generator: Sketch 56.3 (81716) - https://sketch.com -->
    <title>Group 28</title>
    <desc>Created with Sketch.</desc>
    <defs>
        <linearGradient x1="61.3331196%" y1="-58.6774781%" x2="42.7467037%" y2="77.0314012%" id="linearGradient-1">
            <stop stop-color="#00BDA2" offset="0%"></stop>
            <stop stop-color="#0F0119" offset="100%"></stop>
        </linearGradient>
        <path d="M0,988.533407 L906.636534,827.421334 C907.550051,827.258999 908.488769,827.310736 909.378914,827.572477 L1117.09428,888.64996 C1118.3224,889.011081 1119.63382,888.969949 1120.8369,888.532576 L1920,598 L1920,0 L0,0 L0,988.533407 Z" id="path-2"></path>
        <linearGradient x1="53.9623055%" y1="6.25349223%" x2="36.8349079%" y2="78.6927909%" id="linearGradient-4">
            <stop stop-color="#00BDA2" stop-opacity="0.0354294143" offset="0%"></stop>
            <stop stop-color="#00BDA2" stop-opacity="0.101835664" offset="100%"></stop>
        </linearGradient>
        <linearGradient x1="101.505471%" y1="-25.0845075%" x2="27.615859%" y2="32.1418166%" id="linearGradient-5">
            <stop stop-color="#008A76" offset="0%"></stop>
            <stop stop-color="#00BDA2" stop-opacity="0" offset="100%"></stop>
        </linearGradient>
        <linearGradient x1="98.1974898%" y1="48.2725364%" x2="0%" y2="50%" id="linearGradient-6">
            <stop stop-color="#00A99A" offset="0%"></stop>
            <stop stop-color="#007060" stop-opacity="0" offset="100%"></stop>
        </linearGradient>
        <linearGradient x1="2.51047599%" y1="50%" x2="97.4655206%" y2="50%" id="linearGradient-7">
            <stop stop-color="#00A99A" offset="0%"></stop>
            <stop stop-color="#007060" stop-opacity="0" offset="100%"></stop>
        </linearGradient>
    </defs>
    <g id="05---Layout" stroke="none" stroke-width="1" fill="none" fill-rule="evenodd">
        <g id="style-guide-2019" transform="translate(0.000000, -10501.000000)">
            <g id="Group-28" transform="translate(0.000000, 10501.000000)">
                <g id="Group-10">
                    <g id="Group-5">
                        <g id="ISTOCKPHOTO_874813880_large">
                            <mask id="mask-3" fill="white">
                                <use xlink:href="#path-2"></use>
                            </mask>
                            <use id="Mask" fill="url(#linearGradient-1)" xlink:href="#path-2"></use>
                            <path d="M611,976.167991 L240.605042,1201 L-129,964.760004 L-129,282.365403 L147.808824,83.7535943 C160.409851,76.1418948 176.621918,56.1755271 189.288771,63.6437901 L583.183704,297.015055 C600.599451,307.285112 611,324.373187 611,342.618316 L611,976.167991 Z" id="Fill-1-Copy" fill="url(#linearGradient-4)" mask="url(#mask-3)"></path>
                            <path d="M1221,716.618316 L1221,1350.16799 L850.605042,1575 L481,1338.76 L481,656.365403 L757.808824,457.753594 C770.409851,450.141895 786.621918,430.175527 799.288771,437.64379 L1193.1837,671.015055 C1210.59945,681.285112 1221,698.373187 1221,716.618316" id="Fill-1" fill="url(#linearGradient-5)" opacity="0.167736235" mask="url(#mask-3)"></path>
                        </g>
                        <path d="M1531.5,556 C1532.32843,556 1533,556.671573 1533,557.5 C1533,558.328427 1532.32843,559 1531.5,559 C1530.67157,559 1530,558.328427 1530,557.5 C1530,556.671573 1530.67157,556 1531.5,556 Z M1627.5,556 C1628.32843,556 1629,556.671573 1629,557.5 C1629,558.328427 1628.32843,559 1627.5,559 C1626.67157,559 1626,558.328427 1626,557.5 C1626,556.671573 1626.67157,556 1627.5,556 Z M1563.5,556 C1564.32843,556 1565,556.671573 1565,557.5 C1565,558.328427 1564.32843,559 1563.5,559 C1562.67157,559 1562,558.328427 1562,557.5 C1562,556.671573 1562.67157,556 1563.5,556 Z M1659.5,556 C1660.32843,556 1661,556.671573 1661,557.5 C1661,558.328427 1660.32843,559 1659.5,559 C1658.67157,559 1658,558.328427 1658,557.5 C1658,556.671573 1658.67157,556 1659.5,556 Z M1595.5,556 C1596.32843,556 1597,556.671573 1597,557.5 C1597,558.328427 1596.32843,559 1595.5,559 C1594.67157,559 1594,558.328427 1594,557.5 C1594,556.671573 1594.67157,556 1595.5,556 Z M1691.5,556 C1692.32843,556 1693,556.671573 1693,557.5 C1693,558.328427 1692.32843,559 1691.5,559 C1690.67157,559 1690,558.328427 1690,557.5 C1690,556.671573 1690.67157,556 1691.5,556 Z M1547.5,556 C1548.32843,556 1549,556.671573 1549,557.5 C1549,558.328427 1548.32843,559 1547.5,559 C1546.67157,559 1546,558.328427 1546,557.5 C1546,556.671573 1546.67157,556 1547.5,556 Z M1643.5,556 C1644.32843,556 1645,556.671573 1645,557.5 C1645,558.328427 1644.32843,559 1643.5,559 C1642.67157,559 1642,558.328427 1642,557.5 C1642,556.671573 1642.67157,556 1643.5,556 Z M1579.5,556 C1580.32843,556 1581,556.671573 1581,557.5 C1581,558.328427 1580.32843,559 1579.5,559 C1578.67157,559 1578,558.328427 1578,557.5 C1578,556.671573 1578.67157,556 1579.5,556 Z M1675.5,556 C1676.32843,556 1677,556.671573 1677,557.5 C1677,558.328427 1676.32843,559 1675.5,559 C1674.67157,559 1674,558.328427 1674,557.5 C1674,556.671573 1674.67157,556 1675.5,556 Z M1611.5,556 C1612.32843,556 1613,556.671573 1613,557.5 C1613,558.328427 1612.32843,559 1611.5,559 C1610.67157,559 1610,558.328427 1610,557.5 C1610,556.671573 1610.67157,556 1611.5,556 Z M1707.5,556 C1708.32843,556 1709,556.671573 1709,557.5 C1709,558.328427 1708.32843,559 1707.5,559 C1706.67157,559 1706,558.328427 1706,557.5 C1706,556.671573 1706.67157,556 1707.5,556 Z M1531.5,588 C1532.32843,588 1533,588.671573 1533,589.5 C1533,590.328427 1532.32843,591 1531.5,591 C1530.67157,591 1530,590.328427 1530,589.5 C1530,588.671573 1530.67157,588 1531.5,588 Z M1627.5,588 C1628.32843,588 1629,588.671573 1629,589.5 C1629,590.328427 1628.32843,591 1627.5,591 C1626.67157,591 1626,590.328427 1626,589.5 C1626,588.671573 1626.67157,588 1627.5,588 Z M1563.5,588 C1564.32843,588 1565,588.671573 1565,589.5 C1565,590.328427 1564.32843,591 1563.5,591 C1562.67157,591 1562,590.328427 1562,589.5 C1562,588.671573 1562.67157,588 1563.5,588 Z M1659.5,588 C1660.32843,588 1661,588.671573 1661,589.5 C1661,590.328427 1660.32843,591 1659.5,591 C1658.67157,591 1658,590.328427 1658,589.5 C1658,588.671573 1658.67157,588 1659.5,588 Z M1595.5,588 C1596.32843,588 1597,588.671573 1597,589.5 C1597,590.328427 1596.32843,591 1595.5,591 C1594.67157,591 1594,590.328427 1594,589.5 C1594,588.671573 1594.67157,588 1595.5,588 Z M1691.5,588 C1692.32843,588 1693,588.671573 1693,589.5 C1693,590.328427 1692.32843,591 1691.5,591 C1690.67157,591 1690,590.328427 1690,589.5 C1690,588.671573 1690.67157,588 1691.5,588 Z M1547.5,588 C1548.32843,588 1549,588.671573 1549,589.5 C1549,590.328427 1548.32843,591 1547.5,591 C1546.67157,591 1546,590.328427 1546,589.5 C1546,588.671573 1546.67157,588 1547.5,588 Z M1643.5,588 C1644.32843,588 1645,588.671573 1645,589.5 C1645,590.328427 1644.32843,591 1643.5,591 C1642.67157,591 1642,590.328427 1642,589.5 C1642,588.671573 1642.67157,588 1643.5,588 Z M1579.5,588 C1580.32843,588 1581,588.671573 1581,589.5 C1581,590.328427 1580.32843,591 1579.5,591 C1578.67157,591 1578,590.328427 1578,589.5 C1578,588.671573 1578.67157,588 1579.5,588 Z M1675.5,588 C1676.32843,588 1677,588.671573 1677,589.5 C1677,590.328427 1676.32843,591 1675.5,591 C1674.67157,591 1674,590.328427 1674,589.5 C1674,588.671573 1674.67157,588 1675.5,588 Z M1611.5,588 C1612.32843,588 1613,588.671573 1613,589.5 C1613,590.328427 1612.32843,591 1611.5,591 C1610.67157,591 1610,590.328427 1610,589.5 C1610,588.671573 1610.67157,588 1611.5,588 Z M1707.5,588 C1708.32843,588 1709,588.671573 1709,589.5 C1709,590.328427 1708.32843,591 1707.5,591 C1706.67157,591 1706,590.328427 1706,589.5 C1706,588.671573 1706.67157,588 1707.5,588 Z M1531.5,572 C1532.32843,572 1533,572.671573 1533,573.5 C1533,574.328427 1532.32843,575 1531.5,575 C1530.67157,575 1530,574.328427 1530,573.5 C1530,572.671573 1530.67157,572 1531.5,572 Z M1627.5,572 C1628.32843,572 1629,572.671573 1629,573.5 C1629,574.328427 1628.32843,575 1627.5,575 C1626.67157,575 1626,574.328427 1626,573.5 C1626,572.671573 1626.67157,572 1627.5,572 Z M1563.5,572 C1564.32843,572 1565,572.671573 1565,573.5 C1565,574.328427 1564.32843,575 1563.5,575 C1562.67157,575 1562,574.328427 1562,573.5 C1562,572.671573 1562.67157,572 1563.5,572 Z M1659.5,572 C1660.32843,572 1661,572.671573 1661,573.5 C1661,574.328427 1660.32843,575 1659.5,575 C1658.67157,575 1658,574.328427 1658,573.5 C1658,572.671573 1658.67157,572 1659.5,572 Z M1595.5,572 C1596.32843,572 1597,572.671573 1597,573.5 C1597,574.328427 1596.32843,575 1595.5,575 C1594.67157,575 1594,574.328427 1594,573.5 C1594,572.671573 1594.67157,572 1595.5,572 Z M1691.5,572 C1692.32843,572 1693,572.671573 1693,573.5 C1693,574.328427 1692.32843,575 1691.5,575 C1690.67157,575 1690,574.328427 1690,573.5 C1690,572.671573 1690.67157,572 1691.5,572 Z M1547.5,572 C1548.32843,572 1549,572.671573 1549,573.5 C1549,574.328427 1548.32843,575 1547.5,575 C1546.67157,575 1546,574.328427 1546,573.5 C1546,572.671573 1546.67157,572 1547.5,572 Z M1643.5,572 C1644.32843,572 1645,572.671573 1645,573.5 C1645,574.328427 1644.32843,575 1643.5,575 C1642.67157,575 1642,574.328427 1642,573.5 C1642,572.671573 1642.67157,572 1643.5,572 Z M1579.5,572 C1580.32843,572 1581,572.671573 1581,573.5 C1581,574.328427 1580.32843,575 1579.5,575 C1578.67157,575 1578,574.328427 1578,573.5 C1578,572.671573 1578.67157,572 1579.5,572 Z M1675.5,572 C1676.32843,572 1677,572.671573 1677,573.5 C1677,574.328427 1676.32843,575 1675.5,575 C1674.67157,575 1674,574.328427 1674,573.5 C1674,572.671573 1674.67157,572 1675.5,572 Z M1611.5,572 C1612.32843,572 1613,572.671573 1613,573.5 C1613,574.328427 1612.32843,575 1611.5,575 C1610.67157,575 1610,574.328427 1610,573.5 C1610,572.671573 1610.67157,572 1611.5,572 Z M1707.5,572 C1708.32843,572 1709,572.671573 1709,573.5 C1709,574.328427 1708.32843,575 1707.5,575 C1706.67157,575 1706,574.328427 1706,573.5 C1706,572.671573 1706.67157,572 1707.5,572 Z M1531.5,605 C1532.32843,605 1533,605.671573 1533,606.5 C1533,607.328427 1532.32843,608 1531.5,608 C1530.67157,608 1530,607.328427 1530,606.5 C1530,605.671573 1530.67157,605 1531.5,605 Z M1627.5,605 C1628.32843,605 1629,605.671573 1629,606.5 C1629,607.328427 1628.32843,608 1627.5,608 C1626.67157,608 1626,607.328427 1626,606.5 C1626,605.671573 1626.67157,605 1627.5,605 Z M1563.5,605 C1564.32843,605 1565,605.671573 1565,606.5 C1565,607.328427 1564.32843,608 1563.5,608 C1562.67157,608 1562,607.328427 1562,606.5 C1562,605.671573 1562.67157,605 1563.5,605 Z M1659.5,605 C1660.32843,605 1661,605.671573 1661,606.5 C1661,607.328427 1660.32843,608 1659.5,608 C1658.67157,608 1658,607.328427 1658,606.5 C1658,605.671573 1658.67157,605 1659.5,605 Z M1595.5,605 C1596.32843,605 1597,605.671573 1597,606.5 C1597,607.328427 1596.32843,608 1595.5,608 C1594.67157,608 1594,607.328427 1594,606.5 C1594,605.671573 1594.67157,605 1595.5,605 Z M1691.5,605 C1692.32843,605 1693,605.671573 1693,606.5 C1693,607.328427 1692.32843,608 1691.5,608 C1690.67157,608 1690,607.328427 1690,606.5 C1690,605.671573 1690.67157,605 1691.5,605 Z M1547.5,605 C1548.32843,605 1549,605.671573 1549,606.5 C1549,607.328427 1548.32843,608 1547.5,608 C1546.67157,608 1546,607.328427 1546,606.5 C1546,605.671573 1546.67157,605 1547.5,605 Z M1643.5,605 C1644.32843,605 1645,605.671573 1645,606.5 C1645,607.328427 1644.32843,608 1643.5,608 C1642.67157,608 1642,607.328427 1642,606.5 C1642,605.671573 1642.67157,605 1643.5,605 Z M1579.5,605 C1580.32843,605 1581,605.671573 1581,606.5 C1581,607.328427 1580.32843,608 1579.5,608 C1578.67157,608 1578,607.328427 1578,606.5 C1578,605.671573 1578.67157,605 1579.5,605 Z M1675.5,605 C1676.32843,605 1677,605.671573 1677,606.5 C1677,607.328427 1676.32843,608 1675.5,608 C1674.67157,608 1674,607.328427 1674,606.5 C1674,605.671573 1674.67157,605 1675.5,605 Z M1611.5,605 C1612.32843,605 1613,605.671573 1613,606.5 C1613,607.328427 1612.32843,608 1611.5,608 C1610.67157,608 1610,607.328427 1610,606.5 C1610,605.671573 1610.67157,605 1611.5,605 Z M1707.5,605 C1708.32843,605 1709,605.671573 1709,606.5 C1709,607.328427 1708.32843,608 1707.5,608 C1706.67157,608 1706,607.328427 1706,606.5 C1706,605.671573 1706.67157,605 1707.5,605 Z M1531.5,637 C1532.32843,637 1533,637.671573 1533,638.5 C1533,639.328427 1532.32843,640 1531.5,640 C1530.67157,640 1530,639.328427 1530,638.5 C1530,637.671573 1530.67157,637 1531.5,637 Z M1627.5,637 C1628.32843,637 1629,637.671573 1629,638.5 C1629,639.328427 1628.32843,640 1627.5,640 C1626.67157,640 1626,639.328427 1626,638.5 C1626,637.671573 1626.67157,637 1627.5,637 Z M1563.5,637 C1564.32843,637 1565,637.671573 1565,638.5 C1565,639.328427 1564.32843,640 1563.5,640 C1562.67157,640 1562,639.328427 1562,638.5 C1562,637.671573 1562.67157,637 1563.5,637 Z M1659.5,637 C1660.32843,637 1661,637.671573 1661,638.5 C1661,639.328427 1660.32843,640 1659.5,640 C1658.67157,640 1658,639.328427 1658,638.5 C1658,637.671573 1658.67157,637 1659.5,637 Z M1595.5,637 C1596.32843,637 1597,637.671573 1597,638.5 C1597,639.328427 1596.32843,640 1595.5,640 C1594.67157,640 1594,639.328427 1594,638.5 C1594,637.671573 1594.67157,637 1595.5,637 Z M1691.5,637 C1692.32843,637 1693,637.671573 1693,638.5 C1693,639.328427 1692.32843,640 1691.5,640 C1690.67157,640 1690,639.328427 1690,638.5 C1690,637.671573 1690.67157,637 1691.5,637 Z M1547.5,637 C1548.32843,637 1549,637.671573 1549,638.5 C1549,639.328427 1548.32843,640 1547.5,640 C1546.67157,640 1546,639.328427 1546,638.5 C1546,637.671573 1546.67157,637 1547.5,637 Z M1643.5,637 C1644.32843,637 1645,637.671573 1645,638.5 C1645,639.328427 1644.32843,640 1643.5,640 C1642.67157,640 1642,639.328427 1642,638.5 C1642,637.671573 1642.67157,637 1643.5,637 Z M1579.5,637 C1580.32843,637 1581,637.671573 1581,638.5 C1581,639.328427 1580.32843,640 1579.5,640 C1578.67157,640 1578,639.328427 1578,638.5 C1578,637.671573 1578.67157,637 1579.5,637 Z M1675.5,637 C1676.32843,637 1677,637.671573 1677,638.5 C1677,639.328427 1676.32843,640 1675.5,640 C1674.67157,640 1674,639.328427 1674,638.5 C1674,637.671573 1674.67157,637 1675.5,637 Z M1611.5,637 C1612.32843,637 1613,637.671573 1613,638.5 C1613,639.328427 1612.32843,640 1611.5,640 C1610.67157,640 1610,639.328427 1610,638.5 C1610,637.671573 1610.67157,637 1611.5,637 Z M1707.5,637 C1708.32843,637 1709,637.671573 1709,638.5 C1709,639.328427 1708.32843,640 1707.5,640 C1706.67157,640 1706,639.328427 1706,638.5 C1706,637.671573 1706.67157,637 1707.5,637 Z M1531.5,621 C1532.32843,621 1533,621.671573 1533,622.5 C1533,623.328427 1532.32843,624 1531.5,624 C1530.67157,624 1530,623.328427 1530,622.5 C1530,621.671573 1530.67157,621 1531.5,621 Z M1627.5,621 C1628.32843,621 1629,621.671573 1629,622.5 C1629,623.328427 1628.32843,624 1627.5,624 C1626.67157,624 1626,623.328427 1626,622.5 C1626,621.671573 1626.67157,621 1627.5,621 Z M1563.5,621 C1564.32843,621 1565,621.671573 1565,622.5 C1565,623.328427 1564.32843,624 1563.5,624 C1562.67157,624 1562,623.328427 1562,622.5 C1562,621.671573 1562.67157,621 1563.5,621 Z M1659.5,621 C1660.32843,621 1661,621.671573 1661,622.5 C1661,623.328427 1660.32843,624 1659.5,624 C1658.67157,624 1658,623.328427 1658,622.5 C1658,621.671573 1658.67157,621 1659.5,621 Z M1595.5,621 C1596.32843,621 1597,621.671573 1597,622.5 C1597,623.328427 1596.32843,624 1595.5,624 C1594.67157,624 1594,623.328427 1594,622.5 C1594,621.671573 1594.67157,621 1595.5,621 Z M1691.5,621 C1692.32843,621 1693,621.671573 1693,622.5 C1693,623.328427 1692.32843,624 1691.5,624 C1690.67157,624 1690,623.328427 1690,622.5 C1690,621.671573 1690.67157,621 1691.5,621 Z M1547.5,621 C1548.32843,621 1549,621.671573 1549,622.5 C1549,623.328427 1548.32843,624 1547.5,624 C1546.67157,624 1546,623.328427 1546,622.5 C1546,621.671573 1546.67157,621 1547.5,621 Z M1643.5,621 C1644.32843,621 1645,621.671573 1645,622.5 C1645,623.328427 1644.32843,624 1643.5,624 C1642.67157,624 1642,623.328427 1642,622.5 C1642,621.671573 1642.67157,621 1643.5,621 Z M1579.5,621 C1580.32843,621 1581,621.671573 1581,622.5 C1581,623.328427 1580.32843,624 1579.5,624 C1578.67157,624 1578,623.328427 1578,622.5 C1578,621.671573 1578.67157,621 1579.5,621 Z M1675.5,621 C1676.32843,621 1677,621.671573 1677,622.5 C1677,623.328427 1676.32843,624 1675.5,624 C1674.67157,624 1674,623.328427 1674,622.5 C1674,621.671573 1674.67157,621 1675.5,621 Z M1611.5,621 C1612.32843,621 1613,621.671573 1613,622.5 C1613,623.328427 1612.32843,624 1611.5,624 C1610.67157,624 1610,623.328427 1610,622.5 C1610,621.671573 1610.67157,621 1611.5,621 Z M1707.5,621 C1708.32843,621 1709,621.671573 1709,622.5 C1709,623.328427 1708.32843,624 1707.5,624 C1706.67157,624 1706,623.328427 1706,622.5 C1706,621.671573 1706.67157,621 1707.5,621 Z" id="Combined-Shape" fill="url(#linearGradient-6)"></path>
                    </g>
                    <path d="M1.5,656 C2.32842712,656 3,656.671573 3,657.5 C3,658.328427 2.32842712,659 1.5,659 C0.671572875,659 1.01453063e-16,658.328427 0,657.5 C-1.01453063e-16,656.671573 0.671572875,656 1.5,656 Z M97.5,656 C98.3284271,656 99,656.671573 99,657.5 C99,658.328427 98.3284271,659 97.5,659 C96.6715729,659 96,658.328427 96,657.5 C96,656.671573 96.6715729,656 97.5,656 Z M33.5,656 C34.3284271,656 35,656.671573 35,657.5 C35,658.328427 34.3284271,659 33.5,659 C32.6715729,659 32,658.328427 32,657.5 C32,656.671573 32.6715729,656 33.5,656 Z M129.5,656 C130.328427,656 131,656.671573 131,657.5 C131,658.328427 130.328427,659 129.5,659 C128.671573,659 128,658.328427 128,657.5 C128,656.671573 128.671573,656 129.5,656 Z M65.5,656 C66.3284271,656 67,656.671573 67,657.5 C67,658.328427 66.3284271,659 65.5,659 C64.6715729,659 64,658.328427 64,657.5 C64,656.671573 64.6715729,656 65.5,656 Z M161.5,656 C162.328427,656 163,656.671573 163,657.5 C163,658.328427 162.328427,659 161.5,659 C160.671573,659 160,658.328427 160,657.5 C160,656.671573 160.671573,656 161.5,656 Z M17.5,656 C18.3284271,656 19,656.671573 19,657.5 C19,658.328427 18.3284271,659 17.5,659 C16.6715729,659 16,658.328427 16,657.5 C16,656.671573 16.6715729,656 17.5,656 Z M113.5,656 C114.328427,656 115,656.671573 115,657.5 C115,658.328427 114.328427,659 113.5,659 C112.671573,659 112,658.328427 112,657.5 C112,656.671573 112.671573,656 113.5,656 Z M49.5,656 C50.3284271,656 51,656.671573 51,657.5 C51,658.328427 50.3284271,659 49.5,659 C48.6715729,659 48,658.328427 48,657.5 C48,656.671573 48.6715729,656 49.5,656 Z M145.5,656 C146.328427,656 147,656.671573 147,657.5 C147,658.328427 146.328427,659 145.5,659 C144.671573,659 144,658.328427 144,657.5 C144,656.671573 144.671573,656 145.5,656 Z M81.5,656 C82.3284271,656 83,656.671573 83,657.5 C83,658.328427 82.3284271,659 81.5,659 C80.6715729,659 80,658.328427 80,657.5 C80,656.671573 80.6715729,656 81.5,656 Z M177.5,656 C178.328427,656 179,656.671573 179,657.5 C179,658.328427 178.328427,659 177.5,659 C176.671573,659 176,658.328427 176,657.5 C176,656.671573 176.671573,656 177.5,656 Z M1.5,688 C2.32842712,688 3,688.671573 3,689.5 C3,690.328427 2.32842712,691 1.5,691 C0.671572875,691 1.01453063e-16,690.328427 0,689.5 C-1.01453063e-16,688.671573 0.671572875,688 1.5,688 Z M97.5,688 C98.3284271,688 99,688.671573 99,689.5 C99,690.328427 98.3284271,691 97.5,691 C96.6715729,691 96,690.328427 96,689.5 C96,688.671573 96.6715729,688 97.5,688 Z M33.5,688 C34.3284271,688 35,688.671573 35,689.5 C35,690.328427 34.3284271,691 33.5,691 C32.6715729,691 32,690.328427 32,689.5 C32,688.671573 32.6715729,688 33.5,688 Z M129.5,688 C130.328427,688 131,688.671573 131,689.5 C131,690.328427 130.328427,691 129.5,691 C128.671573,691 128,690.328427 128,689.5 C128,688.671573 128.671573,688 129.5,688 Z M65.5,688 C66.3284271,688 67,688.671573 67,689.5 C67,690.328427 66.3284271,691 65.5,691 C64.6715729,691 64,690.328427 64,689.5 C64,688.671573 64.6715729,688 65.5,688 Z M161.5,688 C162.328427,688 163,688.671573 163,689.5 C163,690.328427 162.328427,691 161.5,691 C160.671573,691 160,690.328427 160,689.5 C160,688.671573 160.671573,688 161.5,688 Z M17.5,688 C18.3284271,688 19,688.671573 19,689.5 C19,690.328427 18.3284271,691 17.5,691 C16.6715729,691 16,690.328427 16,689.5 C16,688.671573 16.6715729,688 17.5,688 Z M113.5,688 C114.328427,688 115,688.671573 115,689.5 C115,690.328427 114.328427,691 113.5,691 C112.671573,691 112,690.328427 112,689.5 C112,688.671573 112.671573,688 113.5,688 Z M49.5,688 C50.3284271,688 51,688.671573 51,689.5 C51,690.328427 50.3284271,691 49.5,691 C48.6715729,691 48,690.328427 48,689.5 C48,688.671573 48.6715729,688 49.5,688 Z M145.5,688 C146.328427,688 147,688.671573 147,689.5 C147,690.328427 146.328427,691 145.5,691 C144.671573,691 144,690.328427 144,689.5 C144,688.671573 144.671573,688 145.5,688 Z M81.5,688 C82.3284271,688 83,688.671573 83,689.5 C83,690.328427 82.3284271,691 81.5,691 C80.6715729,691 80,690.328427 80,689.5 C80,688.671573 80.6715729,688 81.5,688 Z M177.5,688 C178.328427,688 179,688.671573 179,689.5 C179,690.328427 178.328427,691 177.5,691 C176.671573,691 176,690.328427 176,689.5 C176,688.671573 176.671573,688 177.5,688 Z M1.5,672 C2.32842712,672 3,672.671573 3,673.5 C3,674.328427 2.32842712,675 1.5,675 C0.671572875,675 1.01453063e-16,674.328427 0,673.5 C-1.01453063e-16,672.671573 0.671572875,672 1.5,672 Z M97.5,672 C98.3284271,672 99,672.671573 99,673.5 C99,674.328427 98.3284271,675 97.5,675 C96.6715729,675 96,674.328427 96,673.5 C96,672.671573 96.6715729,672 97.5,672 Z M33.5,672 C34.3284271,672 35,672.671573 35,673.5 C35,674.328427 34.3284271,675 33.5,675 C32.6715729,675 32,674.328427 32,673.5 C32,672.671573 32.6715729,672 33.5,672 Z M129.5,672 C130.328427,672 131,672.671573 131,673.5 C131,674.328427 130.328427,675 129.5,675 C128.671573,675 128,674.328427 128,673.5 C128,672.671573 128.671573,672 129.5,672 Z M65.5,672 C66.3284271,672 67,672.671573 67,673.5 C67,674.328427 66.3284271,675 65.5,675 C64.6715729,675 64,674.328427 64,673.5 C64,672.671573 64.6715729,672 65.5,672 Z M161.5,672 C162.328427,672 163,672.671573 163,673.5 C163,674.328427 162.328427,675 161.5,675 C160.671573,675 160,674.328427 160,673.5 C160,672.671573 160.671573,672 161.5,672 Z M17.5,672 C18.3284271,672 19,672.671573 19,673.5 C19,674.328427 18.3284271,675 17.5,675 C16.6715729,675 16,674.328427 16,673.5 C16,672.671573 16.6715729,672 17.5,672 Z M113.5,672 C114.328427,672 115,672.671573 115,673.5 C115,674.328427 114.328427,675 113.5,675 C112.671573,675 112,674.328427 112,673.5 C112,672.671573 112.671573,672 113.5,672 Z M49.5,672 C50.3284271,672 51,672.671573 51,673.5 C51,674.328427 50.3284271,675 49.5,675 C48.6715729,675 48,674.328427 48,673.5 C48,672.671573 48.6715729,672 49.5,672 Z M145.5,672 C146.328427,672 147,672.671573 147,673.5 C147,674.328427 146.328427,675 145.5,675 C144.671573,675 144,674.328427 144,673.5 C144,672.671573 144.671573,672 145.5,672 Z M81.5,672 C82.3284271,672 83,672.671573 83,673.5 C83,674.328427 82.3284271,675 81.5,675 C80.6715729,675 80,674.328427 80,673.5 C80,672.671573 80.6715729,672 81.5,672 Z M177.5,672 C178.328427,672 179,672.671573 179,673.5 C179,674.328427 178.328427,675 177.5,675 C176.671573,675 176,674.328427 176,673.5 C176,672.671573 176.671573,672 177.5,672 Z" id="Combined-Shape" fill="#007060"></path>
                    <path d="M1.5,705 C2.32842712,705 3,705.671573 3,706.5 C3,707.328427 2.32842712,708 1.5,708 C0.671572875,708 1.01453063e-16,707.328427 0,706.5 C-1.01453063e-16,705.671573 0.671572875,705 1.5,705 Z M97.5,705 C98.3284271,705 99,705.671573 99,706.5 C99,707.328427 98.3284271,708 97.5,708 C96.6715729,708 96,707.328427 96,706.5 C96,705.671573 96.6715729,705 97.5,705 Z M33.5,705 C34.3284271,705 35,705.671573 35,706.5 C35,707.328427 34.3284271,708 33.5,708 C32.6715729,708 32,707.328427 32,706.5 C32,705.671573 32.6715729,705 33.5,705 Z M129.5,705 C130.328427,705 131,705.671573 131,706.5 C131,707.328427 130.328427,708 129.5,708 C128.671573,708 128,707.328427 128,706.5 C128,705.671573 128.671573,705 129.5,705 Z M65.5,705 C66.3284271,705 67,705.671573 67,706.5 C67,707.328427 66.3284271,708 65.5,708 C64.6715729,708 64,707.328427 64,706.5 C64,705.671573 64.6715729,705 65.5,705 Z M161.5,705 C162.328427,705 163,705.671573 163,706.5 C163,707.328427 162.328427,708 161.5,708 C160.671573,708 160,707.328427 160,706.5 C160,705.671573 160.671573,705 161.5,705 Z M17.5,705 C18.3284271,705 19,705.671573 19,706.5 C19,707.328427 18.3284271,708 17.5,708 C16.6715729,708 16,707.328427 16,706.5 C16,705.671573 16.6715729,705 17.5,705 Z M113.5,705 C114.328427,705 115,705.671573 115,706.5 C115,707.328427 114.328427,708 113.5,708 C112.671573,708 112,707.328427 112,706.5 C112,705.671573 112.671573,705 113.5,705 Z M49.5,705 C50.3284271,705 51,705.671573 51,706.5 C51,707.328427 50.3284271,708 49.5,708 C48.6715729,708 48,707.328427 48,706.5 C48,705.671573 48.6715729,705 49.5,705 Z M145.5,705 C146.328427,705 147,705.671573 147,706.5 C147,707.328427 146.328427,708 145.5,708 C144.671573,708 144,707.328427 144,706.5 C144,705.671573 144.671573,705 145.5,705 Z M81.5,705 C82.3284271,705 83,705.671573 83,706.5 C83,707.328427 82.3284271,708 81.5,708 C80.6715729,708 80,707.328427 80,706.5 C80,705.671573 80.6715729,705 81.5,705 Z M177.5,705 C178.328427,705 179,705.671573 179,706.5 C179,707.328427 178.328427,708 177.5,708 C176.671573,708 176,707.328427 176,706.5 C176,705.671573 176.671573,705 177.5,705 Z M1.5,737 C2.32842712,737 3,737.671573 3,738.5 C3,739.328427 2.32842712,740 1.5,740 C0.671572875,740 1.01453063e-16,739.328427 0,738.5 C-1.01453063e-16,737.671573 0.671572875,737 1.5,737 Z M97.5,737 C98.3284271,737 99,737.671573 99,738.5 C99,739.328427 98.3284271,740 97.5,740 C96.6715729,740 96,739.328427 96,738.5 C96,737.671573 96.6715729,737 97.5,737 Z M33.5,737 C34.3284271,737 35,737.671573 35,738.5 C35,739.328427 34.3284271,740 33.5,740 C32.6715729,740 32,739.328427 32,738.5 C32,737.671573 32.6715729,737 33.5,737 Z M129.5,737 C130.328427,737 131,737.671573 131,738.5 C131,739.328427 130.328427,740 129.5,740 C128.671573,740 128,739.328427 128,738.5 C128,737.671573 128.671573,737 129.5,737 Z M65.5,737 C66.3284271,737 67,737.671573 67,738.5 C67,739.328427 66.3284271,740 65.5,740 C64.6715729,740 64,739.328427 64,738.5 C64,737.671573 64.6715729,737 65.5,737 Z M161.5,737 C162.328427,737 163,737.671573 163,738.5 C163,739.328427 162.328427,740 161.5,740 C160.671573,740 160,739.328427 160,738.5 C160,737.671573 160.671573,737 161.5,737 Z M17.5,737 C18.3284271,737 19,737.671573 19,738.5 C19,739.328427 18.3284271,740 17.5,740 C16.6715729,740 16,739.328427 16,738.5 C16,737.671573 16.6715729,737 17.5,737 Z M113.5,737 C114.328427,737 115,737.671573 115,738.5 C115,739.328427 114.328427,740 113.5,740 C112.671573,740 112,739.328427 112,738.5 C112,737.671573 112.671573,737 113.5,737 Z M49.5,737 C50.3284271,737 51,737.671573 51,738.5 C51,739.328427 50.3284271,740 49.5,740 C48.6715729,740 48,739.328427 48,738.5 C48,737.671573 48.6715729,737 49.5,737 Z M145.5,737 C146.328427,737 147,737.671573 147,738.5 C147,739.328427 146.328427,740 145.5,740 C144.671573,740 144,739.328427 144,738.5 C144,737.671573 144.671573,737 145.5,737 Z M81.5,737 C82.3284271,737 83,737.671573 83,738.5 C83,739.328427 82.3284271,740 81.5,740 C80.6715729,740 80,739.328427 80,738.5 C80,737.671573 80.6715729,737 81.5,737 Z M177.5,737 C178.328427,737 179,737.671573 179,738.5 C179,739.328427 178.328427,740 177.5,740 C176.671573,740 176,739.328427 176,738.5 C176,737.671573 176.671573,737 177.5,737 Z M1.5,721 C2.32842712,721 3,721.671573 3,722.5 C3,723.328427 2.32842712,724 1.5,724 C0.671572875,724 1.01453063e-16,723.328427 0,722.5 C-1.01453063e-16,721.671573 0.671572875,721 1.5,721 Z M97.5,721 C98.3284271,721 99,721.671573 99,722.5 C99,723.328427 98.3284271,724 97.5,724 C96.6715729,724 96,723.328427 96,722.5 C96,721.671573 96.6715729,721 97.5,721 Z M33.5,721 C34.3284271,721 35,721.671573 35,722.5 C35,723.328427 34.3284271,724 33.5,724 C32.6715729,724 32,723.328427 32,722.5 C32,721.671573 32.6715729,721 33.5,721 Z M129.5,721 C130.328427,721 131,721.671573 131,722.5 C131,723.328427 130.328427,724 129.5,724 C128.671573,724 128,723.328427 128,722.5 C128,721.671573 128.671573,721 129.5,721 Z M65.5,721 C66.3284271,721 67,721.671573 67,722.5 C67,723.328427 66.3284271,724 65.5,724 C64.6715729,724 64,723.328427 64,722.5 C64,721.671573 64.6715729,721 65.5,721 Z M161.5,721 C162.328427,721 163,721.671573 163,722.5 C163,723.328427 162.328427,724 161.5,724 C160.671573,724 160,723.328427 160,722.5 C160,721.671573 160.671573,721 161.5,721 Z M17.5,721 C18.3284271,721 19,721.671573 19,722.5 C19,723.328427 18.3284271,724 17.5,724 C16.6715729,724 16,723.328427 16,722.5 C16,721.671573 16.6715729,721 17.5,721 Z M113.5,721 C114.328427,721 115,721.671573 115,722.5 C115,723.328427 114.328427,724 113.5,724 C112.671573,724 112,723.328427 112,722.5 C112,721.671573 112.671573,721 113.5,721 Z M49.5,721 C50.3284271,721 51,721.671573 51,722.5 C51,723.328427 50.3284271,724 49.5,724 C48.6715729,724 48,723.328427 48,722.5 C48,721.671573 48.6715729,721 49.5,721 Z M145.5,721 C146.328427,721 147,721.671573 147,722.5 C147,723.328427 146.328427,724 145.5,724 C144.671573,724 144,723.328427 144,722.5 C144,721.671573 144.671573,721 145.5,721 Z M81.5,721 C82.3284271,721 83,721.671573 83,722.5 C83,723.328427 82.3284271,724 81.5,724 C80.6715729,724 80,723.328427 80,722.5 C80,721.671573 80.6715729,721 81.5,721 Z M177.5,721 C178.328427,721 179,721.671573 179,722.5 C179,723.328427 178.328427,724 177.5,724 C176.671573,724 176,723.328427 176,722.5 C176,721.671573 176.671573,721 177.5,721 Z" id="Combined-Shape-Copy" fill="#007060"></path>
                </g>
                <path d="M921.5,696 C922.328427,696 923,696.671573 923,697.5 C923,698.328427 922.328427,699 921.5,699 C920.671573,699 920,698.328427 920,697.5 C920,696.671573 920.671573,696 921.5,696 Z M1017.5,696 C1018.32843,696 1019,696.671573 1019,697.5 C1019,698.328427 1018.32843,699 1017.5,699 C1016.67157,699 1016,698.328427 1016,697.5 C1016,696.671573 1016.67157,696 1017.5,696 Z M953.5,696 C954.328427,696 955,696.671573 955,697.5 C955,698.328427 954.328427,699 953.5,699 C952.671573,699 952,698.328427 952,697.5 C952,696.671573 952.671573,696 953.5,696 Z M1049.5,696 C1050.32843,696 1051,696.671573 1051,697.5 C1051,698.328427 1050.32843,699 1049.5,699 C1048.67157,699 1048,698.328427 1048,697.5 C1048,696.671573 1048.67157,696 1049.5,696 Z M985.5,696 C986.328427,696 987,696.671573 987,697.5 C987,698.328427 986.328427,699 985.5,699 C984.671573,699 984,698.328427 984,697.5 C984,696.671573 984.671573,696 985.5,696 Z M1081.5,696 C1082.32843,696 1083,696.671573 1083,697.5 C1083,698.328427 1082.32843,699 1081.5,699 C1080.67157,699 1080,698.328427 1080,697.5 C1080,696.671573 1080.67157,696 1081.5,696 Z M937.5,696 C938.328427,696 939,696.671573 939,697.5 C939,698.328427 938.328427,699 937.5,699 C936.671573,699 936,698.328427 936,697.5 C936,696.671573 936.671573,696 937.5,696 Z M1033.5,696 C1034.32843,696 1035,696.671573 1035,697.5 C1035,698.328427 1034.32843,699 1033.5,699 C1032.67157,699 1032,698.328427 1032,697.5 C1032,696.671573 1032.67157,696 1033.5,696 Z M969.5,696 C970.328427,696 971,696.671573 971,697.5 C971,698.328427 970.328427,699 969.5,699 C968.671573,699 968,698.328427 968,697.5 C968,696.671573 968.671573,696 969.5,696 Z M1065.5,696 C1066.32843,696 1067,696.671573 1067,697.5 C1067,698.328427 1066.32843,699 1065.5,699 C1064.67157,699 1064,698.328427 1064,697.5 C1064,696.671573 1064.67157,696 1065.5,696 Z M1001.5,696 C1002.32843,696 1003,696.671573 1003,697.5 C1003,698.328427 1002.32843,699 1001.5,699 C1000.67157,699 1000,698.328427 1000,697.5 C1000,696.671573 1000.67157,696 1001.5,696 Z M1097.5,696 C1098.32843,696 1099,696.671573 1099,697.5 C1099,698.328427 1098.32843,699 1097.5,699 C1096.67157,699 1096,698.328427 1096,697.5 C1096,696.671573 1096.67157,696 1097.5,696 Z M921.5,728 C922.328427,728 923,728.671573 923,729.5 C923,730.328427 922.328427,731 921.5,731 C920.671573,731 920,730.328427 920,729.5 C920,728.671573 920.671573,728 921.5,728 Z M1017.5,728 C1018.32843,728 1019,728.671573 1019,729.5 C1019,730.328427 1018.32843,731 1017.5,731 C1016.67157,731 1016,730.328427 1016,729.5 C1016,728.671573 1016.67157,728 1017.5,728 Z M953.5,728 C954.328427,728 955,728.671573 955,729.5 C955,730.328427 954.328427,731 953.5,731 C952.671573,731 952,730.328427 952,729.5 C952,728.671573 952.671573,728 953.5,728 Z M1049.5,728 C1050.32843,728 1051,728.671573 1051,729.5 C1051,730.328427 1050.32843,731 1049.5,731 C1048.67157,731 1048,730.328427 1048,729.5 C1048,728.671573 1048.67157,728 1049.5,728 Z M985.5,728 C986.328427,728 987,728.671573 987,729.5 C987,730.328427 986.328427,731 985.5,731 C984.671573,731 984,730.328427 984,729.5 C984,728.671573 984.671573,728 985.5,728 Z M1081.5,728 C1082.32843,728 1083,728.671573 1083,729.5 C1083,730.328427 1082.32843,731 1081.5,731 C1080.67157,731 1080,730.328427 1080,729.5 C1080,728.671573 1080.67157,728 1081.5,728 Z M937.5,728 C938.328427,728 939,728.671573 939,729.5 C939,730.328427 938.328427,731 937.5,731 C936.671573,731 936,730.328427 936,729.5 C936,728.671573 936.671573,728 937.5,728 Z M1033.5,728 C1034.32843,728 1035,728.671573 1035,729.5 C1035,730.328427 1034.32843,731 1033.5,731 C1032.67157,731 1032,730.328427 1032,729.5 C1032,728.671573 1032.67157,728 1033.5,728 Z M969.5,728 C970.328427,728 971,728.671573 971,729.5 C971,730.328427 970.328427,731 969.5,731 C968.671573,731 968,730.328427 968,729.5 C968,728.671573 968.671573,728 969.5,728 Z M1065.5,728 C1066.32843,728 1067,728.671573 1067,729.5 C1067,730.328427 1066.32843,731 1065.5,731 C1064.67157,731 1064,730.328427 1064,729.5 C1064,728.671573 1064.67157,728 1065.5,728 Z M1001.5,728 C1002.32843,728 1003,728.671573 1003,729.5 C1003,730.328427 1002.32843,731 1001.5,731 C1000.67157,731 1000,730.328427 1000,729.5 C1000,728.671573 1000.67157,728 1001.5,728 Z M1097.5,728 C1098.32843,728 1099,728.671573 1099,729.5 C1099,730.328427 1098.32843,731 1097.5,731 C1096.67157,731 1096,730.328427 1096,729.5 C1096,728.671573 1096.67157,728 1097.5,728 Z M921.5,712 C922.328427,712 923,712.671573 923,713.5 C923,714.328427 922.328427,715 921.5,715 C920.671573,715 920,714.328427 920,713.5 C920,712.671573 920.671573,712 921.5,712 Z M1017.5,712 C1018.32843,712 1019,712.671573 1019,713.5 C1019,714.328427 1018.32843,715 1017.5,715 C1016.67157,715 1016,714.328427 1016,713.5 C1016,712.671573 1016.67157,712 1017.5,712 Z M953.5,712 C954.328427,712 955,712.671573 955,713.5 C955,714.328427 954.328427,715 953.5,715 C952.671573,715 952,714.328427 952,713.5 C952,712.671573 952.671573,712 953.5,712 Z M1049.5,712 C1050.32843,712 1051,712.671573 1051,713.5 C1051,714.328427 1050.32843,715 1049.5,715 C1048.67157,715 1048,714.328427 1048,713.5 C1048,712.671573 1048.67157,712 1049.5,712 Z M985.5,712 C986.328427,712 987,712.671573 987,713.5 C987,714.328427 986.328427,715 985.5,715 C984.671573,715 984,714.328427 984,713.5 C984,712.671573 984.671573,712 985.5,712 Z M1081.5,712 C1082.32843,712 1083,712.671573 1083,713.5 C1083,714.328427 1082.32843,715 1081.5,715 C1080.67157,715 1080,714.328427 1080,713.5 C1080,712.671573 1080.67157,712 1081.5,712 Z M937.5,712 C938.328427,712 939,712.671573 939,713.5 C939,714.328427 938.328427,715 937.5,715 C936.671573,715 936,714.328427 936,713.5 C936,712.671573 936.671573,712 937.5,712 Z M1033.5,712 C1034.32843,712 1035,712.671573 1035,713.5 C1035,714.328427 1034.32843,715 1033.5,715 C1032.67157,715 1032,714.328427 1032,713.5 C1032,712.671573 1032.67157,712 1033.5,712 Z M969.5,712 C970.328427,712 971,712.671573 971,713.5 C971,714.328427 970.328427,715 969.5,715 C968.671573,715 968,714.328427 968,713.5 C968,712.671573 968.671573,712 969.5,712 Z M1065.5,712 C1066.32843,712 1067,712.671573 1067,713.5 C1067,714.328427 1066.32843,715 1065.5,715 C1064.67157,715 1064,714.328427 1064,713.5 C1064,712.671573 1064.67157,712 1065.5,712 Z M1001.5,712 C1002.32843,712 1003,712.671573 1003,713.5 C1003,714.328427 1002.32843,715 1001.5,715 C1000.67157,715 1000,714.328427 1000,713.5 C1000,712.671573 1000.67157,712 1001.5,712 Z M1097.5,712 C1098.32843,712 1099,712.671573 1099,713.5 C1099,714.328427 1098.32843,715 1097.5,715 C1096.67157,715 1096,714.328427 1096,713.5 C1096,712.671573 1096.67157,712 1097.5,712 Z M921.5,745 C922.328427,745 923,745.671573 923,746.5 C923,747.328427 922.328427,748 921.5,748 C920.671573,748 920,747.328427 920,746.5 C920,745.671573 920.671573,745 921.5,745 Z M1017.5,745 C1018.32843,745 1019,745.671573 1019,746.5 C1019,747.328427 1018.32843,748 1017.5,748 C1016.67157,748 1016,747.328427 1016,746.5 C1016,745.671573 1016.67157,745 1017.5,745 Z M953.5,745 C954.328427,745 955,745.671573 955,746.5 C955,747.328427 954.328427,748 953.5,748 C952.671573,748 952,747.328427 952,746.5 C952,745.671573 952.671573,745 953.5,745 Z M1049.5,745 C1050.32843,745 1051,745.671573 1051,746.5 C1051,747.328427 1050.32843,748 1049.5,748 C1048.67157,748 1048,747.328427 1048,746.5 C1048,745.671573 1048.67157,745 1049.5,745 Z M985.5,745 C986.328427,745 987,745.671573 987,746.5 C987,747.328427 986.328427,748 985.5,748 C984.671573,748 984,747.328427 984,746.5 C984,745.671573 984.671573,745 985.5,745 Z M1081.5,745 C1082.32843,745 1083,745.671573 1083,746.5 C1083,747.328427 1082.32843,748 1081.5,748 C1080.67157,748 1080,747.328427 1080,746.5 C1080,745.671573 1080.67157,745 1081.5,745 Z M937.5,745 C938.328427,745 939,745.671573 939,746.5 C939,747.328427 938.328427,748 937.5,748 C936.671573,748 936,747.328427 936,746.5 C936,745.671573 936.671573,745 937.5,745 Z M1033.5,745 C1034.32843,745 1035,745.671573 1035,746.5 C1035,747.328427 1034.32843,748 1033.5,748 C1032.67157,748 1032,747.328427 1032,746.5 C1032,745.671573 1032.67157,745 1033.5,745 Z M969.5,745 C970.328427,745 971,745.671573 971,746.5 C971,747.328427 970.328427,748 969.5,748 C968.671573,748 968,747.328427 968,746.5 C968,745.671573 968.671573,745 969.5,745 Z M1065.5,745 C1066.32843,745 1067,745.671573 1067,746.5 C1067,747.328427 1066.32843,748 1065.5,748 C1064.67157,748 1064,747.328427 1064,746.5 C1064,745.671573 1064.67157,745 1065.5,745 Z M1001.5,745 C1002.32843,745 1003,745.671573 1003,746.5 C1003,747.328427 1002.32843,748 1001.5,748 C1000.67157,748 1000,747.328427 1000,746.5 C1000,745.671573 1000.67157,745 1001.5,745 Z M1097.5,745 C1098.32843,745 1099,745.671573 1099,746.5 C1099,747.328427 1098.32843,748 1097.5,748 C1096.67157,748 1096,747.328427 1096,746.5 C1096,745.671573 1096.67157,745 1097.5,745 Z M921.5,777 C922.328427,777 923,777.671573 923,778.5 C923,779.328427 922.328427,780 921.5,780 C920.671573,780 920,779.328427 920,778.5 C920,777.671573 920.671573,777 921.5,777 Z M1017.5,777 C1018.32843,777 1019,777.671573 1019,778.5 C1019,779.328427 1018.32843,780 1017.5,780 C1016.67157,780 1016,779.328427 1016,778.5 C1016,777.671573 1016.67157,777 1017.5,777 Z M953.5,777 C954.328427,777 955,777.671573 955,778.5 C955,779.328427 954.328427,780 953.5,780 C952.671573,780 952,779.328427 952,778.5 C952,777.671573 952.671573,777 953.5,777 Z M1049.5,777 C1050.32843,777 1051,777.671573 1051,778.5 C1051,779.328427 1050.32843,780 1049.5,780 C1048.67157,780 1048,779.328427 1048,778.5 C1048,777.671573 1048.67157,777 1049.5,777 Z M985.5,777 C986.328427,777 987,777.671573 987,778.5 C987,779.328427 986.328427,780 985.5,780 C984.671573,780 984,779.328427 984,778.5 C984,777.671573 984.671573,777 985.5,777 Z M1081.5,777 C1082.32843,777 1083,777.671573 1083,778.5 C1083,779.328427 1082.32843,780 1081.5,780 C1080.67157,780 1080,779.328427 1080,778.5 C1080,777.671573 1080.67157,777 1081.5,777 Z M937.5,777 C938.328427,777 939,777.671573 939,778.5 C939,779.328427 938.328427,780 937.5,780 C936.671573,780 936,779.328427 936,778.5 C936,777.671573 936.671573,777 937.5,777 Z M1033.5,777 C1034.32843,777 1035,777.671573 1035,778.5 C1035,779.328427 1034.32843,780 1033.5,780 C1032.67157,780 1032,779.328427 1032,778.5 C1032,777.671573 1032.67157,777 1033.5,777 Z M969.5,777 C970.328427,777 971,777.671573 971,778.5 C971,779.328427 970.328427,780 969.5,780 C968.671573,780 968,779.328427 968,778.5 C968,777.671573 968.671573,777 969.5,777 Z M1065.5,777 C1066.32843,777 1067,777.671573 1067,778.5 C1067,779.328427 1066.32843,780 1065.5,780 C1064.67157,780 1064,779.328427 1064,778.5 C1064,777.671573 1064.67157,777 1065.5,777 Z M1001.5,777 C1002.32843,777 1003,777.671573 1003,778.5 C1003,779.328427 1002.32843,780 1001.5,780 C1000.67157,780 1000,779.328427 1000,778.5 C1000,777.671573 1000.67157,777 1001.5,777 Z M1097.5,777 C1098.32843,777 1099,777.671573 1099,778.5 C1099,779.328427 1098.32843,780 1097.5,780 C1096.67157,780 1096,779.328427 1096,778.5 C1096,777.671573 1096.67157,777 1097.5,777 Z M921.5,761 C922.328427,761 923,761.671573 923,762.5 C923,763.328427 922.328427,764 921.5,764 C920.671573,764 920,763.328427 920,762.5 C920,761.671573 920.671573,761 921.5,761 Z M1017.5,761 C1018.32843,761 1019,761.671573 1019,762.5 C1019,763.328427 1018.32843,764 1017.5,764 C1016.67157,764 1016,763.328427 1016,762.5 C1016,761.671573 1016.67157,761 1017.5,761 Z M953.5,761 C954.328427,761 955,761.671573 955,762.5 C955,763.328427 954.328427,764 953.5,764 C952.671573,764 952,763.328427 952,762.5 C952,761.671573 952.671573,761 953.5,761 Z M1049.5,761 C1050.32843,761 1051,761.671573 1051,762.5 C1051,763.328427 1050.32843,764 1049.5,764 C1048.67157,764 1048,763.328427 1048,762.5 C1048,761.671573 1048.67157,761 1049.5,761 Z M985.5,761 C986.328427,761 987,761.671573 987,762.5 C987,763.328427 986.328427,764 985.5,764 C984.671573,764 984,763.328427 984,762.5 C984,761.671573 984.671573,761 985.5,761 Z M1081.5,761 C1082.32843,761 1083,761.671573 1083,762.5 C1083,763.328427 1082.32843,764 1081.5,764 C1080.67157,764 1080,763.328427 1080,762.5 C1080,761.671573 1080.67157,761 1081.5,761 Z M937.5,761 C938.328427,761 939,761.671573 939,762.5 C939,763.328427 938.328427,764 937.5,764 C936.671573,764 936,763.328427 936,762.5 C936,761.671573 936.671573,761 937.5,761 Z M1033.5,761 C1034.32843,761 1035,761.671573 1035,762.5 C1035,763.328427 1034.32843,764 1033.5,764 C1032.67157,764 1032,763.328427 1032,762.5 C1032,761.671573 1032.67157,761 1033.5,761 Z M969.5,761 C970.328427,761 971,761.671573 971,762.5 C971,763.328427 970.328427,764 969.5,764 C968.671573,764 968,763.328427 968,762.5 C968,761.671573 968.671573,761 969.5,761 Z M1065.5,761 C1066.32843,761 1067,761.671573 1067,762.5 C1067,763.328427 1066.32843,764 1065.5,764 C1064.67157,764 1064,763.328427 1064,762.5 C1064,761.671573 1064.67157,761 1065.5,761 Z M1001.5,761 C1002.32843,761 1003,761.671573 1003,762.5 C1003,763.328427 1002.32843,764 1001.5,764 C1000.67157,764 1000,763.328427 1000,762.5 C1000,761.671573 1000.67157,761 1001.5,761 Z M1097.5,761 C1098.32843,761 1099,761.671573 1099,762.5 C1099,763.328427 1098.32843,764 1097.5,764 C1096.67157,764 1096,763.328427 1096,762.5 C1096,761.671573 1096.67157,761 1097.5,761 Z" id="Combined-Shape" fill="url(#linearGradient-7)"></path>
            </g>
        </g>
    </g>
</svg>