<svg xmlns="http://www.w3.org/2000/svg" width="1921" height="571" viewBox="0 0 1921 571"><defs><linearGradient id="9inha" x1="1178.21" x2="821.16" y1="-2055.47" y2="867.77" gradientUnits="userSpaceOnUse"><stop offset="0" stop-color="#00bda2"/><stop offset="1" stop-color="#0f0119"/></linearGradient><linearGradient id="9inhc" x1="1930.2" x2="1607.57" y1="-1676.45" y2="1160.69" gradientUnits="userSpaceOnUse"><stop offset="0" stop-color="#00bda2"/><stop offset="1" stop-color="#0f0119"/></linearGradient><linearGradient id="9inhd" x1="579.96" x2="245.57" y1="-1918.91" y2="1021.69" gradientUnits="userSpaceOnUse"><stop offset="0" stop-color="#0f0119"/><stop offset="1" stop-color="#00bda2"/></linearGradient><clipPath id="9inhb"><path d="M0 0h1921v571H0z"/></clipPath></defs><g><g><path fill="url(#9inha)" d="M0 0h1921v571H0z"/></g><g clip-path="url(#9inhb)" opacity=".5"><path fill="url(#9inhc)" d="M1991 343.078v633.55l-370.395 224.832L1251 965.22V282.825l276.809-198.611c12.6-7.612 28.813-27.578 41.48-20.11l393.895 233.371c17.415 10.27 27.816 27.358 27.816 45.603"/></g><g clip-path="url(#9inhb)" opacity=".06" transform="rotate(-180 259 493)"><path fill="url(#9inhd)" d="M629 204.078v633.55L258.605 1062.46-111 826.22V143.825L165.809-54.786c12.6-7.612 28.813-27.578 41.48-20.11l393.895 233.371C618.599 168.745 629 185.833 629 204.078"/></g></g></svg>