<svg xmlns="http://www.w3.org/2000/svg" width="1920" height="1060" viewBox="0 0 1920 1060"><defs><linearGradient id="msrwa" x1="1177.6" x2="820.74" y1="-3815.75" y2="1610.92" gradientUnits="userSpaceOnUse"><stop offset="0" stop-color="#00bda2"/><stop offset="1" stop-color="#0f0119"/></linearGradient><linearGradient id="msrwc" x1="1915.96" x2="1581.57" y1="-1280.83" y2="1659.77" gradientUnits="userSpaceOnUse"><stop offset="0" stop-color="#00bda2"/><stop offset="1" stop-color="#0f0119"/></linearGradient><linearGradient id="msrwd" x1="542.96" x2="208.57" y1="-1310.37" y2="1630.23" gradientUnits="userSpaceOnUse"><stop offset="0" stop-color="#00bda2"/><stop offset="1" stop-color="#0f0119"/></linearGradient><linearGradient id="msrwe" x1="470" x2="283.2" y1="693" y2="693" gradientUnits="userSpaceOnUse"><stop offset="0" stop-color="#00a99a" stop-opacity="0"/><stop offset="1" stop-color="#007060"/></linearGradient><clipPath id="msrwb"><path d="M1920 0H0v1060h1920z"/></clipPath></defs><g><g><path fill="url(#msrwa)" d="M1920 0H0v1060h1920z"/></g><g clip-path="url(#msrwb)" opacity=".17"><path fill="url(#msrwc)" d="M1965 842.158v633.55l-370.395 224.832L1225 1464.3V781.905l276.809-198.611c12.6-7.612 28.813-27.578 41.48-20.11l393.895 233.371c17.415 10.27 27.816 27.358 27.816 45.603"/></g><g clip-path="url(#msrwb)" opacity=".17"><path fill="url(#msrwd)" d="M592 812.618v633.55L221.605 1671-148 1434.76V752.365l276.809-198.611c12.6-7.612 28.813-27.578 41.48-20.11l393.895 233.371C581.599 777.285 592 794.373 592 812.618"/></g><g><path fill="url(#msrwe)" d="M292.5 670a1.5 1.5 0 1 1 0-3 1.5 1.5 0 0 1 0 3zm96 0a1.5 1.5 0 1 1 0-3 1.5 1.5 0 0 1 0 3zm-64 0a1.5 1.5 0 1 1 0-3 1.5 1.5 0 0 1 0 3zm96 0a1.5 1.5 0 1 1 0-3 1.5 1.5 0 0 1 0 3zm-64 0a1.5 1.5 0 1 1 0-3 1.5 1.5 0 0 1 0 3zm96 0a1.5 1.5 0 1 1 0-3 1.5 1.5 0 0 1 0 3zm-144 0a1.5 1.5 0 1 1 0-3 1.5 1.5 0 0 1 0 3zm96 0a1.5 1.5 0 1 1 0-3 1.5 1.5 0 0 1 0 3zm-64 0a1.5 1.5 0 1 1 0-3 1.5 1.5 0 0 1 0 3zm96 0a1.5 1.5 0 1 1 0-3 1.5 1.5 0 0 1 0 3zm-64 0a1.5 1.5 0 1 1 0-3 1.5 1.5 0 0 1 0 3zm96 0a1.5 1.5 0 1 1 0-3 1.5 1.5 0 0 1 0 3zm-176-16a1.5 1.5 0 1 1 0-3 1.5 1.5 0 0 1 0 3zm96 0a1.5 1.5 0 1 1 0-3 1.5 1.5 0 0 1 0 3zm-64 0a1.5 1.5 0 1 1 0-3 1.5 1.5 0 0 1 0 3zm96 0a1.5 1.5 0 1 1 0-3 1.5 1.5 0 0 1 0 3zm-64 0a1.5 1.5 0 1 1 0-3 1.5 1.5 0 0 1 0 3zm96 0a1.5 1.5 0 1 1 0-3 1.5 1.5 0 0 1 0 3zm-144 0a1.5 1.5 0 1 1 0-3 1.5 1.5 0 0 1 0 3zm96 0a1.5 1.5 0 1 1 0-3 1.5 1.5 0 0 1 0 3zm-64 0a1.5 1.5 0 1 1 0-3 1.5 1.5 0 0 1 0 3zm96 0a1.5 1.5 0 1 1 0-3 1.5 1.5 0 0 1 0 3zm-64 0a1.5 1.5 0 1 1 0-3 1.5 1.5 0 0 1 0 3zm96 0a1.5 1.5 0 1 1 0-3 1.5 1.5 0 0 1 0 3zm-176 32a1.5 1.5 0 1 1 0-3 1.5 1.5 0 0 1 0 3zm96 0a1.5 1.5 0 1 1 0-3 1.5 1.5 0 0 1 0 3zm-64 0a1.5 1.5 0 1 1 0-3 1.5 1.5 0 0 1 0 3zm96 0a1.5 1.5 0 1 1 0-3 1.5 1.5 0 0 1 0 3zm-64 0a1.5 1.5 0 1 1 0-3 1.5 1.5 0 0 1 0 3zm96 0a1.5 1.5 0 1 1 0-3 1.5 1.5 0 0 1 0 3zm-144 0a1.5 1.5 0 1 1 0-3 1.5 1.5 0 0 1 0 3zm96 0a1.5 1.5 0 1 1 0-3 1.5 1.5 0 0 1 0 3zm-64 0a1.5 1.5 0 1 1 0-3 1.5 1.5 0 0 1 0 3zm96 0a1.5 1.5 0 1 1 0-3 1.5 1.5 0 0 1 0 3zm-64 0a1.5 1.5 0 1 1 0-3 1.5 1.5 0 0 1 0 3zm96 0a1.5 1.5 0 1 1 0-3 1.5 1.5 0 0 1 0 3zm-176 33a1.5 1.5 0 1 1 0-3 1.5 1.5 0 0 1 0 3zm96 0a1.5 1.5 0 1 1 0-3 1.5 1.5 0 0 1 0 3zm-64 0a1.5 1.5 0 1 1 0-3 1.5 1.5 0 0 1 0 3zm96 0a1.5 1.5 0 1 1 0-3 1.5 1.5 0 0 1 0 3zm-64 0a1.5 1.5 0 1 1 0-3 1.5 1.5 0 0 1 0 3zm96 0a1.5 1.5 0 1 1 0-3 1.5 1.5 0 0 1 0 3zm-144 0a1.5 1.5 0 1 1 0-3 1.5 1.5 0 0 1 0 3zm96 0a1.5 1.5 0 1 1 0-3 1.5 1.5 0 0 1 0 3zm-64 0a1.5 1.5 0 1 1 0-3 1.5 1.5 0 0 1 0 3zm96 0a1.5 1.5 0 1 1 0-3 1.5 1.5 0 0 1 0 3zm-64 0a1.5 1.5 0 1 1 0-3 1.5 1.5 0 0 1 0 3zm96 0a1.5 1.5 0 1 1 0-3 1.5 1.5 0 0 1 0 3zm-176-16a1.5 1.5 0 1 1 0-3 1.5 1.5 0 0 1 0 3zm96 0a1.5 1.5 0 1 1 0-3 1.5 1.5 0 0 1 0 3zm-64 0a1.5 1.5 0 1 1 0-3 1.5 1.5 0 0 1 0 3zm96 0a1.5 1.5 0 1 1 0-3 1.5 1.5 0 0 1 0 3zm-64 0a1.5 1.5 0 1 1 0-3 1.5 1.5 0 0 1 0 3zm96 0a1.5 1.5 0 1 1 0-3 1.5 1.5 0 0 1 0 3zm-144 0a1.5 1.5 0 1 1 0-3 1.5 1.5 0 0 1 0 3zm96 0a1.5 1.5 0 1 1 0-3 1.5 1.5 0 0 1 0 3zm-64 0a1.5 1.5 0 1 1 0-3 1.5 1.5 0 0 1 0 3zm96 0a1.5 1.5 0 1 1 0-3 1.5 1.5 0 0 1 0 3zm-64 0a1.5 1.5 0 1 1 0-3 1.5 1.5 0 0 1 0 3zm96 0a1.5 1.5 0 1 1 0-3 1.5 1.5 0 0 1 0 3zm-176 32a1.5 1.5 0 1 1 0-3 1.5 1.5 0 0 1 0 3zm96 0a1.5 1.5 0 1 1 0-3 1.5 1.5 0 0 1 0 3zm-64 0a1.5 1.5 0 1 1 0-3 1.5 1.5 0 0 1 0 3zm96 0a1.5 1.5 0 1 1 0-3 1.5 1.5 0 0 1 0 3zm-64 0a1.5 1.5 0 1 1 0-3 1.5 1.5 0 0 1 0 3zm96 0a1.5 1.5 0 1 1 0-3 1.5 1.5 0 0 1 0 3zm-144 0a1.5 1.5 0 1 1 0-3 1.5 1.5 0 0 1 0 3zm96 0a1.5 1.5 0 1 1 0-3 1.5 1.5 0 0 1 0 3zm-64 0a1.5 1.5 0 1 1 0-3 1.5 1.5 0 0 1 0 3zm96 0a1.5 1.5 0 1 1 0-3 1.5 1.5 0 0 1 0 3zm-64 0a1.5 1.5 0 1 1 0-3 1.5 1.5 0 0 1 0 3zm96 0a1.5 1.5 0 1 1 0-3 1.5 1.5 0 0 1 0 3z"/></g></g></svg>