<svg xmlns="http://www.w3.org/2000/svg" width="23" height="26" viewBox="0 0 23 26"><defs><linearGradient id="q7c4a" x1="11" x2="11" y1="0" y2="29.72" gradientUnits="userSpaceOnUse"><stop offset="0" stop-color="#c361ff"/><stop offset="1" stop-color="#990dee"/></linearGradient></defs><g><g><g><g><path fill="url(#q7c4a)" d="M20 16v4h-4v-4zm-6 0v1h-1.507l.293-.294a1 1 0 1 0-1.417-1.412l-1.992 2a.997.997 0 0 0 0 1.412l1.992 2a1 1 0 1 0 1.417-1.412L12.493 19H14v1a2 2 0 0 0 2 2h4a2 2 0 0 0 2-2v-4a2 2 0 0 0-2-2h-4a2 2 0 0 0-2 2zM6 2v4H2V2zM0 2v4a2 2 0 0 0 2 2h4a2 2 0 0 0 2-2V5h1.507l-.293.294a1 1 0 1 0 1.417 1.412l1.992-2a.997.997 0 0 0 0-1.412l-1.992-2a1 1 0 1 0-1.417 1.412L9.507 3H8V2a2 2 0 0 0-2-2H2a2 2 0 0 0-2 2z"/></g><g><path fill="#fff" d="M16 0h4a2 2 0 0 1 2 2v4a2 2 0 0 1-2 2h-4a2 2 0 0 1-2-2V2a2 2 0 0 1 2-2zm0 2v4h4V2z"/></g><g transform="rotate(-180 18 9)"><path fill="#fff" d="M19 11.913h-2V6.92h2z"/></g><g transform="rotate(-180 17 10.5)"><path fill="#fff" d="M18.706 11.204a1 1 0 1 1-1.412 1.417l-2-1.993a1 1 0 1 1 1.412-1.416z"/></g><g transform="rotate(-180 19 10.5)"><path fill="#fff" d="M18.706 12.621a1 1 0 1 1-1.412-1.417l2-1.992a1 1 0 1 1 1.412 1.416z"/></g><g><path fill="#fff" d="M2 14h4a2 2 0 0 1 2 2v4a2 2 0 0 1-2 2H2a2 2 0 0 1-2-2v-4a2 2 0 0 1 2-2zm0 2v4h4v-4z"/></g><g><path fill="#fff" d="M5 15.073H3V10.08h2z"/></g><g><path fill="#fff" d="M6.706 11.364a1 1 0 1 1-1.412 1.417l-2-1.993a1 1 0 1 1 1.412-1.416z"/></g><g><path fill="#fff" d="M2.706 12.781a1 1 0 1 1-1.412-1.417l2-1.992a1 1 0 1 1 1.412 1.416z"/></g></g></g></g></svg>