<?xml version="1.0" encoding="UTF-8"?>
<svg width="74px" height="74px" viewBox="0 0 74 74" version="1.1" xmlns="http://www.w3.org/2000/svg" xmlns:xlink="http://www.w3.org/1999/xlink">
    <!-- Generator: Sketch 56.3 (81716) - https://sketch.com -->
    <title>Group 29</title>
    <desc>Created with Sketch.</desc>
    <defs>
        <circle id="path-1" cx="29" cy="29" r="29"></circle>
        <filter x="-22.4%" y="-19.0%" width="144.8%" height="144.8%" filterUnits="objectBoundingBox" id="filter-2">
            <feOffset dx="0" dy="2" in="SourceAlpha" result="shadowOffsetOuter1"></feOffset>
            <feGaussianBlur stdDeviation="4" in="shadowOffsetOuter1" result="shadowBlurOuter1"></feGaussianBlur>
            <feColorMatrix values="0 0 0 0 0   0 0 0 0 0   0 0 0 0 0  0 0 0 0.125901442 0" type="matrix" in="shadowBlurOuter1"></feColorMatrix>
        </filter>
    </defs>
    <g id="05---Layout" stroke="none" stroke-width="1" fill="none" fill-rule="evenodd">
        <g id="lp-insur-icones" transform="translate(-364.000000, -3574.000000)">
            <g id="Group-29" transform="translate(372.000000, 3580.000000)">
                <g id="Oval">
                    <use fill="black" fill-opacity="1" filter="url(#filter-2)" xlink:href="#path-1"></use>
                    <use fill="#FFFFFF" fill-rule="evenodd" xlink:href="#path-1"></use>
                </g>
                <path d="M24.9996644,41 L18.7498742,41 C16.6788758,41 15,39.4010265 15,37.4285926 L15,33.6190915 C15.0548399,32.199651 15.9655188,30.9380696 17.3374216,30.3810155 C20.5486903,29.1751589 24.0411927,28.8133381 27.4495822,29.3334026 C27.8961492,29.4014528 28.2706756,29.6912359 28.432081,30.0935934 C28.5934863,30.495951 28.5172493,30.9497552 28.2320877,31.2840626 C27.946926,31.6183699 27.4961626,31.7823911 27.0495956,31.7143409 C24.0993367,31.2732096 21.0789251,31.5896424 18.2998893,32.6310021 C17.8857335,32.8312065 17.6042269,33.215496 17.5499144,33.6548055 L17.5499144,37.4285926 C17.5499144,38.0860706 18.1095397,38.6190618 18.7998725,38.6190618 L25.0496627,38.6190618 C25.7399955,38.6190618 26.2996208,39.1520529 26.2996208,39.8095309 C26.2996208,40.4670088 25.7399955,41 25.0496627,41 L24.9996644,41 Z" id="Group-path" fill="#007060"></path>
                <path d="M29.9994966,21.4286877 C30.0299207,19.2556732 28.6789375,17.280461 26.579682,16.4287295 C24.4804264,15.576998 22.0488977,16.0175306 20.4246258,17.5438728 C18.8003538,19.0702149 18.3052125,21.379899 19.1712487,23.3904972 C20.0372848,25.4010954 22.0928803,26.7141774 24.3746854,26.7143706 C25.8565428,26.7238744 27.2816677,26.1723232 28.3365317,25.1810585 C29.3913957,24.1897938 29.9895846,22.8400199 29.9994966,21.4286877 L29.9994966,21.4286877 Z" id="Group-path" fill="#007060"></path>
                <path d="M27.4995805,21.4286877 C27.530076,22.6385142 26.7883589,23.7454635 25.6234122,24.2287082 C24.4584655,24.7119528 23.1022796,24.4752583 22.1929496,23.629991 C21.2836195,22.7847237 21.0022315,21.4992123 21.4811806,20.3782989 C21.9601296,19.2573855 23.1040367,18.5242916 24.3746854,18.523943 C25.1935316,18.5144133 25.9828085,18.8151079 26.5688533,19.3598655 C27.1548981,19.9046231 27.4896954,20.6488112 27.4995805,21.4286877 Z" id="Group-path" fill="#FFFFFF"></path>
                <path d="M44,38.1484227 L44,34.0538877 C43.9580093,32.7612196 43.1998998,31.6110486 42.0562061,31.1048475 C38.4873036,29.6317175 34.5126964,29.6317175 30.9437939,31.1048475 C29.8001002,31.6110486 29.0419907,32.7612196 29,34.0538877 L29,39.7691762 C29,40.4421968 29.5242567,40.9877878 30.1709602,40.9877878 C30.8176636,40.9877878 31.3419204,40.4421968 31.3419204,39.7691762 L31.3419204,34.0660738 C31.3853785,33.7807701 31.5542633,33.5329071 31.7985948,33.3958374 C34.8080675,32.1589886 38.1568037,32.1589886 41.1662763,33.3958374 C41.4106079,33.5329071 41.5794927,33.7807701 41.6229508,34.0660738 L41.6229508,38.1606088 C41.6198905,38.2705114 41.5749807,38.3746415 41.4981113,38.4500677 C41.4212419,38.525494 41.3187171,38.5660306 41.2131148,38.5627507 L34.6323185,38.5627507 C33.985615,38.5627507 33.4613583,39.1083417 33.4613583,39.7813623 C33.4613583,40.4543829 33.985615,40.9999739 34.6323185,40.9999739 L41.2482436,40.9999739 C41.9769759,41.0032149 42.6769295,40.7042159 43.1933233,40.1690946 C43.7097171,39.6339733 44.0000067,38.9068172 44,38.1484227 L44,38.1484227 Z" id="Group-path" fill="#00BDA2"></path>
                <path d="M39.9995891,24.0571625 C40.0227746,22.4343509 39.063059,20.9583928 37.5703707,20.3212383 C36.0776823,19.6840838 34.3479507,20.0120505 33.1920985,21.1513829 C32.0362464,22.2907153 31.6834245,24.0155378 32.2990409,25.517229 C32.9146572,27.0189202 34.3766642,27.9997658 35.9996521,27.9999314 C38.1873031,28.0126483 39.9744802,26.2561202 39.9995891,24.0685908 L39.9995891,24.0571625 Z" id="Group-path" fill="#00BDA2"></path>
                <path d="M37.9988817,23.9334035 C38.0260442,24.7477981 37.556367,25.4972359 36.8115939,25.8278925 C36.0668208,26.1585491 35.1959001,26.0042959 34.6100108,25.4379589 C34.0241215,24.8716219 33.8404365,24.0064637 34.1456771,23.2509427 C34.4509176,22.4954217 35.1840383,22.0006356 35.9989182,22.0001828 C36.5222832,21.9930628 37.0270361,22.1941568 37.4021125,22.5592165 C37.7771889,22.9242763 37.991857,23.4233907 37.9988817,23.946736 L37.9988817,23.9334035 Z" id="Group-path" fill="#FFFFFF"></path>
            </g>
        </g>
    </g>
</svg>