<?xml version="1.0" encoding="UTF-8"?>
<svg width="1921px" height="571px" viewBox="0 0 1921 571" version="1.1" xmlns="http://www.w3.org/2000/svg" xmlns:xlink="http://www.w3.org/1999/xlink">
    <!-- Generator: Sketch 56.3 (81716) - https://sketch.com -->
    <title>Group 50</title>
    <desc>Created with Sketch.</desc>
    <defs>
        <linearGradient x1="-12.1479917%" y1="51.1028941%" x2="108.448127%" y2="40.4031941%" id="linearGradient-1">
            <stop stop-color="#007060" stop-opacity="0" offset="0%"></stop>
            <stop stop-color="#00A99A" offset="100%"></stop>
        </linearGradient>
        <linearGradient x1="82.1455798%" y1="-93.8324059%" x2="43.1313402%" y2="117.362737%" id="linearGradient-2">
            <stop stop-color="#00BDA2" offset="0%"></stop>
            <stop stop-color="#0F0119" offset="100%"></stop>
        </linearGradient>
        <linearGradient x1="93.3730301%" y1="-124.502293%" x2="48.1855132%" y2="88.2541083%" id="linearGradient-3">
            <stop stop-color="#0F0119" offset="0%"></stop>
            <stop stop-color="#00BDA2" offset="100%"></stop>
        </linearGradient>
    </defs>
    <g id="05---Layout" stroke="none" stroke-width="1" fill="none" fill-rule="evenodd">
        <g id="Group-50">
            <path d="M967.5,169 C968.328427,169 969,169.671573 969,170.5 C969,171.328427 968.328427,172 967.5,172 C966.671573,172 966,171.328427 966,170.5 C966,169.671573 966.671573,169 967.5,169 Z M1063.5,169 C1064.32843,169 1065,169.671573 1065,170.5 C1065,171.328427 1064.32843,172 1063.5,172 C1062.67157,172 1062,171.328427 1062,170.5 C1062,169.671573 1062.67157,169 1063.5,169 Z M999.5,169 C1000.32843,169 1001,169.671573 1001,170.5 C1001,171.328427 1000.32843,172 999.5,172 C998.671573,172 998,171.328427 998,170.5 C998,169.671573 998.671573,169 999.5,169 Z M1095.5,169 C1096.32843,169 1097,169.671573 1097,170.5 C1097,171.328427 1096.32843,172 1095.5,172 C1094.67157,172 1094,171.328427 1094,170.5 C1094,169.671573 1094.67157,169 1095.5,169 Z M1031.5,169 C1032.32843,169 1033,169.671573 1033,170.5 C1033,171.328427 1032.32843,172 1031.5,172 C1030.67157,172 1030,171.328427 1030,170.5 C1030,169.671573 1030.67157,169 1031.5,169 Z M1127.5,169 C1128.32843,169 1129,169.671573 1129,170.5 C1129,171.328427 1128.32843,172 1127.5,172 C1126.67157,172 1126,171.328427 1126,170.5 C1126,169.671573 1126.67157,169 1127.5,169 Z M983.5,169 C984.328427,169 985,169.671573 985,170.5 C985,171.328427 984.328427,172 983.5,172 C982.671573,172 982,171.328427 982,170.5 C982,169.671573 982.671573,169 983.5,169 Z M1079.5,169 C1080.32843,169 1081,169.671573 1081,170.5 C1081,171.328427 1080.32843,172 1079.5,172 C1078.67157,172 1078,171.328427 1078,170.5 C1078,169.671573 1078.67157,169 1079.5,169 Z M1015.5,169 C1016.32843,169 1017,169.671573 1017,170.5 C1017,171.328427 1016.32843,172 1015.5,172 C1014.67157,172 1014,171.328427 1014,170.5 C1014,169.671573 1014.67157,169 1015.5,169 Z M1111.5,169 C1112.32843,169 1113,169.671573 1113,170.5 C1113,171.328427 1112.32843,172 1111.5,172 C1110.67157,172 1110,171.328427 1110,170.5 C1110,169.671573 1110.67157,169 1111.5,169 Z M1047.5,169 C1048.32843,169 1049,169.671573 1049,170.5 C1049,171.328427 1048.32843,172 1047.5,172 C1046.67157,172 1046,171.328427 1046,170.5 C1046,169.671573 1046.67157,169 1047.5,169 Z M1143.5,169 C1144.32843,169 1145,169.671573 1145,170.5 C1145,171.328427 1144.32843,172 1143.5,172 C1142.67157,172 1142,171.328427 1142,170.5 C1142,169.671573 1142.67157,169 1143.5,169 Z M967.5,201 C968.328427,201 969,201.671573 969,202.5 C969,203.328427 968.328427,204 967.5,204 C966.671573,204 966,203.328427 966,202.5 C966,201.671573 966.671573,201 967.5,201 Z M1063.5,201 C1064.32843,201 1065,201.671573 1065,202.5 C1065,203.328427 1064.32843,204 1063.5,204 C1062.67157,204 1062,203.328427 1062,202.5 C1062,201.671573 1062.67157,201 1063.5,201 Z M999.5,201 C1000.32843,201 1001,201.671573 1001,202.5 C1001,203.328427 1000.32843,204 999.5,204 C998.671573,204 998,203.328427 998,202.5 C998,201.671573 998.671573,201 999.5,201 Z M1095.5,201 C1096.32843,201 1097,201.671573 1097,202.5 C1097,203.328427 1096.32843,204 1095.5,204 C1094.67157,204 1094,203.328427 1094,202.5 C1094,201.671573 1094.67157,201 1095.5,201 Z M1031.5,201 C1032.32843,201 1033,201.671573 1033,202.5 C1033,203.328427 1032.32843,204 1031.5,204 C1030.67157,204 1030,203.328427 1030,202.5 C1030,201.671573 1030.67157,201 1031.5,201 Z M1127.5,201 C1128.32843,201 1129,201.671573 1129,202.5 C1129,203.328427 1128.32843,204 1127.5,204 C1126.67157,204 1126,203.328427 1126,202.5 C1126,201.671573 1126.67157,201 1127.5,201 Z M983.5,201 C984.328427,201 985,201.671573 985,202.5 C985,203.328427 984.328427,204 983.5,204 C982.671573,204 982,203.328427 982,202.5 C982,201.671573 982.671573,201 983.5,201 Z M1079.5,201 C1080.32843,201 1081,201.671573 1081,202.5 C1081,203.328427 1080.32843,204 1079.5,204 C1078.67157,204 1078,203.328427 1078,202.5 C1078,201.671573 1078.67157,201 1079.5,201 Z M1015.5,201 C1016.32843,201 1017,201.671573 1017,202.5 C1017,203.328427 1016.32843,204 1015.5,204 C1014.67157,204 1014,203.328427 1014,202.5 C1014,201.671573 1014.67157,201 1015.5,201 Z M1111.5,201 C1112.32843,201 1113,201.671573 1113,202.5 C1113,203.328427 1112.32843,204 1111.5,204 C1110.67157,204 1110,203.328427 1110,202.5 C1110,201.671573 1110.67157,201 1111.5,201 Z M1047.5,201 C1048.32843,201 1049,201.671573 1049,202.5 C1049,203.328427 1048.32843,204 1047.5,204 C1046.67157,204 1046,203.328427 1046,202.5 C1046,201.671573 1046.67157,201 1047.5,201 Z M1143.5,201 C1144.32843,201 1145,201.671573 1145,202.5 C1145,203.328427 1144.32843,204 1143.5,204 C1142.67157,204 1142,203.328427 1142,202.5 C1142,201.671573 1142.67157,201 1143.5,201 Z M967.5,185 C968.328427,185 969,185.671573 969,186.5 C969,187.328427 968.328427,188 967.5,188 C966.671573,188 966,187.328427 966,186.5 C966,185.671573 966.671573,185 967.5,185 Z M1063.5,185 C1064.32843,185 1065,185.671573 1065,186.5 C1065,187.328427 1064.32843,188 1063.5,188 C1062.67157,188 1062,187.328427 1062,186.5 C1062,185.671573 1062.67157,185 1063.5,185 Z M999.5,185 C1000.32843,185 1001,185.671573 1001,186.5 C1001,187.328427 1000.32843,188 999.5,188 C998.671573,188 998,187.328427 998,186.5 C998,185.671573 998.671573,185 999.5,185 Z M1095.5,185 C1096.32843,185 1097,185.671573 1097,186.5 C1097,187.328427 1096.32843,188 1095.5,188 C1094.67157,188 1094,187.328427 1094,186.5 C1094,185.671573 1094.67157,185 1095.5,185 Z M1031.5,185 C1032.32843,185 1033,185.671573 1033,186.5 C1033,187.328427 1032.32843,188 1031.5,188 C1030.67157,188 1030,187.328427 1030,186.5 C1030,185.671573 1030.67157,185 1031.5,185 Z M1127.5,185 C1128.32843,185 1129,185.671573 1129,186.5 C1129,187.328427 1128.32843,188 1127.5,188 C1126.67157,188 1126,187.328427 1126,186.5 C1126,185.671573 1126.67157,185 1127.5,185 Z M983.5,185 C984.328427,185 985,185.671573 985,186.5 C985,187.328427 984.328427,188 983.5,188 C982.671573,188 982,187.328427 982,186.5 C982,185.671573 982.671573,185 983.5,185 Z M1079.5,185 C1080.32843,185 1081,185.671573 1081,186.5 C1081,187.328427 1080.32843,188 1079.5,188 C1078.67157,188 1078,187.328427 1078,186.5 C1078,185.671573 1078.67157,185 1079.5,185 Z M1015.5,185 C1016.32843,185 1017,185.671573 1017,186.5 C1017,187.328427 1016.32843,188 1015.5,188 C1014.67157,188 1014,187.328427 1014,186.5 C1014,185.671573 1014.67157,185 1015.5,185 Z M1111.5,185 C1112.32843,185 1113,185.671573 1113,186.5 C1113,187.328427 1112.32843,188 1111.5,188 C1110.67157,188 1110,187.328427 1110,186.5 C1110,185.671573 1110.67157,185 1111.5,185 Z M1047.5,185 C1048.32843,185 1049,185.671573 1049,186.5 C1049,187.328427 1048.32843,188 1047.5,188 C1046.67157,188 1046,187.328427 1046,186.5 C1046,185.671573 1046.67157,185 1047.5,185 Z M1143.5,185 C1144.32843,185 1145,185.671573 1145,186.5 C1145,187.328427 1144.32843,188 1143.5,188 C1142.67157,188 1142,187.328427 1142,186.5 C1142,185.671573 1142.67157,185 1143.5,185 Z M967.5,218 C968.328427,218 969,218.671573 969,219.5 C969,220.328427 968.328427,221 967.5,221 C966.671573,221 966,220.328427 966,219.5 C966,218.671573 966.671573,218 967.5,218 Z M1063.5,218 C1064.32843,218 1065,218.671573 1065,219.5 C1065,220.328427 1064.32843,221 1063.5,221 C1062.67157,221 1062,220.328427 1062,219.5 C1062,218.671573 1062.67157,218 1063.5,218 Z M999.5,218 C1000.32843,218 1001,218.671573 1001,219.5 C1001,220.328427 1000.32843,221 999.5,221 C998.671573,221 998,220.328427 998,219.5 C998,218.671573 998.671573,218 999.5,218 Z M1095.5,218 C1096.32843,218 1097,218.671573 1097,219.5 C1097,220.328427 1096.32843,221 1095.5,221 C1094.67157,221 1094,220.328427 1094,219.5 C1094,218.671573 1094.67157,218 1095.5,218 Z M1031.5,218 C1032.32843,218 1033,218.671573 1033,219.5 C1033,220.328427 1032.32843,221 1031.5,221 C1030.67157,221 1030,220.328427 1030,219.5 C1030,218.671573 1030.67157,218 1031.5,218 Z M1127.5,218 C1128.32843,218 1129,218.671573 1129,219.5 C1129,220.328427 1128.32843,221 1127.5,221 C1126.67157,221 1126,220.328427 1126,219.5 C1126,218.671573 1126.67157,218 1127.5,218 Z M983.5,218 C984.328427,218 985,218.671573 985,219.5 C985,220.328427 984.328427,221 983.5,221 C982.671573,221 982,220.328427 982,219.5 C982,218.671573 982.671573,218 983.5,218 Z M1079.5,218 C1080.32843,218 1081,218.671573 1081,219.5 C1081,220.328427 1080.32843,221 1079.5,221 C1078.67157,221 1078,220.328427 1078,219.5 C1078,218.671573 1078.67157,218 1079.5,218 Z M1015.5,218 C1016.32843,218 1017,218.671573 1017,219.5 C1017,220.328427 1016.32843,221 1015.5,221 C1014.67157,221 1014,220.328427 1014,219.5 C1014,218.671573 1014.67157,218 1015.5,218 Z M1111.5,218 C1112.32843,218 1113,218.671573 1113,219.5 C1113,220.328427 1112.32843,221 1111.5,221 C1110.67157,221 1110,220.328427 1110,219.5 C1110,218.671573 1110.67157,218 1111.5,218 Z M1047.5,218 C1048.32843,218 1049,218.671573 1049,219.5 C1049,220.328427 1048.32843,221 1047.5,221 C1046.67157,221 1046,220.328427 1046,219.5 C1046,218.671573 1046.67157,218 1047.5,218 Z M1143.5,218 C1144.32843,218 1145,218.671573 1145,219.5 C1145,220.328427 1144.32843,221 1143.5,221 C1142.67157,221 1142,220.328427 1142,219.5 C1142,218.671573 1142.67157,218 1143.5,218 Z M967.5,250 C968.328427,250 969,250.671573 969,251.5 C969,252.328427 968.328427,253 967.5,253 C966.671573,253 966,252.328427 966,251.5 C966,250.671573 966.671573,250 967.5,250 Z M1063.5,250 C1064.32843,250 1065,250.671573 1065,251.5 C1065,252.328427 1064.32843,253 1063.5,253 C1062.67157,253 1062,252.328427 1062,251.5 C1062,250.671573 1062.67157,250 1063.5,250 Z M999.5,250 C1000.32843,250 1001,250.671573 1001,251.5 C1001,252.328427 1000.32843,253 999.5,253 C998.671573,253 998,252.328427 998,251.5 C998,250.671573 998.671573,250 999.5,250 Z M1095.5,250 C1096.32843,250 1097,250.671573 1097,251.5 C1097,252.328427 1096.32843,253 1095.5,253 C1094.67157,253 1094,252.328427 1094,251.5 C1094,250.671573 1094.67157,250 1095.5,250 Z M1031.5,250 C1032.32843,250 1033,250.671573 1033,251.5 C1033,252.328427 1032.32843,253 1031.5,253 C1030.67157,253 1030,252.328427 1030,251.5 C1030,250.671573 1030.67157,250 1031.5,250 Z M1127.5,250 C1128.32843,250 1129,250.671573 1129,251.5 C1129,252.328427 1128.32843,253 1127.5,253 C1126.67157,253 1126,252.328427 1126,251.5 C1126,250.671573 1126.67157,250 1127.5,250 Z M983.5,250 C984.328427,250 985,250.671573 985,251.5 C985,252.328427 984.328427,253 983.5,253 C982.671573,253 982,252.328427 982,251.5 C982,250.671573 982.671573,250 983.5,250 Z M1079.5,250 C1080.32843,250 1081,250.671573 1081,251.5 C1081,252.328427 1080.32843,253 1079.5,253 C1078.67157,253 1078,252.328427 1078,251.5 C1078,250.671573 1078.67157,250 1079.5,250 Z M1015.5,250 C1016.32843,250 1017,250.671573 1017,251.5 C1017,252.328427 1016.32843,253 1015.5,253 C1014.67157,253 1014,252.328427 1014,251.5 C1014,250.671573 1014.67157,250 1015.5,250 Z M1111.5,250 C1112.32843,250 1113,250.671573 1113,251.5 C1113,252.328427 1112.32843,253 1111.5,253 C1110.67157,253 1110,252.328427 1110,251.5 C1110,250.671573 1110.67157,250 1111.5,250 Z M1047.5,250 C1048.32843,250 1049,250.671573 1049,251.5 C1049,252.328427 1048.32843,253 1047.5,253 C1046.67157,253 1046,252.328427 1046,251.5 C1046,250.671573 1046.67157,250 1047.5,250 Z M1143.5,250 C1144.32843,250 1145,250.671573 1145,251.5 C1145,252.328427 1144.32843,253 1143.5,253 C1142.67157,253 1142,252.328427 1142,251.5 C1142,250.671573 1142.67157,250 1143.5,250 Z M967.5,234 C968.328427,234 969,234.671573 969,235.5 C969,236.328427 968.328427,237 967.5,237 C966.671573,237 966,236.328427 966,235.5 C966,234.671573 966.671573,234 967.5,234 Z M1063.5,234 C1064.32843,234 1065,234.671573 1065,235.5 C1065,236.328427 1064.32843,237 1063.5,237 C1062.67157,237 1062,236.328427 1062,235.5 C1062,234.671573 1062.67157,234 1063.5,234 Z M999.5,234 C1000.32843,234 1001,234.671573 1001,235.5 C1001,236.328427 1000.32843,237 999.5,237 C998.671573,237 998,236.328427 998,235.5 C998,234.671573 998.671573,234 999.5,234 Z M1095.5,234 C1096.32843,234 1097,234.671573 1097,235.5 C1097,236.328427 1096.32843,237 1095.5,237 C1094.67157,237 1094,236.328427 1094,235.5 C1094,234.671573 1094.67157,234 1095.5,234 Z M1031.5,234 C1032.32843,234 1033,234.671573 1033,235.5 C1033,236.328427 1032.32843,237 1031.5,237 C1030.67157,237 1030,236.328427 1030,235.5 C1030,234.671573 1030.67157,234 1031.5,234 Z M1127.5,234 C1128.32843,234 1129,234.671573 1129,235.5 C1129,236.328427 1128.32843,237 1127.5,237 C1126.67157,237 1126,236.328427 1126,235.5 C1126,234.671573 1126.67157,234 1127.5,234 Z M983.5,234 C984.328427,234 985,234.671573 985,235.5 C985,236.328427 984.328427,237 983.5,237 C982.671573,237 982,236.328427 982,235.5 C982,234.671573 982.671573,234 983.5,234 Z M1079.5,234 C1080.32843,234 1081,234.671573 1081,235.5 C1081,236.328427 1080.32843,237 1079.5,237 C1078.67157,237 1078,236.328427 1078,235.5 C1078,234.671573 1078.67157,234 1079.5,234 Z M1015.5,234 C1016.32843,234 1017,234.671573 1017,235.5 C1017,236.328427 1016.32843,237 1015.5,237 C1014.67157,237 1014,236.328427 1014,235.5 C1014,234.671573 1014.67157,234 1015.5,234 Z M1111.5,234 C1112.32843,234 1113,234.671573 1113,235.5 C1113,236.328427 1112.32843,237 1111.5,237 C1110.67157,237 1110,236.328427 1110,235.5 C1110,234.671573 1110.67157,234 1111.5,234 Z M1047.5,234 C1048.32843,234 1049,234.671573 1049,235.5 C1049,236.328427 1048.32843,237 1047.5,237 C1046.67157,237 1046,236.328427 1046,235.5 C1046,234.671573 1046.67157,234 1047.5,234 Z M1143.5,234 C1144.32843,234 1145,234.671573 1145,235.5 C1145,236.328427 1144.32843,237 1143.5,237 C1142.67157,237 1142,236.328427 1142,235.5 C1142,234.671573 1142.67157,234 1143.5,234 Z" id="Combined-Shape" fill="url(#linearGradient-1)"></path>
            <path d="M1391.5,487 C1392.32843,487 1393,487.671573 1393,488.5 C1393,489.328427 1392.32843,490 1391.5,490 C1390.67157,490 1390,489.328427 1390,488.5 C1390,487.671573 1390.67157,487 1391.5,487 Z M1487.5,487 C1488.32843,487 1489,487.671573 1489,488.5 C1489,489.328427 1488.32843,490 1487.5,490 C1486.67157,490 1486,489.328427 1486,488.5 C1486,487.671573 1486.67157,487 1487.5,487 Z M1423.5,487 C1424.32843,487 1425,487.671573 1425,488.5 C1425,489.328427 1424.32843,490 1423.5,490 C1422.67157,490 1422,489.328427 1422,488.5 C1422,487.671573 1422.67157,487 1423.5,487 Z M1519.5,487 C1520.32843,487 1521,487.671573 1521,488.5 C1521,489.328427 1520.32843,490 1519.5,490 C1518.67157,490 1518,489.328427 1518,488.5 C1518,487.671573 1518.67157,487 1519.5,487 Z M1455.5,487 C1456.32843,487 1457,487.671573 1457,488.5 C1457,489.328427 1456.32843,490 1455.5,490 C1454.67157,490 1454,489.328427 1454,488.5 C1454,487.671573 1454.67157,487 1455.5,487 Z M1551.5,487 C1552.32843,487 1553,487.671573 1553,488.5 C1553,489.328427 1552.32843,490 1551.5,490 C1550.67157,490 1550,489.328427 1550,488.5 C1550,487.671573 1550.67157,487 1551.5,487 Z M1407.5,487 C1408.32843,487 1409,487.671573 1409,488.5 C1409,489.328427 1408.32843,490 1407.5,490 C1406.67157,490 1406,489.328427 1406,488.5 C1406,487.671573 1406.67157,487 1407.5,487 Z M1503.5,487 C1504.32843,487 1505,487.671573 1505,488.5 C1505,489.328427 1504.32843,490 1503.5,490 C1502.67157,490 1502,489.328427 1502,488.5 C1502,487.671573 1502.67157,487 1503.5,487 Z M1439.5,487 C1440.32843,487 1441,487.671573 1441,488.5 C1441,489.328427 1440.32843,490 1439.5,490 C1438.67157,490 1438,489.328427 1438,488.5 C1438,487.671573 1438.67157,487 1439.5,487 Z M1535.5,487 C1536.32843,487 1537,487.671573 1537,488.5 C1537,489.328427 1536.32843,490 1535.5,490 C1534.67157,490 1534,489.328427 1534,488.5 C1534,487.671573 1534.67157,487 1535.5,487 Z M1471.5,487 C1472.32843,487 1473,487.671573 1473,488.5 C1473,489.328427 1472.32843,490 1471.5,490 C1470.67157,490 1470,489.328427 1470,488.5 C1470,487.671573 1470.67157,487 1471.5,487 Z M1567.5,487 C1568.32843,487 1569,487.671573 1569,488.5 C1569,489.328427 1568.32843,490 1567.5,490 C1566.67157,490 1566,489.328427 1566,488.5 C1566,487.671573 1566.67157,487 1567.5,487 Z M1391.5,519 C1392.32843,519 1393,519.671573 1393,520.5 C1393,521.328427 1392.32843,522 1391.5,522 C1390.67157,522 1390,521.328427 1390,520.5 C1390,519.671573 1390.67157,519 1391.5,519 Z M1487.5,519 C1488.32843,519 1489,519.671573 1489,520.5 C1489,521.328427 1488.32843,522 1487.5,522 C1486.67157,522 1486,521.328427 1486,520.5 C1486,519.671573 1486.67157,519 1487.5,519 Z M1423.5,519 C1424.32843,519 1425,519.671573 1425,520.5 C1425,521.328427 1424.32843,522 1423.5,522 C1422.67157,522 1422,521.328427 1422,520.5 C1422,519.671573 1422.67157,519 1423.5,519 Z M1519.5,519 C1520.32843,519 1521,519.671573 1521,520.5 C1521,521.328427 1520.32843,522 1519.5,522 C1518.67157,522 1518,521.328427 1518,520.5 C1518,519.671573 1518.67157,519 1519.5,519 Z M1455.5,519 C1456.32843,519 1457,519.671573 1457,520.5 C1457,521.328427 1456.32843,522 1455.5,522 C1454.67157,522 1454,521.328427 1454,520.5 C1454,519.671573 1454.67157,519 1455.5,519 Z M1551.5,519 C1552.32843,519 1553,519.671573 1553,520.5 C1553,521.328427 1552.32843,522 1551.5,522 C1550.67157,522 1550,521.328427 1550,520.5 C1550,519.671573 1550.67157,519 1551.5,519 Z M1407.5,519 C1408.32843,519 1409,519.671573 1409,520.5 C1409,521.328427 1408.32843,522 1407.5,522 C1406.67157,522 1406,521.328427 1406,520.5 C1406,519.671573 1406.67157,519 1407.5,519 Z M1503.5,519 C1504.32843,519 1505,519.671573 1505,520.5 C1505,521.328427 1504.32843,522 1503.5,522 C1502.67157,522 1502,521.328427 1502,520.5 C1502,519.671573 1502.67157,519 1503.5,519 Z M1439.5,519 C1440.32843,519 1441,519.671573 1441,520.5 C1441,521.328427 1440.32843,522 1439.5,522 C1438.67157,522 1438,521.328427 1438,520.5 C1438,519.671573 1438.67157,519 1439.5,519 Z M1535.5,519 C1536.32843,519 1537,519.671573 1537,520.5 C1537,521.328427 1536.32843,522 1535.5,522 C1534.67157,522 1534,521.328427 1534,520.5 C1534,519.671573 1534.67157,519 1535.5,519 Z M1471.5,519 C1472.32843,519 1473,519.671573 1473,520.5 C1473,521.328427 1472.32843,522 1471.5,522 C1470.67157,522 1470,521.328427 1470,520.5 C1470,519.671573 1470.67157,519 1471.5,519 Z M1567.5,519 C1568.32843,519 1569,519.671573 1569,520.5 C1569,521.328427 1568.32843,522 1567.5,522 C1566.67157,522 1566,521.328427 1566,520.5 C1566,519.671573 1566.67157,519 1567.5,519 Z M1391.5,503 C1392.32843,503 1393,503.671573 1393,504.5 C1393,505.328427 1392.32843,506 1391.5,506 C1390.67157,506 1390,505.328427 1390,504.5 C1390,503.671573 1390.67157,503 1391.5,503 Z M1487.5,503 C1488.32843,503 1489,503.671573 1489,504.5 C1489,505.328427 1488.32843,506 1487.5,506 C1486.67157,506 1486,505.328427 1486,504.5 C1486,503.671573 1486.67157,503 1487.5,503 Z M1423.5,503 C1424.32843,503 1425,503.671573 1425,504.5 C1425,505.328427 1424.32843,506 1423.5,506 C1422.67157,506 1422,505.328427 1422,504.5 C1422,503.671573 1422.67157,503 1423.5,503 Z M1519.5,503 C1520.32843,503 1521,503.671573 1521,504.5 C1521,505.328427 1520.32843,506 1519.5,506 C1518.67157,506 1518,505.328427 1518,504.5 C1518,503.671573 1518.67157,503 1519.5,503 Z M1455.5,503 C1456.32843,503 1457,503.671573 1457,504.5 C1457,505.328427 1456.32843,506 1455.5,506 C1454.67157,506 1454,505.328427 1454,504.5 C1454,503.671573 1454.67157,503 1455.5,503 Z M1551.5,503 C1552.32843,503 1553,503.671573 1553,504.5 C1553,505.328427 1552.32843,506 1551.5,506 C1550.67157,506 1550,505.328427 1550,504.5 C1550,503.671573 1550.67157,503 1551.5,503 Z M1407.5,503 C1408.32843,503 1409,503.671573 1409,504.5 C1409,505.328427 1408.32843,506 1407.5,506 C1406.67157,506 1406,505.328427 1406,504.5 C1406,503.671573 1406.67157,503 1407.5,503 Z M1503.5,503 C1504.32843,503 1505,503.671573 1505,504.5 C1505,505.328427 1504.32843,506 1503.5,506 C1502.67157,506 1502,505.328427 1502,504.5 C1502,503.671573 1502.67157,503 1503.5,503 Z M1439.5,503 C1440.32843,503 1441,503.671573 1441,504.5 C1441,505.328427 1440.32843,506 1439.5,506 C1438.67157,506 1438,505.328427 1438,504.5 C1438,503.671573 1438.67157,503 1439.5,503 Z M1535.5,503 C1536.32843,503 1537,503.671573 1537,504.5 C1537,505.328427 1536.32843,506 1535.5,506 C1534.67157,506 1534,505.328427 1534,504.5 C1534,503.671573 1534.67157,503 1535.5,503 Z M1471.5,503 C1472.32843,503 1473,503.671573 1473,504.5 C1473,505.328427 1472.32843,506 1471.5,506 C1470.67157,506 1470,505.328427 1470,504.5 C1470,503.671573 1470.67157,503 1471.5,503 Z M1567.5,503 C1568.32843,503 1569,503.671573 1569,504.5 C1569,505.328427 1568.32843,506 1567.5,506 C1566.67157,506 1566,505.328427 1566,504.5 C1566,503.671573 1566.67157,503 1567.5,503 Z M1391.5,536 C1392.32843,536 1393,536.671573 1393,537.5 C1393,538.328427 1392.32843,539 1391.5,539 C1390.67157,539 1390,538.328427 1390,537.5 C1390,536.671573 1390.67157,536 1391.5,536 Z M1487.5,536 C1488.32843,536 1489,536.671573 1489,537.5 C1489,538.328427 1488.32843,539 1487.5,539 C1486.67157,539 1486,538.328427 1486,537.5 C1486,536.671573 1486.67157,536 1487.5,536 Z M1423.5,536 C1424.32843,536 1425,536.671573 1425,537.5 C1425,538.328427 1424.32843,539 1423.5,539 C1422.67157,539 1422,538.328427 1422,537.5 C1422,536.671573 1422.67157,536 1423.5,536 Z M1519.5,536 C1520.32843,536 1521,536.671573 1521,537.5 C1521,538.328427 1520.32843,539 1519.5,539 C1518.67157,539 1518,538.328427 1518,537.5 C1518,536.671573 1518.67157,536 1519.5,536 Z M1455.5,536 C1456.32843,536 1457,536.671573 1457,537.5 C1457,538.328427 1456.32843,539 1455.5,539 C1454.67157,539 1454,538.328427 1454,537.5 C1454,536.671573 1454.67157,536 1455.5,536 Z M1551.5,536 C1552.32843,536 1553,536.671573 1553,537.5 C1553,538.328427 1552.32843,539 1551.5,539 C1550.67157,539 1550,538.328427 1550,537.5 C1550,536.671573 1550.67157,536 1551.5,536 Z M1407.5,536 C1408.32843,536 1409,536.671573 1409,537.5 C1409,538.328427 1408.32843,539 1407.5,539 C1406.67157,539 1406,538.328427 1406,537.5 C1406,536.671573 1406.67157,536 1407.5,536 Z M1503.5,536 C1504.32843,536 1505,536.671573 1505,537.5 C1505,538.328427 1504.32843,539 1503.5,539 C1502.67157,539 1502,538.328427 1502,537.5 C1502,536.671573 1502.67157,536 1503.5,536 Z M1439.5,536 C1440.32843,536 1441,536.671573 1441,537.5 C1441,538.328427 1440.32843,539 1439.5,539 C1438.67157,539 1438,538.328427 1438,537.5 C1438,536.671573 1438.67157,536 1439.5,536 Z M1535.5,536 C1536.32843,536 1537,536.671573 1537,537.5 C1537,538.328427 1536.32843,539 1535.5,539 C1534.67157,539 1534,538.328427 1534,537.5 C1534,536.671573 1534.67157,536 1535.5,536 Z M1471.5,536 C1472.32843,536 1473,536.671573 1473,537.5 C1473,538.328427 1472.32843,539 1471.5,539 C1470.67157,539 1470,538.328427 1470,537.5 C1470,536.671573 1470.67157,536 1471.5,536 Z M1567.5,536 C1568.32843,536 1569,536.671573 1569,537.5 C1569,538.328427 1568.32843,539 1567.5,539 C1566.67157,539 1566,538.328427 1566,537.5 C1566,536.671573 1566.67157,536 1567.5,536 Z M1391.5,568 C1392.32843,568 1393,568.671573 1393,569.5 C1393,570.328427 1392.32843,571 1391.5,571 C1390.67157,571 1390,570.328427 1390,569.5 C1390,568.671573 1390.67157,568 1391.5,568 Z M1487.5,568 C1488.32843,568 1489,568.671573 1489,569.5 C1489,570.328427 1488.32843,571 1487.5,571 C1486.67157,571 1486,570.328427 1486,569.5 C1486,568.671573 1486.67157,568 1487.5,568 Z M1423.5,568 C1424.32843,568 1425,568.671573 1425,569.5 C1425,570.328427 1424.32843,571 1423.5,571 C1422.67157,571 1422,570.328427 1422,569.5 C1422,568.671573 1422.67157,568 1423.5,568 Z M1519.5,568 C1520.32843,568 1521,568.671573 1521,569.5 C1521,570.328427 1520.32843,571 1519.5,571 C1518.67157,571 1518,570.328427 1518,569.5 C1518,568.671573 1518.67157,568 1519.5,568 Z M1455.5,568 C1456.32843,568 1457,568.671573 1457,569.5 C1457,570.328427 1456.32843,571 1455.5,571 C1454.67157,571 1454,570.328427 1454,569.5 C1454,568.671573 1454.67157,568 1455.5,568 Z M1551.5,568 C1552.32843,568 1553,568.671573 1553,569.5 C1553,570.328427 1552.32843,571 1551.5,571 C1550.67157,571 1550,570.328427 1550,569.5 C1550,568.671573 1550.67157,568 1551.5,568 Z M1407.5,568 C1408.32843,568 1409,568.671573 1409,569.5 C1409,570.328427 1408.32843,571 1407.5,571 C1406.67157,571 1406,570.328427 1406,569.5 C1406,568.671573 1406.67157,568 1407.5,568 Z M1503.5,568 C1504.32843,568 1505,568.671573 1505,569.5 C1505,570.328427 1504.32843,571 1503.5,571 C1502.67157,571 1502,570.328427 1502,569.5 C1502,568.671573 1502.67157,568 1503.5,568 Z M1439.5,568 C1440.32843,568 1441,568.671573 1441,569.5 C1441,570.328427 1440.32843,571 1439.5,571 C1438.67157,571 1438,570.328427 1438,569.5 C1438,568.671573 1438.67157,568 1439.5,568 Z M1535.5,568 C1536.32843,568 1537,568.671573 1537,569.5 C1537,570.328427 1536.32843,571 1535.5,571 C1534.67157,571 1534,570.328427 1534,569.5 C1534,568.671573 1534.67157,568 1535.5,568 Z M1471.5,568 C1472.32843,568 1473,568.671573 1473,569.5 C1473,570.328427 1472.32843,571 1471.5,571 C1470.67157,571 1470,570.328427 1470,569.5 C1470,568.671573 1470.67157,568 1471.5,568 Z M1567.5,568 C1568.32843,568 1569,568.671573 1569,569.5 C1569,570.328427 1568.32843,571 1567.5,571 C1566.67157,571 1566,570.328427 1566,569.5 C1566,568.671573 1566.67157,568 1567.5,568 Z M1391.5,552 C1392.32843,552 1393,552.671573 1393,553.5 C1393,554.328427 1392.32843,555 1391.5,555 C1390.67157,555 1390,554.328427 1390,553.5 C1390,552.671573 1390.67157,552 1391.5,552 Z M1487.5,552 C1488.32843,552 1489,552.671573 1489,553.5 C1489,554.328427 1488.32843,555 1487.5,555 C1486.67157,555 1486,554.328427 1486,553.5 C1486,552.671573 1486.67157,552 1487.5,552 Z M1423.5,552 C1424.32843,552 1425,552.671573 1425,553.5 C1425,554.328427 1424.32843,555 1423.5,555 C1422.67157,555 1422,554.328427 1422,553.5 C1422,552.671573 1422.67157,552 1423.5,552 Z M1519.5,552 C1520.32843,552 1521,552.671573 1521,553.5 C1521,554.328427 1520.32843,555 1519.5,555 C1518.67157,555 1518,554.328427 1518,553.5 C1518,552.671573 1518.67157,552 1519.5,552 Z M1455.5,552 C1456.32843,552 1457,552.671573 1457,553.5 C1457,554.328427 1456.32843,555 1455.5,555 C1454.67157,555 1454,554.328427 1454,553.5 C1454,552.671573 1454.67157,552 1455.5,552 Z M1551.5,552 C1552.32843,552 1553,552.671573 1553,553.5 C1553,554.328427 1552.32843,555 1551.5,555 C1550.67157,555 1550,554.328427 1550,553.5 C1550,552.671573 1550.67157,552 1551.5,552 Z M1407.5,552 C1408.32843,552 1409,552.671573 1409,553.5 C1409,554.328427 1408.32843,555 1407.5,555 C1406.67157,555 1406,554.328427 1406,553.5 C1406,552.671573 1406.67157,552 1407.5,552 Z M1503.5,552 C1504.32843,552 1505,552.671573 1505,553.5 C1505,554.328427 1504.32843,555 1503.5,555 C1502.67157,555 1502,554.328427 1502,553.5 C1502,552.671573 1502.67157,552 1503.5,552 Z M1439.5,552 C1440.32843,552 1441,552.671573 1441,553.5 C1441,554.328427 1440.32843,555 1439.5,555 C1438.67157,555 1438,554.328427 1438,553.5 C1438,552.671573 1438.67157,552 1439.5,552 Z M1535.5,552 C1536.32843,552 1537,552.671573 1537,553.5 C1537,554.328427 1536.32843,555 1535.5,555 C1534.67157,555 1534,554.328427 1534,553.5 C1534,552.671573 1534.67157,552 1535.5,552 Z M1471.5,552 C1472.32843,552 1473,552.671573 1473,553.5 C1473,554.328427 1472.32843,555 1471.5,555 C1470.67157,555 1470,554.328427 1470,553.5 C1470,552.671573 1470.67157,552 1471.5,552 Z M1567.5,552 C1568.32843,552 1569,552.671573 1569,553.5 C1569,554.328427 1568.32843,555 1567.5,555 C1566.67157,555 1566,554.328427 1566,553.5 C1566,552.671573 1566.67157,552 1567.5,552 Z" id="Combined-Shape-Copy-5" fill="url(#linearGradient-1)"></path>
            <path d="M1921,571 L1251,571 L1251,282.827621 L1527.80882,84.2158124 C1540.40985,76.6041129 1556.62192,56.6377453 1569.28877,64.1060082 L1921,272.484659 L1921,571 Z" id="Combined-Shape" fill="url(#linearGradient-2)" opacity="0.140000001"></path>
            <path d="M133.304333,0 L379.140769,0 L629,159.702214 L629,571 L0,571 L0,80.9165473 L133.304333,0 Z" id="Combined-Shape" fill="url(#linearGradient-3)" opacity="0.0613839286"></path>
            <rect id="Rectangle-Copy-166" fill="#007060" x="1" y="1" width="3" height="3" rx="1.5"></rect>
            <rect id="Rectangle-Copy-184" fill="#007060" x="97" y="1" width="3" height="3" rx="1.5"></rect>
            <rect id="Rectangle-Copy-167" fill="#007060" x="33" y="1" width="3" height="3" rx="1.5"></rect>
            <rect id="Rectangle-Copy-185" fill="#007060" x="129" y="1" width="3" height="3" rx="1.5"></rect>
            <rect id="Rectangle-Copy-168" fill="#007060" x="65" y="1" width="3" height="3" rx="1.5"></rect>
            <rect id="Rectangle-Copy-186" fill="#007060" x="161" y="1" width="3" height="3" rx="1.5"></rect>
            <rect id="Rectangle-Copy-169" fill="#007060" x="17" y="1" width="3" height="3" rx="1.5"></rect>
            <rect id="Rectangle-Copy-187" fill="#007060" x="113" y="1" width="3" height="3" rx="1.5"></rect>
            <rect id="Rectangle-Copy-170" fill="#007060" x="49" y="1" width="3" height="3" rx="1.5"></rect>
            <rect id="Rectangle-Copy-188" fill="#007060" x="145" y="1" width="3" height="3" rx="1.5"></rect>
            <rect id="Rectangle-Copy-171" fill="#007060" x="81" y="1" width="3" height="3" rx="1.5"></rect>
            <rect id="Rectangle-Copy-189" fill="#007060" x="177" y="1" width="3" height="3" rx="1.5"></rect>
            <rect id="Rectangle-Copy-172" fill="#007060" x="1" y="33" width="3" height="3" rx="1.5"></rect>
            <rect id="Rectangle-Copy-190" fill="#007060" x="97" y="33" width="3" height="3" rx="1.5"></rect>
            <rect id="Rectangle-Copy-173" fill="#007060" x="33" y="33" width="3" height="3" rx="1.5"></rect>
            <rect id="Rectangle-Copy-191" fill="#007060" x="129" y="33" width="3" height="3" rx="1.5"></rect>
            <rect id="Rectangle-Copy-174" fill="#007060" x="65" y="33" width="3" height="3" rx="1.5"></rect>
            <rect id="Rectangle-Copy-192" fill="#007060" x="161" y="33" width="3" height="3" rx="1.5"></rect>
            <rect id="Rectangle-Copy-175" fill="#007060" x="17" y="33" width="3" height="3" rx="1.5"></rect>
            <rect id="Rectangle-Copy-193" fill="#007060" x="113" y="33" width="3" height="3" rx="1.5"></rect>
            <rect id="Rectangle-Copy-176" fill="#007060" x="49" y="33" width="3" height="3" rx="1.5"></rect>
            <rect id="Rectangle-Copy-194" fill="#007060" x="145" y="33" width="3" height="3" rx="1.5"></rect>
            <rect id="Rectangle-Copy-177" fill="#007060" x="81" y="33" width="3" height="3" rx="1.5"></rect>
            <rect id="Rectangle-Copy-195" fill="#007060" x="177" y="33" width="3" height="3" rx="1.5"></rect>
            <rect id="Rectangle-Copy-178" fill="#007060" x="1" y="17" width="3" height="3" rx="1.5"></rect>
            <rect id="Rectangle-Copy-196" fill="#007060" x="97" y="17" width="3" height="3" rx="1.5"></rect>
            <rect id="Rectangle-Copy-179" fill="#007060" x="33" y="17" width="3" height="3" rx="1.5"></rect>
            <rect id="Rectangle-Copy-197" fill="#007060" x="129" y="17" width="3" height="3" rx="1.5"></rect>
            <rect id="Rectangle-Copy-180" fill="#007060" x="65" y="17" width="3" height="3" rx="1.5"></rect>
            <rect id="Rectangle-Copy-198" fill="#007060" x="161" y="17" width="3" height="3" rx="1.5"></rect>
            <rect id="Rectangle-Copy-181" fill="#007060" x="17" y="17" width="3" height="3" rx="1.5"></rect>
            <rect id="Rectangle-Copy-199" fill="#007060" x="113" y="17" width="3" height="3" rx="1.5"></rect>
            <rect id="Rectangle-Copy-182" fill="#007060" x="49" y="17" width="3" height="3" rx="1.5"></rect>
            <rect id="Rectangle-Copy-200" fill="#007060" x="145" y="17" width="3" height="3" rx="1.5"></rect>
            <rect id="Rectangle-Copy-183" fill="#007060" x="81" y="17" width="3" height="3" rx="1.5"></rect>
            <rect id="Rectangle-Copy-201" fill="#007060" x="177" y="17" width="3" height="3" rx="1.5"></rect>
            <rect id="Rectangle-Copy-166" fill="#007060" x="1" y="50" width="3" height="3" rx="1.5"></rect>
            <rect id="Rectangle-Copy-184" fill="#007060" x="97" y="50" width="3" height="3" rx="1.5"></rect>
            <rect id="Rectangle-Copy-167" fill="#007060" x="33" y="50" width="3" height="3" rx="1.5"></rect>
            <rect id="Rectangle-Copy-185" fill="#007060" x="129" y="50" width="3" height="3" rx="1.5"></rect>
            <rect id="Rectangle-Copy-168" fill="#007060" x="65" y="50" width="3" height="3" rx="1.5"></rect>
            <rect id="Rectangle-Copy-186" fill="#007060" x="161" y="50" width="3" height="3" rx="1.5"></rect>
            <rect id="Rectangle-Copy-169" fill="#007060" x="17" y="50" width="3" height="3" rx="1.5"></rect>
            <rect id="Rectangle-Copy-187" fill="#007060" x="113" y="50" width="3" height="3" rx="1.5"></rect>
            <rect id="Rectangle-Copy-170" fill="#007060" x="49" y="50" width="3" height="3" rx="1.5"></rect>
            <rect id="Rectangle-Copy-188" fill="#007060" x="145" y="50" width="3" height="3" rx="1.5"></rect>
            <rect id="Rectangle-Copy-171" fill="#007060" x="81" y="50" width="3" height="3" rx="1.5"></rect>
            <rect id="Rectangle-Copy-189" fill="#007060" x="177" y="50" width="3" height="3" rx="1.5"></rect>
            <rect id="Rectangle-Copy-172" fill="#007060" x="1" y="82" width="3" height="3" rx="1.5"></rect>
            <rect id="Rectangle-Copy-190" fill="#007060" x="97" y="82" width="3" height="3" rx="1.5"></rect>
            <rect id="Rectangle-Copy-173" fill="#007060" x="33" y="82" width="3" height="3" rx="1.5"></rect>
            <rect id="Rectangle-Copy-191" fill="#007060" x="129" y="82" width="3" height="3" rx="1.5"></rect>
            <rect id="Rectangle-Copy-174" fill="#007060" x="65" y="82" width="3" height="3" rx="1.5"></rect>
            <rect id="Rectangle-Copy-192" fill="#007060" x="161" y="82" width="3" height="3" rx="1.5"></rect>
            <rect id="Rectangle-Copy-175" fill="#007060" x="17" y="82" width="3" height="3" rx="1.5"></rect>
            <rect id="Rectangle-Copy-193" fill="#007060" x="113" y="82" width="3" height="3" rx="1.5"></rect>
            <rect id="Rectangle-Copy-176" fill="#007060" x="49" y="82" width="3" height="3" rx="1.5"></rect>
            <rect id="Rectangle-Copy-194" fill="#007060" x="145" y="82" width="3" height="3" rx="1.5"></rect>
            <rect id="Rectangle-Copy-177" fill="#007060" x="81" y="82" width="3" height="3" rx="1.5"></rect>
            <rect id="Rectangle-Copy-195" fill="#007060" x="177" y="82" width="3" height="3" rx="1.5"></rect>
            <rect id="Rectangle-Copy-178" fill="#007060" x="1" y="66" width="3" height="3" rx="1.5"></rect>
            <rect id="Rectangle-Copy-196" fill="#007060" x="97" y="66" width="3" height="3" rx="1.5"></rect>
            <rect id="Rectangle-Copy-179" fill="#007060" x="33" y="66" width="3" height="3" rx="1.5"></rect>
            <rect id="Rectangle-Copy-197" fill="#007060" x="129" y="66" width="3" height="3" rx="1.5"></rect>
            <rect id="Rectangle-Copy-180" fill="#007060" x="65" y="66" width="3" height="3" rx="1.5"></rect>
            <rect id="Rectangle-Copy-198" fill="#007060" x="161" y="66" width="3" height="3" rx="1.5"></rect>
            <rect id="Rectangle-Copy-181" fill="#007060" x="17" y="66" width="3" height="3" rx="1.5"></rect>
            <rect id="Rectangle-Copy-199" fill="#007060" x="113" y="66" width="3" height="3" rx="1.5"></rect>
            <rect id="Rectangle-Copy-182" fill="#007060" x="49" y="66" width="3" height="3" rx="1.5"></rect>
            <rect id="Rectangle-Copy-200" fill="#007060" x="145" y="66" width="3" height="3" rx="1.5"></rect>
            <rect id="Rectangle-Copy-183" fill="#007060" x="81" y="66" width="3" height="3" rx="1.5"></rect>
            <rect id="Rectangle-Copy-201" fill="#007060" x="177" y="66" width="3" height="3" rx="1.5"></rect>
        </g>
    </g>
</svg>