<svg xmlns="http://www.w3.org/2000/svg" width="69" height="67" viewBox="0 0 69 67"><defs><linearGradient id="glfba" x1="68.04" x2="31.55" y1="42.84" y2="42.84" gradientUnits="userSpaceOnUse"><stop offset="0" stop-color="#3effe3"/><stop offset="1" stop-color="#00ea99"/></linearGradient><linearGradient id="glfbb" x1="44.73" x2="24.97" y1="33.62" y2="13.97" gradientUnits="userSpaceOnUse"><stop offset="0" stop-color="#3effe3"/><stop offset="1" stop-color="#00ea99"/></linearGradient><linearGradient id="glfbc" x1="30.03" x2="18.72" y1="33.63" y2="13.96" gradientUnits="userSpaceOnUse"><stop offset="0" stop-color="#3effe3"/><stop offset="1" stop-color="#00ea99"/></linearGradient><linearGradient id="glfbd" x1="46.52" x2="18.74" y1="37.22" y2="17.55" gradientUnits="userSpaceOnUse"><stop offset="0" stop-color="#3effe3"/><stop offset="1" stop-color="#00ea99"/></linearGradient><linearGradient id="glfbe" x1="80.48" x2="18.79" y1="58.91" y2="39.1" gradientUnits="userSpaceOnUse"><stop offset="0" stop-color="#3effe3"/><stop offset="1" stop-color="#00ea99"/></linearGradient><linearGradient id="glfbf" x1="80.48" x2="18.79" y1="47.69" y2="27.88" gradientUnits="userSpaceOnUse"><stop offset="0" stop-color="#3effe3"/><stop offset="1" stop-color="#00ea99"/></linearGradient><linearGradient id="glfbg" x1="68.13" x2="18.78" y1="56.04" y2="36.23" gradientUnits="userSpaceOnUse"><stop offset="0" stop-color="#3effe3"/><stop offset="1" stop-color="#00ea99"/></linearGradient><linearGradient id="glfbh" x1="68.13" x2="18.78" y1="44.82" y2="25.01" gradientUnits="userSpaceOnUse"><stop offset="0" stop-color="#3effe3"/><stop offset="1" stop-color="#00ea99"/></linearGradient><linearGradient id="glfbi" x1="96.54" x2="18.82" y1="66.09" y2="46.28" gradientUnits="userSpaceOnUse"><stop offset="0" stop-color="#3effe3"/><stop offset="1" stop-color="#00ea99"/></linearGradient><linearGradient id="glfbj" x1="71.41" x2="18.78" y1="69.68" y2="49.87" gradientUnits="userSpaceOnUse"><stop offset="0" stop-color="#3effe3"/><stop offset="1" stop-color="#00ea99"/></linearGradient><linearGradient id="glfbk" x1="47.15" x2="29.37" y1="6.06" y2="6.06" gradientUnits="userSpaceOnUse"><stop offset="0" stop-color="#3effe3"/><stop offset="1" stop-color="#00ea99"/></linearGradient></defs><g><g><g><g><path fill="#dffffa" d="M55.322 58.11h-39.49a2.693 2.693 0 0 1-2.692-2.693V3.362A2.693 2.693 0 0 1 15.832.67h39.49a2.693 2.693 0 0 1 2.693 2.692v52.055a2.693 2.693 0 0 1-2.693 2.692"/></g><g><path fill="#00bda2" d="M55.325 58.11H21.22V39.262c0-15.364 12.456-27.822 27.822-27.822h8.975v43.977a2.692 2.692 0 0 1-2.692 2.693"/></g><g opacity=".3"><path fill="url(#glfba)" d="M65.515 66.17H31.41V47.322c0-15.364 12.456-27.822 27.822-27.822h8.975v43.977a2.692 2.692 0 0 1-2.692 2.693"/></g><g><path fill="url(#glfbb)" d="M32.247 14.636h-6.644a.673.673 0 0 1 0-1.346h6.644a.673.673 0 0 1 0 1.346"/></g><g><path fill="url(#glfbc)" d="M22.6 14.636h-3.227a.673.673 0 0 1 0-1.346H22.6a.673.673 0 0 1 0 1.346"/></g><g><path fill="url(#glfbd)" d="M29.245 18.226h-9.872a.673.673 0 0 1 0-1.346h9.872a.673.673 0 0 1 0 1.346"/></g><g><path fill="url(#glfbe)" d="M19.373 39.766a.673.673 0 0 1 0-1.346H42.95a.673.673 0 0 1 0 1.346z"/></g><g><path fill="url(#glfbf)" d="M19.373 28.546a.673.673 0 0 1 0-1.346H42.95a.673.673 0 0 1 0 1.346z"/></g><g><path fill="url(#glfbg)" d="M19.239 36.896c-.298 0-.539-.301-.539-.673 0-.371.241-.673.539-.673h18.867c.297 0 .538.302.538.673 0 .372-.241.673-.538.673z"/></g><g><path fill="url(#glfbh)" d="M19.239 25.676c-.298 0-.539-.301-.539-.673 0-.371.241-.673.539-.673h18.867c.297 0 .538.302.538.673 0 .372-.241.673-.538.673z"/></g><g><path fill="url(#glfbi)" d="M49.432 46.946H19.373a.673.673 0 0 1 0-1.346h30.059c.371 0 .673.302.673.673"/></g><g><path fill="url(#glfbj)" d="M19.373 50.536a.673.673 0 0 1 0-1.346H39.29a.673.673 0 0 1 0 1.346z"/></g><g><path fill="#fff" d="M15.836 58.786a3.37 3.37 0 0 1-3.366-3.366V3.366A3.37 3.37 0 0 1 15.836 0h39.49a3.37 3.37 0 0 1 3.365 3.366V55.42a3.37 3.37 0 0 1-3.366 3.366zm0-57.44a2.022 2.022 0 0 0-2.02 2.02V55.42c0 1.113.906 2.02 2.02 2.02h39.48a2.022 2.022 0 0 0 2.019-2.02V3.366c0-1.113-.906-2.02-2.02-2.02z"/></g><g><path fill="#dffffa" d="M44.552 7.85h-17.95a2.693 2.693 0 0 1-2.692-2.693V.67h23.335v4.487a2.693 2.693 0 0 1-2.693 2.693"/></g><g><path fill="url(#glfbk)" d="M44.547 7.85H29.29a3.59 3.59 0 0 1 3.59-3.59h14.36v.897a2.693 2.693 0 0 1-2.693 2.693"/></g><g><path fill="#fff" d="M26.606 8.526a3.37 3.37 0 0 1-3.366-3.365V.673c0-.371.302-.673.673-.673h23.335c.371 0 .673.302.673.673v4.488a3.37 3.37 0 0 1-3.366 3.365zm-2.02-7.18v3.815c0 1.112.905 2.019 2.019 2.019h17.941a2.021 2.021 0 0 0 2.019-2.02V1.347z"/></g><g opacity=".72"><path fill="#fff" d="M1.02 47.05c0-9.913 8.036-17.95 17.95-17.95s17.95 8.037 17.95 17.95c0 9.914-8.036 17.95-17.95 17.95S1.02 56.964 1.02 47.05"/></g><g><path fill="#fff" d="M18.623 65.496C8.355 65.496 0 57.14 0 46.873S8.355 28.25 18.623 28.25s18.623 8.355 18.623 18.623-8.355 18.623-18.623 18.623m0-35.9c-9.526 0-17.277 7.752-17.277 17.277 0 9.527 7.751 17.277 17.277 17.277S35.9 56.4 35.9 46.873c0-9.525-7.751-17.277-17.277-17.277"/></g><g><path fill="#00bda2" d="M5.403 43.023a.673.673 0 0 1-.636-.892 15.047 15.047 0 0 1 8.57-9.022.673.673 0 1 1 .506 1.248 13.687 13.687 0 0 0-7.803 8.214.672.672 0 0 1-.637.452"/></g><g><path fill="#00bda2" d="M4.631 48.449a.673.673 0 0 1-.672-.64 15.407 15.407 0 0 1 .065-2.347c.039-.37.375-.63.739-.6.37.039.638.37.6.74a13.966 13.966 0 0 0-.059 2.142.674.674 0 0 1-.64.705z"/></g></g></g></g></svg>