<svg xmlns="http://www.w3.org/2000/svg" width="71" height="69" viewBox="0 0 71 69"><defs><linearGradient id="sz0ra" x1="70.6" x2="32.79" y1="44.38" y2="44.38" gradientUnits="userSpaceOnUse"><stop offset="0" stop-color="#3effe3"/><stop offset="1" stop-color="#00ea99"/></linearGradient><linearGradient id="sz0rb" x1="46.45" x2="25.97" y1="34.86" y2="14.47" gradientUnits="userSpaceOnUse"><stop offset="0" stop-color="#3effe3"/><stop offset="1" stop-color="#00ea99"/></linearGradient><linearGradient id="sz0rc" x1="31.21" x2="19.5" y1="34.87" y2="14.47" gradientUnits="userSpaceOnUse"><stop offset="0" stop-color="#3effe3"/><stop offset="1" stop-color="#00ea99"/></linearGradient><linearGradient id="sz0rd" x1="48.29" x2="19.52" y1="38.59" y2="18.18" gradientUnits="userSpaceOnUse"><stop offset="0" stop-color="#3effe3"/><stop offset="1" stop-color="#00ea99"/></linearGradient><linearGradient id="sz0re" x1="83.49" x2="19.58" y1="61.06" y2="40.51" gradientUnits="userSpaceOnUse"><stop offset="0" stop-color="#3effe3"/><stop offset="1" stop-color="#00ea99"/></linearGradient><linearGradient id="sz0rf" x1="83.49" x2="19.58" y1="49.29" y2="28.88" gradientUnits="userSpaceOnUse"><stop offset="0" stop-color="#3effe3"/><stop offset="1" stop-color="#00ea99"/></linearGradient><linearGradient id="sz0rg" x1="70.7" x2="19.56" y1="57.94" y2="37.53" gradientUnits="userSpaceOnUse"><stop offset="0" stop-color="#3effe3"/><stop offset="1" stop-color="#00ea99"/></linearGradient><linearGradient id="sz0rh" x1="70.7" x2="19.56" y1="46.46" y2="25.91" gradientUnits="userSpaceOnUse"><stop offset="0" stop-color="#3effe3"/><stop offset="1" stop-color="#00ea99"/></linearGradient><linearGradient id="sz0ri" x1="100.15" x2="19.6" y1="68.5" y2="47.95" gradientUnits="userSpaceOnUse"><stop offset="0" stop-color="#3effe3"/><stop offset="1" stop-color="#00ea99"/></linearGradient><linearGradient id="sz0rj" x1="74.09" x2="19.56" y1="72.22" y2="51.67" gradientUnits="userSpaceOnUse"><stop offset="0" stop-color="#3effe3"/><stop offset="1" stop-color="#00ea99"/></linearGradient><linearGradient id="sz0rk" x1="48.96" x2="30.53" y1="6.28" y2="6.28" gradientUnits="userSpaceOnUse"><stop offset="0" stop-color="#3effe3"/><stop offset="1" stop-color="#00ea99"/></linearGradient></defs><g><g><g><path fill="#fff" d="M57.42 60.22H16.5a2.79 2.79 0 0 1-2.79-2.79V3.49A2.79 2.79 0 0 1 16.5.7h40.92a2.79 2.79 0 0 1 2.79 2.79v53.94a2.79 2.79 0 0 1-2.79 2.79"/></g><g><path fill="#00bda2" d="M57.42 60.22H22.08V40.69c0-15.92 12.908-28.83 28.83-28.83h9.3v45.57a2.79 2.79 0 0 1-2.79 2.79"/></g><g opacity=".3"><path fill="url(#sz0ra)" d="M67.99 68.56H32.65V49.03c0-15.92 12.908-28.83 28.83-28.83h9.3v45.57a2.79 2.79 0 0 1-2.79 2.79"/></g><g><path fill="url(#sz0rb)" d="M33.512 15.165h-6.884a.698.698 0 0 1 0-1.395h6.884a.698.698 0 0 1 0 1.395"/></g><g><path fill="url(#sz0rc)" d="M23.52 15.165h-3.343a.698.698 0 0 1 0-1.395h3.344a.698.698 0 0 1 0 1.395"/></g><g><path fill="url(#sz0rd)" d="M30.407 18.885h-10.23a.698.698 0 0 1 0-1.395h10.23a.698.698 0 0 1 0 1.395"/></g><g><path fill="url(#sz0re)" d="M20.178 41.205a.698.698 0 0 1 0-1.395h24.43a.698.698 0 0 1 0 1.395z"/></g><g><path fill="url(#sz0rf)" d="M20.178 29.585a.698.698 0 0 1 0-1.395h24.43a.698.698 0 0 1 0 1.395z"/></g><g><path fill="url(#sz0rg)" d="M20.038 38.235c-.308 0-.558-.313-.558-.698 0-.385.25-.697.558-.697h19.55c.309 0 .559.312.559.697 0 .385-.25.698-.558.698z"/></g><g><path fill="url(#sz0rh)" d="M20.038 26.605c-.308 0-.558-.312-.558-.697 0-.386.25-.698.558-.698h19.55c.309 0 .559.312.559.698 0 .385-.25.697-.558.697z"/></g><g><path fill="url(#sz0ri)" d="M51.325 48.645H20.178a.698.698 0 0 1 0-1.395h31.147c.385 0 .697.312.697.698"/></g><g><path fill="url(#sz0rj)" d="M20.178 52.365a.698.698 0 0 1 0-1.395h20.637a.698.698 0 0 1 0 1.395z"/></g><g><path fill="#00bda2" d="M16.508 60.916a3.491 3.491 0 0 1-3.488-3.488V3.488A3.491 3.491 0 0 1 16.508 0h40.92a3.491 3.491 0 0 1 3.487 3.488v53.94a3.491 3.491 0 0 1-3.487 3.488zm-.001-59.521c-1.154 0-2.092.94-2.092 2.092v53.931c0 1.153.938 2.093 2.092 2.093h40.912c1.154 0 2.092-.94 2.092-2.093V3.488a2.095 2.095 0 0 0-2.092-2.093z"/></g><g><path fill="#fff" d="M46.26 8.14h-18.6a2.79 2.79 0 0 1-2.79-2.79V.7h24.18v4.65a2.79 2.79 0 0 1-2.79 2.79"/></g><g><path fill="url(#sz0rk)" d="M46.26 8.14H30.45a3.72 3.72 0 0 1 3.72-3.72h14.88v.93a2.79 2.79 0 0 1-2.79 2.79"/></g><g><path fill="#00bda2" d="M27.668 8.835a3.492 3.492 0 0 1-3.488-3.487V.698c0-.386.312-.698.698-.698h24.18c.385 0 .697.312.697.698v4.65a3.492 3.492 0 0 1-3.487 3.487zm-2.094-7.44v3.946c0 1.151.938 2.09 2.092 2.09H46.26a2.093 2.093 0 0 0 2.092-2.09V1.395z"/></g><g opacity=".72"><path fill="#fff" d="M1.16 48.75c0-10.272 8.327-18.6 18.6-18.6 10.273 0 18.6 8.328 18.6 18.6 0 10.274-8.327 18.6-18.6 18.6-10.273 0-18.6-8.326-18.6-18.6"/></g><g><path fill="#00bda2" d="M19.398 67.865C8.758 67.865.1 59.208.1 48.568S8.757 29.27 19.398 29.27c10.64 0 19.297 8.657 19.297 19.298 0 10.64-8.657 19.297-19.297 19.297m-.005-37.2c-9.869 0-17.898 8.03-17.898 17.898 0 9.87 8.03 17.898 17.898 17.898S37.29 58.432 37.29 48.563c0-9.868-8.029-17.898-17.897-17.898"/></g><g><path fill="#00bda2" d="M5.698 44.584a.697.697 0 0 1-.66-.924 15.592 15.592 0 0 1 8.88-9.35.697.697 0 1 1 .525 1.294 14.183 14.183 0 0 0-8.086 8.512c-.1.289-.37.468-.66.468"/></g><g><path fill="#00bda2" d="M4.896 50.199a.698.698 0 0 1-.696-.663 15.967 15.967 0 0 1 .067-2.432.708.708 0 0 1 .766-.622c.383.04.661.384.621.767a14.47 14.47 0 0 0-.06 2.22.699.699 0 0 1-.663.73z"/></g></g></g></svg>