<svg xmlns="http://www.w3.org/2000/svg" width="23" height="26" viewBox="0 0 23 26"><defs><linearGradient id="bin2a" x1="12.09" x2="12.09" y1=".01" y2="9.78" gradientUnits="userSpaceOnUse"><stop offset="0" stop-color="#c361ff"/><stop offset="1" stop-color="#990dee"/></linearGradient></defs><g><g><g><g><g><path fill="url(#bin2a)" d="M8.58 7.238l-1.788-.121-3.267-5.455A1.09 1.09 0 1 1 5.397.54l2.46 4.108L11.245.42l1.704.001 3.377 4.23 2.47-4.11a1.09 1.09 0 0 1 1.87 1.123l-3.278 5.455-1.787.12-3.506-4.39z"/></g><g><path fill="#fff" d="M19.396 9.981a1.09 1.09 0 0 1 1.816 1.21L13 23.51a1.09 1.09 0 0 1-1.816 0L.275 7.146a1.09 1.09 0 0 1 .908-1.696H23a1.09 1.09 0 0 1 0 2.182H3.22l8.87 13.306z"/></g><g><path fill="#fff" d="M4.52 0h15.144c.38 0 .732.198.93.522l3.337 5.454a1.09 1.09 0 0 1-.93 1.66H1.183a1.09 1.09 0 0 1-.931-1.66L3.589.522A1.09 1.09 0 0 1 4.519 0zm.61 2.182L3.129 5.455h17.916l-2.001-3.273z"/></g><g><path fill="#fff" d="M6.72 6.889l2.098-.599 4.34 15.199-2.099.599z"/></g><g><path fill="#fff" d="M17.517 6.889L15.42 6.29 11.08 21.489l2.098.599z"/></g></g></g></g></g></svg>