<svg xmlns="http://www.w3.org/2000/svg" width="32" height="33" viewBox="0 0 32 33"><g><g><path fill="#fff" d="M1.41 33C.631 33 0 32.375 0 31.605l.113-4.674c0-.77.631-1.395 1.41-1.395.779 0 1.41.625 1.41 1.395v1.674l4.328-3.46-4.342-2.274a2.776 2.776 0 0 1-1.17-3.767l8.572-16.03A5.644 5.644 0 0 1 15.112.005a5.656 5.656 0 0 1 5.045 2.641 5.53 5.53 0 0 1 .133 5.646L13.69 20.625a1.414 1.414 0 0 1-1.198.741 1.417 1.417 0 0 1-1.248-.655 1.385 1.385 0 0 1-.05-1.397L17.794 6.98a2.778 2.778 0 0 0-1.177-3.774 2.837 2.837 0 0 0-3.814 1.165L4.202 20.444l4.343 2.274a2.79 2.79 0 0 1 1.483 2.196 2.777 2.777 0 0 1-1.032 2.436l-6.698 5.343A1.42 1.42 0 0 1 1.41 33z"/></g><g><path fill="#fff" d="M32 31.5c0-.828-.632-1.5-1.412-1.5H9.412C8.632 30 8 30.672 8 31.5S8.632 33 9.412 33h21.176c.78 0 1.412-.672 1.412-1.5z"/></g></g></svg>