<svg xmlns="http://www.w3.org/2000/svg" width="23" height="26" viewBox="0 0 23 26"><defs><linearGradient id="zd8da" x1="11.96" x2="11.96" y1="4.35" y2="7.28" gradientUnits="userSpaceOnUse"><stop offset="0" stop-color="#c361ff"/><stop offset="1" stop-color="#990dee"/></linearGradient><linearGradient id="zd8db" x1="11.96" x2="11.96" y1="7.61" y2="10.54" gradientUnits="userSpaceOnUse"><stop offset="0" stop-color="#c361ff"/><stop offset="1" stop-color="#990dee"/></linearGradient></defs><g><g><g><g><g><path fill="#fff" d="M4.344 9.631a1.087 1.087 0 1 1-2.174 0V2.174C2.17.974 3.143 0 4.344 0H19.56c1.2 0 2.174.973 2.174 2.174v7.609a1.087 1.087 0 0 1-2.174 0v-7.61H4.344z"/></g><g><path fill="url(#zd8da)" d="M8.697 6.524a1.087 1.087 0 1 1 0-2.174h6.522a1.087 1.087 0 0 1 0 2.174z"/></g><g><path fill="url(#zd8db)" d="M8.697 9.784a1.087 1.087 0 1 1 0-2.174h6.522a1.087 1.087 0 0 1 0 2.174z"/></g><g><path fill="#fff" d="M2.174 10.87v9.782c0 .6.487 1.087 1.087 1.087h17.391c.6 0 1.087-.487 1.087-1.087v-7.336a1.087 1.087 0 0 1 2.174 0v7.336c0 1.8-1.46 3.26-3.26 3.26H3.26A3.26 3.26 0 0 1 0 20.653V8.969c0-.841.914-1.364 1.638-.937l10.319 6.071 10.318-6.071a1.087 1.087 0 0 1 1.102 1.873l-10.87 6.396c-.34.2-.761.2-1.102 0z"/></g><g><path fill="#fff" d="M1.854 9.46A1.087 1.087 0 1 1 .32 7.922L2.5 5.747a1.087 1.087 0 1 1 1.535 1.54z"/></g><g><path fill="#fff" d="M22.07 9.46a1.087 1.087 0 1 0 1.535-1.539l-2.18-2.174a1.087 1.087 0 1 0-1.535 1.54z"/></g></g></g></g></g></svg>