<svg xmlns="http://www.w3.org/2000/svg" width="57" height="59" viewBox="0 0 57 59"><defs><linearGradient id="ak7ja" x1="37.75" x2=".14" y1="18.97" y2="18.97" gradientUnits="userSpaceOnUse"><stop offset="0" stop-color="#3effe3"/><stop offset="1" stop-color="#00ea99"/></linearGradient><linearGradient id="ak7jb" x1="55.85" x2="28.17" y1="24.95" y2="24.95" gradientUnits="userSpaceOnUse"><stop offset="0" stop-color="#3effe3"/><stop offset="1" stop-color="#00ea99"/></linearGradient><linearGradient id="ak7jc" x1="45.96" x2="38.62" y1="49.78" y2="49.78" gradientUnits="userSpaceOnUse"><stop offset="0" stop-color="#3effe3"/><stop offset="1" stop-color="#00ea99"/></linearGradient><linearGradient id="ak7jd" x1="45.95" x2="36.15" y1="53.09" y2="53.09" gradientUnits="userSpaceOnUse"><stop offset="0" stop-color="#3effe3"/><stop offset="1" stop-color="#00ea99"/></linearGradient><linearGradient id="ak7je" x1="46" x2="33.67" y1="46.47" y2="46.47" gradientUnits="userSpaceOnUse"><stop offset="0" stop-color="#3effe3"/><stop offset="1" stop-color="#00ea99"/></linearGradient><linearGradient id="ak7jf" x1="22.85" x2="17.1" y1="34.05" y2="34.05" gradientUnits="userSpaceOnUse"><stop offset="0" stop-color="#3effe3"/><stop offset="1" stop-color="#00ea99"/></linearGradient><linearGradient id="ak7jg" x1="43.31" x2="32.23" y1="58.05" y2="58.05" gradientUnits="userSpaceOnUse"><stop offset="0" stop-color="#3effe3"/><stop offset="1" stop-color="#00ea99"/></linearGradient></defs><g><g opacity=".3"><path fill="url(#ak7ja)" d="M37.932 18.966c0 10.476-8.491 18.966-18.966 18.966C8.492 37.932 0 29.442 0 18.966 0 8.492 8.492 0 18.966 0c10.475 0 18.966 8.492 18.966 18.966"/></g><g><path fill="#fff" d="M55.975 23.287c0-10.387-8.698-18.742-19.207-18.18-9.329.498-16.898 8.244-17.198 17.58-.174 5.4 2.01 10.279 5.594 13.716 1.999 1.915 3.067 4.603 3.067 7.37v1.032h19.074v-1.23c0-2.77 1.208-5.357 3.19-7.292 3.378-3.3 5.48-7.898 5.48-12.996"/></g><g><path fill="url(#ak7jb)" d="M38.215 5.09c4.243 3.921 6.901 9.532 6.901 15.765 0 10.344-7.316 18.976-17.056 21.01.114.626.178 1.264.178 1.908v1.03h19.075v-1.23c0-2.768 1.208-5.356 3.19-7.291 3.378-3.3 5.48-7.898 5.48-12.996 0-9.907-7.916-17.962-17.768-18.196"/></g><g><path fill="#fff" d="M44.397 51.43H31.155a1.655 1.655 0 0 1 0-3.31h13.242a1.656 1.656 0 0 1 0 3.31"/></g><g><path fill="#fff" d="M44.397 54.74H31.155a1.655 1.655 0 0 1 0-3.31h13.242a1.656 1.656 0 0 1 0 3.31"/></g><g><path fill="#fff" d="M44.397 48.12H31.155c-.913 0-1.655-.74-1.655-1.655V44.81h16.552v1.655c0 .915-.741 1.655-1.655 1.655"/></g><g><path fill="url(#ak7jc)" d="M44.337 51.43h-4.082a1.655 1.655 0 0 1 0-3.31h4.082a1.656 1.656 0 0 1 0 3.31"/></g><g><path fill="url(#ak7jd)" d="M44.34 54.74h-6.565a1.655 1.655 0 0 1 0-3.31h6.565a1.656 1.656 0 0 1 0 3.31"/></g><g><path fill="url(#ak7je)" d="M44.388 48.12h-9.103c-.914 0-1.655-.74-1.655-1.655V44.81h12.413v1.655c0 .915-.741 1.655-1.655 1.655"/></g><g><path fill="#fff" d="M28.23 45.428a.62.62 0 0 1-.62-.62v-1.032c0-2.65-1.047-5.172-2.874-6.923A18.834 18.834 0 0 1 18.95 22.67c.313-9.679 8.124-17.666 17.786-18.181 5.226-.283 10.197 1.543 13.983 5.135 3.79 3.592 5.878 8.446 5.878 13.665 0 5.097-2.012 9.87-5.667 13.44-1.936 1.892-3.004 4.323-3.004 6.848v1.23a.62.62 0 0 1-.62.621zm.624-1.241h17.838v-.61c0-2.86 1.2-5.61 3.378-7.736 3.415-3.334 5.296-7.791 5.296-12.552 0-4.875-1.95-9.409-5.49-12.765-3.54-3.354-8.187-5.065-13.07-4.796-9.026.482-16.323 7.942-16.615 16.983-.16 4.972 1.81 9.8 5.405 13.247 2.07 1.983 3.258 4.832 3.258 7.818z"/></g><g><path fill="#fff" d="M31.156 52.052a2.277 2.277 0 0 1 0-4.552h13.242a2.279 2.279 0 0 1 2.276 2.276 2.278 2.278 0 0 1-2.276 2.276zm0-3.31c-.57 0-1.035.464-1.035 1.034 0 .57.465 1.034 1.035 1.034h13.242c.57 0 1.034-.464 1.034-1.034 0-.57-.464-1.035-1.034-1.035z"/></g><g><path fill="#fff" d="M31.156 55.362a2.277 2.277 0 0 1 0-4.552h13.242a2.279 2.279 0 0 1 2.276 2.276 2.278 2.278 0 0 1-2.276 2.276zm0-3.31c-.57 0-1.035.464-1.035 1.034 0 .57.465 1.034 1.035 1.034h13.242c.57 0 1.034-.464 1.034-1.034 0-.57-.464-1.035-1.034-1.035z"/></g><g><path fill="#fff" d="M31.156 48.742a2.277 2.277 0 0 1-2.276-2.276V44.81a.62.62 0 0 1 .62-.621h16.553a.62.62 0 0 1 .62.62v1.656a2.278 2.278 0 0 1-2.275 2.276zm-1.035-3.31v1.034c0 .57.465 1.034 1.035 1.034h13.242c.57 0 1.034-.464 1.034-1.034V45.43z"/></g><g><path fill="#fff" d="M22.877 53.082V15.01l-5.794 1.655-5.793-1.655v38.072z"/></g><g><path fill="url(#ak7jf)" d="M22.873 53.082V15.01l-5.793 1.655v36.417z"/></g><g><path fill="#fff" d="M11.29 53.703a.62.62 0 0 1-.62-.621V15.01a.618.618 0 0 1 .79-.597l5.624 1.608 5.622-1.607a.623.623 0 0 1 .792.596v38.072c0 .343-.279.62-.62.62zm.62-1.242h10.348V15.833l-5.004 1.43a.613.613 0 0 1-.341 0l-5.003-1.43z"/></g><g><path fill="#00d4b5" d="M22.877 56.39v-3.31H11.29v3.31c0 .915.742 1.656 1.655 1.656h8.276c.914 0 1.656-.741 1.656-1.656"/></g><g><path fill="#fff" d="M12.946 58.667a2.277 2.277 0 0 1-2.276-2.276v-3.31a.62.62 0 0 1 .62-.621h11.587c.342 0 .621.278.621.62v3.311a2.277 2.277 0 0 1-2.276 2.276zm-1.036-4.966v2.697c0 .572.464 1.038 1.035 1.038h8.278c.57 0 1.035-.466 1.035-1.038v-2.697z"/></g><g><path fill="#fff" d="M22.877 15.011L17.083 5.08l-5.793 9.931 5.793 1.656z"/></g><g><path fill="#00d4b5" d="M21.217 12.174L17.08 5.08v8.276z"/></g><g><path fill="#fff" d="M16.913 17.261l-5.794-1.655a.621.621 0 0 1-.364-.909l5.794-9.93c.22-.382.85-.382 1.07 0l5.794 9.93a.62.62 0 0 1-.366.91l-5.793 1.654a.614.614 0 0 1-.341 0zm-4.685-2.628l4.856 1.387 4.856-1.387-4.856-8.323z"/></g><g><path fill="#fff" d="M17.08 53.708a.62.62 0 0 1-.62-.62V16.67a.62.62 0 1 1 1.241 0v36.416c0 .343-.278.62-.62.62"/></g><g><path fill="#fff" d="M49.197 25.18c.1-.613.156-1.24.156-1.882 0-.639-.056-1.268-.156-1.88l-3.943-.627a7.897 7.897 0 0 0-.423-1.013l2.345-3.23a11.539 11.539 0 0 0-2.657-2.662l-3.232 2.346a7.716 7.716 0 0 0-1.014-.421l-.628-3.946a11.417 11.417 0 0 0-3.758 0l-.629 3.946a7.83 7.83 0 0 0-1.013.42l-3.234-2.345a11.604 11.604 0 0 0-2.658 2.661l2.347 3.23a7.237 7.237 0 0 0-.42 1.014l-3.944.627a11.468 11.468 0 0 0 0 3.761l3.943.626c.114.35.257.689.421 1.013l-2.347 3.233a11.683 11.683 0 0 0 2.658 2.661l3.234-2.347c.325.167.664.306 1.013.423l.629 3.943c.61.102 1.238.152 1.878.152.64 0 1.27-.05 1.88-.152l.628-3.943c.349-.117.688-.26 1.014-.423l3.232 2.347a11.617 11.617 0 0 0 2.657-2.66l-2.345-3.234c.161-.324.307-.662.423-1.013z"/></g><g><path fill="#fff" d="M40.503 26.033a3.863 3.863 0 1 1-5.462-5.464 3.863 3.863 0 0 1 5.462 5.464"/></g><g><path fill="#00bda2" d="M37.774 27.786a4.489 4.489 0 0 1-4.484-4.484 4.488 4.488 0 0 1 4.484-4.482 4.488 4.488 0 0 1 4.481 4.482 4.488 4.488 0 0 1-4.481 4.484m0-7.726a3.247 3.247 0 0 0-3.244 3.242 3.248 3.248 0 0 0 3.244 3.244 3.246 3.246 0 0 0 3.241-3.244 3.245 3.245 0 0 0-3.241-3.242"/></g><g><path fill="#00bda2" d="M35.786 35.352a.62.62 0 0 1-.512-.514l-.57-3.582a8.115 8.115 0 0 1-.394-.163l-2.934 2.13a.625.625 0 0 1-.728 0 12.185 12.185 0 0 1-2.799-2.8.62.62 0 0 1 .003-.727l2.13-2.935c-.058-.13-.113-.26-.165-.39l-3.58-.57a.62.62 0 0 1-.513-.51 12.134 12.134 0 0 1 0-3.966.62.62 0 0 1 .514-.51l3.58-.57c.051-.132.106-.263.163-.392l-2.13-2.932a.621.621 0 0 1-.003-.726 12.18 12.18 0 0 1 2.8-2.803.62.62 0 0 1 .728 0l2.936 2.13c.132-.058.263-.113.391-.163l.57-3.584a.622.622 0 0 1 .513-.514 12.228 12.228 0 0 1 3.96 0c.264.044.47.251.512.514l.57 3.586c.13.05.261.103.392.163l2.935-2.13a.621.621 0 0 1 .726-.004 12.093 12.093 0 0 1 2.8 2.806.619.619 0 0 1-.003.725l-2.129 2.933c.058.131.114.26.163.391l3.582.57c.265.042.472.249.516.512.108.67.165 1.335.165 1.98 0 .647-.057 1.313-.165 1.982a.622.622 0 0 1-.516.512l-3.582.57c-.05.128-.105.26-.163.39l2.129 2.935a.62.62 0 0 1 .002.726 12.188 12.188 0 0 1-2.799 2.803.624.624 0 0 1-.726-.003l-2.934-2.13c-.13.058-.26.113-.392.163l-.57 3.583a.62.62 0 0 1-.513.514c-.643.107-1.31.16-1.98.16-.67 0-1.339-.053-1.98-.16zm.641-1.162c.878.109 1.798.109 2.678 0l.556-3.491a.618.618 0 0 1 .415-.49c.317-.108.63-.24.932-.39a.62.62 0 0 1 .644.052l2.862 2.079a10.919 10.919 0 0 0 1.89-1.894l-2.077-2.865a.619.619 0 0 1-.052-.641c.158-.317.29-.63.39-.933a.619.619 0 0 1 .49-.415l3.493-.555c.056-.453.085-.902.085-1.34 0-.437-.03-.886-.085-1.339l-3.492-.555a.618.618 0 0 1-.49-.416 7.269 7.269 0 0 0-.39-.932.62.62 0 0 1 .051-.643l2.078-2.86a10.967 10.967 0 0 0-1.891-1.897l-2.862 2.078a.617.617 0 0 1-.64.054 7.476 7.476 0 0 0-.936-.39.62.62 0 0 1-.415-.49l-.557-3.495c-.889-.11-1.79-.11-2.677 0l-.556 3.495a.624.624 0 0 1-.415.491c-.299.099-.614.23-.938.388a.623.623 0 0 1-.639-.053l-2.861-2.078c-.71.555-1.343 1.19-1.893 1.896l2.078 2.861a.624.624 0 0 1 .051.646c-.152.3-.281.612-.386.928a.62.62 0 0 1-.492.417l-3.491.555a10.975 10.975 0 0 0 0 2.68l3.491.554a.62.62 0 0 1 .492.418c.105.315.234.627.386.927a.624.624 0 0 1-.05.644l-2.08 2.865a11.05 11.05 0 0 0 1.894 1.894l2.861-2.079a.619.619 0 0 1 .65-.05c.281.145.593.275.927.388.22.073.379.262.415.49z"/></g><g><g><path fill="url(#ak7jg)" d="M42.742 58.671h-9.931a.62.62 0 0 1 0-1.241h9.931a.62.62 0 0 1 0 1.241"/></g></g></g></svg>