<svg xmlns="http://www.w3.org/2000/svg" width="64" height="67" viewBox="0 0 64 67"><defs><linearGradient id="p9wia" x1="42.43" x2=".16" y1="22.01" y2="22.01" gradientUnits="userSpaceOnUse"><stop offset="0" stop-color="#3effe3"/><stop offset="1" stop-color="#00ea99"/></linearGradient><linearGradient id="p9wib" x1="62.76" x2="31.65" y1="28.73" y2="28.73" gradientUnits="userSpaceOnUse"><stop offset="0" stop-color="#3effe3"/><stop offset="1" stop-color="#00ea99"/></linearGradient><linearGradient id="p9wic" x1="51.65" x2="43.41" y1="56.63" y2="56.63" gradientUnits="userSpaceOnUse"><stop offset="0" stop-color="#3effe3"/><stop offset="1" stop-color="#00ea99"/></linearGradient><linearGradient id="p9wid" x1="51.63" x2="40.63" y1="60.35" y2="60.35" gradientUnits="userSpaceOnUse"><stop offset="0" stop-color="#3effe3"/><stop offset="1" stop-color="#00ea99"/></linearGradient><linearGradient id="p9wie" x1="51.68" x2="37.85" y1="52.91" y2="52.91" gradientUnits="userSpaceOnUse"><stop offset="0" stop-color="#3effe3"/><stop offset="1" stop-color="#00ea99"/></linearGradient><linearGradient id="p9wif" x1="48.66" x2="36.22" y1="65.93" y2="65.93" gradientUnits="userSpaceOnUse"><stop offset="0" stop-color="#3effe3"/><stop offset="1" stop-color="#00ea99"/></linearGradient><linearGradient id="p9wig" x1="25.67" x2="19.21" y1="38.96" y2="38.96" gradientUnits="userSpaceOnUse"><stop offset="0" stop-color="#3effe3"/><stop offset="1" stop-color="#00ea99"/></linearGradient></defs><g><g opacity=".3"><path fill="url(#p9wia)" d="M42.625 22.013c0 11.772-9.541 21.312-21.312 21.312C9.543 43.325 0 33.785 0 22.013 0 10.243 9.543.7 21.313.7s21.312 9.543 21.312 21.313"/></g><g><path fill="#fff" d="M62.9 26.87c0-11.673-9.773-21.061-21.583-20.43-10.483.56-18.989 9.264-19.326 19.755-.195 6.068 2.259 11.551 6.287 15.413 2.246 2.152 3.445 5.173 3.445 8.283v1.159h21.434v-1.382c0-3.112 1.358-6.02 3.585-8.194 3.797-3.71 6.158-8.876 6.158-14.604"/></g><g><path fill="url(#p9wib)" d="M42.941 6.42c4.768 4.406 7.756 10.712 7.756 17.716 0 11.623-8.222 21.323-19.167 23.61.128.702.2 1.42.2 2.143v1.158h21.435v-1.382c0-3.111 1.358-6.02 3.584-8.194 3.797-3.709 6.159-8.875 6.159-14.604 0-11.132-8.896-20.184-19.967-20.447"/></g><g><path fill="#fff" d="M49.88 58.49H35a1.86 1.86 0 0 1 0-3.72h14.88a1.86 1.86 0 0 1 0 3.72"/></g><g><path fill="#fff" d="M49.88 62.21H35a1.86 1.86 0 0 1 0-3.72h14.88a1.86 1.86 0 0 1 0 3.72"/></g><g><path fill="#fff" d="M49.88 54.77H35a1.86 1.86 0 0 1-1.86-1.86v-1.86h18.6v1.86a1.86 1.86 0 0 1-1.86 1.86"/></g><g><path fill="url(#p9wic)" d="M49.827 58.49H45.24a1.86 1.86 0 0 1 0-3.72h4.587a1.86 1.86 0 0 1 0 3.72"/></g><g><path fill="url(#p9wid)" d="M49.827 62.21H42.45a1.86 1.86 0 0 1 0-3.72h7.377a1.86 1.86 0 0 1 0 3.72"/></g><g><path fill="url(#p9wie)" d="M49.89 54.77H39.66a1.86 1.86 0 0 1-1.86-1.86v-1.86h13.95v1.86a1.86 1.86 0 0 1-1.86 1.86"/></g><g><path fill="#00bda2" d="M31.73 51.747a.698.698 0 0 1-.697-.698v-1.158c0-2.977-1.177-5.813-3.23-7.78A21.164 21.164 0 0 1 21.3 26.173c.352-10.876 9.13-19.851 19.987-20.43C47.16 5.423 52.746 7.476 57 11.512c4.26 4.036 6.605 9.49 6.605 15.356 0 5.727-2.26 11.091-6.368 15.102-2.176 2.127-3.376 4.859-3.376 7.696v1.382a.697.697 0 0 1-.697.698zm.695-1.395H52.46v-.685c0-3.215 1.348-6.303 3.794-8.693 3.835-3.747 5.947-8.755 5.947-14.105 0-5.479-2.19-10.573-6.166-14.344-3.976-3.77-9.195-5.693-14.678-5.39-10.138.542-18.333 8.925-18.661 19.084a19.778 19.778 0 0 0 6.07 14.886c2.325 2.228 3.659 5.43 3.659 8.786z"/></g><g><path fill="#00bda2" d="M35.008 59.185a2.558 2.558 0 0 1 0-5.115h14.88a2.56 2.56 0 0 1 2.557 2.558 2.56 2.56 0 0 1-2.557 2.557zm-.002-3.72c-.64 0-1.162.52-1.162 1.158 0 .638.522 1.157 1.162 1.157H49.88c.64 0 1.162-.52 1.162-1.157 0-.638-.522-1.158-1.162-1.158z"/></g><g><path fill="#00bda2" d="M35.008 62.905a2.558 2.558 0 0 1 0-5.115h14.88a2.56 2.56 0 0 1 2.557 2.558 2.56 2.56 0 0 1-2.557 2.557zm-.002-3.72c-.64 0-1.162.52-1.162 1.158 0 .638.522 1.157 1.162 1.157H49.88c.64 0 1.162-.52 1.162-1.157 0-.638-.522-1.158-1.162-1.158z"/></g><g><path fill="#00bda2" d="M35.008 55.465a2.558 2.558 0 0 1-2.558-2.557v-1.86c0-.386.312-.698.698-.698h18.6c.385 0 .697.312.697.698v1.86a2.56 2.56 0 0 1-2.557 2.557zm-1.164-3.72v1.158c0 .638.522 1.157 1.162 1.157H49.88c.64 0 1.162-.52 1.162-1.157v-1.158z"/></g><g><path fill="url(#p9wif)" d="M48.028 66.625h-11.16a.698.698 0 0 1 0-1.395h11.16a.698.698 0 0 1 0 1.395"/></g><g><path fill="#fff" d="M25.7 60.352V17.57l-6.51 1.86-6.51-1.86v42.782z"/></g><g><path fill="url(#p9wig)" d="M25.7 60.352V17.57l-6.51 1.86v40.922z"/></g><g><path fill="#00bda2" d="M12.688 61.047a.697.697 0 0 1-.698-.698V17.567c0-.218.101-.425.278-.556a.695.695 0 0 1 .61-.114l6.32 1.806 6.317-1.806a.7.7 0 0 1 .89.67v42.782a.698.698 0 0 1-.697.698zm.696-1.395h11.617v-41.16l-5.618 1.606a.687.687 0 0 1-.383 0l-5.616-1.607z"/></g><g><path fill="#00d4b5" d="M25.7 64.07v-3.72H12.68v3.72a1.86 1.86 0 0 0 1.86 1.86h9.3a1.86 1.86 0 0 0 1.86-1.86"/></g><g><path fill="#00bda2" d="M14.548 66.625a2.56 2.56 0 0 1-2.558-2.557v-3.72c0-.386.312-.698.698-.698h13.02c.384 0 .697.312.697.698v3.72a2.56 2.56 0 0 1-2.557 2.557zm-1.164-5.58v3.015c0 .64.52 1.16 1.162 1.16h9.293c.64 0 1.162-.52 1.162-1.16v-3.015z"/></g><g><path fill="#fff" d="M25.7 17.57L19.19 6.41l-6.51 11.16 6.51 1.86z"/></g><g><path fill="#00d4b5" d="M23.84 14.382L19.19 6.41v9.3z"/></g><g><path fill="#00bda2" d="M18.995 20.103l-6.51-1.86a.698.698 0 0 1-.41-1.021l6.51-11.16c.25-.43.956-.43 1.204 0l6.51 11.16a.698.698 0 0 1 .047.61c-.081.2-.25.352-.458.41l-6.51 1.86a.69.69 0 0 1-.383 0zm-5.263-2.954l5.456 1.559 5.455-1.559-5.455-9.353z"/></g><g><path fill="#00bda2" d="M19.197 61.047a.697.697 0 0 1-.697-.697V19.428a.697.697 0 1 1 1.395 0V60.35a.698.698 0 0 1-.698.697"/></g><g><path fill="#fff" d="M55.285 28.996c.112-.688.175-1.393.175-2.114 0-.718-.063-1.425-.175-2.113l-4.431-.705a8.873 8.873 0 0 0-.475-1.138l2.635-3.63a12.966 12.966 0 0 0-2.986-2.991l-3.632 2.637a8.67 8.67 0 0 0-1.139-.474l-.706-4.434a12.829 12.829 0 0 0-4.223 0l-.707 4.434a8.8 8.8 0 0 0-1.138.472l-3.635-2.635a13.04 13.04 0 0 0-2.986 2.99l2.638 3.63a8.133 8.133 0 0 0-.474 1.14l-4.43.704a12.874 12.874 0 0 0 0 4.227l4.43.703c.129.394.289.774.474 1.138l-2.638 3.634a13.128 13.128 0 0 0 2.986 2.99l3.635-2.638c.365.187.746.344 1.138.476l.707 4.43a12.83 12.83 0 0 0 2.11.171h.001c.718 0 1.426-.056 2.112-.17l.706-4.431a8.941 8.941 0 0 0 1.14-.476l3.631 2.638a13.054 13.054 0 0 0 2.986-2.99l-2.635-3.634c.181-.364.345-.744.475-1.138z"/></g><g><path fill="#fff" d="M45.509 29.949a4.341 4.341 0 0 1-6.138-6.138 4.341 4.341 0 0 1 6.138 6.138"/></g><g><path fill="#00bda2" d="M42.449 31.926a5.044 5.044 0 0 1-5.039-5.04 5.043 5.043 0 0 1 5.039-5.036 5.043 5.043 0 0 1 5.036 5.037 5.043 5.043 0 0 1-5.036 5.039m0-8.682a3.645 3.645 0 0 0-3.644 3.638 3.647 3.647 0 0 0 3.644 3.64 3.645 3.645 0 0 0 3.64-3.64 3.643 3.643 0 0 0-3.64-3.638"/></g><g><path fill="#00bda2" d="M40.221 40.423a.697.697 0 0 1-.575-.578l-.641-4.025a9.115 9.115 0 0 1-.442-.183l-3.298 2.394a.703.703 0 0 1-.817 0 13.692 13.692 0 0 1-3.146-3.148.697.697 0 0 1 .003-.816l2.393-3.298a12.88 12.88 0 0 1-.184-.44l-4.022-.64a.697.697 0 0 1-.578-.573 13.636 13.636 0 0 1 0-4.456.697.697 0 0 1 .578-.574l4.022-.64c.059-.148.12-.295.184-.44l-2.393-3.295a.698.698 0 0 1-.004-.816 13.686 13.686 0 0 1 3.147-3.15.697.697 0 0 1 .817 0l3.3 2.394c.149-.065.296-.126.44-.183l.64-4.027a.7.7 0 0 1 .576-.578 13.74 13.74 0 0 1 4.45 0c.297.05.529.282.576.578l.64 4.029c.147.056.294.116.44.183l3.298-2.394a.698.698 0 0 1 .817-.004 13.589 13.589 0 0 1 3.145 3.154.695.695 0 0 1-.002.814l-2.392 3.297c.065.147.127.292.183.439l4.025.64a.7.7 0 0 1 .58.575c.121.753.184 1.5.184 2.226s-.063 1.475-.185 2.226a.7.7 0 0 1-.58.576l-4.024.64a9.589 9.589 0 0 1-.183.439l2.392 3.298a.697.697 0 0 1 .001.816 13.696 13.696 0 0 1-3.144 3.15.701.701 0 0 1-.817-.004l-3.296-2.394a8.168 8.168 0 0 1-.441.184l-.641 4.026a.696.696 0 0 1-.576.578c-.722.12-1.471.18-2.225.18s-1.504-.06-2.225-.18zm.717-1.306c.986.122 2.019.122 3.007 0l.625-3.923a.694.694 0 0 1 .466-.551 8.49 8.49 0 0 0 1.047-.437.697.697 0 0 1 .724.058L50.02 36.6a12.268 12.268 0 0 0 2.124-2.13l-2.333-3.218a.695.695 0 0 1-.058-.72c.177-.357.325-.71.438-1.049a.695.695 0 0 1 .55-.467l3.924-.623c.062-.508.095-1.013.095-1.505 0-.491-.033-.996-.095-1.505l-3.923-.624a.694.694 0 0 1-.55-.467 8.169 8.169 0 0 0-.44-1.048.697.697 0 0 1 .06-.722l2.334-3.215a12.322 12.322 0 0 0-2.126-2.13l-3.214 2.334a.693.693 0 0 1-.72.061 8.399 8.399 0 0 0-1.05-.439.697.697 0 0 1-.467-.55l-.626-3.928a12.226 12.226 0 0 0-3.006 0l-.625 3.928a.7.7 0 0 1-.467.552c-.336.11-.69.258-1.053.435a.7.7 0 0 1-.718-.06l-3.215-2.334a12.294 12.294 0 0 0-2.126 2.131l2.334 3.215a.701.701 0 0 1 .058.726 7.69 7.69 0 0 0-.434 1.042.696.696 0 0 1-.552.469l-3.923.624a12.336 12.336 0 0 0 0 3.01l3.923.623c.257.042.47.222.552.47.118.354.263.705.434 1.042a.702.702 0 0 1-.057.724l-2.335 3.219c.62.793 1.332 1.506 2.126 2.129l3.215-2.336a.695.695 0 0 1 .729-.056c.317.163.666.309 1.042.435a.696.696 0 0 1 .467.55z"/></g></g></svg>