<svg xmlns="http://www.w3.org/2000/svg" width="28" height="27" viewBox="0 0 28 27"><g><g><path fill="#fff" d="M7.447 17.823a1.3 1.3 0 0 0-1.833-1.833l-3.679 3.68a1.3 1.3 0 1 0 1.833 1.832zm3.676 3.68a1.298 1.298 0 0 0-.069-1.766 1.305 1.305 0 0 0-1.769-.068l-1.837 1.833a1.298 1.298 0 0 0 .543 2.251c.476.115.976-.047 1.294-.418zm5.97 5.082l.923-.923c.497-.496.82-1.139.923-1.833l.767-5.369 3.237-3.237A14.209 14.209 0 0 0 27.13 5.11V1.3a1.3 1.3 0 0 0-1.3-1.3h-3.783a14.209 14.209 0 0 0-10.114 4.186L8.695 7.423l-5.369.767a3.263 3.263 0 0 0-1.833.923l-.923.923a1.95 1.95 0 0 0 0 2.756l1.378 1.378a1.3 1.3 0 1 0 1.833-1.833l-.923-.923.455-.455a.65.65 0 0 1 .364-.182l5.37-.767a2.6 2.6 0 0 0 1.468-.74l3.237-3.238A11.622 11.622 0 0 1 22.02 2.6h2.51v2.51a11.622 11.622 0 0 1-3.433 8.267l-3.237 3.237a2.6 2.6 0 0 0-.74 1.47l-.768 5.355a.65.65 0 0 1-.182.364l-.455.455-.923-.923a1.3 1.3 0 1 0-1.833 1.833l1.378 1.378c.365.367.861.573 1.378.572a1.937 1.937 0 0 0 1.378-.533z"/></g><g><path fill="#00bda2" d="M20.32 12.306a3.9 3.9 0 0 0 0-5.512 1.3 1.3 0 1 0-1.833 1.833 1.3 1.3 0 1 1-1.833 0 1.3 1.3 0 0 0-1.833-1.833 3.9 3.9 0 1 0 5.512 5.512z"/></g></g></svg>