<svg xmlns="http://www.w3.org/2000/svg" width="54" height="54" viewBox="0 0 54 54"><defs><linearGradient id="15fqa" x1="7.51" x2="49.25" y1="2.29" y2="41.89" gradientUnits="userSpaceOnUse"><stop offset="0" stop-color="#00d4b5"/><stop offset="1" stop-color="#990dee"/></linearGradient><linearGradient id="15fqb" x1="-4.52" x2="60.27" y1="-7.28" y2="54" gradientUnits="userSpaceOnUse"><stop offset="0" stop-color="#00d4b5"/><stop offset="1" stop-color="#990dee"/></linearGradient></defs><g><g><g><path fill="url(#15fqa)" d="M42.04 34.204c0 1.04-.497 2.032-1.332 2.653l-.342.255a8.067 8.067 0 0 1-5.858 1.54l-14.376-1.818.688-9.06.405-5.338.435-.16a8.087 8.087 0 0 0 4.904-5.162l1.819-5.856c.128-.414.412-.75.798-.947a1.58 1.58 0 0 1 1.237-.088c.703.24 1.143.924 1.07 1.664l-.758 7.648a1.58 1.58 0 0 0 1.91 1.702l5.392-1.17A3.31 3.31 0 0 1 42.04 23.3zM18.029 22.89l-1.046 13.744h-3.418V22.889zm19.333-5.914l-3.268.71.543-5.487a4.737 4.737 0 0 0-3.197-4.97 4.719 4.719 0 0 0-3.692.262 4.717 4.717 0 0 0-2.386 2.829l-1.819 5.856a4.904 4.904 0 0 1-2.974 3.131l-1.126.414h-7.46c-.873 0-1.582.709-1.582 1.582v16.914a1.582 1.582 0 0 0 1.582 1.583l6.359-.001 15.77 1.994a11.21 11.21 0 0 0 8.145-2.142l.342-.255a6.5 6.5 0 0 0 2.607-5.19V23.3a6.47 6.47 0 0 0-7.844-6.325z"/></g><g><path fill="url(#15fqb)" d="M43.863 43.863a23.683 23.683 0 0 1-16.858 6.983 23.683 23.683 0 0 1-16.858-6.983 23.683 23.683 0 0 1-6.983-16.858c0-6.368 2.48-12.355 6.983-16.858a23.683 23.683 0 0 1 16.858-6.983c6.368 0 12.355 2.48 16.858 6.983a23.683 23.683 0 0 1 6.983 16.858c0 6.368-2.48 12.355-6.983 16.858zm2.229-35.955C40.992 2.808 34.212 0 27 0 19.788 0 13.008 2.809 7.908 7.908 2.808 13.008 0 19.788 0 27c0 7.212 2.809 13.992 7.908 19.092C13.008 51.192 19.788 54 27 54c7.212 0 13.992-2.809 19.092-7.908C51.192 40.992 54 34.212 54 27c0-7.212-2.809-13.992-7.908-19.092z"/></g></g></g></svg>