<svg xmlns="http://www.w3.org/2000/svg" width="32" height="32" viewBox="0 0 32 32"><g><g><path fill="#fff" d="M7.608 17.647L2.28 21.708c-.942.719-2.28.028-2.28-1.177V4.427C0 1.985 1.916 0 4.286 0h11.428C18.084 0 20 1.985 20 4.427v8.793c0 2.442-1.916 4.427-4.286 4.427zm-4.75-.022l3.423-2.613c.246-.188.545-.29.851-.29h8.573c.786 0 1.428-.666 1.428-1.495V4.428c0-.829-.642-1.495-1.428-1.495H4.285c-.786 0-1.428.666-1.428 1.495z"/></g><g><path fill="#fff" d="M25.716 25.003a1.404 1.404 0 0 0-.851-.289h-8.58c-.785 0-1.428-.666-1.428-1.494v-7.326c0-.81-.64-1.467-1.428-1.467-.79 0-1.429.657-1.429 1.467v7.326c0 2.442 1.916 4.427 4.286 4.427h8.106l5.328 4.061c.942.719 2.28.028 2.28-1.177V14.427C32 11.985 30.084 10 27.714 10h-8.571c-.79 0-1.429.657-1.429 1.466 0 .81.64 1.467 1.429 1.467h8.571c.786 0 1.429.666 1.429 1.494v13.188z"/></g><g><path fill="#00bda2" d="M7.5 10a1.5 1.5 0 1 1 0-3h6a1.5 1.5 0 1 1 0 3z"/></g><g><path fill="#00bda2" d="M18.5 20a1.5 1.5 0 1 1 0-3h6a1.5 1.5 0 1 1 0 3z"/></g></g></svg>