<svg xmlns="http://www.w3.org/2000/svg" width="27" height="27" viewBox="0 0 27 27"><defs><linearGradient id="k1hra" x1="13.2" x2="13.2" y1="4.8" y2="25.87" gradientUnits="userSpaceOnUse"><stop offset="0" stop-color="#c361ff"/><stop offset="1" stop-color="#990dee"/></linearGradient></defs><g><g><g><path fill="#fff" d="M1.746 19.765a1.2 1.2 0 0 1 2.081-1.195A10.794 10.794 0 0 0 13.2 24C19.165 24 24 19.165 24 13.2c0-5.965-4.835-10.8-10.8-10.8-5.965 0-10.8 4.835-10.8 10.8a1.2 1.2 0 0 1-2.4 0C0 5.91 5.91 0 13.2 0c7.29 0 13.2 5.91 13.2 13.2 0 7.29-5.91 13.2-13.2 13.2a13.193 13.193 0 0 1-11.454-6.635z"/></g><g><path fill="url(#k1hra)" d="M10.817 9.6v1.8H15.6a2.4 2.4 0 0 1 2.4 2.4v1.8a2.4 2.4 0 0 1-2.4 2.4h-1.2v1.204c0 .664-.537 1.203-1.2 1.203-.663 0-1.2-.539-1.2-1.203V18H9.6a1.2 1.2 0 0 1 0-2.4h6v-1.8h-4.783a2.4 2.4 0 0 1-2.4-2.4V9.6a2.4 2.4 0 0 1 2.4-2.4H12V6a1.2 1.2 0 0 1 2.4 0v1.2h2.344a1.2 1.2 0 0 1 0 2.4z"/></g></g></g></svg>