<svg xmlns="http://www.w3.org/2000/svg" width="22" height="22" viewBox="0 0 22 22"><defs><linearGradient id="iun8a" x1="19" x2="27.6" y1="2" y2="13.1" gradientUnits="userSpaceOnUse"><stop offset="0" stop-color="#c361ff"/><stop offset="1" stop-color="#990dee"/></linearGradient><linearGradient id="iun8b" x1="11" x2="19.6" y1="6" y2="17.1" gradientUnits="userSpaceOnUse"><stop offset="0" stop-color="#c361ff"/><stop offset="1" stop-color="#990dee"/></linearGradient><linearGradient id="iun8c" x1="3" x2="11.6" y1="0" y2="11.1" gradientUnits="userSpaceOnUse"><stop offset="0" stop-color="#c361ff"/><stop offset="1" stop-color="#990dee"/></linearGradient><linearGradient id="iun8d" x1="10.57" x2="30.61" y1="3.18" y2="13.78" gradientUnits="userSpaceOnUse"><stop offset="0" stop-color="#c361ff"/><stop offset="1" stop-color="#990dee"/></linearGradient></defs><g><g><g><path fill="#fff" d="M20 10.09a1 1 0 1 1 2 0V14a3 3 0 0 1-3 3H3a3 3 0 0 1-3-3V8a1 1 0 0 1 2 0v6a1 1 0 0 0 1 1h16a1 1 0 0 0 1-1zM7.98 2a1 1 0 0 1 0-2H15a1 1 0 0 1 0 2z"/></g><g><path fill="url(#iun8a)" d="M19 8a3 3 0 1 0 0-6 3 3 0 0 0 0 6zm0-2a1 1 0 1 1 0-2 1 1 0 0 1 0 2z"/></g><g><path fill="url(#iun8b)" d="M11 12a3 3 0 1 0 0-6 3 3 0 0 0 0 6zm0-2a1 1 0 1 1 0-2 1 1 0 0 1 0 2z"/></g><g><path fill="url(#iun8c)" d="M3 6a3 3 0 1 0 0-6 3 3 0 0 0 0 6zm0-2a1 1 0 1 1 0-2 1 1 0 0 1 0 2z"/></g><g><path fill="url(#iun8d)" d="M9.566 8.838l1.11-1.664L4.69 3.18 3.58 4.844zm7.994-1.932l-.89-1.79-4.014 1.996.89 1.79z"/></g><g><path fill="#fff" d="M13.82 15l1.4 7H6.78l1.4-7zm-4.6 5h3.56l-.6-3H9.82z"/></g><g><path fill="#fff" d="M16 17a1 1 0 0 1 0 2H6a1 1 0 0 1 0-2z"/></g></g></g></svg>