<svg xmlns="http://www.w3.org/2000/svg" width="23" height="26" viewBox="0 0 23 26"><defs><linearGradient id="5t4ea" x1="15.4" x2="15.4" y1="0" y2="14.84" gradientUnits="userSpaceOnUse"><stop offset="0" stop-color="#c361ff"/><stop offset="1" stop-color="#990dee"/></linearGradient></defs><g><g><g><g><path fill="#fff" d="M0 12.1a1.1 1.1 0 0 1 2.2 0v12.1a1.1 1.1 0 0 1-2.2 0z"/></g><g><path fill="#fff" d="M1.797 15.963A1.1 1.1 0 0 1 .403 14.26l2.656-2.174a3.3 3.3 0 0 1 3.349-.497l2.897 1.196c2.004.872 2.796 2.41 1.97 4.204-.882 1.913-2.931 1.996-5.668.704a1.1 1.1 0 0 1 .94-1.99c1.776.84 2.525.81 2.73.366.259-.563.111-.848-.83-1.258l-2.878-1.188a1.1 1.1 0 0 0-1.116.166z"/></g><g><path fill="#fff" d="M17.992 14.418c1.494-.68 2.811-.56 3.602.578.954 1.371.436 2.737-.8 3.893-.455.426-2.791 2.258-7.164 5.623a3.3 3.3 0 0 1-3.01.53l-6.552-2.076a1.1 1.1 0 1 1 .665-2.097l6.552 2.076a1.1 1.1 0 0 0 1.003-.177c4.243-3.265 6.63-5.136 7.004-5.486.536-.501.652-.806.496-1.03-.072-.104-.25-.12-.84.147l-6.4 3.273a1.1 1.1 0 0 1-.836.069l-5.986-1.914a1.1 1.1 0 0 1 .67-2.096l5.554 1.776z"/></g><g><path fill="url(#5t4ea)" d="M13.215 3.3v1.1H17.6a2.2 2.2 0 0 1 2.2 2.2v1.1a2.2 2.2 0 0 1-2.2 2.2h-1.1a1.1 1.1 0 0 1-2.2 0h-2.2a1.1 1.1 0 0 1 0-2.2h5.5V6.6h-4.385a2.2 2.2 0 0 1-2.2-2.2V3.3a2.2 2.2 0 0 1 2.2-2.2H14.3a1.1 1.1 0 0 1 2.2 0h2.2a1.1 1.1 0 0 1 0 2.2z"/></g></g></g></g></svg>