<svg xmlns="http://www.w3.org/2000/svg" width="55" height="48" viewBox="0 0 55 48"><defs><linearGradient id="jwaya" x1="-2.99" x2="40.18" y1="-6.44" y2="48" gradientUnits="userSpaceOnUse"><stop offset="0" stop-color="#00d4b5"/><stop offset="1" stop-color="#990dee"/></linearGradient><linearGradient id="jwayb" x1="34.8" x2="55.43" y1="4.87" y2="26.43" gradientUnits="userSpaceOnUse"><stop offset="0" stop-color="#00d4b5"/><stop offset="1" stop-color="#990dee"/></linearGradient></defs><g><g><g><g><g><g><path fill="url(#jwaya)" d="M24 10a6 6 0 1 1-12 0 6 6 0 0 1 12 0zM18 0C12.477 0 8 4.477 8 10s4.477 10 10 10 10-4.477 10-10S23.523 0 18 0zm18 42v-8.3a7.18 7.18 0 0 0-4.28-6.34 36.62 36.62 0 0 0-27.44 0A7.18 7.18 0 0 0 0 33.7V46a2 2 0 1 0 4 0V33.7a3.26 3.26 0 0 1 1.78-2.62 32.64 32.64 0 0 1 24.44 0A3.26 3.26 0 0 1 32 33.7V42a2 2 0 0 1-2 2H10a2 2 0 1 0 0 4h20a6 6 0 0 0 6-6z"/></g><g><path fill="url(#jwayb)" d="M52.51 26.411a.918.918 0 0 1-.69-.314l-3.552-4.042a7.813 7.813 0 0 1-7.3.565 7.881 7.881 0 0 1-4.588-5.735 7.942 7.942 0 0 1 3.722-8.361 7.852 7.852 0 0 1 9.081.75 7.953 7.953 0 0 1 2.314 8.86.919.919 0 0 1-1.187.536.926.926 0 0 1-.533-1.193 6.104 6.104 0 0 0-.65-5.54 6.037 6.037 0 0 0-4.87-2.674 5.93 5.93 0 0 0-4.748 2.146 6.1 6.1 0 0 0 .07 7.88 6.023 6.023 0 0 0 7.75 1.184 1.833 1.833 0 0 1 2.328.389l3.552 4.042c.238.272.296.66.147.99a.92.92 0 0 1-.837.545z"/><path fill="none" stroke="#000" stroke-miterlimit="50" stroke-width="2" d="M52.51 26.411a.918.918 0 0 1-.69-.314l-3.552-4.042a7.813 7.813 0 0 1-7.3.565 7.881 7.881 0 0 1-4.588-5.735 7.942 7.942 0 0 1 3.722-8.361 7.852 7.852 0 0 1 9.081.75 7.953 7.953 0 0 1 2.314 8.86.919.919 0 0 1-1.187.536.926.926 0 0 1-.533-1.193 6.104 6.104 0 0 0-.65-5.54 6.037 6.037 0 0 0-4.87-2.674 5.93 5.93 0 0 0-4.748 2.146 6.1 6.1 0 0 0 .07 7.88 6.023 6.023 0 0 0 7.75 1.184 1.833 1.833 0 0 1 2.328.389l3.552 4.042c.238.272.296.66.147.99a.92.92 0 0 1-.837.545z"/></g></g></g></g></g></g></svg>