<svg xmlns="http://www.w3.org/2000/svg" width="23" height="26" viewBox="0 0 23 26"><defs><linearGradient id="ahbga" x1="11" x2="11" y1="1" y2="17.21" gradientUnits="userSpaceOnUse"><stop offset="0" stop-color="#c361ff"/><stop offset="1" stop-color="#990dee"/></linearGradient></defs><g><g><g><g><g><path fill="#fff" d="M17.945 10.941a1 1 0 1 1 1.986.234 9.96 9.96 0 0 1-2.86 5.896c-3.905 3.906-10.237 3.906-14.142 0A9.98 9.98 0 0 1 .054 8.967a1 1 0 1 1 1.989.205 8 8 0 0 0 13.614 6.485 7.96 7.96 0 0 0 2.288-4.716zm-9.7-8.747A1 1 0 1 1 7.806.242a10.007 10.007 0 0 1 7.767 1.453 1 1 0 1 1-1.116 1.66 8.008 8.008 0 0 0-6.214-1.16z"/></g><g><path fill="url(#ahbga)" d="M3 5a1 1 0 1 1 0-2 1 1 0 0 1 0 2zm8 6a1 1 0 1 1 0-2 1 1 0 0 1 0 2zm8-4a1 1 0 1 1 0-2 1 1 0 0 1 0 2zm-2.969-.564l-2.906 1.446A2.99 2.99 0 0 0 11 7c-.544 0-1.054.145-1.494.398L5.845 4.955a3 3 0 1 0-1.238 1.578l3.59 2.396a3 3 0 1 0 5.787.76l2.982-1.484a3 3 0 1 0-.934-1.77z"/></g><g><path fill="#fff" d="M17.525 15.69l3.53 3.53c.942.943-.472 2.357-1.415 1.414l-3.53-3.529c-.942-.943.472-2.357 1.415-1.414z"/></g></g></g></g></g></svg>