<?xml version="1.0" encoding="UTF-8"?>
<svg width="24px" height="23px" viewBox="0 0 24 23" version="1.1" xmlns="http://www.w3.org/2000/svg" xmlns:xlink="http://www.w3.org/1999/xlink">
    <!-- Generator: Sketch 56.3 (81716) - https://sketch.com -->
    <title>Trust</title>
    <desc>Created with Sketch.</desc>
    <defs>
        <linearGradient x1="50%" y1="0%" x2="50%" y2="135.06843%" id="linearGradient-1">
            <stop stop-color="#C361FF" offset="0%"></stop>
            <stop stop-color="#990DEE" offset="100%"></stop>
        </linearGradient>
    </defs>
    <g id="05---Layout" stroke="none" stroke-width="1" fill="none" fill-rule="evenodd">
        <g id="lp-insur-icones" transform="translate(-533.000000, -2687.000000)" fill-rule="nonzero">
            <g id="Trust" transform="translate(533.000000, 2687.000000)">
                <path d="M0,9.2 C0,8.56487254 0.514872538,8.05 1.15,8.05 C1.78512746,8.05 2.3,8.56487254 2.3,9.2 L2.3,21.85 C2.3,22.4851275 1.78512746,23 1.15,23 C0.514872538,23 0,22.4851275 0,21.85 L0,9.2 Z" id="Path" fill="#FFFFFF"></path>
                <path d="M1.87840769,13.2330276 C1.38692942,13.635316 0.662388328,13.5630134 0.260099871,13.0715351 C-0.142188587,12.5800569 -0.0698859582,11.8555158 0.421592312,11.4532273 L3.19804368,9.18062564 C4.1805464,8.37642019 5.5253699,8.17685836 6.69906853,8.66109953 L9.72822777,9.9110894 C11.823068,10.8227035 12.6513543,12.4302285 11.7872296,14.3061923 C10.8658347,16.3064861 8.72289178,16.3929329 5.86179813,15.0420627 C5.28746934,14.7708924 5.04171084,14.0854799 5.31288115,13.5111512 C5.58405146,12.9368224 6.26946391,12.6910639 6.84379269,12.9622342 C8.70099331,13.8391146 9.48466374,13.8075011 9.69820132,13.3439237 C9.96900902,12.7560162 9.8150505,12.4572159 8.83074755,12.0286456 L5.82186734,10.7872505 C5.43063446,10.6258368 4.98235996,10.6923574 4.65485906,10.9604259 L1.87840769,13.2330276 Z" id="Path" fill="#FFFFFF"></path>
                <path d="M12.4933186,14.8526396 L18.8090389,11.6232902 C20.3709033,10.912253 21.7482837,11.0375593 22.5751912,12.2267964 C23.572411,13.6609723 23.0315262,15.0891656 21.739779,16.2969348 C21.2632596,16.7424752 18.8209098,18.6574039 14.2489278,22.1756008 C13.3538871,22.8643409 12.1784183,23.071407 11.1019063,22.7299665 L4.25232017,20.557463 C3.64691462,20.3654447 3.31179802,19.719005 3.50381629,19.1135995 C3.69583456,18.5081939 4.34227428,18.1730773 4.94767983,18.3650956 L11.797266,20.5375991 C12.1561036,20.6514127 12.547928,20.5823904 12.8462737,20.3528113 C17.2822696,16.9392574 19.7777651,14.9826597 20.1689612,14.6168958 C20.7292566,14.0930257 20.8499254,13.7744028 20.6868205,13.5398296 C20.611547,13.4315732 20.4252718,13.4146269 19.8092309,13.6937648 L13.1183984,17.1162502 C12.8479558,17.2545867 12.5337642,17.2803017 12.244427,17.1877805 L5.98638866,15.1866513 C5.38143745,14.9932065 5.04784566,14.3459785 5.24129054,13.7410273 C5.43473543,13.1360761 6.08196335,12.8024843 6.68691456,12.9959292 L12.4933186,14.8526396 Z" id="Path" fill="#FFFFFF"></path>
                <path d="M16.9131728,7.12124638 L19.097592,4.9368272 C19.7008027,4.3336165 19.7008027,3.35561872 19.097592,2.75240802 C18.4943813,2.14919733 17.5163835,2.14919733 16.9131728,2.75240802 L16.1,3.56558082 L15.2868272,2.75240802 C14.6836165,2.14919733 13.7056187,2.14919733 13.102408,2.75240802 C12.4991973,3.35561872 12.4991973,4.3336165 13.102408,4.9368272 L15.2868272,7.12124638 C15.5061503,7.34056946 15.7959143,7.45807358 16.1,7.45807358 C16.4040857,7.45807358 16.6938497,7.34056946 16.9131728,7.12124638 Z M20.7239376,1.12606243 C22.2253541,2.627479 22.2253541,5.06175623 20.7239376,6.5631728 L18.5395184,8.74759198 C17.8844281,9.40268225 17.0080366,9.75807358 16.1,9.75807358 C15.1919634,9.75807358 14.3155719,9.40268225 13.6604816,8.74759198 L11.4760624,6.5631728 C9.97464586,5.06175623 9.97464586,2.627479 11.4760624,1.12606243 C12.7291302,-0.127005389 14.6319738,-0.334274868 16.1,0.504253991 C17.5680262,-0.334274868 19.4708698,-0.127005389 20.7239376,1.12606243 Z" id="Path" fill="url(#linearGradient-1)"></path>
            </g>
        </g>
    </g>
</svg>