<svg xmlns="http://www.w3.org/2000/svg" width="41" height="74" viewBox="0 0 41 74"><defs><linearGradient id="daa7a" x1="1.17" x2="47.16" y1="22.19" y2="95.34" gradientUnits="userSpaceOnUse"><stop offset="0" stop-color="#990dee"/><stop offset="1" stop-color="#02e8c7"/></linearGradient><linearGradient id="daa7b" x1="6.96" x2="34.04" y1="-4.69" y2="32.82" gradientUnits="userSpaceOnUse"><stop offset="0" stop-color="#02e8c7"/><stop offset="1" stop-color="#990dee"/></linearGradient><linearGradient id="daa7c" x1="32.2" x2="32.12" y1="67.92" y2="65.46" gradientUnits="userSpaceOnUse"><stop offset="0" stop-color="#990dee"/><stop offset="1" stop-color="#990dee"/></linearGradient></defs><g><g><g transform="rotate(-180 20.5 52.5)"><path fill="url(#daa7a)" d="M30.242 69.564l.158-5.184h6.48l-.157 5.184zm-26.085 0L4 64.38h6.48l.157 5.184zm30.483-31.58a19.89 19.89 0 0 0-14.2-6.004 19.69 19.69 0 0 0-7.208 1.362 1.296 1.296 0 1 0 .945 2.414 17.107 17.107 0 0 1 6.263-1.184c4.625 0 9.123 1.901 12.34 5.217 3.03 3.123 4.628 7.153 4.5 11.349l-.322 10.65h-6.48l.33-10.872c.086-2.457-.859-4.837-2.659-6.7a10.78 10.78 0 0 0-7.71-3.286 10.78 10.78 0 0 0-7.708 3.285c-1.8 1.864-2.745 4.244-2.66 6.695l.33 10.878h-6.48L3.6 51.138c-.091-3.008.714-5.972 2.329-8.571a1.296 1.296 0 0 0-2.202-1.368C1.84 44.233.902 47.697 1.008 51.216L1.604 70.9c.022.7.595 1.257 1.296 1.257h9.073a1.296 1.296 0 0 0 1.296-1.335l-.607-19.995c-.061-1.748.626-3.456 1.933-4.81 1.508-1.561 3.693-2.494 5.845-2.494 2.152 0 4.337.933 5.845 2.494 1.307 1.354 1.994 3.062 1.933 4.815l-.607 19.99a1.297 1.297 0 0 0 1.295 1.335h9.074c.7 0 1.274-.557 1.295-1.257l.597-19.683c.148-4.902-1.71-9.602-5.232-13.232z"/><path fill="none" stroke="#000" stroke-miterlimit="50" stroke-width=".6" d="M30.242 69.564l.158-5.184h6.48l-.157 5.184zm-26.085 0L4 64.38h6.48l.157 5.184zm30.483-31.58a19.89 19.89 0 0 0-14.2-6.004 19.69 19.69 0 0 0-7.208 1.362 1.296 1.296 0 1 0 .945 2.414 17.107 17.107 0 0 1 6.263-1.184c4.625 0 9.123 1.901 12.34 5.217 3.03 3.123 4.628 7.153 4.5 11.349l-.322 10.65h-6.48l.33-10.872c.086-2.457-.859-4.837-2.659-6.7a10.78 10.78 0 0 0-7.71-3.286 10.78 10.78 0 0 0-7.708 3.285c-1.8 1.864-2.745 4.244-2.66 6.695l.33 10.878h-6.48L3.6 51.138c-.091-3.008.714-5.972 2.329-8.571a1.296 1.296 0 0 0-2.202-1.368C1.84 44.233.902 47.697 1.008 51.216L1.604 70.9c.022.7.595 1.257 1.296 1.257h9.073a1.296 1.296 0 0 0 1.296-1.335l-.607-19.995c-.061-1.748.626-3.456 1.933-4.81 1.508-1.561 3.693-2.494 5.845-2.494 2.152 0 4.337.933 5.845 2.494 1.307 1.354 1.994 3.062 1.933 4.815l-.607 19.99a1.297 1.297 0 0 0 1.295 1.335h9.074c.7 0 1.274-.557 1.295-1.257l.597-19.683c.148-4.902-1.71-9.602-5.232-13.232z"/></g><g transform="rotate(-360 20 13)"><path fill="url(#daa7b)" d="M29.737 13.62c-2.563 4.063-7.126 7.43-9.3 8.1-2.174-.67-6.738-4.037-9.3-8.1-1-1.585-2.085-3.929-1.576-6.094.427-1.813 1.98-3.375 3.776-3.799.383-.09.768-.134 1.148-.134a4.83 4.83 0 0 1 3.424 1.415 3.586 3.586 0 0 0 2.534 1.059 3.579 3.579 0 0 0 2.52-1.059 4.855 4.855 0 0 1 4.573-1.28c1.797.422 3.35 1.984 3.776 3.798.51 2.165-.575 4.51-1.575 6.094zM28.131 1.204c-2.544-.599-5.16.137-6.997 1.968a1.011 1.011 0 0 1-.691.303 1.017 1.017 0 0 1-.704-.303c-1.837-1.83-4.452-2.566-6.997-1.968-2.76.65-5.052 2.952-5.705 5.729-.566 2.405.093 5.196 1.907 8.07 2.88 4.566 8.298 8.687 11.218 9.322a1.297 1.297 0 0 0 .55 0c2.92-.635 8.338-4.756 11.218-9.322 1.813-2.874 2.473-5.665 1.907-8.07-.653-2.777-2.946-5.079-5.706-5.729z"/><path fill="none" stroke="#000" stroke-miterlimit="50" stroke-width=".6" d="M29.737 13.62c-2.563 4.063-7.126 7.43-9.3 8.1-2.174-.67-6.738-4.037-9.3-8.1-1-1.585-2.085-3.929-1.576-6.094.427-1.813 1.98-3.375 3.776-3.799.383-.09.768-.134 1.148-.134a4.83 4.83 0 0 1 3.424 1.415 3.586 3.586 0 0 0 2.534 1.059 3.579 3.579 0 0 0 2.52-1.059 4.855 4.855 0 0 1 4.573-1.28c1.797.422 3.35 1.984 3.776 3.798.51 2.165-.575 4.51-1.575 6.094zM28.131 1.204c-2.544-.599-5.16.137-6.997 1.968a1.011 1.011 0 0 1-.691.303 1.017 1.017 0 0 1-.704-.303v0c-1.837-1.83-4.452-2.566-6.997-1.968-2.76.65-5.052 2.952-5.705 5.729-.566 2.405.093 5.196 1.907 8.07 2.88 4.566 8.298 8.687 11.218 9.322a1.297 1.297 0 0 0 .55 0c2.92-.635 8.338-4.756 11.218-9.322 1.813-2.874 2.473-5.665 1.907-8.07-.653-2.777-2.946-5.079-5.706-5.729z"/></g><g transform="rotate(-180 32 66.5)"><path fill="url(#daa7c)" d="M32.206 67.932a1.296 1.296 0 1 0 0-2.592 1.296 1.296 0 1 0 0 2.592z"/><path fill="none" stroke="#000" stroke-miterlimit="50" stroke-width=".6" d="M32.206 67.932a1.296 1.296 0 1 0 0-2.592h0a1.296 1.296 0 1 0 0 2.592z"/></g></g></g></svg>