<svg xmlns="http://www.w3.org/2000/svg" width="23" height="26" viewBox="0 0 23 26"><defs><linearGradient id="atw7a" x1="6.95" x2="6.95" y1="5" y2="7.7" gradientUnits="userSpaceOnUse"><stop offset="0" stop-color="#c361ff"/><stop offset="1" stop-color="#990dee"/></linearGradient><linearGradient id="atw7b" x1="14.98" x2="14.98" y1="12" y2="14.7" gradientUnits="userSpaceOnUse"><stop offset="0" stop-color="#c361ff"/><stop offset="1" stop-color="#990dee"/></linearGradient></defs><g><g><g><g><path fill="#fff" d="M5.325 12.034l-3.729 2.769A1 1 0 0 1 0 14V3.019A3.01 3.01 0 0 1 3 0h8c1.659 0 3 1.354 3 3.019v5.996a3.01 3.01 0 0 1-3 3.019zM2 12.012l2.399-1.781a1 1 0 0 1 .596-.197H11c.55 0 1-.454 1-1.02V3.02A1.01 1.01 0 0 0 11 2H3c-.55 0-1 .454-1 1.019z"/></g><g><path fill="#fff" d="M17.601 17.23a1 1 0 0 0-.596-.196H11c-.55 0-1-.454-1-1.02V11.02a1 1 0 0 0-2 0v4.996a3.01 3.01 0 0 0 3 3.019h5.675l3.729 2.769A1 1 0 0 0 22 21V10.019A3.01 3.01 0 0 0 19 7h-6a1 1 0 0 0 0 2h6c.55 0 1 .454 1 1.019v8.993z"/></g><g><path fill="url(#atw7a)" d="M4.95 7a1 1 0 0 1 0-2h3.998a1 1 0 1 1 0 2z"/><path fill="none" stroke="#000" stroke-miterlimit="50" stroke-width=".2" d="M4.95 7a1 1 0 0 1 0-2h3.998a1 1 0 1 1 0 2z"/></g><g><path fill="url(#atw7b)" d="M12.98 14a1 1 0 0 1 0-2h3.998a1 1 0 1 1 0 2z"/><path fill="none" stroke="#000" stroke-miterlimit="50" stroke-width=".2" d="M12.98 14a1 1 0 0 1 0-2h3.998a1 1 0 1 1 0 2z"/></g></g></g></g></svg>