<svg xmlns="http://www.w3.org/2000/svg" width="20" height="22" viewBox="0 0 20 22"><defs><linearGradient id="xeb9a" x1="6.5" x2="6.5" y1="4" y2="9.4" gradientUnits="userSpaceOnUse"><stop offset="0" stop-color="#c361ff"/><stop offset="1" stop-color="#990dee"/></linearGradient><linearGradient id="xeb9b" x1="6.5" x2="6.5" y1="9" y2="14.4" gradientUnits="userSpaceOnUse"><stop offset="0" stop-color="#c361ff"/><stop offset="1" stop-color="#990dee"/></linearGradient><linearGradient id="xeb9c" x1="6.5" x2="6.5" y1="14" y2="19.4" gradientUnits="userSpaceOnUse"><stop offset="0" stop-color="#c361ff"/><stop offset="1" stop-color="#990dee"/></linearGradient></defs><g><g><g><path fill="#fff" d="M2 5a1 1 0 0 1-2 0V3a3 3 0 0 1 3-3h14a3 3 0 0 1 3 3v16a3 3 0 0 1-3 3H3a3 3 0 0 1-3-3V9a1 1 0 0 1 2 0v10a1 1 0 0 0 1 1h14a1 1 0 0 0 1-1V3a1 1 0 0 0-1-1H3a1 1 0 0 0-1 1z"/></g><g><path fill="url(#xeb9a)" d="M7.293 4.293a1 1 0 0 1 1.414 1.414l-2 2a1 1 0 0 1-1.414 0l-1-1a1 1 0 0 1 1.414-1.414L6 5.586z"/></g><g><path fill="#fff" d="M10.999 7A1 1 0 1 1 11 5l3.982.005a1 1 0 0 1-.003 2z"/></g><g><path fill="#fff" d="M10.999 12A1 1 0 1 1 11 10l3.982.005a1 1 0 0 1-.003 2z"/></g><g><path fill="url(#xeb9b)" d="M7.293 9.293a1 1 0 0 1 1.414 1.414l-2 2a1 1 0 0 1-1.414 0l-1-1a1 1 0 0 1 1.414-1.414l.293.293z"/></g><g><path fill="#fff" d="M10.999 17A1 1 0 1 1 11 15l3.982.005a1 1 0 0 1-.003 2z"/></g><g><path fill="url(#xeb9c)" d="M7.293 14.293a1 1 0 0 1 1.414 1.414l-2 2a1 1 0 0 1-1.414 0l-1-1a1 1 0 0 1 1.414-1.414l.293.293z"/></g></g></g></svg>