<svg xmlns="http://www.w3.org/2000/svg" width="24" height="17" viewBox="0 0 24 17"><defs><linearGradient id="6sk1a" x1="19" x2="19" y1="3" y2="8.4" gradientUnits="userSpaceOnUse"><stop offset="0" stop-color="#c361ff"/><stop offset="1" stop-color="#990dee"/></linearGradient></defs><g><g><path fill="#fff" d="M21 17H3a3 3 0 0 1-3-3v-.28a3 3 0 0 1 .69-1.92L4.6 7.11a2 2 0 0 1 2.79-.28l3.54 2.83 1.73-1.73a2 2 0 0 1 2.66-.15l4.3 3.44a1 1 0 0 1-1.25 1.56l-4.3-3.44-1.73 1.73a2 2 0 0 1-2.66.15L6.14 8.39l-3.91 4.69a1 1 0 0 0-.23.64V14a1 1 0 0 0 1 1h18a1 1 0 0 0 1-1V3a1 1 0 0 0-1-1H3a1 1 0 0 0-1 1v4a1 1 0 0 1-2 0V3a3 3 0 0 1 3-3h18a3 3 0 0 1 3 3v11a3 3 0 0 1-3 3z"/></g><g><path fill="url(#6sk1a)" d="M19 3a2 2 0 1 0 0 4 2 2 0 0 0 0-4z"/></g></g></svg>