<svg xmlns="http://www.w3.org/2000/svg" width="23" height="26" viewBox="0 0 23 26"><defs><linearGradient id="ycfla" x1="18" x2="18" y1="14" y2="24.81" gradientUnits="userSpaceOnUse"><stop offset="0" stop-color="#c361ff"/><stop offset="1" stop-color="#990dee"/></linearGradient></defs><g><g><g><g><path fill="#fff" d="M20 2v4h-4V4.135a.996.996 0 0 0 0-.271V2zM6 9v4H2V9zM0 9v4a2 2 0 0 0 2 2h4a2 2 0 0 0 .588-.088l3.955 1.989a1 1 0 1 0 .899-1.787l-3.476-1.747c.022-.12.034-.242.034-.367V9c0-.13-.012-.256-.036-.378L14 5.619V6a2 2 0 0 0 2 2h4a2 2 0 0 0 2-2V2a2 2 0 0 0-2-2h-4a2 2 0 0 0-2 2v1.385L6.569 7.082A2 2 0 0 0 6 7H2a2 2 0 0 0-2 2z"/></g><g><path fill="url(#ycfla)" d="M16 14h4a2 2 0 0 1 2 2v4a2 2 0 0 1-2 2h-4a2 2 0 0 1-2-2v-4a2 2 0 0 1 2-2zm0 2v4h4v-4z"/></g></g></g></g></svg>