<svg xmlns="http://www.w3.org/2000/svg" width="16" height="22" viewBox="0 0 16 22"><defs><linearGradient id="1g7ca" x1="8" x2="8" y1="16" y2="19.38" gradientUnits="userSpaceOnUse"><stop offset="0" stop-color="#c361ff"/><stop offset="1" stop-color="#990dee"/></linearGradient></defs><g><g><path fill="#fff" d="M4 14.93a8 8 0 1 1 8 0V19a3 3 0 0 1-3 3H7a3 3 0 0 1-3-3zm1.43-1.507a1 1 0 0 1 .57.903V19a1 1 0 0 0 1 1h2a1 1 0 0 0 1-1v-4.674a1 1 0 0 1 .57-.903 6 6 0 1 0-5.142 0z"/></g><g><path fill="#fff" d="M12 8a1 1 0 0 1-2 0 2 2 0 0 0-2-2 1 1 0 0 1 0-2 4 4 0 0 1 4 4z"/></g><g><path fill="url(#1g7ca)" d="M3 18.5c-.552 0-1-.56-1-1.25S2.448 16 3 16h9.999c.552 0 1 .56 1 1.25s-.448 1.25-1 1.25z"/></g></g></svg>