<svg xmlns="http://www.w3.org/2000/svg" width="14" height="14" viewBox="0 0 14 14"><g><g><path fill="#00d4b5" d="M14 6.82c0 3.766-3.077 6.82-6.873 6.82a6.884 6.884 0 0 1-3.322-.85L0 14l1.24-3.659A6.748 6.748 0 0 1 .255 6.82C.254 3.053 3.331 0 7.127 0 10.924 0 14 3.053 14 6.82z"/></g><g><path fill="#0c2b38" d="M7.128 1.09c-3.186 0-5.778 2.572-5.778 5.734 0 1.254.409 2.416 1.1 3.361l-.721 2.13 2.22-.706a5.775 5.775 0 0 0 3.18.948c3.185 0 5.778-2.572 5.778-5.733 0-3.162-2.592-5.734-5.779-5.734z"/></g><g><path fill="#00d4b5" d="M10.593 8.394c-.042-.07-.155-.112-.323-.195-.169-.084-.997-.488-1.151-.544-.155-.055-.267-.083-.38.084a9.638 9.638 0 0 1-.533.655c-.098.112-.196.126-.365.042-.168-.083-.711-.26-1.355-.83A5.04 5.04 0 0 1 5.55 6.45c-.098-.167-.01-.258.074-.34.076-.076.169-.196.253-.294.084-.097.112-.167.168-.278.057-.112.029-.21-.014-.293-.042-.084-.379-.906-.52-1.241-.14-.335-.28-.279-.378-.279-.098 0-.21-.014-.323-.014a.622.622 0 0 0-.45.21c-.154.166-.589.57-.589 1.393 0 .823.603 1.618.688 1.729.084.111 1.165 1.854 2.878 2.524 1.712.669 1.712.445 2.021.417.309-.027.997-.404 1.138-.794.14-.39.14-.725.098-.795z"/></g></g></svg>