<svg xmlns="http://www.w3.org/2000/svg" width="109" height="109" viewBox="0 0 109 109"><defs><mask id="nfogb" width="2" height="2" x="-1" y="-1"><path fill="#fff" d="M16 16h77v77H16z"/><path d="M54.5 93C75.763 93 93 75.763 93 54.5S75.763 16 54.5 16 16 33.237 16 54.5 33.237 93 54.5 93z"/></mask><filter id="nfoga" width="137" height="137" x="-14" y="-14" filterUnits="userSpaceOnUse"><feOffset in="SourceGraphic" result="FeOffset1023Out"/><feGaussianBlur in="FeOffset1023Out" result="FeGaussianBlur1024Out" stdDeviation="8 8"/></filter></defs><g><g><g filter="url(#nfoga)"><path fill="none" d="M54.5 93C75.763 93 93 75.763 93 54.5S75.763 16 54.5 16 16 33.237 16 54.5 33.237 93 54.5 93z" mask="url(&quot;#nfogb&quot;)"/><path fill="#505050" fill-opacity=".15" d="M54.5 93C75.763 93 93 75.763 93 54.5S75.763 16 54.5 16 16 33.237 16 54.5 33.237 93 54.5 93z"/></g><path fill="#fff" d="M54.5 93C75.763 93 93 75.763 93 54.5S75.763 16 54.5 16 16 33.237 16 54.5 33.237 93 54.5 93z"/></g><g><g><path fill="#00bda2" d="M67 42.395v16.69L57.238 65 47.5 58.782V40.81l7.285-5.235c.322-.202.768-.73 1.09-.529l10.382 6.142c.47.277.743.73.743 1.208z"/></g><g><path d="M65.58 59.532l-6.188 4.013V52.553h-1.87v12.213l-1.797 1.172-1.771-1.097V50.684h11.625zM53.953 71.617v-4.593l1.272.799c.3.2.699.2.998 0l1.297-.849v4.643zm12.548-22.826H53.006a.947.947 0 0 0-.948.947v13.898l-6.212-3.885V43.46l8.931-5.804v9.266h1.871V35.939c0-.35-.2-.648-.499-.822a.872.872 0 0 0-.948.05l-10.777 6.999a.917.917 0 0 0-.424.772v17.31c0 .325.175.624.449.798l7.659 4.807v6.7c0 .524.424.947.948.947h5.438a.947.947 0 0 0 .948-.947v-6.775l7.634-4.956a.917.917 0 0 0 .424-.772V49.763c-.05-.548-.474-.972-.998-.972z"/></g></g></g></svg>