<svg xmlns="http://www.w3.org/2000/svg" width="47" height="60" viewBox="0 0 47 60"><defs><linearGradient id="tmpwa" x1="-13.52" x2="46.55" y1="-6.48" y2="58.37" gradientUnits="userSpaceOnUse"><stop offset="0" stop-color="#3effe3"/><stop offset="1" stop-color="#990dee"/></linearGradient></defs><g><g><g><g><path fill="url(#tmpwa)" d="M34.949 45.413c0 1.082-.88 1.964-1.96 1.965H6.944a1.967 1.967 0 0 1-1.965-1.965V10.826c0-1.084.882-1.965 1.965-1.965h3.243v7.762H29.84V8.861h3.144c1.083 0 1.965.881 1.965 1.965zM18.049 8.86V6.895c0-1.083.881-1.965 1.965-1.965 1.083 0 1.965.882 1.965 1.965v1.966h3.93v3.832H14.12V8.86zm14.935-3.93h-7.411A5.906 5.906 0 0 0 20.013 1a5.906 5.906 0 0 0-5.558 3.93h-7.51a5.902 5.902 0 0 0-5.895 5.896v34.587a5.902 5.902 0 0 0 5.895 5.895H32.99a5.903 5.903 0 0 0 5.89-5.895V10.826a5.902 5.902 0 0 0-5.896-5.896z"/><path fill="none" stroke="#fff" stroke-miterlimit="50" d="M34.949 45.413c0 1.082-.88 1.964-1.96 1.965H6.944a1.967 1.967 0 0 1-1.965-1.965V10.826c0-1.084.882-1.965 1.965-1.965h3.243v7.762H29.84V8.861h3.144c1.083 0 1.965.881 1.965 1.965zM18.049 8.86V6.895c0-1.083.881-1.965 1.965-1.965 1.083 0 1.965.882 1.965 1.965v1.966h3.93v3.832H14.12V8.86zm14.935-3.93h-7.411A5.906 5.906 0 0 0 20.013 1a5.906 5.906 0 0 0-5.558 3.93h-7.51a5.902 5.902 0 0 0-5.895 5.896v34.587a5.902 5.902 0 0 0 5.895 5.895H32.99a5.903 5.903 0 0 0 5.89-5.895V10.826a5.902 5.902 0 0 0-5.896-5.896z"/></g></g><g><path fill="#fff" d="M31 58c7.732 0 14-6.268 14-14s-6.268-14-14-14-14 6.268-14 14 6.268 14 14 14z"/><path fill="none" stroke="#000" stroke-miterlimit="50" stroke-width="3" d="M31 58c7.732 0 14-6.268 14-14s-6.268-14-14-14-14 6.268-14 14 6.268 14 14 14z"/></g><g><path fill="none" stroke="#000" stroke-linecap="round" stroke-linejoin="round" stroke-miterlimit="50" stroke-width="3" d="M25.91 44.48v0l3.698 3.699v0L36.788 41v0"/></g></g></g></svg>