<svg xmlns="http://www.w3.org/2000/svg" width="619" height="1043" viewBox="0 0 619 1043"><defs><mask id="6fdab" width="2" height="2" x="-1" y="-1"><path fill="#fff" d="M120 875h142v142H120z"/><path d="M120 879.25a3.85 3.85 0 0 1 3.85-3.85h134.3a3.85 3.85 0 0 1 3.85 3.85v133.3a3.85 3.85 0 0 1-3.85 3.85h-134.3a3.85 3.85 0 0 1-3.85-3.85z"/></mask><filter id="6fdaa" width="203" height="195" x="94" y="849" filterUnits="userSpaceOnUse"><feOffset dx="9" dy="1" in="SourceGraphic" result="FeOffset1104Out"/><feGaussianBlur in="FeOffset1104Out" result="FeGaussianBlur1105Out" stdDeviation="6.4 6.4"/></filter><mask id="6fdad" width="2" height="2" x="-1" y="-1"><path fill="#fff" d="M457 875h141v142H457z"/><path d="M457 879.25a3.85 3.85 0 0 1 3.85-3.85h133.3a3.85 3.85 0 0 1 3.85 3.85v133.3a3.85 3.85 0 0 1-3.85 3.85h-133.3a3.85 3.85 0 0 1-3.85-3.85z"/></mask><filter id="6fdac" width="202" height="195" x="431" y="849" filterUnits="userSpaceOnUse"><feOffset dx="9" dy="1" in="SourceGraphic" result="FeOffset1120Out"/><feGaussianBlur in="FeOffset1120Out" result="FeGaussianBlur1121Out" stdDeviation="6.4 6.4"/></filter><mask id="6fdaf" width="2" height="2" x="-1" y="-1"><path fill="#fff" d="M260 817h199v200H260z"/><path d="M260 821.25a3.85 3.85 0 0 1 3.85-3.85h190.704a3.85 3.85 0 0 1 3.85 3.85v190.96a3.85 3.85 0 0 1-3.85 3.85H263.85a3.85 3.85 0 0 1-3.85-3.85z"/></mask><filter id="6fdae" width="292" height="289" x="216" y="772" filterUnits="userSpaceOnUse"><feOffset dx="5" dy="-1" in="SourceGraphic" result="FeOffset1136Out"/><feGaussianBlur in="FeOffset1136Out" result="FeGaussianBlur1137Out" stdDeviation="13.6 13.6"/></filter><linearGradient id="6fdag" x1="376.65" x2="357.07" y1="492.5" y2="270.83" gradientUnits="userSpaceOnUse"><stop offset="0" stop-color="#14151a"/><stop offset="1" stop-color="#990dee"/></linearGradient><linearGradient id="6fdah" x1="444.8" x2="314.86" y1="1027.87" y2="552.46" gradientUnits="userSpaceOnUse"><stop offset="0" stop-color="#990dee"/><stop offset="1" stop-color="#14151a"/></linearGradient><filter id="6fdai" width="300%" height="272%" x="-90%" y="-76%" filterUnits="objectBoundingBox"><feGaussianBlur in="SourceGraphic" result="FeGaussianBlur1258Out" stdDeviation="10 10"/></filter></defs><g><g><g><g><path fill="none" stroke="#007060" stroke-miterlimit="50" d="M274 309c19.33 0 35-15.67 35-35s-15.67-35-35-35-35 15.67-35 35 15.67 35 35 35z"/></g><g opacity=".79"><path fill="none" stroke="#007060" stroke-miterlimit="50" d="M274 354c44.183 0 80-35.817 80-80s-35.817-80-80-80-80 35.817-80 80 35.817 80 80 80z"/></g><g opacity=".25"><path fill="none" stroke="#007060" stroke-miterlimit="50" d="M274 410c75.11 0 136-60.89 136-136s-60.89-136-136-136-136 60.89-136 136 60.89 136 136 136z"/></g><g opacity=".12"><path fill="none" stroke="#007060" stroke-miterlimit="50" d="M274 476c111.562 0 202-90.438 202-202S385.562 72 274 72 72 162.438 72 274s90.438 202 202 202z"/></g><g opacity=".12"><path fill="none" stroke="#007060" stroke-miterlimit="50" d="M274 547c150.774 0 273-122.226 273-273S424.774 1 274 1 1 123.226 1 274s122.226 273 273 273z"/></g></g><g><path fill="#00d4b5" d="M276.013 258L264 265.962v17.364L276.013 291 288 283.326v-17.364z"/></g><g><path fill="none" stroke="#000" stroke-miterlimit="50" stroke-width="1.68" d="M310 846c0 61.303-49.697 111-111 111S88 907.303 88 846s49.697-111 111-111c61.304 0 111 49.697 111 111z"/></g><g><path fill="none" stroke="#000" stroke-miterlimit="50" stroke-width="1.55" d="M604 785c0 96.097-77.903 174-174 174s-174-77.903-174-174 77.903-174 174-174 174 77.903 174 174z"/></g><g><path fill="none" stroke="#000" stroke-dasharray="6 6" stroke-miterlimit="50" d="M574 688v0s-62.98-95.312-224.444-83.135C188.092 617.043 144 512 144 512v0"/></g><g/><g><g filter="url(#6fdaa)"><path fill="none" d="M120 879.25a3.85 3.85 0 0 1 3.85-3.85h134.3a3.85 3.85 0 0 1 3.85 3.85v133.3a3.85 3.85 0 0 1-3.85 3.85h-134.3a3.85 3.85 0 0 1-3.85-3.85z" mask="url(&quot;#6fdab&quot;)"/><path fill="#190227" fill-opacity=".1" d="M120 879.25a3.85 3.85 0 0 1 3.85-3.85h134.3a3.85 3.85 0 0 1 3.85 3.85v133.3a3.85 3.85 0 0 1-3.85 3.85h-134.3a3.85 3.85 0 0 1-3.85-3.85z"/></g><path fill="#00a68e" d="M120 879.25a3.85 3.85 0 0 1 3.85-3.85h134.3a3.85 3.85 0 0 1 3.85 3.85v133.3a3.85 3.85 0 0 1-3.85 3.85h-134.3a3.85 3.85 0 0 1-3.85-3.85z"/></g><g><g filter="url(#6fdac)"><path fill="none" d="M457 879.25a3.85 3.85 0 0 1 3.85-3.85h133.3a3.85 3.85 0 0 1 3.85 3.85v133.3a3.85 3.85 0 0 1-3.85 3.85h-133.3a3.85 3.85 0 0 1-3.85-3.85z" mask="url(&quot;#6fdad&quot;)"/><path fill="#190227" fill-opacity=".1" d="M457 879.25a3.85 3.85 0 0 1 3.85-3.85h133.3a3.85 3.85 0 0 1 3.85 3.85v133.3a3.85 3.85 0 0 1-3.85 3.85h-133.3a3.85 3.85 0 0 1-3.85-3.85z"/></g><path fill="#00d4b5" d="M457 879.25a3.85 3.85 0 0 1 3.85-3.85h133.3a3.85 3.85 0 0 1 3.85 3.85v133.3a3.85 3.85 0 0 1-3.85 3.85h-133.3a3.85 3.85 0 0 1-3.85-3.85z"/></g><g><g filter="url(#6fdae)"><path fill="none" d="M260 821.25a3.85 3.85 0 0 1 3.85-3.85h190.704a3.85 3.85 0 0 1 3.85 3.85v190.96a3.85 3.85 0 0 1-3.85 3.85H263.85a3.85 3.85 0 0 1-3.85-3.85z" mask="url(&quot;#6fdaf&quot;)"/><path fill="#190227" fill-opacity=".2" d="M260 821.25a3.85 3.85 0 0 1 3.85-3.85h190.704a3.85 3.85 0 0 1 3.85 3.85v190.96a3.85 3.85 0 0 1-3.85 3.85H263.85a3.85 3.85 0 0 1-3.85-3.85z"/></g><path fill="#00bda2" d="M260 821.25a3.85 3.85 0 0 1 3.85-3.85h190.704a3.85 3.85 0 0 1 3.85 3.85v190.96a3.85 3.85 0 0 1-3.85 3.85H263.85a3.85 3.85 0 0 1-3.85-3.85z"/></g><g><path fill="#fff" d="M379.386 905.21h-21.823c-.847 0-1.533.681-1.533 1.523v22.383l-10.045-6.258v-26.233l14.442-9.346v14.922h3.025v-17.69c0-.561-.322-1.042-.807-1.323a1.416 1.416 0 0 0-1.532.08l-17.427 11.271c-.444.281-.686.763-.686 1.244v27.878c0 .521.282 1.002.726 1.283l12.384 7.742v10.79c0 .842.686 1.524 1.533 1.524h8.794c.848 0 1.533-.682 1.533-1.524v-10.91l12.344-7.983c.444-.28.686-.762.686-1.243v-16.567c-.08-.882-.766-1.564-1.614-1.564z"/></g><g><path fill="#00bda2" d="M364.869 941.95H359.1v-7.38l2.057 1.284c.484.32 1.13.32 1.614 0l2.098-1.364v7.46z"/></g><g><path fill="#00bda2" d="M377.898 922.5l-10.004 6.458v-17.69h-3.025v19.655l-2.905 1.885-2.864-1.765V908.26h18.798z"/></g><g opacity=".03"><path fill="#003830" d="M259.807 833v182.832s3.361.336-51.807 0C234 995.738 259.807 833 259.807 833z"/></g><g><path fill="#c8cde6" d="M285.097 332.363s3.57-4.82 2.786-6.352c-.844-1.65-.875-3.683-1.46-3.544-.545.129-.594 2.032-.216 3.933.253 1.273-2.461 4.764-1.9 5.159.56.396.79.804.79.804"/></g><g><path fill="#c8cde6" d="M283.14 332.117l4.15-4.48s-.344-6.953 1.776-7.127c0 0 .341 1.271.306 3.878-.026 1.958.34 3.075.06 3.844-.481 1.316-3.286 4.291-3.286 4.291s-.834 1.266-3.006-.406"/></g><g><path fill="#c8cde6" d="M282.402 341.641c2.72 8.223.793 67.595.793 67.595 2.248 1.68 13.457 16.074 13.457 16.074v2.28s-1.816 4.418-4.628 8.946c-4.115 6.63-7.075 11.287-12.82 4.707-9.67-11.066-15.557-27.334-15.557-27.334-.813-11.715 12.065-69.172 12.392-72.847l.03-1.025-.272-3.08c-.515-1.01-1.005-2.886-.648-6.24.447-4.198-.455-5.619-.455-5.619.31-1.048 2.76.922 2.452 3.747-.211 1.923.793 2.69 1.907 3.213.344-.184.712-.36 1.106-.525 1.57-.656 3.643-1.026 5.404-1.393l3.856-3.268s.559-6.932 2.689-6.872c0 0 .329 1.928-.316 4.461-.205.806-.245 1.362-.237 1.781 1.924-2.223 4.006-4.664 5.047-3.953.49.335-5.087 8.508-6.761 9.618-4.381 2.906-6.722 6.765-7.45 8.935z"/></g><g><path fill="url(#6fdag)" d="M382.44 413.75c-.778 5.09-2.457 10.826-6.714 14.114-3.797 2.942-7.91 2.865-12.444 2.395 1.194.908 2.079 2.202 1.84 3.788-.338 2.333-2.633 3.334-4.812 2.811-3.15-.762-4.735-4.512-5.736-7.862-.355-1.193-.64-2.34-.894-3.28 0-.008-1.193-4.435-1.193-4.435l5.29-16.193s-.108-2.11-.447-4.767c-.091-.73-.2-1.509-.331-2.294-.54-3.242-1.432-6.653-2.85-7.93-.345-.317-.73-.502-1.146-.525a15.989 15.989 0 0 1-1.055-.085c-1.987-.2-4.104-.685-5.96-1.57-2.18-1.047-3.988-2.657-4.79-5.036-1.817-5.398 1.856-10.934 7.554-11.265 3.85-.223 7.985 1.863 10.496 4.735 1.609 1.84 2.694 4.035 4.312 5.83 1.64 1.824 3.757 3.164 5.867 4.373 4.458 2.55 8.555 5.082 10.903 9.848 2.626 5.321 2.995 11.558 2.11 17.348"/></g><g><path fill="#c8cde6" d="M353.64 430.272c-1.492 2.387-2.086 5.182-2.039 7.977.046 2.287.492 4.574 1.209 6.745.146.447.57 2.426 1.047 2.672-2.334-1.154-5.191-1.755-8.14-2.025a45.98 45.98 0 0 0-4.119-.169c-5.336.007-10.388.832-12.759 1.278-.901.17-1.409.285-1.409.285 4.843-4.628 6.846-8.555 7.6-11.435.093-.354.17-.692.223-1.023.147-.778.185-1.456.185-2.026v-.262c-.046-1.285-.346-1.986-.346-1.986-.97-2.768-4.303-7.897-4.593-10.81-.245-2.452 2.614-6.369 3.314-7.855.055-.215.109-.423.162-.639.008-.039.024-.085.031-.123l-.893-.47c-1.764-.81-2.274-1.547-1.528-2.209a145.382 145.382 0 0 1 5.347-4.567 34.705 34.705 0 0 1 7.608-9.494c1.07-.932 2.555-2.287 4.15-3.296.539-.338 1.078-.646 1.632-.877a5.85 5.85 0 0 1 1.256-.416 2.96 2.96 0 0 1 .369-.062 3.519 3.519 0 0 1 1.024-.015c.17.023.339.054.493.092.131.031.262.07.385.116.123.038.246.085.362.146.015 0 .023.008.031.015.1.04.199.093.292.155.1.045.201.107.292.17.086.053.17.114.247.176.007 0 .007 0 .016.015 0 0 .007-.007.007 0 .054.047.108.085.162.131a9.11 9.11 0 0 1 .324.308c.084.085.169.177.246.27.1.115.2.246.284.377.285.4.517.847.686 1.317.054.131.1.27.139.4.046.154.092.316.123.47.038.146.062.3.085.447.022.1.031.2.038.307.015.085.015.17.023.255.039.477.016.962-.061 1.424a10.45 10.45 0 0 0-.147 1.963c.008.847.131 1.61.331 2.295 1.225 4.174 5.328 5.598 5.328 5.598-2.356 1.601-5.497 4.09-5.666 7.207-.069 1.232.554 3.627 2.002 3.635 1 0 1.694-1.009 2.741-1.109 1.778-.162 3.334 1.178 3.865 2.802.786 2.388-.8 5.537-3.188 6.338-3.195 1.07-5.759 1.747-7.839 4.204-.323.385-.63.81-.932 1.278z"/></g><g><path fill="#280140" d="M302.791 591.756s-8.94 18.905-4.088 57.229c4.855 38.322 29.126 144.602 31.936 149.457 0 0 9.088.553 13.088-1.447 0 0 5.176-39.369-5-66-4.347-21.92-.42-54.266-1.19-61.573-1.02-9.708-9.197-80.222-9.197-80.222z"/></g><g><path fill="url(#6fdah)" d="M418.788 796.767c-.062.369-11 3-11 3l-68.31-113.57c-16.603-44.452-15.07-86.094-15.07-86.863l4.951-1.032 43.844-9.102c6.148 14.626 2.925 70.049 1.411 91.374-.053.754.12 8.422 4.07 13.281 28.555 32.58 40.104 102.912 40.104 102.912z"/></g><g><path fill="#009c85" d="M321.249 450.248s-18.651-20.694-21.077-28.998c-18.808 16.807-18.312 16.946-27.082 23.888 3.028 3.345 7.092 5.557 9.581 8.303 24.729 27.285 22.953 27.431 24.782 30.786z"/></g><g><path fill="#00bda2" d="M362.406 579.4c9.299-13.835 5.516-20.753-11.349-20.753-10.966 3.596-26.543-2.417-46.731-18.038l-1.387-6.039c-.124 6.877-.367 13.743-1.237 20.599a206.344 206.344 0 0 1-3.573 19.951 224.577 224.577 0 0 1-2.503 9.832c-.315 1.117-3.172 8.386-2.679 8.955 4.412 5.059 12.127 6.36 18.372 7.515a99.077 99.077 0 0 0 22.068 1.579c.883-.037 1.774-.07 2.665-.104 9.521-4.122 18.306-11.951 26.354-23.497"/></g><g><path fill="#00bda2" d="M351.15 457.538c4.128-1.059 11.564 3.5 18.146 5.571-3.658-9.957-14.017-17.266-24.033-19.658a33.906 33.906 0 0 0-3.057-.585c-6.677-.955-13.66.077-19.751 2.957-6.045 2.864-9.61 11.288-11.55 17.286-2.149 6.645-3.704 13.591-4.643 20.444a354.267 354.267 0 0 0-3.034 35.905c-.123 3.696-.177 7.392-.231 11.088-.015 1.05-.03 2.098-.047 3.146l34.266 1.287-1.299-32.727 15.233-44.714z"/></g><g><path fill="#009c85" d="M302.73 533.686l.203.888.017-.88z"/></g><g><path fill="#009c85" d="M368.722 591.723c3.141-1.348 6.53-2.141 9.948-2.256.716-.031 3.25-.362 3.858.185-2.125-1.91-3.449-5.067-4.743-7.546-1.532-2.941-3.003-5.913-4.304-8.963-.031-.07-.054-.131-.084-.2-5.953-13.96-2.427-29.237.307-43.46 2.171-11.317 3.411-22.906 3.088-34.441-.355-12.451-1.434-21.984-8.07-32.149-7.01-5.822-13.446-6.413-17.574-5.354l-15.233 44.714 1.299 32.727-34.267-1.287c-.004.293-.011.586-.017.88l1.388 6.039c20.188 15.62 35.764 21.634 46.731 18.038 16.865 0 20.647 6.918 11.349 20.753-8.048 11.546-16.833 19.375-26.355 23.497.422-.017.84-.032 1.264-.05 7.175-.323 14.536-.955 20.866-4.497 3.673-2.048 6.629-4.951 10.549-6.63z"/></g><g><path fill="#c8cde6" d="M255.894 516.431s-9.76-2.16-11.18.362c-1.525 2.711-4.296 4.37-3.591 5.237.656.807 4.425-.969 6.708-3.102 1.526-1.427 7.6.705 7.65-.544.053-1.25.413-1.953.413-1.953"/></g><g><g><path fill="#c8cde6" d="M267.73 519.435c3 0 68 15 68 15-.384-1.093-.976-16.77-1-17 0 0 28.876-.435 28.976.227 1.5 9.51-3.09 26.93-7.447 35.269-4.65 8.917-16.432 5.405-16.432 5.405-1.216-.184-2.818-.615-4.72-1.255-16.686-5.601-70.36-30.168-71.368-30.407-1.008-.24-3.01-1.832-8.767-1.5-1.855.713-3.92.953-3.92.953s-2.702 1.245-5.641-.444c-1.74-.998-3.972-1.137-4.13-2.343-.161-1.225 2.482-1.382 4.109-.928 1.25.349 2.569 1.014 4.11.056a18.573 18.573 0 0 1-2.341-2.576s.282-2 1.227-4.4a6.992 6.992 0 0 1-.582-.175c-1.588-.573-9.348-.964-10.564-2.686-1.215-1.722 2.58-.73 2.58-.73s1.764.097 4.106.37c-1.248-.321-2.246-.726-2.621-1.257-1.215-1.722 2.579-.73 2.579-.73s3.407.352 6.957 1.244c1.006-.108 3.343.576 4.2 1.064 1.762 1.002 3.728 3.067 6.9 4.24 2.926 1.082 4.79 2.603 5.79 2.603"/></g></g><g><path fill="#08ab94" d="M333.059 476.988s-4.724 30.57-8.929 39.118c0 0 28.496 11.469 43.851 4.667.559-.247.364-8.503.427-9.587.2-3.453.451-6.902.754-10.348.591-6.739 1.442-13.443 2.483-20.105 1.024-6.554-.099-14.681-5.087-19.445-1.853-1.771-4.161-2.977-6.62-3.672 0 0-22.634-8.485-26.879 19.372"/></g><g><path fill="#362742" d="M298.02 817.234a141.97 141.97 0 0 0 17.521 1.034c5.382-.014 10.691-.33 15.914-.932a32.562 32.562 0 0 1 3.583-4.174 32.42 32.42 0 0 1 3.183 3.226c2.395-.394 4.769-.848 7.121-1.364a32.352 32.352 0 0 1-2.394-7.592 32.731 32.731 0 0 1-.532-5.622 139.706 139.706 0 0 0-44.396 15.424"/></g><g><path fill="#362742" d="M376 815.424a141.97 141.97 0 0 0 17.521 1.034c5.382-.014 10.691-.33 15.914-.932a32.562 32.562 0 0 1 3.583-4.174 32.42 32.42 0 0 1 3.183 3.226c2.395-.394 4.769-.848 7.121-1.364a32.352 32.352 0 0 1-2.394-7.592 32.731 32.731 0 0 1-.532-5.622A139.706 139.706 0 0 0 376 815.424"/></g><g filter="url(#6fdai)"><path fill="#00d4b5" d="M275.5 258l1.393 4.517c1.26 4.083 3.941 7.3 7.343 8.812L288 273l-3.764 1.671c-3.402 1.51-6.084 4.73-7.343 8.812L275.5 288l-1.392-4.517c-1.26-4.081-3.942-7.301-7.345-8.812L263 273l3.764-1.671c3.403-1.512 6.085-4.73 7.345-8.812z"/></g></g></g></svg>