<?xml version="1.0" encoding="UTF-8"?>
<svg width="321px" height="151px" viewBox="0 0 321 151" version="1.1" xmlns="http://www.w3.org/2000/svg" xmlns:xlink="http://www.w3.org/1999/xlink">
    <!-- Generator: Sketch 56.3 (81716) - https://sketch.com -->
    <title>Group 43 Copy</title>
    <desc>Created with Sketch.</desc>
    <defs>
        <linearGradient x1="102.727958%" y1="48.7869645%" x2="12.0139568%" y2="50.5612613%" id="linearGradient-1">
            <stop stop-color="#00BDA2" offset="0%"></stop>
            <stop stop-color="#990DEE" offset="100%"></stop>
        </linearGradient>
        <linearGradient x1="50%" y1="18.9338922%" x2="50%" y2="356.531451%" id="linearGradient-2">
            <stop stop-color="#14151A" stop-opacity="0" offset="0%"></stop>
            <stop stop-color="#0F0119" offset="100%"></stop>
        </linearGradient>
        <linearGradient x1="50%" y1="0%" x2="50%" y2="100%" id="linearGradient-3">
            <stop stop-color="#F5F6FF" offset="0%"></stop>
            <stop stop-color="#F7F8FC" offset="100%"></stop>
        </linearGradient>
        <linearGradient x1="99.4621863%" y1="50.0100121%" x2="-22.6689655%" y2="68.9589108%" id="linearGradient-4">
            <stop stop-color="#3EFFE3" offset="0.0527871622%"></stop>
            <stop stop-color="#00EA99" offset="99.9577703%"></stop>
        </linearGradient>
        <linearGradient x1="65.4307232%" y1="12.0600912%" x2="86.2221453%" y2="110.253359%" id="linearGradient-5">
            <stop stop-color="#3EFFE3" offset="0.0527871622%"></stop>
            <stop stop-color="#990DEE" offset="100%"></stop>
        </linearGradient>
        <path d="M56.6377471,55.065164 L7.73107592,55.065164 C3.49983154,55.065164 0.0704739443,51.6293053 0.0704739443,47.3900396 L0.0704739443,11.5405359 C0.0704739443,7.30127016 3.49983154,3.8648488 7.73107592,3.8648488 L56.6377471,3.8648488 C60.8689915,3.8648488 64.2989106,7.30127016 64.2989106,11.5405359 L64.2989106,47.3900396 C64.2989106,51.6293053 60.8689915,55.065164 56.6377471,55.065164" id="path-6"></path>
        <filter x="-31.1%" y="-19.5%" width="162.3%" height="178.1%" filterUnits="objectBoundingBox" id="filter-7">
            <feOffset dx="0" dy="10" in="SourceAlpha" result="shadowOffsetOuter1"></feOffset>
            <feGaussianBlur stdDeviation="5" in="shadowOffsetOuter1" result="shadowBlurOuter1"></feGaussianBlur>
            <feColorMatrix values="0 0 0 0 0.361832398   0 0 0 0 0.400741965   0 0 0 0 0.569350091  0 0 0 0.139723558 0" type="matrix" in="shadowBlurOuter1"></feColorMatrix>
        </filter>
        <polygon id="path-8" points="0.0703054807 0.489470625 64.2987421 0.489470625 64.2987421 8.16470759 0.0703054807 8.16470759"></polygon>
        <linearGradient x1="65.372384%" y1="-9.70431442%" x2="86.0851997%" y2="144.817979%" id="linearGradient-10">
            <stop stop-color="#3EFFE3" offset="0.0527871622%"></stop>
            <stop stop-color="#990DEE" offset="100%"></stop>
        </linearGradient>
        <path d="M63.2853774,31.8721892 C63.2853774,49.3811723 49.1181491,63.5752578 31.6422956,63.5752578 C14.166442,63.5752578 0.000336927224,49.3811723 0.000336927224,31.8721892 C0.000336927224,14.3637687 14.166442,0.16968315 31.6422956,0.16968315 C49.1181491,0.16968315 63.2853774,14.3637687 63.2853774,31.8721892" id="path-11"></path>
        <filter x="-31.6%" y="-15.8%" width="163.2%" height="163.1%" filterUnits="objectBoundingBox" id="filter-12">
            <feOffset dx="0" dy="10" in="SourceAlpha" result="shadowOffsetOuter1"></feOffset>
            <feGaussianBlur stdDeviation="5" in="shadowOffsetOuter1" result="shadowBlurOuter1"></feGaussianBlur>
            <feColorMatrix values="0 0 0 0 0.361832398   0 0 0 0 0.400741965   0 0 0 0 0.569350091  0 0 0 0.139723558 0" type="matrix" in="shadowBlurOuter1"></feColorMatrix>
        </filter>
    </defs>
    <g id="05---Layout" stroke="none" stroke-width="1" fill="none" fill-rule="evenodd">
        <g id="insur-mobile" transform="translate(-28.000000, -7565.000000)">
            <g id="Group-43-Copy" transform="translate(22.000000, 7565.000000)">
                <path id="Path-21" d="M326.933602,60.7495177 L327.617364,61.0514881 L327.543901,60.2927146 L326.933602,60.7495177 Z M326.727419,60.9038442 L320.907183,65.2602356 L320.307957,64.4596559 L328.367928,58.4268437 L329.338121,68.4476561 L328.342775,68.5440232 L327.642183,61.3078325 L325.308936,66.5910822 L324.394172,66.1870939 L326.727419,60.9038442 Z M2.62473909,110.700617 L1.68323337,110.36362 C2.37414251,108.433351 3.12654468,106.563344 3.93983229,104.75309 L4.85200374,105.162899 C4.04950595,106.949136 3.30687713,108.794853 2.62473909,110.700617 Z M7.52263895,99.8302777 L6.6486265,99.3443741 C7.63793083,97.5648763 8.69402412,95.8516809 9.81613318,94.2041624 L10.6426404,94.7670885 C9.53756485,96.3895979 8.49731641,98.0770897 7.52263895,99.8302777 Z M14.2334737,89.9949869 L13.4639449,89.3563748 C14.7563881,87.7989783 16.1174916,86.3109187 17.5463389,84.8914487 L18.2511139,85.6008796 C16.8449304,86.9978346 15.5054403,88.4622649 14.2334737,89.9949869 Z M22.6556377,81.6225784 L22.0210492,80.8497281 C23.572019,79.5762246 25.1882862,78.3699884 26.8688984,77.2301985 L27.4301889,78.0578174 C25.7746755,79.1805853 24.1828732,80.3685631 22.6556377,81.6225784 Z M32.5314736,74.9153479 L32.0439042,74.0422636 C33.7808169,73.0722938 35.5757307,72.1633349 37.4277664,71.3145747 L37.8443848,72.2236561 C36.0162439,73.0614658 34.2449997,73.9584382 32.5314736,74.9153479 Z M43.3869074,69.9285432 L43.0377551,68.9914772 C44.8952487,68.2993721 46.8024829,67.6607167 48.7586903,67.0747596 L49.0456315,68.0327078 C47.1101574,68.6124545 45.2236663,69.2441638 43.3869074,69.9285432 Z M54.7862658,66.4986056 L54.5560579,65.5254641 C56.4819882,65.069863 58.4498253,64.6603243 60.4589145,64.2961751 L60.6372596,65.2801431 C58.6453549,65.6411776 56.6948045,66.0471187 54.7862658,66.4986056 Z M66.5380767,64.3572937 L66.4066301,63.3659704 C68.3663639,63.1061154 70.3611561,62.8857803 72.3904543,62.7043667 L72.4794964,63.7003945 C70.4642076,63.8805558 68.4835469,64.09933 66.5380767,64.3572937 Z M78.455959,63.2838684 L78.4053108,62.2851518 C80.3805555,62.1849808 82.385204,62.1189257 84.4187927,62.0864482 L84.4347611,63.0863207 C82.4126142,63.1186154 80.419522,63.1842897 78.455959,63.2838684 Z M90.4565612,63.0869726 L90.4722326,62.0870954 C92.4504524,62.1181006 94.4533613,62.1787291 96.4805797,62.268491 L96.4363447,63.2675121 C94.4185451,63.1781673 92.425154,63.1178269 90.4565612,63.0869726 Z M102.430894,63.6127748 L102.50126,62.6152535 C104.476974,62.7546211 106.47348,62.9199341 108.490482,63.1107412 L108.396303,64.1062965 C106.387152,63.9162321 104.398582,63.7515761 102.430894,63.6127748 Z M114.326107,64.7336746 L114.442044,63.7404179 C116.413364,63.9705177 118.402214,64.2235325 120.408401,64.4990433 L120.272347,65.4897448 C118.272793,65.2151448 116.290646,64.9629827 114.326107,64.7336746 Z M126.177342,66.3576436 L126.331869,65.3696551 C128.292938,65.676378 130.268663,66.0033458 132.258989,66.3501761 L132.087318,67.3353304 C130.102644,66.9894851 128.132631,66.6634626 126.177342,66.3576436 Z M138.00332,68.4163149 L138.190937,67.4340726 C140.1428,67.8068952 142.106843,68.1976749 144.083226,68.6060773 L143.88086,69.5853873 C141.909338,69.1779895 139.95021,68.7881876 138.00332,68.4163149 Z M149.723005,70.8357583 L149.939045,69.8593736 C151.880433,70.2889339 153.831871,70.7344157 155.793905,71.1955712 L155.565101,72.1690436 C153.607272,71.7088766 151.660087,71.2643658 149.723005,70.8357583 Z M161.39996,73.5786545 L161.640668,72.6080569 C163.571932,73.0870095 165.511579,73.5800696 167.460955,74.087184 L167.209192,75.0549731 C165.263455,74.5488051 163.32749,74.0566812 161.39996,73.5786545 Z M173.019544,76.599964 L173.281595,75.6349098 C175.201504,76.1562413 177.129071,76.6901179 179.067633,77.2370215 L178.796113,78.1994544 C176.860661,77.653428 174.936247,77.1204249 173.019544,76.599964 Z M184.565275,79.8556185 L184.845469,78.8956753 C186.751018,79.4518797 188.66624,80.019706 190.601171,80.601595 L190.313183,81.559229 C188.380797,80.9781052 186.468168,80.4110478 184.565275,79.8556185 Z M196.071553,83.3139084 L196.366347,82.3583476 C198.237743,82.9356806 200.130205,83.5259786 202.097264,84.1452123 L201.79699,85.0990652 C199.831684,84.4803836 197.941036,83.8906512 196.071553,83.3139084 Z M207.52426,86.9152001 L207.828131,85.962487 C209.10637,86.3701858 213.153274,87.6643597 213.543038,87.7888293 L213.238827,88.741434 C212.848724,88.6168561 208.802058,87.3227583 207.52426,86.9152001 Z M218.938131,90.5452493 L219.235595,89.5905165 C221.633734,90.3377013 223.478425,90.8890486 224.969648,91.3000327 L224.703952,92.2640896 C223.200131,91.8496335 221.345904,91.2954357 218.938131,90.5452493 Z M230.616028,93.4617551 L230.811236,92.4809934 C232.851806,92.8871439 234.808075,93.2669228 236.694562,93.6227512 L236.509211,94.6054235 C234.619331,94.2489552 232.659788,93.8685408 230.616028,93.4617551 Z M242.416499,95.6811506 L242.588876,94.6961195 C244.634212,95.0540465 246.6017,95.3819017 248.501629,95.6808923 L248.346173,96.6687351 C246.440439,96.3688309 244.467327,96.0400385 242.416499,95.6811506 Z M254.290196,97.5396604 L254.423741,96.5486177 C256.479195,96.8255946 258.457364,97.0648716 260.366729,97.266815 L260.261551,98.2612684 C258.342466,98.058297 256.354865,97.8178791 254.290196,97.5396604 Z M266.266674,98.789269 L266.335084,97.7916117 C268.403277,97.9334297 270.390821,98.024605 272.305585,98.064631 L272.284686,99.0644126 C270.353666,99.0240468 268.350318,98.9321466 266.266674,98.789269 Z M278.309409,99.0135267 L278.269068,98.0143408 C280.332903,97.9310152 282.310792,97.7767304 284.210686,97.5497582 L284.329308,98.5426976 C282.402797,98.7728496 280.398845,98.9291675 278.309409,99.0135267 Z M290.318073,97.5343349 L290.101501,96.5580683 C292.091439,96.1166266 293.993473,95.5767581 295.81584,94.9348757 L296.148059,95.878078 C294.28722,96.5335113 292.346584,97.0843362 290.318073,97.5343349 Z M301.705997,93.4881897 L301.248088,92.5991909 C303.00835,91.6925071 304.69268,90.6656362 306.308392,89.5130626 L306.889127,90.3271547 C305.234286,91.5076418 303.508904,92.5595404 301.705997,93.4881897 Z M311.587201,86.4530269 L310.900169,85.7263998 C312.302285,84.4006874 313.652428,82.955782 314.955456,81.3860063 L315.72491,82.0247089 C314.396532,83.6250238 313.018931,85.0993139 311.587201,86.4530269 Z M319.363475,77.1450753 L318.533673,76.5870165 C319.602498,74.9977352 320.64008,73.3059104 321.649299,71.5069317 L322.521435,71.996196 C321.499273,73.8182447 320.447623,75.533009 319.363475,77.1450753 Z" fill="url(#linearGradient-1)" fill-rule="nonzero"></path>
                <path d="M75.8086253,144.248681 L75.8086253,29.5835691 C75.8086253,27.0392424 77.7298155,24.9753793 80.0993569,24.9753793 L263.568615,24.9753793 C265.937054,24.9753793 267.857143,27.0392424 267.857143,29.5835691 L267.857143,144.248681 L289.757412,144.248681 C288.247642,147.988261 279.778171,150.43739 275.735598,150.43739 L67.9301703,150.43739 C63.8875974,150.43739 55.4192275,147.988261 53.9083558,144.248681 L75.8086253,144.248681 Z" id="Combined-Shape" fill="#0F535F"></path>
                <rect id="Rectangle" fill="url(#linearGradient-2)" x="76.3701707" y="98.677278" width="195.979335" height="45.571403"></rect>
                <polygon id="Fill-9" fill="url(#linearGradient-3)" points="84 136.309864 260.325247 136.309864 260.325247 33 84 33"></polygon>
                <g id="Group-5" transform="translate(143.000000, 56.000000)" fill-rule="nonzero">
                    <path d="M50.9035173,26.3545754 C50.3018147,23.6319366 49.2098165,21.041725 47.6805983,18.7100617 C47.4866872,18.4136771 47.5087583,18.0258549 47.7347253,17.753118 L51.3475686,13.3903797 L47.9627942,10.3971062 L42.1801429,18.6953475 C48.8393357,25.8606012 48.6822098,37.1084992 41.7092909,44.0814182 C34.5755676,51.2151416 22.96875,51.2151416 15.8350266,44.0814182 C8.86473511,37.1111267 8.70550722,25.8690093 15.3568174,18.7032301 L9.35765825,10.3881726 L5.96184834,13.3898543 L9.57521717,17.752067 C9.80118417,18.0248038 9.82272982,18.4131517 9.6288187,18.7090106 C8.10012605,21.0411996 7.00865327,23.6319366 6.40800161,26.3545754 C6.33390552,26.6956278 6.04803108,26.949972 5.70067265,26.9836043 L6.99884595e-13,27.5332819 L6.99884595e-13,34.75529 L5.70119812,35.3049678 C6.04908202,35.3391256 6.33443099,35.5950463 6.40642507,35.9371496 C6.99288821,38.6618904 8.08488646,41.252102 9.62566561,43.5743064 C9.82220435,43.8706909 9.80118417,44.2611406 9.57416623,44.5349286 L5.93242009,48.9339266 L11.0214055,54.0229119 L15.4193525,50.380115 C15.6920894,50.154148 16.0804372,50.1320769 16.3768217,50.3265135 C18.7079596,51.8557316 21.2986967,52.9482553 24.0213354,53.549958 C24.3629134,53.6256307 24.6167321,53.9120306 24.6498389,54.2604401 L25.2005676,59.9689952 L32.1088495,59.9689952 L32.6595782,54.2604401 C32.6932104,53.9125561 32.9465035,53.6256307 33.2880815,53.549958 C36.0107202,52.9482553 38.6014574,51.8557316 40.9325953,50.3265135 C41.2289798,50.1320769 41.6173277,50.154148 41.8900644,50.380115 L46.2880115,54.0229119 L51.3764713,48.9339266 L47.7331488,44.5359795 C47.5061309,44.2621917 47.4851107,43.8717418 47.6811238,43.5753573 C49.221903,41.2531531 50.3133757,38.6624159 50.8998389,35.9376752 C50.9728839,35.5950463 51.2592838,35.339651 51.6076933,35.3054933 L57.309417,34.7547646 L57.309417,27.5332819 L51.6071678,26.9836043 C51.2608604,26.9494465 50.976037,26.6951023 50.9035173,26.3545754 L50.9035173,26.3545754 Z" id="Path" fill="url(#linearGradient-4)"></path>
                    <g id="Group-14" transform="translate(17.174012, 0.000000)" fill="#00BDA2">
                        <path d="M11.4806965,18.9586252 C10.3251121,18.9586252 9.38813758,19.8955998 9.38813758,21.0511842 C9.38866318,22.2067684 10.3256376,23.1432175 11.481222,23.1426922 C12.6368064,23.1426922 13.5732553,22.205192 13.57273,21.0496076 C13.5706278,19.8950743 12.6352298,18.9596763 11.4806965,18.9586252 Z" id="Path" opacity="0.400000006"></path>
                        <path d="M18.0726248,21.9818526 L18.0726248,30.3830927 L22.9887192,30.3830927 C22.845782,26.1643427 21.4358535,23.8673626 18.0726248,21.9818526 L18.0726248,21.9818526 Z" id="Path" opacity="0.400000006"></path>
                        <path d="M16.458275,13.1717699 C16.4425098,8.90467345 15.0536014,4.75581552 12.4959712,1.3400365 L11.473865,0 L10.4617433,1.3400365 C7.90516399,4.75581552 6.51678108,8.90467345 6.50311803,13.1717699 L6.50311803,32.1372268 L16.458275,32.1372268 L16.458275,31.2764504 C16.458275,31.2480732 16.4535453,31.2196959 16.4535453,31.1902676 C16.4535453,31.1613648 16.458275,31.1329877 16.458275,31.1046105 L16.458275,13.1717699 Z M11.481222,24.7381236 L11.4806965,24.7381236 C9.4338565,24.7381236 7.77483888,23.0785804 7.77483888,21.0317405 C7.77483888,18.9849005 9.4338565,17.3258828 11.4806965,17.3258828 C13.5275364,17.3258828 15.1870796,18.9849005 15.1870796,21.0317405 C15.1870796,23.0785804 13.528062,24.7381236 11.481222,24.7381236 Z" id="Shape"></path>
                        <path d="M9.26096556,39.3471483 C9.26096556,41.542706 10.9110496,43.2952635 11.4607273,43.5338424 C12.012507,43.3005186 13.6962234,41.549012 13.7009529,39.3545053 C13.6978,39.2388943 13.6899174,39.1327425 13.6815093,38.9982133 L9.2777817,38.9982133 C9.26727161,39.1327425 9.26096556,39.2336393 9.26096556,39.3471483 Z" id="Path" opacity="0.400000006"></path>
                        <path d="M15.2301709,37.4038326 L15.1639574,33.7515765 L7.79638453,33.7515765 L7.7306965,37.4038326 C7.7306965,37.4117152 7.73700256,37.3838635 7.74383408,37.3838635 L15.2154569,37.3838635 C15.2228139,37.3838635 15.2301709,37.4106643 15.2301709,37.4038326 Z" id="Path"></path>
                        <path d="M4.88876825,21.8988229 C1.52553955,23.729155 0.13978426,26.0834151 -7.99360578e-13,30.3883478 L4.88876825,30.3883478 L4.88876825,21.8988229 Z" id="Path" opacity="0.400000006"></path>
                    </g>
                </g>
                <g id="Group-3" transform="translate(25.269542, 66.119267)">
                    <path d="M62.7442722,51.6895608 L13.8376011,51.6895608 C9.60635669,51.6895608 6.1769991,48.253702 6.1769991,44.0144363 L6.1769991,8.16493264 C6.1769991,3.92566693 9.60635669,0.489245581 13.8376011,0.489245581 L62.7442722,0.489245581 C66.9755166,0.489245581 70.4054358,3.92566693 70.4054358,8.16493264 L70.4054358,44.0144363 C70.4054358,48.253702 66.9755166,51.6895608 62.7442722,51.6895608" id="Fill-1" fill="url(#linearGradient-5)" opacity="0.117047991"></path>
                    <g id="Fill-1">
                        <use fill="black" fill-opacity="1" filter="url(#filter-7)" xlink:href="#path-6"></use>
                        <use fill="#F5F6FF" fill-rule="evenodd" xlink:href="#path-6"></use>
                    </g>
                </g>
                <g id="Group-8" transform="translate(25.269542, 69.494927)">
                    <mask id="mask-9" fill="white">
                        <use xlink:href="#path-8"></use>
                    </mask>
                    <g id="Clip-7"></g>
                    <path d="M0.0703054807,8.16470759 C0.0703054807,3.92544189 3.49966307,0.489020537 7.731469,0.489020537 L56.6375786,0.489020537 C60.8693845,0.489020537 64.2987421,3.92544189 64.2987421,8.16470759 L0.0703054807,8.16470759 Z" id="Fill-6" fill="#00D4B5" mask="url(#mask-9)"></path>
                </g>
                <g id="Group-17" transform="translate(34.482424, 83.372263)" fill="#00D4B5">
                    <path d="M7.06985624,5.61540955 L0.945642408,5.61540955 C0.423405211,5.61540955 -9.68114477e-14,5.19120168 -9.68114477e-14,4.66741185 L-9.68114477e-14,0.947435095 C-9.68114477e-14,0.423645265 0.423405211,-1.17239551e-13 0.945642408,-1.17239551e-13 L7.06985624,-1.17239551e-13 C7.59265499,-1.17239551e-13 8.0160602,0.423645265 8.0160602,0.947435095 L8.0160602,4.66741185 C8.0160602,5.19120168 7.59265499,5.61540955 7.06985624,5.61540955" id="Fill-9" opacity="0.244628906"></path>
                    <path d="M16.5519429,5.61540955 L10.4277291,5.61540955 C9.90493037,5.61540955 9.48152516,5.19120168 9.48152516,4.66741185 L9.48152516,0.947435095 C9.48152516,0.423645265 9.90493037,-1.17239551e-13 10.4277291,-1.17239551e-13 L16.5519429,-1.17239551e-13 C17.0747417,-1.17239551e-13 17.4981469,0.423645265 17.4981469,0.947435095 L17.4981469,4.66741185 C17.4981469,5.19120168 17.0747417,5.61540955 16.5519429,5.61540955" id="Fill-11" opacity="0.244628906"></path>
                    <path d="M26.0340858,5.61540955 L19.909872,5.61540955 C19.3870732,5.61540955 18.963668,5.19120168 18.963668,4.66741185 L18.963668,0.947435095 C18.963668,0.423645265 19.3870732,-1.17239551e-13 19.909872,-1.17239551e-13 L26.0340858,-1.17239551e-13 C26.556323,-1.17239551e-13 26.9797282,0.423645265 26.9797282,0.947435095 L26.9797282,4.66741185 C26.9797282,5.19120168 26.556323,5.61540955 26.0340858,5.61540955" id="Fill-13" opacity="0.244628906"></path>
                    <path d="M35.515611,5.61540955 L29.3913971,5.61540955 C28.8691599,5.61540955 28.4451932,5.19120168 28.4451932,4.66741185 L28.4451932,0.947435095 C28.4451932,0.423645265 28.8691599,-1.17239551e-13 29.3913971,-1.17239551e-13 L35.515611,-1.17239551e-13 C36.0384097,-1.17239551e-13 36.4618149,0.423645265 36.4618149,0.947435095 L36.4618149,4.66741185 C36.4618149,5.19120168 36.0384097,5.61540955 35.515611,5.61540955" id="Fill-15" opacity="0.244628906"></path>
                    <path d="M44.9977538,5.61540955 L38.87354,5.61540955 C38.3507412,5.61540955 37.927336,5.19120168 37.927336,4.66741185 L37.927336,0.947435095 C37.927336,0.423645265 38.3507412,-1.17239551e-13 38.87354,-1.17239551e-13 L44.9977538,-1.17239551e-13 C45.519991,-1.17239551e-13 45.9439578,0.423645265 45.9439578,0.947435095 L45.9439578,4.66741185 C45.9439578,5.19120168 45.519991,5.61540955 44.9977538,5.61540955" id="Fill-17" opacity="0.244628906"></path>
                    <path d="M7.06985624,13.4770954 L0.945642408,13.4770954 C0.423405211,13.4770954 -9.68114477e-14,13.0528876 -9.68114477e-14,12.5296603 L-9.68114477e-14,8.80912099 C-9.68114477e-14,8.28589377 0.423405211,7.86168589 0.945642408,7.86168589 L7.06985624,7.86168589 C7.59265499,7.86168589 8.0160602,8.28589377 8.0160602,8.80912099 L8.0160602,12.5296603 C8.0160602,13.0528876 7.59265499,13.4770954 7.06985624,13.4770954" id="Fill-19" opacity="0.244628906"></path>
                    <path d="M16.5519429,13.4770954 L10.4277291,13.4770954 C9.90493037,13.4770954 9.48152516,13.0528876 9.48152516,12.5296603 L9.48152516,8.80912099 C9.48152516,8.28589377 9.90493037,7.86168589 10.4277291,7.86168589 L16.5519429,7.86168589 C17.0747417,7.86168589 17.4981469,8.28589377 17.4981469,8.80912099 L17.4981469,12.5296603 C17.4981469,13.0528876 17.0747417,13.4770954 16.5519429,13.4770954" id="Fill-21"></path>
                    <path d="M26.0340858,13.4770954 L19.909872,13.4770954 C19.3870732,13.4770954 18.963668,13.0528876 18.963668,12.5296603 L18.963668,8.80912099 C18.963668,8.28589377 19.3870732,7.86168589 19.909872,7.86168589 L26.0340858,7.86168589 C26.556323,7.86168589 26.9797282,8.28589377 26.9797282,8.80912099 L26.9797282,12.5296603 C26.9797282,13.0528876 26.556323,13.4770954 26.0340858,13.4770954" id="Fill-23" opacity="0.244628906"></path>
                    <path d="M35.515611,13.4770954 L29.3913971,13.4770954 C28.8691599,13.4770954 28.4451932,13.0528876 28.4451932,12.5296603 L28.4451932,8.80912099 C28.4451932,8.28589377 28.8691599,7.86168589 29.3913971,7.86168589 L35.515611,7.86168589 C36.0384097,7.86168589 36.4618149,8.28589377 36.4618149,8.80912099 L36.4618149,12.5296603 C36.4618149,13.0528876 36.0384097,13.4770954 35.515611,13.4770954" id="Fill-25" opacity="0.244628906"></path>
                    <path d="M44.9977538,13.4770954 L38.87354,13.4770954 C38.3507412,13.4770954 37.927336,13.0528876 37.927336,12.5296603 L37.927336,8.80912099 C37.927336,8.28589377 38.3507412,7.86168589 38.87354,7.86168589 L44.9977538,7.86168589 C45.519991,7.86168589 45.9439578,8.28589377 45.9439578,8.80912099 L45.9439578,12.5296603 C45.9439578,13.0528876 45.519991,13.4770954 44.9977538,13.4770954" id="Fill-27" opacity="0.244628906"></path>
                    <path d="M7.06985624,21.3393439 L0.945642408,21.3393439 C0.423405211,21.3393439 -9.68114477e-14,20.9151361 -9.68114477e-14,20.3913462 L-9.68114477e-14,16.6713695 C-9.68114477e-14,16.1475797 0.423405211,15.7239344 0.945642408,15.7239344 L7.06985624,15.7239344 C7.59265499,15.7239344 8.0160602,16.1475797 8.0160602,16.6713695 L8.0160602,20.3913462 C8.0160602,20.9151361 7.59265499,21.3393439 7.06985624,21.3393439" id="Fill-29" opacity="0.244628906"></path>
                    <path d="M16.5519429,21.3393439 L10.4277291,21.3393439 C9.90493037,21.3393439 9.48152516,20.9151361 9.48152516,20.3913462 L9.48152516,16.6713695 C9.48152516,16.1475797 9.90493037,15.7239344 10.4277291,15.7239344 L16.5519429,15.7239344 C17.0747417,15.7239344 17.4981469,16.1475797 17.4981469,16.6713695 L17.4981469,20.3913462 C17.4981469,20.9151361 17.0747417,21.3393439 16.5519429,21.3393439" id="Fill-31" opacity="0.244628906"></path>
                    <path d="M26.0340858,21.3393439 L19.909872,21.3393439 C19.3870732,21.3393439 18.963668,20.9151361 18.963668,20.3913462 L18.963668,16.6713695 C18.963668,16.1475797 19.3870732,15.7239344 19.909872,15.7239344 L26.0340858,15.7239344 C26.556323,15.7239344 26.9797282,16.1475797 26.9797282,16.6713695 L26.9797282,20.3913462 C26.9797282,20.9151361 26.556323,21.3393439 26.0340858,21.3393439" id="Fill-33" opacity="0.244628906"></path>
                    <path d="M35.515611,21.3393439 L29.3913971,21.3393439 C28.8691599,21.3393439 28.4451932,20.9151361 28.4451932,20.3913462 L28.4451932,16.6713695 C28.4451932,16.1475797 28.8691599,15.7239344 29.3913971,15.7239344 L35.515611,15.7239344 C36.0384097,15.7239344 36.4618149,16.1475797 36.4618149,16.6713695 L36.4618149,20.3913462 C36.4618149,20.9151361 36.0384097,21.3393439 35.515611,21.3393439" id="Fill-35" opacity="0.244628906"></path>
                    <path d="M44.9977538,21.3393439 L38.87354,21.3393439 C38.3507412,21.3393439 37.927336,20.9151361 37.927336,20.3913462 L37.927336,16.6713695 C37.927336,16.1475797 38.3507412,15.7239344 38.87354,15.7239344 L44.9977538,15.7239344 C45.519991,15.7239344 45.9439578,16.1475797 45.9439578,16.6713695 L45.9439578,20.3913462 C45.9439578,20.9151361 45.519991,21.3393439 44.9977538,21.3393439" id="Fill-37"></path>
                    <path d="M7.06985624,29.2010861 L0.945642408,29.2010861 C0.423405211,29.2010861 -9.68114477e-14,28.7768782 -9.68114477e-14,28.253651 L-9.68114477e-14,24.5331116 C-9.68114477e-14,24.0093218 0.423405211,23.5856765 0.945642408,23.5856765 L7.06985624,23.5856765 C7.59265499,23.5856765 8.0160602,24.0093218 8.0160602,24.5331116 L8.0160602,28.253651 C8.0160602,28.7768782 7.59265499,29.2010861 7.06985624,29.2010861" id="Fill-39" opacity="0.244628906"></path>
                    <path d="M16.5519429,29.2010861 L10.4277291,29.2010861 C9.90493037,29.2010861 9.48152516,28.7768782 9.48152516,28.253651 L9.48152516,24.5331116 C9.48152516,24.0093218 9.90493037,23.5856765 10.4277291,23.5856765 L16.5519429,23.5856765 C17.0747417,23.5856765 17.4981469,24.0093218 17.4981469,24.5331116 L17.4981469,28.253651 C17.4981469,28.7768782 17.0747417,29.2010861 16.5519429,29.2010861" id="Fill-41" opacity="0.244628906"></path>
                    <path d="M26.0340858,29.2010861 L19.909872,29.2010861 C19.3870732,29.2010861 18.963668,28.7768782 18.963668,28.253651 L18.963668,24.5331116 C18.963668,24.0093218 19.3870732,23.5856765 19.909872,23.5856765 L26.0340858,23.5856765 C26.556323,23.5856765 26.9797282,24.0093218 26.9797282,24.5331116 L26.9797282,28.253651 C26.9797282,28.7768782 26.556323,29.2010861 26.0340858,29.2010861" id="Fill-43" opacity="0.244628906"></path>
                    <path d="M35.515611,29.2010861 L29.3913971,29.2010861 C28.8691599,29.2010861 28.4451932,28.7768782 28.4451932,28.253651 L28.4451932,24.5331116 C28.4451932,24.0093218 28.8691599,23.5856765 29.3913971,23.5856765 L35.515611,23.5856765 C36.0384097,23.5856765 36.4618149,24.0093218 36.4618149,24.5331116 L36.4618149,28.253651 C36.4618149,28.7768782 36.0384097,29.2010861 35.515611,29.2010861" id="Fill-45" opacity="0.244628906"></path>
                    <path d="M44.9977538,29.2010861 L38.87354,29.2010861 C38.3507412,29.2010861 37.927336,28.7768782 37.927336,28.253651 L37.927336,24.5331116 C37.927336,24.0093218 38.3507412,23.5856765 38.87354,23.5856765 L44.9977538,23.5856765 C45.519991,23.5856765 45.9439578,24.0093218 45.9439578,24.5331116 L45.9439578,28.253651 C45.9439578,28.7768782 45.519991,29.2010861 44.9977538,29.2010861" id="Fill-47" opacity="0.244628906"></path>
                </g>
                <g id="Group-3" transform="translate(238.095238, 0.050635)">
                    <path d="M71.3162624,31.7877407 C71.3162624,49.3434874 57.1110698,63.5754829 39.5883857,63.5754829 C22.0657017,63.5754829 7.86163522,49.3434874 7.86163522,31.7877407 C7.86163522,14.2325581 22.0657017,0.000562609913 39.5883857,0.000562609913 C57.1110698,0.000562609913 71.3162624,14.2325581 71.3162624,31.7877407" id="Fill-1" fill="url(#linearGradient-10)" opacity="0.117047991"></path>
                    <g id="Fill-1">
                        <use fill="black" fill-opacity="1" filter="url(#filter-12)" xlink:href="#path-11"></use>
                        <use fill="#F5F6FF" fill-rule="evenodd" xlink:href="#path-11"></use>
                    </g>
                </g>
                <path d="M270.762129,9.90300344 L268.714173,9.90300344 C268.4115,9.90300344 268.16779,9.65770552 268.16779,9.355584 L268.16779,5.95179402 C268.16779,5.64854727 268.4115,5.40437457 268.714173,5.40437457 L270.762129,5.40437457 C271.063679,5.40437457 271.308513,5.64854727 271.308513,5.95179402 L271.308513,9.355584 C271.308513,9.65770552 271.063679,9.90300344 270.762129,9.90300344" id="Fill-4" fill="#00BDA2"></path>
                <path d="M259.63595,12.3402859 L257.862028,13.3664863 C257.600348,13.5178284 257.266229,13.4283734 257.115735,13.1661972 L255.416498,10.2175586 C255.266004,9.95594504 255.35529,9.62119214 255.616408,9.46985007 L257.39033,8.44364959 C257.65201,8.29287013 257.98613,8.38232511 258.136624,8.64450133 L259.835299,11.5925773 C259.986354,11.8547535 259.897069,12.1889438 259.63595,12.3402859" id="Fill-6" fill="#00BDA2"></path>
                <path d="M251.216644,20.0245246 L250.192385,21.8018093 C250.04133,22.0634229 249.70721,22.1528779 249.446092,22.0020984 L246.503032,20.2996408 C246.241914,20.1488614 246.152066,19.8141085 246.303122,19.5519322 L247.327381,17.7746475 C247.478437,17.5130339 247.812556,17.4235789 248.073113,17.574921 L251.016734,19.276816 C251.277291,19.4275955 251.3677,19.762911 251.216644,20.0245246" id="Fill-8" fill="#00BDA2"></path>
                <path d="M247.759602,30.8970737 L247.759602,32.948912 C247.759602,33.2515962 247.514769,33.4963315 247.213219,33.4963315 L243.815869,33.4963315 C243.513196,33.4963315 243.268924,33.2515962 243.268924,32.948912 L243.268924,30.8970737 C243.268924,30.5949522 243.513196,30.3496542 243.815869,30.3496542 L247.213219,30.3496542 C247.514769,30.3496542 247.759602,30.5949522 247.759602,30.8970737" id="Fill-10" fill="#00BDA2"></path>
                <path d="M250.192273,42.044289 L251.216532,43.8215737 C251.367588,44.0831873 251.27774,44.4179402 251.016622,44.5687196 L248.073562,46.2717398 C247.812444,46.4225193 247.478324,46.3325017 247.327269,46.0708881 L246.30301,44.2936034 C246.152516,44.0319898 246.241801,43.6972369 246.503482,43.5458948 L249.445979,41.8439998 C249.707659,41.6926578 250.041217,41.7821127 250.192273,42.044289" id="Fill-12" fill="#00BDA2"></path>
                <path d="M257.861972,50.4796119 L259.635894,51.5052498 C259.897013,51.6565919 259.986298,51.9919074 259.835804,52.2529584 L258.136568,55.2021595 C257.986074,55.4632105 257.651954,55.5532281 257.390274,55.401886 L255.616352,54.3762482 C255.355234,54.2249061 255.265948,53.8901532 255.417004,53.6285396 L257.115678,50.6793384 C257.266173,50.4182874 257.600292,50.3282698 257.861972,50.4796119" id="Fill-14" fill="#00BDA2"></path>
                <path d="M268.713949,53.9426447 L270.761905,53.9426447 C271.064016,53.9426447 271.308288,54.1879426 271.308288,54.4900642 L271.308288,57.8944167 C271.308288,58.1971009 271.064016,58.4418362 270.761905,58.4418362 L268.713949,58.4418362 C268.411837,58.4418362 268.167565,58.1971009 268.167565,57.8944167 L268.167565,54.4900642 C268.167565,54.1879426 268.411837,53.9426447 268.713949,53.9426447" id="Fill-16" fill="#00BDA2"></path>
                <path d="M279.840072,51.5053623 L281.613432,50.4797244 C281.875112,50.3283824 282.209232,50.4178373 282.359726,50.679451 L284.059524,53.6280895 C284.210018,53.8897031 284.120171,54.2250186 283.859052,54.3763607 L282.08513,55.4019986 C281.824012,55.552778 281.489892,55.463323 281.338836,55.2017094 L279.640162,52.2530709 C279.489106,51.9914573 279.578392,51.6567044 279.840072,51.5053623" id="Fill-18" fill="#00BDA2"></path>
                <path d="M288.259434,43.8216862 L289.283131,42.0444015 C289.434187,41.7822253 289.768868,41.6927703 290.029425,41.8435497 L292.973046,43.5460073 C293.233603,43.6973494 293.32345,44.0321023 293.172394,44.2937159 L292.148697,46.0710006 C291.99708,46.3326142 291.663522,46.4226318 291.402403,46.2712898 L288.458783,44.5688322 C288.198226,44.4180527 288.108378,44.0832998 288.259434,43.8216862" id="Fill-20" fill="#00BDA2"></path>
                <path d="M291.715914,32.9491371 L291.715914,30.8972987 C291.715914,30.5946146 291.960748,30.3498793 292.262298,30.3498793 L295.660209,30.3498793 C295.96232,30.3498793 296.206593,30.5946146 296.206593,30.8972987 L296.206593,32.9491371 C296.206593,33.2512586 295.96232,33.4965565 295.660209,33.4965565 L292.262298,33.4965565 C291.960748,33.4965565 291.715914,33.2512586 291.715914,32.9491371" id="Fill-22" fill="#00BDA2"></path>
                <path d="M289.283243,21.8018656 L288.259546,20.0245808 C288.108491,19.7629672 288.197776,19.4276517 288.458895,19.2768723 L291.401954,17.5744147 C291.663073,17.4236352 291.997192,17.5130902 292.14881,17.7747038 L293.172507,19.5519885 C293.323001,19.8141647 293.233715,20.1489176 292.972597,20.2996971 L290.029537,22.0015921 C289.768419,22.1529341 289.434299,22.0634792 289.283243,21.8018656" id="Fill-24" fill="#00BDA2"></path>
                <path d="M281.613544,13.3665989 L279.840184,12.3403984 C279.578504,12.1890563 279.489218,11.8543034 279.639712,11.5926898 L281.338949,8.64405124 C281.490004,8.38243763 281.824124,8.29242004 282.085243,8.44376211 L283.859164,9.46996259 C284.120283,9.62130466 284.21013,9.95605756 284.059075,10.2171086 L282.359838,13.1663097 C282.209344,13.4279233 281.875225,13.5179409 281.613544,13.3665989" id="Fill-26" fill="#00BDA2"></path>
                <path d="M273.653751,31.6200837 C272.978212,31.3280891 272.208895,31.0968565 271.374438,30.9151335 C272.51606,23.2197551 270.855009,12.8986762 270.089061,9.25971527 C270.009322,8.87826575 269.466869,8.87826575 269.386006,9.25971527 C268.63522,12.8272247 267.026393,22.8158011 268.038297,30.4577316 C262.088724,30.0200211 254.797058,31.1165478 252.267857,31.6510272 C251.974169,31.7129143 251.974169,32.1326213 252.267857,32.1945084 C254.875112,32.7458661 262.54133,33.8935903 268.582435,33.3439205 C268.791891,34.1591422 269.044025,34.9248543 269.346137,35.6258663 C269.493823,35.9679331 269.981806,35.9679331 270.129492,35.6258663 C270.471473,34.8314611 270.747192,33.9509766 270.97181,33.0131058 C271.961253,32.8206932 272.870395,32.5647057 273.653751,32.2260146 C273.917116,32.1118047 273.917116,31.7337309 273.653751,31.6200837" id="Fill-28" fill="#00D4B5"></path>
            </g>
        </g>
    </g>
</svg>