<svg xmlns="http://www.w3.org/2000/svg" width="692" height="629" viewBox="0 0 692 629"><defs><linearGradient id="jnb9a" x1="456.82" x2="263.76" y1="653.11" y2="292.11" gradientUnits="userSpaceOnUse"><stop offset="0" stop-color="#3effe3" stop-opacity="0"/><stop offset="1" stop-color="#00ea99"/></linearGradient><linearGradient id="jnb9b" x1="351.52" x2="107.07" y1="712.62" y2="411.33" gradientUnits="userSpaceOnUse"><stop offset="0" stop-color="#3effe3" stop-opacity="0"/><stop offset="1" stop-color="#00ea99"/></linearGradient><linearGradient id="jnb9c" x1="616.82" x2="423.76" y1="656.68" y2="242.2" gradientUnits="userSpaceOnUse"><stop offset="0" stop-color="#3effe3" stop-opacity="0"/><stop offset="1" stop-color="#00ea99"/></linearGradient><linearGradient id="jnb9d" x1="75.44" x2="346.77" y1="586.52" y2="193.06" gradientUnits="userSpaceOnUse"><stop offset="0" stop-color="#990dee"/><stop offset="1" stop-color="#14151a"/></linearGradient><linearGradient id="jnb9e" x1="469.38" x2="368.32" y1="377.23" y2="213.18" gradientUnits="userSpaceOnUse"><stop offset="0" stop-color="#990dee"/><stop offset="1" stop-color="#14151a"/></linearGradient><clipPath id="jnb9f"><path d="M546.52 111.69h42.991v27.153H546.52z"/></clipPath><clipPath id="jnb9g"><path d="M275.42 0h187.44v85.614H275.42z"/></clipPath><clipPath id="jnb9h"><path d="M190 372.47h26.433v48.119H190z"/></clipPath><clipPath id="jnb9i"><path d="M415 96h25v87h-25z"/></clipPath></defs><g><g><path fill="none" stroke="#000" stroke-miterlimit="50" d="M601.83 430v0l-6.678-17.52c-3.908.216-7.625.186-11.11 0l-5.56 17.116v0l-2.627-.5a845.474 845.474 0 0 1-10.647-2.117c-2.794-.568-5.572-1.133-8.32-1.667l-2.701-.527v0l1.867-19.257a70.734 70.734 0 0 1-9.87-5.194l-12.935 12.756v0l-2.11-1.724a590.226 590.226 0 0 1-7.457-6.228c-2.417-2.04-4.916-4.152-7.401-6.18l-2.119-1.731v0l10.566-15.973c-2.255-2.754-4.367-5.788-6.305-9.06l-17.456 5.088v0l-1.036-2.521a888.584 888.584 0 0 0-3.702-8.822 863.67 863.67 0 0 1-3.728-8.884l-1.023-2.487v0l16.79-9.31a73.396 73.396 0 0 1-1.242-10.955L489 330.459v0l.256-2.684c.304-3.19.646-6.38.99-9.569.339-3.166.678-6.332.98-9.498l.26-2.718v0l18.984-.155c1.132-3.659 2.46-7.103 3.964-10.285l-14.23-12.042v0l13.996-20.376v0l16.58 8.815a82.292 82.292 0 0 1 8.302-7.393l-6.976-17.173v0l21.772-11.64v0l10.702 15.48a83.262 83.262 0 0 1 10.743-2.646L577.339 230v0h24.698v0l2.015 18.564c3.942.683 7.612 1.596 10.964 2.725l9.516-15.322v0l2.435 1.122c3.566 1.642 7.111 3.356 10.54 5.013 2.315 1.119 4.62 2.233 6.924 3.322l2.466 1.167v0l-6.376 18.158c2.704 2.053 5.434 4.46 8.267 7.287l15.66-9.286v0l1.62 2.264c2.395 3.346 4.891 6.687 7.307 9.917 1.408 1.883 2.81 3.76 4.192 5.637l1.598 2.168v0L665.142 295.8a94.802 94.802 0 0 1 3.878 10.222l18.27-.773v0l.388 2.713c.891 6.232 1.814 12.675 2.87 18.997l.452 2.707v0l-18.55 4.979a81.205 81.205 0 0 1-1.308 10.81l16.576 8.196v0l-.961 2.562c-1.133 3.016-2.228 6.032-3.324 9.05-1.103 3.036-2.206 6.073-3.347 9.11l-.946 2.518v0l-18.291-4.487c-1.807 3.023-3.92 6.052-6.31 9.043l10.837 14.99v0l-2.016 1.818c-4.593 4.14-9.474 8.555-14.213 12.98l-2.022 1.886v0l-14.165-12.586c-3.299 2-6.594 3.708-9.84 5.1l2.632 18.39v0l-2.672.65a829.183 829.183 0 0 0-9.29 2.338c-3.12.797-6.239 1.594-9.36 2.354z"/></g><g><path fill="none" stroke="#000" stroke-dasharray="6 6" stroke-miterlimit="50" d="M24 293.345v0s83.207-127.242 270.364-109C481.52 202.586 571.09 125.689 596.5 29"/></g><g><path fill="none" stroke="#000" stroke-miterlimit="50" stroke-width="1.55" d="M349 388.877c0-43.279-15.823-82.864-42.004-113.295C275.086 238.49 227.788 215 175 215 78.903 215 1 292.847 1 388.877c0 78.552 52.131 144.928 123.704 166.49l2.543.66a3 3 0 0 0 3.753-2.904V449.846c0-8.837 7.163-16 16-16h128v0"/></g><g opacity=".23"><path fill="none" stroke="#000" stroke-miterlimit="50" d="M594 350c11.598 0 21-9.402 21-21s-9.402-21-21-21-21 9.402-21 21 9.402 21 21 21z"/></g><g><path fill="url(#jnb9a)" d="M313 408c0-12.15 9.85-22 22-22h101c11.598 0 21 9.402 21 21v222H313z"/></g><g><path fill="url(#jnb9b)" d="M149 465c0-8.284 6.716-15 15-15h114c8.284 0 15 6.716 15 15v164l-144-.575z"/></g><g><path fill="#f6f6f8" d="M473 367c0-9.389 7.611-17 17-17h113c7.732 0 14 6.268 14 14v265H473z"/></g><g><path fill="url(#jnb9c)" d="M473 367c0-9.389 7.611-17 17-17h113c7.732 0 14 6.268 14 14v265H473z"/></g><g><g><path fill="url(#jnb9d)" d="M363.527 287.225c-45.807 40.606-91.651 73.416-144.933 96.474a212.738 212.738 0 0 1-8.224-13.117 569.132 569.132 0 0 0 33.314-27.358c47.023-41.686 78.807-72.976 105.119-123.099 8.839-16.838 15.907-16.39 22.555-16.762 5.355-.3 21.548 2.31 35.648 5.904 10.7 2.726 14.737 15.784 7.391 24.026-16.461 18.467-38.71 43.153-50.87 53.932"/></g><g><path fill="url(#jnb9e)" d="M477.42 240.589a.578.578 0 0 0 .072-.031c13.062-6.405 25.778-10.89 30.13 21.902.026.193.063.387.112.576l15.329 59.567a.749.749 0 0 0 .967.52s15.216-.172 15.175-.52c-.84-7.231 2.807-75.652 0-101.551-3.182-29.355-17.897-36.445-37.977-33.558l-88.4 16.098c-10.767 1.547-50.204-6.888-52.855-1.485-3.196 6.514-16.623 60.5 49.19 59.996 1.408-.01 19.609-3.883 20.93-4.362z"/></g><g><path fill="#c8cde6" d="M260.264 116.039s-4.698-5.577-6.732-5.077c-2.187.537-4.602.004-4.602.735 0 .68 2.238 1.273 4.593 1.358 1.575.056 4.944 4.247 5.569 3.693.626-.553 1.172-.71 1.172-.71"/></g><g><path fill="#c8cde6" d="M259.431 118.286l-4.135-6.167s-8.32-1.54-7.933-4.098c0 0 1.6-.048 4.674.724 2.31.58 3.733.46 4.563 1.007 1.422.937 4.155 5.09 4.155 5.09s1.263 1.34-1.324 3.444"/></g><g><path fill="#c8cde6" d="M263.091 128.34c-1.338.326-3.694.381-7.562-.98-4.839-1.706-6.774-1.037-6.774-1.037-1.152-.662 1.866-3.009 5.12-1.852 2.216.79 3.403-.185 4.337-1.357a15.316 15.316 0 0 1-.312-1.456c-.336-2.042-.192-4.598-.133-6.785l-2.783-5.479s-8.043-2.603-7.375-5.108c0 0 2.373.152 5.19 1.624.895.47 1.541.671 2.04.78-2.09-2.9-4.394-6.048-3.26-7.08.533-.488 8.635 8.402 9.48 10.695 2.973 8.077 10.781 11.858 10.781 11.858l-.092.051c4.471-.302 8.601-.09 8.601-.09 1.355 3.971-.609 8.627-.609 8.627z"/></g><g><path fill="#00bda2" d="M452.421 91.584c-.163 1.048 2.599 27.67-12 35-14.599 7.33-27.109 43.345-8.858 71.923-17.49 2.68-21.096 20.235-41.128 21.47-17.942 1.992-36.808-8.026-44.755-8.275 4.322-4.82 15.332-18.04 19.663-29.508 6.21-16.445 4.821-19.477 4.682-34.836a123.287 123.287 0 0 0-.105-4.074c-.499-11.64-1.206-35.287-5.226-46.765 48.261-30.117 75.699-29.626 81.881-29.059.018.063 4.846 8.124 5.846 24.124z"/></g><g><g/><g clip-path="url(#jnb9f)"><path fill="#c8cde6" d="M559.637 129.157c.655 1.249 2.207 3.097 5.87 5.146 4.585 2.567 5.379 4.506 5.379 4.506 1.288.437 1.052-3.469-2.04-5.187-2.105-1.17-2.16-2.74-1.891-4.251.435-.216.88-.463 1.33-.745 1.797-1.123 3.665-2.964 5.306-4.488l6.094-1.568s7.442 4.42 8.915 2.212c0 0-1.721-1.721-4.757-2.889-.967-.371-1.56-.73-1.98-1.04 3.643-.356 7.62-.715 7.648-2.285.013-.739-12.302-.952-14.636-.049-8.22 3.179-16.409-.264-16.409-.264l.023.105c-2.792-3.64-5.748-6.67-5.748-6.67-3.971 1.646-6.221 6.304-6.221 6.304z"/></g></g><g><path fill="#00bda2" d="M446.58 67.46c71 0 104.123 37.975 110.143 46.377a115.467 115.467 0 0 0-9.24 6.888c-.015-.014-3.323-2.561-6.567-5.06-5.046-3.887-10.636-7.023-16.617-9.209-25.278-9.24-63.873-15.872-71.873-10.872 0-14-5.761-26.579-5.846-28.124z"/></g><g><path fill="#00bda2" d="M387.047 105.129c-.414-15.011-10.202-19.184-21.496-9.29-26.169 22.922-57.499 30.477-83.229 25.347a95.17 95.17 0 0 1-4.089-.921 379.91 379.91 0 0 1-.308 3.127c-.989 9.536.915-.301-.755 8.639a109.802 109.802 0 0 0 14.973 4.085c32.611 6.502 64.502 7.612 84.333-9.185 3.583-3.035 6.256-7.012 7.844-11.432 2.847-7.93 2.881-4.75 2.727-10.37"/></g><g><path fill="#c8cde6" d="M467.343 47.828a11.836 11.836 0 0 1-4.268 2.45 2.678 2.678 0 0 0-1.856 2.244c-.263 2.349-1.759 4.569-.986 6.79.514 1.478-.602 3.013-2.164 2.917-16.346-1.001-22.212-5.173-27.06 21.792l-.002.005c-.138.506-14.82 4.64-18.27-7.482-.176-.614-.512-1.17-.339-1.784l1.138-2.419c1.232-2.849 5.58-11.743 6.266-14.863a36.987 36.987 0 0 0 6.617 2.701c1.11-6.246 3.274-10.951 7.392-15.268-.772-1.293-3.196-3.739-2.749-6.242.418-2.335 2.553-4.015 4.922-3.873 2.371.142 4.058 1.527 5.272 3.709 1.313-.84 1.838-1.022 3.253-1.586h.001c.138-.007.276-.013.413-.022.487-.209.98-.405 1.477-.588a29.74 29.74 0 0 1 2.2-.719 31.35 31.35 0 0 0 11.351-7.286 11.365 11.365 0 0 0 2.868-6.644 18.783 18.783 0 0 1 .093 4.927c-.042.378-.095.751-.159 1.12l-.002.015v.002a18.877 18.877 0 0 0-.884 3.3v.003c-.065.373-.118.751-.16 1.132a18.802 18.802 0 0 0 2.622 11.895 19.111 19.111 0 0 0 3.014 3.774"/></g><g><g/><g clip-path="url(#jnb9g)"><path fill="#39015c" d="M460.798 15.06a34.075 34.075 0 0 0-2.988-3.667 24.558 24.558 0 0 0-4.486-3.774c-5.434-3.554-11.993-4.726-18.185-3.488-3.453-.419-6.923-.21-10.38 1.177-5.768 2.316-10.098 6.949-15.51 9.875-7.246 3.917-15.64 1.833-23.02-.651-7.503-2.525-14.587-6.107-21.914-9.076-12.426-5.036-26.776-8.271-39.41-1.995-12.324 6.123-15.643 19.515-19.201 31.655-2.6 8.868-6.021 17.459-10.31 25.649-7.37 17.872-19.565 18.203-19.961 19.03-.691 1.446 26.498 9.04 43.814 4.26 6.433-1.537 12.17-4.29 18.03-7.27 7.24-3.68 13.922-5.06 22.028-3.91 14.239 2.017 29.127 4.506 43.678 2.053 12.979-1.853 26.885-13.905 32.487-30.824a24.473 24.473 0 0 1 9.036-6.257v-.002c.137-.006.274-.013.409-.022.004 0 .007 0 .01-.002a29.65 29.65 0 0 1 1.472-.586 30.036 30.036 0 0 1 2.199-.719h.003a31.346 31.346 0 0 0 11.349-7.287 11.374 11.374 0 0 0 2.84-6.353 11.386 11.386 0 0 0-1.99-7.817"/></g></g><g><path fill="#39015c" d="M422.928 85.11c-6.926-2.015-10.856-6.45-9.703-12.22-.914.3-3.271 1.103-3.978 1.388-1.606 16.391 9.63 18.65 9.63 18.65z"/></g><g><path fill="#39015c" d="M422.92 85.114c8.534-1.314 8.944-6.88 9.636-8.454.744 15.11-5.299 17.006-5.299 17.006z"/></g><g><g/><g clip-path="url(#jnb9h)"><path fill="#39015c" d="M215.466 419.398c.296.744-.487 1.46-1.198 1.092l-.021-.012c-3.075-1.597-4.881-3.017-12.396-15.466-5.578-8.93-1.212-10.38-.805-20.132.029-.704-.75-1.151-1.34-.763-1.862 1.229-4.944 3.827-6.493 4.752a.867.867 0 0 1-1.172-.27c-.896-1.372-1.16-1.718-1.921-3.015a.865.865 0 0 1 .333-1.2c3.047-1.647 8.708-7.278 10.98-8.686a35.418 35.418 0 0 0 4.159-3.021.866.866 0 0 1 1.29.193 151.348 151.348 0 0 1 9.47 17.359.863.863 0 0 1 .07.5c-1.02 6.35-2.5 24.785-.956 28.669"/></g></g><g transform="rotate(18 547.5 337.5)"><path fill="#39015c" d="M570.75 336.204c.841-.12 1.384.866.827 1.508-.006.006-.01.013-.016.018-2.415 2.774-4.33 4.283-19.043 8.932-10.6 3.527-11.008-1.337-20.966-4.187-.719-.206-1.374.486-1.12 1.19.802 2.227 2.714 6.055 3.282 7.883a.919.919 0 0 1-.569 1.14c-1.64.583-2.062.769-3.59 1.232a.918.918 0 0 1-1.153-.643c-.942-3.554-5.338-10.797-6.224-13.491a37.426 37.426 0 0 0-2.08-5.042.918.918 0 0 1 .521-1.283 160.705 160.705 0 0 1 20.265-5.443.917.917 0 0 1 .535.055c6.293 2.634 24.94 8.755 29.331 8.13"/></g></g><g transform="rotate(10 427.5 139.5)"><g/><g clip-path="url(#jnb9i)"><path fill="#39015c" d="M415 96s24.516 34.69 10.729 67.175C420.612 175.23 433.936 183 433.936 183s2.927-15.902 4.252-20.65C443.08 144.8 438.93 112.132 415 96"/></g></g><g><path fill="none" stroke="#fff" stroke-miterlimit="50" stroke-width="2" d="M356.683 215.17s-1.629 37.85 33.316 45.52"/></g><g><path fill="none" stroke="#fff" stroke-linecap="round" stroke-miterlimit="50" stroke-width="2" d="M452.976 96.239s-.885-14.03-4.306-23.349"/></g></g></svg>