<?xml version="1.0" encoding="UTF-8"?>
<svg width="568px" height="318px" viewBox="0 0 568 318" version="1.1" xmlns="http://www.w3.org/2000/svg" xmlns:xlink="http://www.w3.org/1999/xlink">
    <!-- Generator: Sketch 56.3 (81716) - https://sketch.com -->
    <title>Group 43</title>
    <desc>Created with Sketch.</desc>
    <defs>
        <linearGradient x1="102.727958%" y1="48.7948846%" x2="12.0139568%" y2="50.5575967%" id="linearGradient-1">
            <stop stop-color="#00BDA2" offset="0%"></stop>
            <stop stop-color="#990DEE" offset="100%"></stop>
        </linearGradient>
        <linearGradient x1="50%" y1="18.9338922%" x2="50%" y2="356.531451%" id="linearGradient-2">
            <stop stop-color="#14151A" stop-opacity="0" offset="0%"></stop>
            <stop stop-color="#0F0119" offset="100%"></stop>
        </linearGradient>
        <linearGradient x1="99.5267172%" y1="50%" x2="0.378626252%" y2="50%" id="linearGradient-3">
            <stop stop-color="#3EFFE3" offset="0.0527871622%"></stop>
            <stop stop-color="#00EA99" offset="99.9577703%"></stop>
        </linearGradient>
        <linearGradient x1="65.4307232%" y1="12.2035312%" x2="86.2221453%" y2="110.025558%" id="linearGradient-4">
            <stop stop-color="#3EFFE3" offset="0.0527871622%"></stop>
            <stop stop-color="#990DEE" offset="100%"></stop>
        </linearGradient>
        <path d="M100.8605,97.8745 L13.7675,97.8745 C6.2325,97.8745 0.1255,91.7675 0.1255,84.2325 L0.1255,20.5125 C0.1255,12.9775 6.2325,6.8695 13.7675,6.8695 L100.8605,6.8695 C108.3955,6.8695 114.5035,12.9775 114.5035,20.5125 L114.5035,84.2325 C114.5035,91.7675 108.3955,97.8745 100.8605,97.8745" id="path-5"></path>
        <filter x="-17.5%" y="-11.0%" width="135.0%" height="144.0%" filterUnits="objectBoundingBox" id="filter-6">
            <feOffset dx="0" dy="10" in="SourceAlpha" result="shadowOffsetOuter1"></feOffset>
            <feGaussianBlur stdDeviation="5" in="shadowOffsetOuter1" result="shadowBlurOuter1"></feGaussianBlur>
            <feColorMatrix values="0 0 0 0 0.361832398   0 0 0 0 0.400741965   0 0 0 0 0.569350091  0 0 0 0.139723558 0" type="matrix" in="shadowBlurOuter1"></feColorMatrix>
        </filter>
        <polygon id="path-7" points="0.1252 0.87 114.5032 0.87 114.5032 14.5122 0.1252 14.5122"></polygon>
        <linearGradient x1="65.4307232%" y1="-9.70431442%" x2="86.2221453%" y2="144.817979%" id="linearGradient-9">
            <stop stop-color="#3EFFE3" offset="0.0527871622%"></stop>
            <stop stop-color="#990DEE" offset="100%"></stop>
        </linearGradient>
        <path d="M112.6986,56.6506 C112.6986,87.7716 87.4696,113.0006 56.3486,113.0006 C25.2276,113.0006 0.0006,87.7716 0.0006,56.6506 C0.0006,25.5306 25.2276,0.3016 56.3486,0.3016 C87.4696,0.3016 112.6986,25.5306 112.6986,56.6506" id="path-10"></path>
        <filter x="-17.7%" y="-8.9%" width="135.5%" height="135.5%" filterUnits="objectBoundingBox" id="filter-11">
            <feOffset dx="0" dy="10" in="SourceAlpha" result="shadowOffsetOuter1"></feOffset>
            <feGaussianBlur stdDeviation="5" in="shadowOffsetOuter1" result="shadowBlurOuter1"></feGaussianBlur>
            <feColorMatrix values="0 0 0 0 0.361832398   0 0 0 0 0.400741965   0 0 0 0 0.569350091  0 0 0 0.139723558 0" type="matrix" in="shadowBlurOuter1"></feColorMatrix>
        </filter>
    </defs>
    <g id="05---Layout" stroke="none" stroke-width="1" fill="none" fill-rule="evenodd">
        <g id="lp-insur" transform="translate(-988.000000, -7053.000000)">
            <g id="Group-43" transform="translate(977.000000, 7054.000000)">
                <path id="Path-21" d="M582.633772,157.094198 L576.872118,161.527778 L576.262275,160.735257 L584.241121,154.595552 L585.344791,164.602543 L584.350818,164.712168 L583.55384,157.485958 L581.785486,161.639026 L580.865418,161.247266 L582.633772,157.094198 Z M4.32498558,246.17476 L3.38361688,245.83738 C4.06833812,243.926846 4.78710249,242.049676 5.53972185,240.20571 L6.46557297,240.583599 C5.71843702,242.41413 5.00484417,244.277794 4.32498558,246.17476 Z M8.84027919,235.120074 L7.93251307,234.700597 C8.78277257,232.860598 9.6690823,231.056152 10.5912255,229.287077 L11.4779856,229.749307 C10.5632016,231.504264 9.68389395,233.294454 8.84027919,235.120074 Z M14.3691352,224.520626 L13.5063214,224.015104 C14.5291635,222.269339 15.589599,220.560922 16.6873825,218.889647 L17.5231989,219.438656 C16.4347974,221.095648 15.3833628,222.789564 14.3691352,224.520626 Z M20.9499829,214.508916 L20.1442645,213.916618 C21.337792,212.293033 22.5696086,210.707808 23.8394453,209.160715 L24.612414,209.795159 C23.3538675,211.328497 22.1329713,212.899669 20.9499829,214.508916 Z M28.5152049,205.292614 L27.7774711,204.617523 C29.133728,203.135418 30.5281945,201.691951 31.9605845,200.286878 L32.6608514,201.000759 C31.2412787,202.39326 29.8593064,203.823793 28.5152049,205.292614 Z M37.0500859,196.921271 L36.3891895,196.170794 C37.8961149,194.843742 39.4404609,193.554914 41.0219317,192.304052 L41.6422884,193.088372 C40.074587,194.328343 38.5437603,195.605889 37.0500859,196.921271 Z M46.434927,189.495707 L45.8558807,188.680413 C47.4841667,187.523956 49.1479313,186.404126 50.8468848,185.320663 L51.3845762,186.163805 C49.6995799,187.238367 48.0496055,188.348915 46.434927,189.495707 Z M56.5110381,183.066879 L56.0145944,182.19881 C57.7440512,181.209743 59.5066988,180.255319 61.3022594,179.335284 L61.7582758,180.225255 C59.9762885,181.138336 58.2271205,182.085461 56.5110381,183.066879 Z M67.1127712,177.628965 L66.6960743,176.719919 C68.5052965,175.890591 70.3452049,175.093656 72.2155378,174.328869 L72.5940227,175.254476 C70.7364674,176.014039 68.9092988,176.805455 67.1127712,177.628965 Z M78.1904455,173.095506 L77.8488766,172.15565 C79.7165527,171.476886 81.6122672,170.828075 83.5357782,170.208981 L83.8421564,171.160891 C81.9303772,171.776209 80.0463941,172.421005 78.1904455,173.095506 Z M89.617318,169.415417 L89.3448192,168.45326 C91.257029,167.911691 93.194766,167.397732 95.1578073,166.911164 L95.3983916,167.881792 C93.4459667,168.365729 91.5188682,168.876866 89.617318,169.415417 Z M101.231773,166.532782 L101.02148,165.555143 C102.965191,165.137046 104.932076,164.744348 106.92193,164.376841 L107.103549,165.36021 C105.123218,165.725958 103.165891,166.116748 101.231773,166.532782 Z M113.018252,164.35274 L112.863796,163.36474 C114.827011,163.057826 116.811189,162.774211 118.816142,162.5137 L118.944992,163.505364 C116.948535,163.764771 114.972893,164.047166 113.018252,164.35274 Z M124.911763,162.804834 L124.807178,161.810318 C126.785829,161.60224 128.783502,161.415627 130.800027,161.250295 L130.881741,162.24695 C128.8728,162.411661 126.88275,162.597562 124.911763,162.804834 Z M136.852417,161.822981 L136.79227,160.824791 C138.77593,160.705263 140.776777,160.605447 142.794657,160.52517 L142.834409,161.524379 C140.823288,161.604388 138.829239,161.703865 136.852417,161.822981 Z M148.785258,161.345317 L148.76468,160.345528 C150.750473,160.304657 152.75183,160.281953 154.768614,160.277251 L154.770945,161.277249 C152.760208,161.281936 150.764932,161.304572 148.785258,161.345317 Z M160.758254,161.315501 L160.773207,160.315613 C162.758108,160.345296 164.757111,160.391755 166.770092,160.454835 L166.738771,161.454345 C164.731212,161.391435 162.737665,161.345103 160.758254,161.315501 Z M172.761425,161.690685 L172.808389,160.691788 C174.795561,160.785218 176.795582,160.894253 178.808343,161.018746 L178.746609,162.016838 C176.738741,161.892648 174.743643,161.783881 172.761425,161.690685 Z M184.72164,162.428934 L184.797399,161.431807 C186.783103,161.582677 188.780493,161.748066 190.789474,161.927831 L190.700349,162.923851 C188.695795,162.744482 186.70286,162.579463 184.72164,162.428934 Z M196.667184,163.496508 L196.769024,162.501707 C198.748788,162.70438 200.739141,162.92054 202.740007,163.15005 L202.626049,164.143536 C200.629197,163.914486 198.642883,163.698765 196.667184,163.496508 Z M208.562092,164.859649 L208.687583,163.867554 C210.662206,164.117324 212.646434,164.379664 214.64021,164.654443 L214.503682,165.64508 C212.513562,165.370804 210.533013,165.108951 208.562092,164.859649 Z M220.438002,166.495422 L220.58508,165.506297 C222.553558,165.799001 224.530733,166.103428 226.516571,166.419454 L226.359409,167.407027 C224.376911,167.091532 222.403097,166.787623 220.438002,166.495422 Z M232.29313,168.381413 L232.459979,167.39543 C234.424737,167.727909 236.397378,168.071361 238.377896,168.42567 L238.201795,169.410042 C236.224341,169.056281 234.254785,168.713366 232.29313,168.381413 Z M244.091807,170.491319 L244.276763,169.508572 C246.232831,169.876711 248.195997,170.255081 250.166294,170.643574 L249.972844,171.624684 C248.00536,171.236746 246.045025,170.858922 244.091807,170.491319 Z M255.862394,172.811657 L256.06402,171.832194 C258.017977,172.234422 259.978361,172.646255 261.945258,173.067597 L261.735793,174.045413 C259.771493,173.624628 257.813722,173.213343 255.862394,172.811657 Z M267.596842,175.324724 L267.81383,174.34855 C269.758711,174.780868 271.709372,175.222141 273.665975,175.672289 L273.441766,176.64683 C271.487554,176.197232 269.539299,175.756503 267.596842,175.324724 Z M279.313972,178.020146 L279.54516,177.047237 C281.486367,177.508517 283.432831,177.978193 285.384825,178.45621 L285.146967,179.427509 C283.197182,178.950034 281.25294,178.480894 279.313972,178.020146 Z M290.963299,180.872319 L291.207554,179.902608 C293.140044,180.389374 295.077371,180.883977 297.019978,181.386405 L296.769582,182.354548 C294.829007,181.852645 292.893726,181.358565 290.963299,180.872319 Z M302.579007,183.876127 L302.835306,182.909529 C304.763425,183.420781 306.69619,183.939405 308.634336,184.465464 L308.37239,185.430547 C306.436112,184.904994 304.505228,184.386876 302.579007,183.876127 Z M314.150485,187.016354 L314.417826,186.052752 C316.339754,186.585971 318.266506,187.126175 320.199335,187.673574 L319.926841,188.635731 C317.995715,188.088815 316.07068,187.549092 314.150485,187.016354 Z M325.678308,190.280536 L325.955686,189.319775 C327.870308,189.872539 329.790671,190.432083 331.719063,190.998916 L331.437053,191.958328 C329.510189,191.391943 327.59137,190.832849 325.678308,190.280536 Z M337.163752,193.655863 L337.450096,192.697737 C339.356294,193.267419 341.270779,193.844107 343.198285,194.429044 L342.907894,195.385952 C340.981719,194.801419 339.068582,194.225137 337.163752,193.655863 Z M348.643339,197.138809 L348.937434,196.183032 C350.828589,196.764945 352.734711,197.355225 354.668067,197.957456 L354.370666,198.912209 C352.43839,198.310314 350.533368,197.720375 348.643339,197.138809 Z M360.082959,200.701129 L360.383186,199.747261 C362.238304,200.331153 364.126958,200.928247 366.103193,201.555353 L365.800732,202.508515 C363.825212,201.881636 361.937297,201.284775 360.082959,200.701129 Z M371.537815,204.334338 L371.841724,203.381637 C373.313056,203.850988 374.764745,204.314635 377.557578,205.206806 L377.253338,206.159401 C374.460445,205.267211 373.008952,204.803627 371.537815,204.334338 Z M382.963864,207.979918 L383.266753,207.026892 C385.440387,207.717712 387.293871,208.303194 388.985259,208.832618 L388.686539,209.786959 C386.993603,209.25705 385.138784,208.671146 382.963864,207.979918 Z M394.422458,211.554934 L394.71155,210.597633 C396.915168,211.263096 398.812265,211.815521 400.461016,212.270161 L400.195189,213.234182 C398.537845,212.777172 396.633259,212.222567 394.422458,211.554934 Z M408.510485,214.927305 C407.896739,214.929783 407.089,214.837074 406.072988,214.651793 L406.252391,213.668017 C407.240465,213.848204 408.007359,213.934272 408.551181,213.926923 L408.656147,213.936618 C409.912282,214.188253 411.066344,214.418172 412.169939,214.636493 L411.975873,215.617481 C410.886324,215.40194 409.747722,215.17512 408.510485,214.927305 Z M417.876471,216.768463 L418.065169,215.786428 C420.070037,216.171663 422.03057,216.542115 423.950919,216.898435 L423.768484,217.881652 C421.846011,217.524938 419.883392,217.154093 417.876471,216.768463 Z M429.681372,218.956644 L429.856497,217.972098 C431.866233,218.329578 433.833283,218.671006 435.761077,218.996827 L435.594429,219.982843 C433.663763,219.656537 431.69389,219.314619 429.681372,218.956644 Z M441.522017,220.955072 L441.678837,219.967445 C443.692842,220.287239 445.664861,220.589099 447.597868,220.873307 L447.452403,221.86267 C445.515551,221.577897 443.539751,221.275458 441.522017,220.955072 Z M453.40604,222.698637 L453.538353,221.707429 C455.56315,221.977713 457.54565,222.227347 459.488568,222.456469 L459.371453,223.449587 C457.423391,223.219858 455.435829,222.969587 453.40604,222.698637 Z M465.341201,224.101509 L465.440779,223.106479 C467.472393,223.309794 469.460938,223.488929 471.40897,223.643877 L471.32968,224.640729 C469.374783,224.485235 467.37948,224.30549 465.341201,224.101509 Z M477.331787,225.048888 L477.38762,224.050448 C479.423384,224.164288 481.414848,224.249346 483.36449,224.305447 L483.335727,225.305033 C481.376929,225.248669 479.376449,225.163226 477.331787,225.048888 Z M489.363042,225.386197 L489.36046,224.3862 C491.40002,224.380934 493.393506,224.340775 495.343406,224.265348 L495.38206,225.264601 C493.419977,225.340499 491.414473,225.3809 489.363042,225.386197 Z M501.39092,224.910127 L501.310871,223.913337 C503.338895,223.750471 505.319244,223.545172 507.254447,223.296806 L507.381744,224.288671 C505.430633,224.539078 503.43454,224.74601 501.39092,224.910127 Z M513.326952,223.365403 L513.146347,222.381847 C515.139496,222.015854 517.084069,221.598545 518.982648,221.12896 L519.222747,222.099709 C517.30426,222.574217 515.339853,222.995783 513.326952,223.365403 Z M525.043139,220.452457 L524.737881,219.500188 C526.653546,218.886106 528.521666,218.211678 530.344802,217.475573 L530.719194,218.402843 C528.873165,219.148191 526.981985,219.830945 525.043139,220.452457 Z M536.24083,215.919747 L535.795017,215.024621 C537.578725,214.136255 539.318798,213.18055 541.017614,212.155843 L541.534116,213.012129 C539.812221,214.050757 538.048563,215.019416 536.24083,215.919747 Z M546.598717,209.668923 L546.014469,208.857348 C547.616253,207.704232 549.181024,206.48109 550.710785,205.186095 L551.356896,205.949339 C549.807218,207.261193 548.221816,208.500463 546.598717,209.668923 Z M555.834602,201.859337 L555.133444,201.146331 C556.530894,199.772101 557.899026,198.329808 559.239403,196.817668 L559.987732,197.480995 C558.632313,199.010106 557.248459,200.468972 555.834602,201.859337 Z M563.857558,192.825798 L563.069347,192.210394 C564.271372,190.670837 565.451156,189.068134 566.609872,187.400667 L567.431068,187.971312 C566.261875,189.653858 565.071103,191.271487 563.857558,192.825798 Z M570.70312,183.00333 L569.855078,182.473401 C570.889354,180.818256 571.907053,179.105828 572.909055,177.334691 L573.779423,177.827093 C572.770327,179.610768 571.745193,181.335707 570.70312,183.00333 Z M576.641849,172.526885 L575.753161,172.068372 C576.648796,170.332459 577.532175,168.544955 578.403968,166.704609 L579.307696,167.132716 C578.431113,168.983174 577.542725,170.780813 576.641849,172.526885 Z" fill="url(#linearGradient-1)" fill-rule="nonzero"></path>
                <path d="M135,306 L135,102.190737 C135,97.6683732 138.421256,94 142.640935,94 L469.362989,94 C473.580706,94 477,97.6683732 477,102.190737 L477,306 L516,306 C513.311401,312.646843 498.228967,317 491.029953,317 L120.970047,317 C113.771033,317 98.6905603,312.646843 96,306 L135,306 Z" id="Combined-Shape" fill="#0F535F"></path>
                <rect id="Rectangle" fill="url(#linearGradient-2)" x="136" y="225" width="349" height="81"></rect>
                <polygon id="Fill-9" fill="#F5F6FF" points="149 292.5613 463 292.5613 463 108.9352 149 108.9352"></polygon>
                <circle id="Oval" stroke="url(#linearGradient-3)" opacity="0.327869234" cx="306" cy="100" r="21"></circle>
                <circle id="Oval" stroke="url(#linearGradient-3)" opacity="0.196800595" cx="306" cy="100" r="51"></circle>
                <circle id="Oval" stroke="url(#linearGradient-3)" opacity="0.050874256" cx="306" cy="100" r="100"></circle>
                <g id="Group-3" transform="translate(45.000000, 167.130400)">
                    <path d="M111.735,91.8746 L24.642,91.8746 C17.107,91.8746 11,85.7676 11,78.2326 L11,14.5126 C11,6.9776 17.107,0.8696 24.642,0.8696 L111.735,0.8696 C119.27,0.8696 125.378,6.9776 125.378,14.5126 L125.378,78.2326 C125.378,85.7676 119.27,91.8746 111.735,91.8746" id="Fill-1" fill="url(#linearGradient-4)" opacity="0.117047991"></path>
                    <g id="Fill-1">
                        <use fill="black" fill-opacity="1" filter="url(#filter-6)" xlink:href="#path-5"></use>
                        <use fill="#F5F6FF" fill-rule="evenodd" xlink:href="#path-5"></use>
                    </g>
                </g>
                <g id="Group-8" transform="translate(45.000000, 173.130400)">
                    <mask id="mask-8" fill="white">
                        <use xlink:href="#path-7"></use>
                    </mask>
                    <g id="Clip-7"></g>
                    <path d="M0.1252,14.5122 C0.1252,6.9772 6.2322,0.8692 13.7682,0.8692 L100.8602,0.8692 C108.3962,0.8692 114.5032,6.9772 114.5032,14.5122 L0.1252,14.5122 Z" id="Fill-6" fill="#00D4B5" mask="url(#mask-8)"></path>
                </g>
                <g id="Group-17" transform="translate(61.406300, 197.796400)" fill="#00D4B5">
                    <path d="M12.59,9.981 L1.684,9.981 C0.754,9.981 -9.68114477e-14,9.227 -9.68114477e-14,8.296 L-9.68114477e-14,1.684 C-9.68114477e-14,0.753 0.754,-1.17239551e-13 1.684,-1.17239551e-13 L12.59,-1.17239551e-13 C13.521,-1.17239551e-13 14.275,0.753 14.275,1.684 L14.275,8.296 C14.275,9.227 13.521,9.981 12.59,9.981" id="Fill-9" opacity="0.244628906"></path>
                    <path d="M29.4757,9.981 L18.5697,9.981 C17.6387,9.981 16.8847,9.227 16.8847,8.296 L16.8847,1.684 C16.8847,0.753 17.6387,-1.17239551e-13 18.5697,-1.17239551e-13 L29.4757,-1.17239551e-13 C30.4067,-1.17239551e-13 31.1607,0.753 31.1607,1.684 L31.1607,8.296 C31.1607,9.227 30.4067,9.981 29.4757,9.981" id="Fill-11" opacity="0.244628906"></path>
                    <path d="M46.3615,9.981 L35.4555,9.981 C34.5245,9.981 33.7705,9.227 33.7705,8.296 L33.7705,1.684 C33.7705,0.753 34.5245,-1.17239551e-13 35.4555,-1.17239551e-13 L46.3615,-1.17239551e-13 C47.2915,-1.17239551e-13 48.0455,0.753 48.0455,1.684 L48.0455,8.296 C48.0455,9.227 47.2915,9.981 46.3615,9.981" id="Fill-13" opacity="0.244628906"></path>
                    <path d="M63.2462,9.981 L52.3402,9.981 C51.4102,9.981 50.6552,9.227 50.6552,8.296 L50.6552,1.684 C50.6552,0.753 51.4102,-1.17239551e-13 52.3402,-1.17239551e-13 L63.2462,-1.17239551e-13 C64.1772,-1.17239551e-13 64.9312,0.753 64.9312,1.684 L64.9312,8.296 C64.9312,9.227 64.1772,9.981 63.2462,9.981" id="Fill-15" opacity="0.244628906"></path>
                    <path d="M80.132,9.981 L69.226,9.981 C68.295,9.981 67.541,9.227 67.541,8.296 L67.541,1.684 C67.541,0.753 68.295,-1.17239551e-13 69.226,-1.17239551e-13 L80.132,-1.17239551e-13 C81.062,-1.17239551e-13 81.817,0.753 81.817,1.684 L81.817,8.296 C81.817,9.227 81.062,9.981 80.132,9.981" id="Fill-17" opacity="0.244628906"></path>
                    <path d="M12.59,23.9546 L1.684,23.9546 C0.754,23.9546 -9.68114477e-14,23.2006 -9.68114477e-14,22.2706 L-9.68114477e-14,15.6576 C-9.68114477e-14,14.7276 0.754,13.9736 1.684,13.9736 L12.59,13.9736 C13.521,13.9736 14.275,14.7276 14.275,15.6576 L14.275,22.2706 C14.275,23.2006 13.521,23.9546 12.59,23.9546" id="Fill-19" opacity="0.244628906"></path>
                    <path d="M29.4757,23.9546 L18.5697,23.9546 C17.6387,23.9546 16.8847,23.2006 16.8847,22.2706 L16.8847,15.6576 C16.8847,14.7276 17.6387,13.9736 18.5697,13.9736 L29.4757,13.9736 C30.4067,13.9736 31.1607,14.7276 31.1607,15.6576 L31.1607,22.2706 C31.1607,23.2006 30.4067,23.9546 29.4757,23.9546" id="Fill-21"></path>
                    <path d="M46.3615,23.9546 L35.4555,23.9546 C34.5245,23.9546 33.7705,23.2006 33.7705,22.2706 L33.7705,15.6576 C33.7705,14.7276 34.5245,13.9736 35.4555,13.9736 L46.3615,13.9736 C47.2915,13.9736 48.0455,14.7276 48.0455,15.6576 L48.0455,22.2706 C48.0455,23.2006 47.2915,23.9546 46.3615,23.9546" id="Fill-23" opacity="0.244628906"></path>
                    <path d="M63.2462,23.9546 L52.3402,23.9546 C51.4102,23.9546 50.6552,23.2006 50.6552,22.2706 L50.6552,15.6576 C50.6552,14.7276 51.4102,13.9736 52.3402,13.9736 L63.2462,13.9736 C64.1772,13.9736 64.9312,14.7276 64.9312,15.6576 L64.9312,22.2706 C64.9312,23.2006 64.1772,23.9546 63.2462,23.9546" id="Fill-25" opacity="0.244628906"></path>
                    <path d="M80.132,23.9546 L69.226,23.9546 C68.295,23.9546 67.541,23.2006 67.541,22.2706 L67.541,15.6576 C67.541,14.7276 68.295,13.9736 69.226,13.9736 L80.132,13.9736 C81.062,13.9736 81.817,14.7276 81.817,15.6576 L81.817,22.2706 C81.817,23.2006 81.062,23.9546 80.132,23.9546" id="Fill-27" opacity="0.244628906"></path>
                    <path d="M12.59,37.9292 L1.684,37.9292 C0.754,37.9292 -9.68114477e-14,37.1752 -9.68114477e-14,36.2442 L-9.68114477e-14,29.6322 C-9.68114477e-14,28.7012 0.754,27.9482 1.684,27.9482 L12.59,27.9482 C13.521,27.9482 14.275,28.7012 14.275,29.6322 L14.275,36.2442 C14.275,37.1752 13.521,37.9292 12.59,37.9292" id="Fill-29" opacity="0.244628906"></path>
                    <path d="M29.4757,37.9292 L18.5697,37.9292 C17.6387,37.9292 16.8847,37.1752 16.8847,36.2442 L16.8847,29.6322 C16.8847,28.7012 17.6387,27.9482 18.5697,27.9482 L29.4757,27.9482 C30.4067,27.9482 31.1607,28.7012 31.1607,29.6322 L31.1607,36.2442 C31.1607,37.1752 30.4067,37.9292 29.4757,37.9292" id="Fill-31" opacity="0.244628906"></path>
                    <path d="M46.3615,37.9292 L35.4555,37.9292 C34.5245,37.9292 33.7705,37.1752 33.7705,36.2442 L33.7705,29.6322 C33.7705,28.7012 34.5245,27.9482 35.4555,27.9482 L46.3615,27.9482 C47.2915,27.9482 48.0455,28.7012 48.0455,29.6322 L48.0455,36.2442 C48.0455,37.1752 47.2915,37.9292 46.3615,37.9292" id="Fill-33" opacity="0.244628906"></path>
                    <path d="M63.2462,37.9292 L52.3402,37.9292 C51.4102,37.9292 50.6552,37.1752 50.6552,36.2442 L50.6552,29.6322 C50.6552,28.7012 51.4102,27.9482 52.3402,27.9482 L63.2462,27.9482 C64.1772,27.9482 64.9312,28.7012 64.9312,29.6322 L64.9312,36.2442 C64.9312,37.1752 64.1772,37.9292 63.2462,37.9292" id="Fill-35" opacity="0.244628906"></path>
                    <path d="M80.132,37.9292 L69.226,37.9292 C68.295,37.9292 67.541,37.1752 67.541,36.2442 L67.541,29.6322 C67.541,28.7012 68.295,27.9482 69.226,27.9482 L80.132,27.9482 C81.062,27.9482 81.817,28.7012 81.817,29.6322 L81.817,36.2442 C81.817,37.1752 81.062,37.9292 80.132,37.9292" id="Fill-37"></path>
                    <path d="M12.59,51.9029 L1.684,51.9029 C0.754,51.9029 -9.68114477e-14,51.1489 -9.68114477e-14,50.2189 L-9.68114477e-14,43.6059 C-9.68114477e-14,42.6749 0.754,41.9219 1.684,41.9219 L12.59,41.9219 C13.521,41.9219 14.275,42.6749 14.275,43.6059 L14.275,50.2189 C14.275,51.1489 13.521,51.9029 12.59,51.9029" id="Fill-39" opacity="0.244628906"></path>
                    <path d="M29.4757,51.9029 L18.5697,51.9029 C17.6387,51.9029 16.8847,51.1489 16.8847,50.2189 L16.8847,43.6059 C16.8847,42.6749 17.6387,41.9219 18.5697,41.9219 L29.4757,41.9219 C30.4067,41.9219 31.1607,42.6749 31.1607,43.6059 L31.1607,50.2189 C31.1607,51.1489 30.4067,51.9029 29.4757,51.9029" id="Fill-41" opacity="0.244628906"></path>
                    <path d="M46.3615,51.9029 L35.4555,51.9029 C34.5245,51.9029 33.7705,51.1489 33.7705,50.2189 L33.7705,43.6059 C33.7705,42.6749 34.5245,41.9219 35.4555,41.9219 L46.3615,41.9219 C47.2915,41.9219 48.0455,42.6749 48.0455,43.6059 L48.0455,50.2189 C48.0455,51.1489 47.2915,51.9029 46.3615,51.9029" id="Fill-43" opacity="0.244628906"></path>
                    <path d="M63.2462,51.9029 L52.3402,51.9029 C51.4102,51.9029 50.6552,51.1489 50.6552,50.2189 L50.6552,43.6059 C50.6552,42.6749 51.4102,41.9219 52.3402,41.9219 L63.2462,41.9219 C64.1772,41.9219 64.9312,42.6749 64.9312,43.6059 L64.9312,50.2189 C64.9312,51.1489 64.1772,51.9029 63.2462,51.9029" id="Fill-45" opacity="0.244628906"></path>
                    <path d="M80.132,51.9029 L69.226,51.9029 C68.295,51.9029 67.541,51.1489 67.541,50.2189 L67.541,43.6059 C67.541,42.6749 68.295,41.9219 69.226,41.9219 L80.132,41.9219 C81.062,41.9219 81.817,42.6749 81.817,43.6059 L81.817,50.2189 C81.817,51.1489 81.062,51.9029 80.132,51.9029" id="Fill-47" opacity="0.244628906"></path>
                </g>
                <g id="Group-3" transform="translate(424.000000, 49.698000)">
                    <path d="M127,56.5004987 C127,87.7046176 101.703393,113.001 70.4989973,113.001 C39.2946015,113.001 14,87.7046176 14,56.5004987 C14,25.2973824 39.2946015,0.000999999999 70.4989973,0.000999999999 C101.703393,0.000999999999 127,25.2973824 127,56.5004987" id="Fill-1" fill="url(#linearGradient-9)" opacity="0.117047991"></path>
                    <g id="Fill-1">
                        <use fill="black" fill-opacity="1" filter="url(#filter-11)" xlink:href="#path-10"></use>
                        <use fill="#F5F6FF" fill-rule="evenodd" xlink:href="#path-10"></use>
                    </g>
                </g>
                <path d="M482.1732,67.2099 L478.5262,67.2099 C477.9872,67.2099 477.5532,66.7739 477.5532,66.2369 L477.5532,60.1869 C477.5532,59.6479 477.9872,59.2139 478.5262,59.2139 L482.1732,59.2139 C482.7102,59.2139 483.1462,59.6479 483.1462,60.1869 L483.1462,66.2369 C483.1462,66.7739 482.7102,67.2099 482.1732,67.2099" id="Fill-4" fill="#00BDA2"></path>
                <path d="M462.3597,71.542 L459.2007,73.366 C458.7347,73.635 458.1397,73.476 457.8717,73.01 L454.8457,67.769 C454.5777,67.304 454.7367,66.709 455.2017,66.44 L458.3607,64.616 C458.8267,64.348 459.4217,64.507 459.6897,64.973 L462.7147,70.213 C462.9837,70.679 462.8247,71.273 462.3597,71.542" id="Fill-6" fill="#00BDA2"></path>
                <path d="M447.3666,85.2002 L445.5426,88.3592 C445.2736,88.8242 444.6786,88.9832 444.2136,88.7152 L438.9726,85.6892 C438.5076,85.4212 438.3476,84.8262 438.6166,84.3602 L440.4406,81.2012 C440.7096,80.7362 441.3046,80.5772 441.7686,80.8462 L447.0106,83.8712 C447.4746,84.1392 447.6356,84.7352 447.3666,85.2002" id="Fill-8" fill="#00BDA2"></path>
                <path d="M441.2103,104.5254 L441.2103,108.1724 C441.2103,108.7104 440.7743,109.1454 440.2373,109.1454 L434.1873,109.1454 C433.6483,109.1454 433.2133,108.7104 433.2133,108.1724 L433.2133,104.5254 C433.2133,103.9884 433.6483,103.5524 434.1873,103.5524 L440.2373,103.5524 C440.7743,103.5524 441.2103,103.9884 441.2103,104.5254" id="Fill-10" fill="#00BDA2"></path>
                <path d="M445.5424,124.3388 L447.3664,127.4978 C447.6354,127.9628 447.4754,128.5578 447.0104,128.8258 L441.7694,131.8528 C441.3044,132.1208 440.7094,131.9608 440.4404,131.4958 L438.6164,128.3368 C438.3484,127.8718 438.5074,127.2768 438.9734,127.0078 L444.2134,123.9828 C444.6794,123.7138 445.2734,123.8728 445.5424,124.3388" id="Fill-12" fill="#00BDA2"></path>
                <path d="M459.2006,139.332 L462.3596,141.155 C462.8246,141.424 462.9836,142.02 462.7156,142.484 L459.6896,147.726 C459.4216,148.19 458.8266,148.35 458.3606,148.081 L455.2016,146.258 C454.7366,145.989 454.5776,145.394 454.8466,144.929 L457.8716,139.687 C458.1396,139.223 458.7346,139.063 459.2006,139.332" id="Fill-14" fill="#00BDA2"></path>
                <path d="M478.5258,145.4873 L482.1728,145.4873 C482.7108,145.4873 483.1458,145.9233 483.1458,146.4603 L483.1458,152.5113 C483.1458,153.0493 482.7108,153.4843 482.1728,153.4843 L478.5258,153.4843 C477.9878,153.4843 477.5528,153.0493 477.5528,152.5113 L477.5528,146.4603 C477.5528,145.9233 477.9878,145.4873 478.5258,145.4873" id="Fill-16" fill="#00BDA2"></path>
                <path d="M498.3392,141.1552 L501.4972,139.3322 C501.9632,139.0632 502.5582,139.2222 502.8262,139.6872 L505.8532,144.9282 C506.1212,145.3932 505.9612,145.9892 505.4962,146.2582 L502.3372,148.0812 C501.8722,148.3492 501.2772,148.1902 501.0082,147.7252 L497.9832,142.4842 C497.7142,142.0192 497.8732,141.4242 498.3392,141.1552" id="Fill-18" fill="#00BDA2"></path>
                <path d="M513.3324,127.498 L515.1554,124.339 C515.4244,123.873 516.0204,123.714 516.4844,123.982 L521.7264,127.008 C522.1904,127.277 522.3504,127.872 522.0814,128.337 L520.2584,131.496 C519.9884,131.961 519.3944,132.121 518.9294,131.852 L513.6874,128.826 C513.2234,128.558 513.0634,127.963 513.3324,127.498" id="Fill-20" fill="#00BDA2"></path>
                <path d="M519.4877,108.1728 L519.4877,104.5258 C519.4877,103.9878 519.9237,103.5528 520.4607,103.5528 L526.5117,103.5528 C527.0497,103.5528 527.4847,103.9878 527.4847,104.5258 L527.4847,108.1728 C527.4847,108.7098 527.0497,109.1458 526.5117,109.1458 L520.4607,109.1458 C519.9237,109.1458 519.4877,108.7098 519.4877,108.1728" id="Fill-22" fill="#00BDA2"></path>
                <path d="M515.1556,88.3593 L513.3326,85.2003 C513.0636,84.7353 513.2226,84.1393 513.6876,83.8713 L518.9286,80.8453 C519.3936,80.5773 519.9886,80.7363 520.2586,81.2013 L522.0816,84.3603 C522.3496,84.8263 522.1906,85.4213 521.7256,85.6893 L516.4846,88.7143 C516.0196,88.9833 515.4246,88.8243 515.1556,88.3593" id="Fill-24" fill="#00BDA2"></path>
                <path d="M501.4974,73.3662 L498.3394,71.5422 C497.8734,71.2732 497.7144,70.6782 497.9824,70.2132 L501.0084,64.9722 C501.2774,64.5072 501.8724,64.3472 502.3374,64.6162 L505.4964,66.4402 C505.9614,66.7092 506.1214,67.3042 505.8524,67.7682 L502.8264,73.0102 C502.5584,73.4752 501.9634,73.6352 501.4974,73.3662" id="Fill-26" fill="#00BDA2"></path>
                <path d="M487.3226,105.8105 C486.1196,105.2915 484.7496,104.8805 483.2636,104.5575 C485.2966,90.8795 482.3386,72.5345 480.9746,66.0665 C480.8326,65.3885 479.8666,65.3885 479.7226,66.0665 C478.3856,72.4075 475.5206,90.1615 477.3226,103.7445 C466.7276,102.9665 453.7426,104.9155 449.2386,105.8655 C448.7156,105.9755 448.7156,106.7215 449.2386,106.8315 C453.8816,107.8115 467.5336,109.8515 478.2916,108.8745 C478.6646,110.3235 479.1136,111.6845 479.6516,112.9305 C479.9146,113.5385 480.7836,113.5385 481.0466,112.9305 C481.6556,111.5185 482.1466,109.9535 482.5466,108.2865 C484.3086,107.9445 485.9276,107.4895 487.3226,106.8875 C487.7916,106.6845 487.7916,106.0125 487.3226,105.8105" id="Fill-28" fill="#00D4B5"></path>
                <path d="M256,177.353385 L256,200.718314 L242.482846,209 L229,200.295419 L229,175.133188 L239.086404,167.803015 C239.532402,167.521085 240.149936,166.78102 240.595934,167.062949 L254.970775,175.661807 C255.622618,176.04946 256,176.683802 256,177.353385 Z" id="Path" fill="#00BDA2" fill-rule="nonzero"></path>
                <g id="Group" transform="translate(268.000000, 186.000000)" fill="#000000" fill-rule="nonzero">
                    <polygon id="Path" points="1.05 0.315 4.025 0.315 4.025 17.325 1.05 17.325"></polygon>
                    <polygon id="Path" points="10.71 5.25 10.71 17.325 7.735 17.325 7.735 0.315 10.955 0.315 18.97 12.67 18.97 0.315 21.945 0.315 21.945 17.325 18.725 17.325"></polygon>
                    <path d="M33.53,12.355 C33.53,10.36 31.64,10.15 29.645,9.905 C27.37,9.59 24.885,8.785 24.885,5.075 C24.885,0.98 28.175,0.07 31.43,0.07 C33.005,0.07 34.44,0.245 35.805,0.385 L35.805,3.045 C34.615,2.87 32.97,2.66 31.5,2.66 C29.155,2.66 27.965,3.395 27.965,5.005 C27.965,6.79 29.54,7.035 31.325,7.315 C33.81,7.7 36.61,8.12 36.61,12.25 C36.61,15.995 33.95,17.64 30.135,17.64 C28.245,17.64 26.565,17.43 25.095,17.15 L25.095,14.49 C26.88,14.805 28.455,15.085 29.89,15.085 C32.235,15.05 33.53,14.14 33.53,12.355 Z" id="Path"></path>
                    <path d="M45.955,17.605 C41.545,17.605 39.165,15.4 39.165,11.305 L39.165,0.315 L42.14,0.315 L42.14,11.55 C42.14,13.895 44.065,15.015 45.955,15.015 C47.88,15.015 49.77,13.895 49.77,11.55 L49.77,0.315 L52.745,0.315 L52.745,11.305 C52.745,15.4 50.365,17.605 45.955,17.605 Z" id="Path"></path>
                    <path d="M61.915,0.315 C65.87,0.315 68.32,2.065 68.32,6.02 C68.32,7.455 67.69,9.59 65.73,10.815 L68.985,17.29 L65.625,17.29 C64.68,15.4 63.77,13.51 62.825,11.62 C62.51,11.62 62.02,11.655 61.46,11.655 L59.325,11.655 L59.325,17.29 L56.35,17.29 L56.35,0.28 L61.915,0.28 L61.915,0.315 Z M59.325,9.1 L62.23,9.1 C64.435,9.1 65.31,7.42 65.31,5.95 C65.31,4.69 64.47,2.905 62.16,2.905 L59.325,2.905 L59.325,9.1 Z" id="Shape"></path>
                    <path d="M8.785,35.595 C9.555,35.595 10.115,35.49 10.99,35.35 L10.99,29.505 L14.875,29.505 L14.875,37.73 C13.09,38.36 10.71,38.92 8.225,38.92 C2.415,38.92 5.68434189e-14,35.49 5.68434189e-14,30.03 C5.68434189e-14,25.025 3.08,21.35 9.205,21.35 C10.92,21.35 12.81,21.56 14.28,21.945 L14.245,25.375 C12.775,24.955 10.64,24.675 9.345,24.675 C6.685,24.675 3.955,26.18 3.955,30.17 C3.955,33.705 5.81,35.595 8.785,35.595 Z" id="Path"></path>
                    <path d="M23.45,21.665 C27.545,21.665 30.415,23.135 30.415,27.615 C30.415,28.875 29.855,31.045 27.93,32.375 L30.975,38.64 L26.6,38.64 C25.76,36.89 24.99,35.14 24.15,33.39 L21.455,33.39 L21.455,38.64 L17.57,38.64 L17.57,21.63 L23.45,21.63 L23.45,21.665 Z M21.455,30.1 L23.8,30.1 C25.795,30.1 26.46,28.63 26.46,27.44 C26.46,26.285 25.83,24.955 23.8,24.955 L21.455,24.955 L21.455,30.1 Z" id="Shape"></path>
                    <path d="M40.18,21.35 C45.5,21.35 48.125,24.465 48.125,30.135 C48.125,35.805 45.535,38.92 40.18,38.92 C34.86,38.92 32.235,35.805 32.235,30.135 C32.235,24.465 34.825,21.35 40.18,21.35 Z M40.145,24.675 C37.415,24.675 36.155,26.53 36.155,30.135 C36.155,33.74 37.415,35.63 40.145,35.63 C42.91,35.63 44.135,33.775 44.135,30.135 C44.135,26.495 42.91,24.675 40.145,24.675 Z" id="Shape"></path>
                    <polygon id="Path" points="60.76 29.12 60.515 29.12 58.03 38.64 52.955 38.64 49 21.665 53.095 21.665 55.72 33.635 55.825 33.635 58.765 21.665 62.79 21.665 65.73 33.635 65.835 33.635 68.32 21.665 72.24 21.665 68.285 38.675 63.21 38.675"></polygon>
                    <polygon id="Path" points="87.395 24.955 82.075 24.955 82.075 38.64 78.19 38.64 78.19 24.955 72.87 24.955 73.57 21.665 87.36 21.665 87.36 24.955"></polygon>
                    <polygon id="Path" points="92.925 21.665 92.925 28.595 99.96 28.595 99.96 21.665 103.845 21.665 103.845 38.675 99.96 38.675 99.96 31.885 92.925 31.885 92.925 38.675 89.04 38.675 89.04 21.665"></polygon>
                </g>
                <path d="M255.598726,186.343434 L242.952229,186.343434 L242.952229,186.343434 L236.646497,186.343434 C235.910828,186.343434 235.315287,186.937347 235.315287,187.671004 L235.315287,207.165322 L226.592357,201.715298 L226.592357,178.867118 L239.133758,170.727018 L239.133758,183.72323 L241.761146,183.72323 L241.761146,168.31643 C241.761146,167.827325 241.480892,167.408092 241.06051,167.16354 C240.640127,166.918988 240.11465,166.953924 239.729299,167.233412 L224.595541,177.050443 C224.210191,177.294996 224,177.714229 224,178.133461 L224,202.414019 C224,202.868188 224.245223,203.28742 224.630573,203.531973 L235.38535,210.274631 L235.38535,219.67243 C235.38535,220.406087 235.980892,221 236.716561,221 L244.353503,221 C245.089172,221 245.684713,220.406087 245.684713,219.67243 L245.684713,210.169823 L256.404459,203.217548 C256.789809,202.972996 257,202.553763 257,202.134531 L257,187.70594 C256.929936,186.937347 256.334395,186.343434 255.598726,186.343434 Z M242.987261,218.34486 L237.977707,218.34486 L237.977707,211.916626 L239.764331,213.03458 C240.184713,213.314068 240.745223,213.314068 241.165605,213.03458 L242.987261,211.846754 L242.987261,218.34486 L242.987261,218.34486 Z M254.302548,201.400873 L245.61465,207.025578 L245.61465,191.618778 L242.987261,191.618778 L242.987261,208.737445 L240.464968,210.379439 L237.977707,208.842253 L237.977707,188.998574 L254.302548,188.998574 L254.302548,201.400873 Z" id="Shape" fill="#000000" fill-rule="nonzero"></path>
            </g>
        </g>
    </g>
</svg>