<svg xmlns="http://www.w3.org/2000/svg" width="23" height="26" viewBox="0 0 23 26"><defs><linearGradient id="4ak6a" x1="11" x2="11" y1="9" y2="22.49" gradientUnits="userSpaceOnUse"><stop offset="0" stop-color="#c361ff"/><stop offset="1" stop-color="#990dee"/></linearGradient></defs><g><g><g><g><g><path fill="#fff" d="M4.057 20a1 1 0 1 1 0 2H3.44a3 3 0 0 1-2.942-3.588l1.149-5.744a9.539 9.539 0 0 1 18.707 0l1.149 5.744A3 3 0 0 1 18.56 22H8.057a1 1 0 0 1 0-2h10.504a1 1 0 0 0 .98-1.196l-1.148-5.744a7.539 7.539 0 0 0-14.785 0L2.46 18.804A1 1 0 0 0 3.44 20z"/></g><g><path fill="url(#4ak6a)" d="M9.014 12v1H13a2 2 0 0 1 2 2v1a2 2 0 0 1-2 2h-1a1 1 0 0 1-2 0H8a1 1 0 0 1 0-2h5v-1H9.014a2 2 0 0 1-2-2v-1a2 2 0 0 1 2-2H10a1 1 0 0 1 2 0h1.953a1 1 0 0 1 0 2z"/></g><g><path fill="#fff" d="M14.272 2.636L13.074 5.63a1 1 0 1 0 1.857.742l2-5a1 1 0 0 0-1.246-1.32l-2.596.87-1.642-.817a1 1 0 0 0-.894.002l-1.62.814L6.318.053a1 1 0 0 0-1.244 1.32l2 5a1 1 0 0 0 1.857-.742l-1.2-3 .965.32a1 1 0 0 0 .764-.055l1.545-.776 1.564.777a1 1 0 0 0 .763.053z"/></g></g></g></g></g></svg>