<?xml version="1.0" encoding="UTF-8"?>
<svg width="424px" height="168px" viewBox="0 0 424 168" version="1.1" xmlns="http://www.w3.org/2000/svg" xmlns:xlink="http://www.w3.org/1999/xlink">
    <!-- Generator: Sketch 56.3 (81716) - https://sketch.com -->
    <title>logo-insur-positivo</title>
    <desc>Created with Sketch.</desc>
    <g id="02---Logo" stroke="none" stroke-width="1" fill="none" fill-rule="evenodd">
        <g id="logo-insur-positivo" transform="translate(0.300000, 0.731887)" fill-rule="nonzero">
            <g id="Group-2">
                <path d="M93.5,29.6681126 L93.5,95.9681126 L54.1,119.468113 L14.8,94.7681126 L14.8,23.3681126 L44.2,2.56811256 C45.5,1.76811256 47.3,-0.331887438 48.6,0.468112562 L90.5,24.8681126 C92.4,25.9681126 93.5,27.7681126 93.5,29.6681126 Z" id="Path" fill="#00BDA2"></path>
                <g id="Group" transform="translate(126.700000, 55.268113)" fill="#000000">
                    <polygon id="Path" points="3 0.9 11.5 0.9 11.5 49.5 3 49.5"></polygon>
                    <polygon id="Path" points="30.6 15 30.6 49.5 22.1 49.5 22.1 0.9 31.3 0.9 54.2 36.2 54.2 0.9 62.7 0.9 62.7 49.5 53.5 49.5"></polygon>
                    <path d="M95.8,35.3 C95.8,29.6 90.4,29 84.7,28.3 C78.2,27.4 71.1,25.1 71.1,14.5 C71.1,2.8 80.5,0.2 89.8,0.2 C94.3,0.2 98.4,0.7 102.3,1.1 L102.3,8.7 C98.9,8.2 94.2,7.6 90,7.6 C83.3,7.6 79.9,9.7 79.9,14.3 C79.9,19.4 84.4,20.1 89.5,20.9 C96.6,22 104.6,23.2 104.6,35 C104.6,45.7 97,50.4 86.1,50.4 C80.7,50.4 75.9,49.8 71.7,49 L71.7,41.4 C76.8,42.3 81.3,43.1 85.4,43.1 C92.1,43 95.8,40.4 95.8,35.3 Z" id="Path"></path>
                    <path d="M131.3,50.3 C118.7,50.3 111.9,44 111.9,32.3 L111.9,0.9 L120.4,0.9 L120.4,33 C120.4,39.7 125.9,42.9 131.3,42.9 C136.8,42.9 142.2,39.7 142.2,33 L142.2,0.9 L150.7,0.9 L150.7,32.3 C150.7,44 143.9,50.3 131.3,50.3 Z" id="Path"></path>
                    <path d="M176.9,0.9 C188.2,0.9 195.2,5.9 195.2,17.2 C195.2,21.3 193.4,27.4 187.8,30.9 L197.1,49.4 L187.5,49.4 C184.8,44 182.2,38.6 179.5,33.2 C178.6,33.2 177.2,33.3 175.6,33.3 L169.5,33.3 L169.5,49.4 L161,49.4 L161,0.8 L176.9,0.8 L176.9,0.9 Z M169.5,26 L177.8,26 C184.1,26 186.6,21.2 186.6,17 C186.6,13.4 184.2,8.3 177.6,8.3 L169.5,8.3 L169.5,26 Z" id="Shape"></path>
                    <path d="M25.1,101.7 C27.3,101.7 28.9,101.4 31.4,101 L31.4,84.3 L42.5,84.3 L42.5,107.8 C37.4,109.6 30.6,111.2 23.5,111.2 C6.9,111.2 5.68434189e-14,101.4 5.68434189e-14,85.8 C5.68434189e-14,71.5 8.8,61 26.3,61 C31.2,61 36.6,61.6 40.8,62.7 L40.7,72.5 C36.5,71.3 30.4,70.5 26.7,70.5 C19.1,70.5 11.3,74.8 11.3,86.2 C11.3,96.3 16.6,101.7 25.1,101.7 Z" id="Path"></path>
                    <path d="M67,61.9 C78.7,61.9 86.9,66.1 86.9,78.9 C86.9,82.5 85.3,88.7 79.8,92.5 L88.5,110.4 L76,110.4 C73.6,105.4 71.4,100.4 69,95.4 L61.3,95.4 L61.3,110.4 L50.2,110.4 L50.2,61.8 L67,61.8 L67,61.9 Z M61.3,86 L68,86 C73.7,86 75.6,81.8 75.6,78.4 C75.6,75.1 73.8,71.3 68,71.3 L61.3,71.3 L61.3,86 Z" id="Shape"></path>
                    <path d="M114.8,61 C130,61 137.5,69.9 137.5,86.1 C137.5,102.3 130.1,111.2 114.8,111.2 C99.6,111.2 92.1,102.3 92.1,86.1 C92.1,69.9 99.5,61 114.8,61 Z M114.7,70.5 C106.9,70.5 103.3,75.8 103.3,86.1 C103.3,96.4 106.9,101.8 114.7,101.8 C122.6,101.8 126.1,96.5 126.1,86.1 C126.1,75.7 122.6,70.5 114.7,70.5 Z" id="Shape"></path>
                    <polygon id="Path" points="173.6 83.2 172.9 83.2 165.8 110.4 151.3 110.4 140 61.9 151.7 61.9 159.2 96.1 159.5 96.1 167.9 61.9 179.4 61.9 187.8 96.1 188.1 96.1 195.2 61.9 206.4 61.9 195.1 110.5 180.6 110.5"></polygon>
                    <polygon id="Path" points="249.7 71.3 234.5 71.3 234.5 110.4 223.4 110.4 223.4 71.3 208.2 71.3 210.2 61.9 249.6 61.9 249.6 71.3"></polygon>
                    <polygon id="Path" points="265.5 61.9 265.5 81.7 285.6 81.7 285.6 61.9 296.7 61.9 296.7 110.5 285.6 110.5 285.6 91.1 265.5 91.1 265.5 110.5 254.4 110.5 254.4 61.9"></polygon>
                </g>
                <path d="M90.2,55.3681126 L54.1,55.3681126 L54.1,55.3681126 L36.1,55.3681126 C34,55.3681126 32.3,57.0681126 32.3,59.1681126 L32.3,114.968113 L7.4,99.3681126 L7.4,33.9681126 L43.2,10.6681126 L43.2,47.8681126 L50.7,47.8681126 L50.7,3.76811256 C50.7,2.36811256 49.9,1.16811256 48.7,0.468112562 C47.5,-0.231887438 46,-0.131887438 44.9,0.668112562 L1.7,28.7681126 C0.6,29.4681126 1.13686838e-13,30.6681126 1.13686838e-13,31.8681126 L1.13686838e-13,101.368113 C1.13686838e-13,102.668113 0.7,103.868113 1.8,104.568113 L32.5,123.868113 L32.5,150.768113 C32.5,152.868113 34.2,154.568113 36.3,154.568113 L58.1,154.568113 C60.2,154.568113 61.9,152.868113 61.9,150.768113 L61.9,123.568113 L92.5,103.668113 C93.6,102.968113 94.2,101.768113 94.2,100.568113 L94.2,59.2681126 C94,57.0681126 92.3,55.3681126 90.2,55.3681126 Z M54.2,146.968113 L39.9,146.968113 L39.9,128.568113 L45,131.768113 C46.2,132.568113 47.8,132.568113 49,131.768113 L54.2,128.368113 L54.2,146.968113 L54.2,146.968113 Z M86.5,98.4681126 L61.7,114.568113 L61.7,70.4681126 L54.2,70.4681126 L54.2,119.468113 L47,124.168113 L39.9,119.768113 L39.9,62.9681126 L86.5,62.9681126 L86.5,98.4681126 Z" id="Shape" fill="#000000"></path>
            </g>
        </g>
    </g>
</svg>