<svg xmlns="http://www.w3.org/2000/svg" width="70" height="70" viewBox="0 0 70 70"><defs><mask id="iaw8b" width="2" height="2" x="-1" y="-1"><path fill="#fff" d="M6 4h58v58H6z"/><path d="M35 62c16.016 0 29-12.984 29-29S51.016 4 35 4 6 16.984 6 33s12.984 29 29 29z"/></mask><filter id="iaw8a" width="94" height="96" x="-12" y="-14" filterUnits="userSpaceOnUse"><feOffset dy="2" in="SourceGraphic" result="FeOffset3140Out"/><feGaussianBlur in="FeOffset3140Out" result="FeGaussianBlur3141Out" stdDeviation="3.2 3.2"/></filter></defs><g><g><g filter="url(#iaw8a)"><path fill="none" d="M35 62c16.016 0 29-12.984 29-29S51.016 4 35 4 6 16.984 6 33s12.984 29 29 29z" mask="url(&quot;#iaw8b&quot;)"/><path fill-opacity=".13" d="M35 62c16.016 0 29-12.984 29-29S51.016 4 35 4 6 16.984 6 33s12.984 29 29 29z"/></g><path fill="#fff" d="M35 62c16.016 0 29-12.984 29-29S51.016 4 35 4 6 16.984 6 33s12.984 29 29 29z"/></g><g><g><path fill="#00bda2" d="M46 22.149v16.133L36.488 44 27 37.99V20.616l7.098-5.062c.314-.194.748-.705 1.062-.51l10.116 5.937c.458.267.724.705.724 1.168z"/></g><g><path d="M45.12 38.571l-6.055 3.854V31.868h-1.831v11.73l-1.758 1.125-1.734-1.053V30.073H45.12zm-11.378 11.61v-4.405l1.245.766a.902.902 0 0 0 .977 0l1.27-.814v4.453zm12.281-21.927H32.814a.918.918 0 0 0-.928.91V42.52l-6.08-3.735V23.131l8.742-5.577v8.905h1.831V15.902c0-.335-.195-.622-.488-.79a.867.867 0 0 0-.928.048l-10.548 6.726a.877.877 0 0 0-.415.742v16.637c0 .311.17.599.44.766l7.495 4.62v6.44c0 .502.415.909.928.909h5.323a.918.918 0 0 0 .928-.91v-6.51l7.47-4.764a.877.877 0 0 0 .416-.742v-9.887c-.049-.526-.464-.933-.977-.933z"/></g></g></g></svg>