<svg xmlns="http://www.w3.org/2000/svg" width="183" height="44" viewBox="0 0 183 44"><g><g><path fill="#00bda2" d="M26.731 8.619v18.796l-11.17 6.662L4.42 27.075V6.833L12.755.936c.368-.227.879-.822 1.247-.595l11.879 6.917c.539.312.85.822.85 1.36z"/></g><g><g><path fill="#fff" d="M37 16.13h2.41v13.778H37z"/></g><g><path fill="#fff" d="M44.82 20.127v9.781h-2.41V16.13h2.608l6.492 10.008V16.13h2.41v13.778h-2.608z"/></g><g><path fill="#fff" d="M63.302 25.88c0-1.615-1.53-1.785-3.146-1.984-1.843-.255-3.856-.907-3.856-3.912 0-3.317 2.665-4.054 5.301-4.054 1.276 0 2.439.142 3.544.255v2.155c-.964-.142-2.296-.312-3.487-.312-1.9 0-2.863.595-2.863 1.9 0 1.445 1.276 1.644 2.721 1.87 2.013.312 4.281.652 4.281 3.998 0 3.033-2.154 4.366-5.244 4.366-1.531 0-2.892-.17-4.083-.397V27.61c1.446.255 2.722.482 3.884.482 1.9-.028 2.948-.765 2.948-2.211z"/></g><g><path fill="#fff" d="M73.37 30.135c-3.572 0-5.5-1.786-5.5-5.103V16.13h2.41v9.1c0 1.9 1.559 2.807 3.09 2.807 1.56 0 3.09-.907 3.09-2.807v-9.1h2.41v8.902c0 3.317-1.928 5.103-5.5 5.103z"/></g><g><path fill="#fff" d="M84.2 23.234v-5.008h2.296c1.871 0 2.552 1.443 2.552 2.462 0 1.188-.71 2.546-2.495 2.546zm2.098-7.134H81.79v13.778h2.41v-4.564h1.73c.453 0 .85-.029 1.105-.029.765 1.531 1.502 3.062 2.268 4.593h2.721l-2.636-5.245c1.587-.992 2.098-2.721 2.098-3.884 0-3.203-1.985-4.62-5.188-4.62z"/></g><g><path fill="#fff" d="M105.346 27.498c.624 0 1.077-.085 1.786-.198v-4.734h3.147v6.662c-1.446.51-3.374.964-5.387.964-4.706 0-6.662-2.779-6.662-7.201 0-4.054 2.495-7.031 7.456-7.031 1.39 0 2.92.17 4.11.482l-.028 2.778c-1.19-.34-2.92-.567-3.969-.567-2.154 0-4.365 1.22-4.365 4.451 0 2.864 1.502 4.394 3.912 4.394z"/></g><g><path fill="#fff" d="M115.607 18.882h1.9c1.644 0 2.154 1.077 2.154 2.012 0 .964-.539 2.155-2.155 2.155h-1.9zm1.616-2.722h-4.763v13.778h3.147v-4.252h2.183c.68 1.417 1.304 2.835 1.984 4.252h3.544l-2.466-5.075c1.559-1.077 2.012-2.835 2.012-3.855 0-3.629-2.324-4.82-5.641-4.82z"/></g><g><path fill="#fff" d="M133.979 23.052c0 2.952-.992 4.456-3.232 4.456-2.211 0-3.232-1.532-3.232-4.456 0-2.923 1.02-4.427 3.232-4.427 2.24 0 3.232 1.476 3.232 4.427zm-9.639.024c0 4.593 2.126 7.116 6.435 7.116 4.338 0 6.436-2.523 6.436-7.116s-2.126-7.116-6.436-7.116c-4.337 0-6.435 2.523-6.435 7.116z"/></g><g><path fill="#fff" d="M147.446 22.227h-.199l-2.013 7.711h-4.11L137.92 16.16h3.317l2.126 9.696h.085l2.382-9.696h3.26l2.381 9.696h.085l2.013-9.696h3.175l-3.203 13.778h-4.11z"/></g><g><path fill="#fff" d="M169.027 18.885h-4.31V29.97H161.6V18.885h-4.309l.567-2.665h11.17v2.665z"/></g><g><path fill="#fff" d="M173.499 16.19v5.613h5.698V16.19h3.147v13.778h-3.147v-5.5h-5.698v5.5h-3.119V16.19z"/></g></g><g><path fill="#fff" d="M24.752 28.127l-7.034 4.565V20.189h-2.127v13.892l-2.042 1.332-2.013-1.247V18.063h13.216zm-13.216 13.76v-5.226l1.449.909c.34.227.795.227 1.136 0l1.477-.966v5.283zM25.8 15.937H10.463c-.596 0-1.078.482-1.078 1.077v15.82L2.326 28.41V9.87l10.15-6.606v10.547h2.126V1.308c0-.397-.227-.737-.567-.935a.99.99 0 0 0-1.078.056L.682 8.396a1.044 1.044 0 0 0-.482.879v19.703c0 .368.198.709.51.907l8.704 5.472v7.626c0 .595.482 1.077 1.077 1.077h6.18c.596 0 1.078-.482 1.078-1.077v-7.711l8.675-5.642c.312-.199.482-.539.482-.879V17.043c-.029-.653-.51-1.106-1.106-1.106z"/></g></g></svg>