<svg xmlns="http://www.w3.org/2000/svg" width="134" height="53" viewBox="0 0 134 53"><g><g><g><path fill="#00bda2" d="M29.55 9.574V30.46L17.14 37.86l-12.38-7.78V7.59l9.261-6.552c.41-.252.976-.914 1.386-.662l13.198 7.686c.599.347.945.914.945 1.512z"/></g><g><g><path fill="#fff" d="M40.95 17.92h2.678v15.309H40.95z"/></g><g><path fill="#fff" d="M49.648 22.361V33.23H46.97V17.92h2.898l7.213 11.12V17.92h2.678v15.309h-2.898z"/></g><g><path fill="#fff" d="M70.18 28.756c0-1.795-1.7-1.984-3.496-2.205-2.047-.283-4.284-1.008-4.284-4.347 0-3.685 2.961-4.504 5.89-4.504 1.418 0 2.71.157 3.938.283v2.394c-1.071-.157-2.551-.346-3.874-.346-2.111 0-3.182.661-3.182 2.11 0 1.607 1.417 1.828 3.024 2.08 2.236.346 4.756.724 4.756 4.441 0 3.37-2.393 4.851-5.827 4.851-1.701 0-3.213-.189-4.536-.441v-2.394c1.607.283 3.024.535 4.316.535 2.11-.031 3.275-.85 3.275-2.457z"/></g><g><path fill="#fff" d="M81.361 33.481c-3.969 0-6.111-1.984-6.111-5.67V17.92h2.678v10.111c0 2.111 1.732 3.119 3.433 3.119 1.732 0 3.433-1.008 3.433-3.118V17.92h2.678v9.891c0 3.686-2.142 5.67-6.111 5.67z"/></g><g><path fill="#fff" d="M93.397 20.253h2.547c2.075 0 2.83 1.606 2.83 2.74 0 1.323-.786 2.835-2.767 2.835h-2.61zm2.331-2.363H90.72v15.309h2.678v-5.072h1.921c.504 0 .945-.031 1.228-.031.851 1.701 1.67 3.402 2.52 5.103h3.024l-2.929-5.827c1.764-1.103 2.331-3.025 2.331-4.316 0-3.56-2.205-5.135-5.765-5.135z"/></g><g><path fill="#fff" d="M47.916 49.68c.694 0 1.198-.094 1.985-.22V44.2h3.496v7.402c-1.606.567-3.748 1.071-5.985 1.071-5.229 0-7.402-3.087-7.402-8.001 0-4.504 2.772-7.812 8.284-7.812 1.544 0 3.245.189 4.568.536l-.032 3.087c-1.323-.378-3.244-.63-4.41-.63-2.394 0-4.85 1.354-4.85 4.945 0 3.182 1.669 4.883 4.346 4.883z"/></g><g><path fill="#fff" d="M59.316 40.102h2.111c1.827 0 2.394 1.198 2.394 2.237 0 1.071-.599 2.394-2.394 2.394h-2.11zm1.796-2.992H55.82v15.309h3.497v-4.725h2.425c.756 1.575 1.449 3.15 2.205 4.725h3.937l-2.74-5.638c1.732-1.198 2.236-3.15 2.236-4.285 0-4.032-2.582-5.355-6.268-5.355z"/></g><g><path fill="#fff" d="M79.73 44.767c0 3.275-1.103 4.945-3.591 4.945-2.457 0-3.591-1.701-3.591-4.946 0-3.244 1.134-4.913 3.591-4.913 2.489 0 3.591 1.637 3.591 4.913zm-10.71 0c0 5.102 2.362 7.906 7.15 7.906 4.82 0 7.151-2.804 7.151-7.907 0-5.102-2.363-7.906-7.15-7.906-4.82 0-7.151 2.804-7.151 7.907z"/></g><g><path fill="#fff" d="M94.694 43.851h-.22l-2.237 8.568H87.67L84.11 37.11h3.686l2.362 10.773h.095l2.645-10.773h3.623l2.646 10.773h.095l2.236-10.773h3.528l-3.56 15.309H96.9z"/></g><g><path fill="#fff" d="M118.662 40.101h-4.788v12.316h-3.496V40.101h-4.788l.63-2.961h12.411v2.961z"/></g><g><path fill="#fff" d="M123.636 37.14v6.237h6.332V37.14h3.497v15.309h-3.497v-6.111h-6.332v6.111h-3.496V37.14z"/></g></g><g><path fill="#fff" d="M27.338 31.247l-7.81 5.072V22.427h-2.36v15.435L14.9 39.343l-2.236-1.386V20.065h14.674zM12.664 46.515v-5.786l1.604 1.006c.377.252.88.252 1.257 0l1.635-1.069v5.849zm15.84-28.844H11.463c-.661 0-1.197.535-1.197 1.197v17.577l-7.843-4.914V10.93L13.7 3.59v11.718h2.362V1.417c0-.441-.252-.819-.63-1.04a1.1 1.1 0 0 0-1.197.063L.595 9.292a1.16 1.16 0 0 0-.535.976v21.893c0 .41.22.787.567 1.008l9.67 6.08v8.473c0 .661.536 1.197 1.197 1.197h6.867c.662 0 1.197-.536 1.197-1.197v-8.568l9.64-6.269a1.16 1.16 0 0 0 .535-.976v-13.01c-.032-.693-.567-1.228-1.229-1.228z"/></g></g></g></svg>