<svg xmlns="http://www.w3.org/2000/svg" width="32" height="51" viewBox="0 0 32 51"><g><g><g><g><path fill="#00bda2" d="M30.178 9.885v21.812l-12.86 7.731L4.49 31.302V7.812L14.086.97c.425-.264 1.012-.954 1.436-.691L29.2 8.306c.62.362.979.954.979 1.58z"/></g><g><path d="M28.984 32.089l-8.186 5.208V23.03h-2.476v15.854l-2.377 1.52-2.344-1.423V20.603h15.383zM13.601 47.784v-5.946l1.684 1.034c.396.258.924.258 1.32 0l1.717-1.099v6.01zm16.605-29.645h-17.86c-.692 0-1.254.55-1.254 1.23v18.059l-8.22-5.049V11.213l11.819-7.54v12.039h2.475V1.439c0-.453-.264-.841-.66-1.068a1.172 1.172 0 0 0-1.254.065L.992 9.53a1.186 1.186 0 0 0-.562 1.004v22.492c0 .421.231.81.594 1.036l10.134 6.246v8.706c0 .68.562 1.23 1.255 1.23h7.196c.693 0 1.255-.55 1.255-1.23v-8.803l10.1-6.44c.364-.227.562-.615.562-1.003V19.4c-.066-.712-.627-1.262-1.32-1.262z"/></g></g></g></g></svg>