<svg xmlns="http://www.w3.org/2000/svg" width="54" height="59" viewBox="0 0 54 59"><defs><linearGradient id="khs2a" x1="52.63" x2="22.5" y1="54.8" y2="54.8" gradientUnits="userSpaceOnUse"><stop offset="0" stop-color="#3effe3"/><stop offset="1" stop-color="#00ea99"/></linearGradient><linearGradient id="khs2b" x1="45.92" x2="25.82" y1="26.1" y2="26.1" gradientUnits="userSpaceOnUse"><stop offset="0" stop-color="#3effe3"/><stop offset="1" stop-color="#00ea99"/></linearGradient><linearGradient id="khs2c" x1="45.95" x2="32.56" y1="40.45" y2="40.45" gradientUnits="userSpaceOnUse"><stop offset="0" stop-color="#3effe3"/><stop offset="1" stop-color="#00ea99"/></linearGradient><linearGradient id="khs2d" x1="33.84" x2=".13" y1="30.6" y2="30.6" gradientUnits="userSpaceOnUse"><stop offset="0" stop-color="#3effe3"/><stop offset="1" stop-color="#00ea99"/></linearGradient></defs><g><g><path fill="#00bda2" d="M46.176 13.203a.633.633 0 0 1-.633-.633c0-3.624-1.61-7.02-4.42-9.317a.635.635 0 0 1-.09-.892.636.636 0 0 1 .891-.089 13.254 13.254 0 0 1 4.885 10.298c0 .35-.283.633-.633.633"/></g><g><path fill="#00bda2" d="M38.818 1.708a.63.63 0 0 1-.265-.059 11.77 11.77 0 0 0-1.031-.418.634.634 0 0 1 .424-1.194c.387.137.767.291 1.137.463a.635.635 0 0 1-.265 1.208"/></g><g><path fill="#fff" d="M46.015 51.43H17.313a6.754 6.754 0 0 0-6.753 6.753h42.208a6.754 6.754 0 0 0-6.753-6.753"/><path fill="none" stroke="#00d4b5" stroke-miterlimit="50" stroke-width=".99" d="M46.015 51.43v0H17.313a6.754 6.754 0 0 0-6.753 6.753h42.208a6.754 6.754 0 0 0-6.753-6.753"/></g><g><path fill="url(#khs2a)" d="M46.017 51.43H29.133a6.754 6.754 0 0 0-6.753 6.753h30.39a6.754 6.754 0 0 0-6.753-6.753"/></g><g><path fill="#fff" d="M46.012 22.72H17.31a6.754 6.754 0 0 0 6.753 6.753h15.195a6.754 6.754 0 0 0 6.754-6.753"/></g><g><path fill="url(#khs2b)" d="M46.01 22.72H25.75a6.753 6.753 0 0 0 6.753 6.753h6.754a6.754 6.754 0 0 0 6.753-6.753"/></g><g><path fill="#fff" d="M39.257 29.48H24.064L17.31 51.43h28.702z"/></g><g><path fill="url(#khs2c)" d="M39.26 29.48h-6.75l1.688 21.95h11.817z"/></g><g><path fill="#00d4b5" d="M23.154 48.149a.633.633 0 0 1-.621-.756l.352-1.773a.634.634 0 0 1 1.24.247l-.352 1.772a.63.63 0 0 1-.62.51"/></g><g><path fill="#00d4b5" d="M24.104 43.374a.633.633 0 0 1-.621-.756l1.764-8.86a.633.633 0 0 1 1.24.247l-1.764 8.86a.631.631 0 0 1-.62.51"/></g><g><path fill="#fff" d="M52.761 58.81H10.553a.633.633 0 0 1-.633-.634c0-4.072 3.313-7.386 7.386-7.386h28.702c4.073 0 7.386 3.314 7.386 7.386 0 .35-.283.634-.633.634M11.22 57.533h40.877a6.126 6.126 0 0 0-6.088-5.477H17.307a6.126 6.126 0 0 0-6.088 5.477"/></g><g><path fill="#fff" d="M24.066 30.11c-4.073 0-7.386-3.315-7.386-7.387 0-.35.284-.633.633-.633h28.702c.35 0 .633.284.633.633 0 4.072-3.314 7.387-7.387 7.387zm-6.088-6.754a6.126 6.126 0 0 0 6.088 5.477h15.196c3.16 0 5.77-2.405 6.088-5.477z"/></g><g><path fill="#fff" d="M17.313 52.054a.631.631 0 0 1-.604-.82l6.753-21.947a.632.632 0 0 1 .604-.447H39.26c.278 0 .524.181.605.447l6.754 21.948a.633.633 0 0 1-.605.82zm.857-1.266h26.987l-6.364-20.681h-14.26z"/></g><g><path fill="#fff" d="M31.656 22.722a9.286 9.286 0 1 1 .001-18.573 9.286 9.286 0 0 1-.001 18.573"/></g><g><path fill="#00bda2" d="M35.877 8.37a9.26 9.26 0 0 0-.697-3.524A9.285 9.285 0 0 0 23.066 16.96a9.286 9.286 0 0 0 12.81-8.59"/></g><g><path fill="#fff" d="M31.659 23.358c-5.47 0-9.919-4.45-9.919-9.92 0-5.468 4.45-9.918 9.919-9.918 5.47 0 9.919 4.45 9.919 9.919 0 5.47-4.45 9.919-9.92 9.919m-.004-18.572c-4.769 0-8.648 3.88-8.648 8.648s3.88 8.648 8.648 8.648 8.648-3.88 8.648-8.648c0-4.769-3.88-8.648-8.648-8.648"/></g><g opacity=".3"><path fill="url(#khs2d)" d="M34.001 30.6c0 9.389-7.611 17.001-17 17.001S0 39.989 0 30.601C0 21.211 7.612 13.6 17 13.6c9.39 0 17.001 7.612 17.001 17"/></g></g></svg>