<svg xmlns="http://www.w3.org/2000/svg" width="62" height="66" viewBox="0 0 62 66"><defs><linearGradient id="tovwa" x1="61.28" x2="28.09" y1="60.77" y2="60.77" gradientUnits="userSpaceOnUse"><stop offset="0" stop-color="#3effe3"/><stop offset="1" stop-color="#00ea99"/></linearGradient><linearGradient id="tovwb" x1="53.91" x2="31.76" y1="29.15" y2="29.15" gradientUnits="userSpaceOnUse"><stop offset="0" stop-color="#3effe3"/><stop offset="1" stop-color="#00ea99"/></linearGradient><linearGradient id="tovwc" x1="53.94" x2="39.17" y1="44.96" y2="44.96" gradientUnits="userSpaceOnUse"><stop offset="0" stop-color="#3effe3"/><stop offset="1" stop-color="#00ea99"/></linearGradient><linearGradient id="tovwd" x1="37.28" x2=".14" y1="34.11" y2="34.11" gradientUnits="userSpaceOnUse"><stop offset="0" stop-color="#3effe3"/><stop offset="1" stop-color="#00ea99"/></linearGradient></defs><g><g><g><g><path fill="#00bda2" d="M54.174 14.95a.698.698 0 0 1-.698-.698c0-3.993-1.774-7.734-4.87-10.264a.7.7 0 0 1-.099-.984.7.7 0 0 1 .982-.097 14.602 14.602 0 0 1 5.382 11.345.698.698 0 0 1-.697.698"/></g><g><path fill="#00bda2" d="M46.073 2.282a.694.694 0 0 1-.292-.065c-.37-.171-.75-.325-1.136-.461A.698.698 0 0 1 45.112.44c.426.15.845.32 1.253.51a.7.7 0 0 1-.292 1.331"/></g><g><path fill="#fff" d="M54 57.05H22.38a7.44 7.44 0 0 0-7.44 7.44h46.5A7.44 7.44 0 0 0 54 57.05"/><path fill="none" stroke="#00d4b5" stroke-miterlimit="50" stroke-width="1.29" d="M54 57.05v0H22.38a7.44 7.44 0 0 0-7.44 7.44h46.5A7.44 7.44 0 0 0 54 57.05"/></g><g><path fill="url(#tovwa)" d="M54 57.05H35.4a7.44 7.44 0 0 0-7.44 7.44h33.48A7.44 7.44 0 0 0 54 57.05"/></g><g><path fill="#fff" d="M54 25.43H22.38a7.44 7.44 0 0 0 7.44 7.44h16.74A7.44 7.44 0 0 0 54 25.43"/></g><g><path fill="url(#tovwb)" d="M54 25.43H31.68a7.44 7.44 0 0 0 7.44 7.44h7.44A7.44 7.44 0 0 0 54 25.43"/></g><g><path fill="#fff" d="M46.56 32.87H29.82L22.38 57.052H54z"/></g><g><path fill="url(#tovwc)" d="M46.557 32.87H39.12l1.86 24.182h13.018z"/></g><g><path fill="#00d4b5" d="M28.818 53.438a.697.697 0 0 1-.684-.833l.388-1.954a.699.699 0 0 1 .82-.548.698.698 0 0 1 .547.821l-.388 1.952a.695.695 0 0 1-.683.562"/></g><g><path fill="#00d4b5" d="M29.858 48.184a.697.697 0 0 1-.684-.833l1.943-9.76a.697.697 0 0 1 1.367.272l-1.943 9.76a.696.696 0 0 1-.683.561"/></g><g><path fill="#00bda2" d="M61.438 65.195h-46.5a.698.698 0 0 1-.698-.697c0-4.487 3.65-8.138 8.138-8.138h31.62c4.487 0 8.137 3.651 8.137 8.138a.698.698 0 0 1-.697.697M15.67 63.792h45.045a6.752 6.752 0 0 0-6.708-6.039H22.379a6.752 6.752 0 0 0-6.709 6.039"/></g><g><path fill="#00bda2" d="M29.818 33.575c-4.488 0-8.138-3.651-8.138-8.137 0-.386.312-.698.698-.698h31.62c.385 0 .697.312.697.698 0 4.486-3.65 8.137-8.137 8.137zm-6.708-7.442a6.751 6.751 0 0 0 6.707 6.039h16.741a6.751 6.751 0 0 0 6.707-6.039z"/></g><g><path fill="#00bda2" d="M22.377 57.755a.696.696 0 0 1-.666-.903l7.44-24.18a.696.696 0 0 1 .666-.492h16.739c.307 0 .577.2.667.492l7.44 24.18a.697.697 0 0 1-.667.903zm.945-1.404h29.731l-7.011-22.777h-15.71z"/></g><g><path fill="#fff" d="M38.19 25.43c-5.65 0-10.23-4.581-10.23-10.23 0-5.65 4.58-10.23 10.23-10.23S48.42 9.55 48.42 15.2c0 5.649-4.58 10.23-10.23 10.23"/></g><g><path fill="#00bda2" d="M42.84 9.618c0-1.375-.276-2.685-.767-3.882a10.192 10.192 0 0 0-3.883-.766c-5.65 0-10.23 4.58-10.23 10.23 0 1.375.275 2.683.767 3.882 1.198.492 2.508.766 3.883.766 5.649 0 10.23-4.58 10.23-10.23"/></g><g><path fill="#00bda2" d="M38.188 26.135c-6.026 0-10.928-4.902-10.928-10.927 0-6.026 4.902-10.928 10.928-10.928 6.025 0 10.927 4.902 10.927 10.928 0 6.025-4.902 10.927-10.927 10.927m-.005-20.46c-5.254 0-9.529 4.274-9.529 9.528 0 5.254 4.275 9.528 9.529 9.528s9.528-4.274 9.528-9.528c0-5.254-4.274-9.529-9.528-9.529"/></g></g><g opacity=".3"><path fill="url(#tovwd)" d="M37.459 34.11c0 10.343-8.385 18.729-18.73 18.729C8.386 52.839 0 44.453 0 34.109 0 23.766 8.386 15.38 18.73 15.38c10.344 0 18.729 8.386 18.729 18.73"/></g></g></g></svg>