<svg xmlns="http://www.w3.org/2000/svg" width="45" height="57" viewBox="0 0 45 57"><defs><linearGradient id="zuxja" x1="9" x2="1.09" y1="4.79" y2="4.79" gradientUnits="userSpaceOnUse"><stop offset="0" stop-color="#3effe3"/><stop offset="1" stop-color="#00ea99"/></linearGradient><linearGradient id="zuxjb" x1="44.42" x2="18.13" y1="42.85" y2="42.85" gradientUnits="userSpaceOnUse"><stop offset="0" stop-color="#3effe3"/><stop offset="1" stop-color="#00ea99"/></linearGradient></defs><g><g><path fill="#fff" d="M1.948 45.917h31.915c.783 0 1.419-.635 1.419-1.418V1.949c0-.784-.636-1.419-1.419-1.419H9.04L.53 9.04V44.5c0 .783.635 1.418 1.418 1.418"/></g><g><path fill="#00bda2" d="M10.66 45.918h22.926c.938 0 1.698-.724 1.698-1.618V.61h-7.642C18.264.61 10.66 7.855 10.66 16.791z"/></g><g><path fill="#00bda2" d="M1.95 46.45A1.952 1.952 0 0 1 0 44.5V9.042c0-.141.056-.277.156-.377l8.51-8.51c.1-.099.235-.155.376-.155h24.823c1.076 0 1.95.874 1.95 1.95V44.5c0 1.076-.874 1.95-1.95 1.95zM1.064 9.265V44.51c0 .49.398.887.886.887h31.915a.887.887 0 0 0 .887-.887V1.95a.888.888 0 0 0-.887-.886H9.262z"/></g><g><path fill="#fff" d="M.53 9.04L9.04.53v8.51z"/></g><g><path fill="url(#zuxja)" d="M1.06 8.692L9.038.53v8.51z"/></g><g><path fill="#00bda2" d="M.531 9.574a.532.532 0 0 1-.375-.909l8.51-8.51a.534.534 0 0 1 .58-.115.53.53 0 0 1 .327.492v8.51a.532.532 0 0 1-.532.532zM1.816 8.51H8.51V1.816z"/></g><g><g><path fill="#00bda2" d="M43.557 5.844h-1.719v1.723c0 .293-.24.532-.536.532a.534.534 0 0 1-.536-.532V5.844h-1.464a.532.532 0 0 1 0-1.064h1.464V3.312c0-.294.24-.532.536-.532.296 0 .536.238.536.532V4.78h1.719a.532.532 0 0 1 0 1.064"/></g></g><g><path fill="#00bda2" d="M43.787 14.064h-4.255a.532.532 0 0 1 0-1.064h4.255a.532.532 0 0 1 0 1.064"/></g><g><g><path fill="#00bda2" d="M43.557 24.574h-4.255a.532.532 0 0 1 0-1.064h4.255a.532.532 0 0 1 0 1.064"/></g><g><path fill="#00bda2" d="M43.557 21.574h-4.255a.532.532 0 0 1 0-1.064h4.255a.532.532 0 0 1 0 1.064"/></g></g><g><g><path fill="#00bda2" d="M42.848 34.969a.527.527 0 0 1-.376-.156l-1.397-1.397-1.397 1.397a.527.527 0 0 1-.376.156.531.531 0 0 1-.376-.907l1.397-1.397-1.397-1.397a.531.531 0 1 1 .752-.752l1.397 1.397 1.397-1.397a.531.531 0 1 1 .751.752l-1.397 1.397 1.397 1.397a.531.531 0 0 1-.375.907"/></g></g><g><path fill="#fff" d="M21.805 13.124h-5.673a.532.532 0 0 1 0-1.064h5.673a.532.532 0 0 1 0 1.064"/></g><g><path fill="#fff" d="M13.303 13.124H4.792a.532.532 0 0 1 0-1.064h8.51a.532.532 0 0 1 0 1.064"/></g><g><path fill="#fff" d="M28.488 9.574H13.476c-.478 0-.866-.239-.866-.532 0-.294.388-.532.866-.532h15.012c.478 0 .866.238.866.532 0 .293-.388.532-.866.532"/></g><g><path fill="#fff" d="M28.504 16.664H11.49c-.47 0-.851-.239-.851-.532 0-.294.381-.532.85-.532h17.014c.47 0 .85.238.85.532 0 .293-.38.532-.85.532"/></g><g><path fill="#fff" d="M8.338 16.664H4.792a.532.532 0 0 1 0-1.064h3.546a.532.532 0 1 1 0 1.064"/></g><g><path fill="#fff" d="M28.5 20.214h-9.125c-.472 0-.855-.239-.855-.532 0-.294.383-.532.855-.532H28.5c.472 0 .856.238.856.532 0 .293-.384.532-.856.532"/></g><g><path fill="#fff" d="M13.303 20.214H4.792a.532.532 0 0 1 0-1.064h8.51a.532.532 0 0 1 0 1.064"/></g><g opacity=".3"><path fill="url(#zuxjb)" d="M18 32.505a2.955 2.955 0 0 1 2.955-2.955h20.684a2.955 2.955 0 0 1 2.955 2.955v20.684a2.955 2.955 0 0 1-2.955 2.955H20.955A2.955 2.955 0 0 1 18 53.189z"/></g></g></svg>