<svg xmlns="http://www.w3.org/2000/svg" width="51" height="66" viewBox="0 0 51 66"><defs><linearGradient id="kkoma" x1="10.26" x2="1.25" y1="5.46" y2="5.46" gradientUnits="userSpaceOnUse"><stop offset="0" stop-color="#3effe3"/><stop offset="1" stop-color="#00ea99"/></linearGradient><linearGradient id="kkomb" x1="50.66" x2="20.68" y1="50.16" y2="50.16" gradientUnits="userSpaceOnUse"><stop offset="0" stop-color="#3effe3"/><stop offset="1" stop-color="#00ea99"/></linearGradient></defs><g><g><g><g><g><g/></g><g><path fill="#dffffa" d="M2.227 52.367h36.395c.892 0 1.617-.724 1.617-1.617V2.227c0-.892-.725-1.617-1.617-1.617H10.314L.61 10.314V50.75c0 .893.725 1.617 1.617 1.617"/></g><g><path fill="#00bda2" d="M12.15 52.367h26.143c1.07 0 1.937-.826 1.937-1.845V.7h-8.714C20.82.7 12.15 8.962 12.15 19.153z"/></g><g><path fill="#fff" d="M2.224 52.97A2.226 2.226 0 0 1 0 50.746V10.311c0-.161.064-.315.178-.43L9.882.178A.607.607 0 0 1 10.311 0h28.307c1.227 0 2.224.997 2.224 2.224v48.522a2.226 2.226 0 0 1-2.224 2.224zm-1.01-42.406v40.192c0 .558.453 1.011 1.01 1.011h36.394c.557 0 1.01-.453 1.01-1.011V2.224c0-.557-.453-1.01-1.01-1.01H10.562z"/></g><g><path fill="#fff" d="M.61 10.314L10.314.61v9.704z"/></g><g><path fill="url(#kkoma)" d="M1.21 9.917L10.308.61v9.704z"/></g><g><path fill="#fff" d="M.606 10.917a.606.606 0 0 1-.429-1.036L9.882.177a.61.61 0 0 1 .661-.131.604.604 0 0 1 .374.56v9.705c0 .335-.271.606-.607.606zm1.465-1.213h7.633V2.071z"/></g><g><g><path fill="#fff" d="M49.669 6.664h-1.961v1.965a.609.609 0 0 1-.61.606.609.609 0 0 1-.611-.606V6.664h-1.67a.607.607 0 0 1 0-1.213h1.67V3.777c0-.335.273-.607.61-.607.337 0 .611.272.611.607V5.45h1.96a.607.607 0 0 1 0 1.213"/></g></g><g><path fill="#fff" d="M49.929 16.033h-4.852a.607.607 0 0 1 0-1.213h4.852a.607.607 0 0 1 0 1.213"/></g><g><g><path fill="#fff" d="M49.669 28.023h-4.852a.607.607 0 0 1 0-1.213h4.852a.607.607 0 0 1 0 1.213"/></g><g><path fill="#fff" d="M49.669 24.603h-4.852a.607.607 0 0 1 0-1.213h4.852a.607.607 0 0 1 0 1.213"/></g></g><g><g><path fill="#fff" d="M48.86 39.876a.6.6 0 0 1-.429-.178l-1.593-1.593-1.593 1.593a.6.6 0 0 1-.429.178.606.606 0 0 1-.429-1.034l1.594-1.594-1.593-1.593a.606.606 0 1 1 .857-.857l1.593 1.593 1.593-1.593a.606.606 0 1 1 .857.857l-1.593 1.593 1.593 1.593a.606.606 0 0 1-.428 1.035"/></g></g><g><path fill="#fff" d="M24.866 14.963h-6.47a.607.607 0 0 1 0-1.213h6.47a.607.607 0 0 1 0 1.213"/></g><g><path fill="#fff" d="M15.162 14.963H5.457a.607.607 0 0 1 0-1.213h9.705a.607.607 0 0 1 0 1.213"/></g><g><path fill="#fff" d="M32.487 10.913h-17.12c-.545 0-.987-.272-.987-.607 0-.334.442-.606.988-.606h17.119c.545 0 .987.272.987.606 0 .335-.442.607-.987.607"/></g><g><path fill="#fff" d="M32.5 19.003H13.1c-.535 0-.97-.272-.97-.606 0-.335.435-.607.97-.607h19.4c.536 0 .97.272.97.607 0 .334-.434.606-.97.606"/></g><g><path fill="#fff" d="M9.5 19.003H5.457a.607.607 0 0 1 0-1.213H9.5a.606.606 0 1 1 0 1.213"/></g><g><path fill="#fff" d="M32.5 23.053H22.095c-.538 0-.975-.272-.975-.606 0-.335.437-.607.975-.607H32.5c.538 0 .975.272.975.607 0 .334-.437.606-.975.606"/></g><g><path fill="#fff" d="M15.162 23.053H5.457a.607.607 0 0 1 0-1.213h9.705a.607.607 0 0 1 0 1.213"/></g></g></g><g opacity=".3"><path fill="url(#kkomb)" d="M20.53 37.955A2.955 2.955 0 0 1 23.485 35h24.417a2.955 2.955 0 0 1 2.954 2.955v24.417a2.955 2.955 0 0 1-2.954 2.954H23.485a2.955 2.955 0 0 1-2.955-2.954z"/></g></g></g></svg>