<svg xmlns="http://www.w3.org/2000/svg" width="69" height="68" viewBox="0 0 69 68"><defs><linearGradient id="f53ka" x1="67.41" x2="22.45" y1="31.93" y2="31.93" gradientUnits="userSpaceOnUse"><stop offset="0" stop-color="#00bda2"/><stop offset="1" stop-color="#00ea99"/></linearGradient><linearGradient id="f53kb" x1="67.91" x2="18.96" y1="34.86" y2="34.86" gradientUnits="userSpaceOnUse"><stop offset="0" stop-color="#3effe3"/><stop offset="1" stop-color="#00ea99"/></linearGradient><linearGradient id="f53kc" x1="53.21" x2="28.51" y1="35.78" y2="35.78" gradientUnits="userSpaceOnUse"><stop offset="0" stop-color="#3effe3"/><stop offset="1" stop-color="#00ea99"/></linearGradient><linearGradient id="f53kd" x1="45.29" x2="36.37" y1="32.16" y2="32.16" gradientUnits="userSpaceOnUse"><stop offset="0" stop-color="#3effe3"/><stop offset="1" stop-color="#00ea99"/></linearGradient><linearGradient id="f53ke" x1="40.78" x2=".16" y1="46.93" y2="46.93" gradientUnits="userSpaceOnUse"><stop offset="0" stop-color="#3effe3"/><stop offset="1" stop-color="#00ea99"/></linearGradient></defs><g><g><g><path fill="#fff" d="M68.137 30.704c0 16.339-13.245 29.583-29.583 29.583-16.339 0-29.584-13.244-29.584-29.583 0-16.34 13.245-29.584 29.584-29.584 16.338 0 29.583 13.244 29.583 29.584"/></g><g><path fill="url(#f53ka)" d="M57.901 30.296c.735 8.625-8.997 27.504-25.334 27.504-3.64 0-7.125-.66-10.347-1.863a29.442 29.442 0 0 0 15.894 4.636c16.337 0 29.583-13.244 29.583-29.583 0-12.699-8.003-23.524-19.238-27.72C56.688 8.525 57.9 19.81 57.9 30.296z"/></g><g><path fill="#00bda2" d="M38.557 60.974c-16.695 0-30.277-13.582-30.277-30.277S21.862.42 38.557.42s30.277 13.582 30.277 30.277-13.582 30.277-30.277 30.277m0-59.167c-15.93 0-28.89 12.96-28.89 28.89 0 15.929 12.96 28.89 28.89 28.89s28.89-12.961 28.89-28.89c0-15.93-12.96-28.89-28.89-28.89"/></g><g><path fill="#00d4b5" d="M28.854 8.392a.692.692 0 0 1-.27-1.33 25.441 25.441 0 0 1 9.972-2.012c3.248 0 6.413.597 9.408 1.78.356.14.53.541.39.9a.692.692 0 0 1-.9.39 24.132 24.132 0 0 0-8.898-1.683c-3.273 0-6.446.639-9.432 1.9a.68.68 0 0 1-.27.055"/></g><g><path fill="#00d4b5" d="M23.774 11.28a.693.693 0 0 1-.412-1.252 25.889 25.889 0 0 1 2.184-1.442.693.693 0 0 1 .704 1.195c-.707.416-1.401.874-2.065 1.364a.688.688 0 0 1-.41.135"/></g><g><path fill="#fff" d="M68.137 30.7c0 10.21-13.245 18.49-29.583 18.49-16.339 0-29.584-8.28-29.584-18.49 0-10.211 13.245-18.49 29.584-18.49 16.338 0 29.583 8.279 29.583 18.49"/></g><g><path fill="url(#f53kb)" d="M68.141 30.697c0-.77-.084-1.53-.23-2.277-5.279-4.895-12.342-7.89-20.108-7.89-14.397 0-26.386 10.287-29.033 23.91 5.242 2.95 12.178 4.747 19.788 4.747 16.338 0 29.583-8.279 29.583-18.49"/></g><g><path fill="#fff" d="M38.562 45.485c-8.169 0-14.792-6.617-14.792-14.782 0-8.166 6.623-14.783 14.792-14.783 8.17 0 14.792 6.617 14.792 14.783 0 8.165-6.623 14.782-14.792 14.782"/></g><g><path fill="url(#f53kc)" d="M53.35 30.703c0-.193-.021-.38-.028-.574-2.65-2.497-6.211-4.039-10.14-4.039-8.17 0-14.792 6.62-14.792 14.784 0 .194.021.381.029.573a14.725 14.725 0 0 0 10.14 4.039c8.17 0 14.791-6.618 14.791-14.783"/></g><g><path fill="#00bda2" d="M38.55 12.9c-15.93 0-28.89 7.983-28.89 17.796 0 9.812 12.96 17.797 28.89 17.797s28.89-7.985 28.89-17.797c0-9.813-12.96-17.796-28.89-17.796"/><path fill="none" stroke="#fff" stroke-miterlimit="50" stroke-width="1.28" d="M38.55 12.9c-15.93 0-28.89 7.983-28.89 17.796 0 9.812 12.96 17.797 28.89 17.797s28.89-7.985 28.89-17.797c0-9.813-12.96-17.796-28.89-17.796"/></g><g><path fill="#fff" d="M38.563 31.391a.693.693 0 0 1-.693-.693V15.913a.694.694 0 0 1 1.387 0v13.212l9.756-8.915a.692.692 0 1 1 .934 1.025l-10.916 9.974a.692.692 0 0 1-.468.182"/></g><g><path fill="#fff" d="M30.413 43.737a.692.692 0 0 1-.578-1.076l8.145-12.34a.695.695 0 0 1 .882-.242l13.302 6.472a.694.694 0 0 1-.606 1.247l-12.756-6.206-7.81 11.832a.694.694 0 0 1-.58.313"/></g><g><path fill="#fff" d="M38.565 46.174c-8.538 0-15.485-6.942-15.485-15.476 0-8.535 6.947-15.478 15.485-15.478 8.539 0 15.485 6.943 15.485 15.478 0 8.534-6.946 15.476-15.485 15.476m-.005-29.567c-7.771 0-14.093 6.322-14.093 14.09 0 7.77 6.322 14.09 14.093 14.09s14.094-6.32 14.094-14.09c0-7.768-6.323-14.09-14.094-14.09"/></g><g><path fill="#fff" d="M43.185 28.852c.565 0 1.11.08 1.632.217a6.47 6.47 0 0 0-6.256-4.839 6.472 6.472 0 0 0-6.471 6.471c0 3.009 2.057 5.53 4.839 6.255a6.469 6.469 0 0 1-.216-1.632 6.472 6.472 0 0 1 6.472-6.472"/></g><g><path fill="url(#f53kd)" d="M45.328 29.667c0-.61-.086-1.2-.233-1.763a6.951 6.951 0 0 0-1.764-.234 6.992 6.992 0 0 0-6.991 6.99c0 .61.086 1.2.233 1.764a6.95 6.95 0 0 0 1.764.234 6.992 6.992 0 0 0 6.991-6.99"/></g><g><path fill="#fff" d="M38.565 37.87c-3.95 0-7.165-3.215-7.165-7.165s3.214-7.165 7.165-7.165c3.95 0 7.165 3.214 7.165 7.165 0 3.95-3.215 7.165-7.165 7.165m-.005-12.944a5.78 5.78 0 0 0-5.773 5.774 5.781 5.781 0 0 0 5.773 5.774 5.781 5.781 0 0 0 5.773-5.774 5.78 5.78 0 0 0-5.773-5.774"/></g><g><path fill="#00bda2" d="M68.576 57.768a2.569 2.569 0 1 1-5.138-.002 2.569 2.569 0 0 1 5.138.002"/></g><g opacity=".3"><path fill="url(#f53ke)" d="M41.038 46.934c0 11.346-9.2 20.544-20.544 20.544C9.148 67.478-.05 58.28-.05 46.934S9.148 26.39 20.494 26.39c11.345 0 20.544 9.198 20.544 20.544"/></g></g></g></svg>