<svg xmlns="http://www.w3.org/2000/svg" width="67" height="63" viewBox="0 0 67 63"><defs><linearGradient id="cnroa" x1="41.32" x2=".08" y1="20.93" y2="20.93" gradientUnits="userSpaceOnUse"><stop offset="0" stop-color="#3effe3"/><stop offset="1" stop-color="#00ea99"/></linearGradient><linearGradient id="cnrob" x1="64.58" x2="18.67" y1="42.9" y2="42.9" gradientUnits="userSpaceOnUse"><stop offset="0" stop-color="#3effe3"/><stop offset="1" stop-color="#00ea99"/></linearGradient><linearGradient id="cnroc" x1="64.83" x2="60.99" y1="34.52" y2="34.52" gradientUnits="userSpaceOnUse"><stop offset="0" stop-color="#3effe3"/><stop offset="1" stop-color="#00ea99"/></linearGradient><linearGradient id="cnrod" x1="45.46" x2="31.4" y1="41.61" y2="41.61" gradientUnits="userSpaceOnUse"><stop offset="0" stop-color="#3effe3"/><stop offset="1" stop-color="#00ea99"/></linearGradient></defs><g><g><g opacity=".3"><path fill="url(#cnroa)" d="M41.52 20.93c0 11.487-9.313 20.8-20.8 20.8-11.488 0-20.8-9.313-20.8-20.8S9.232.13 20.72.13c11.487 0 20.8 9.313 20.8 20.8"/></g></g><g><path fill="#fff" d="M64.846 16.48h-50.35a2.48 2.48 0 0 0-2.476 2.485v41.414a2.48 2.48 0 0 0 2.476 2.485h43.747c3.647 0 6.603-2.967 6.603-6.626z"/></g><g><path fill="url(#cnrob)" d="M64.844 24.22h-8.952c-20.673 0-37.432 16.73-37.432 37.365h39.874c3.595 0 6.51-2.91 6.51-6.498z"/></g><g><path fill="#00bda2" d="M15.118 62.873a3.108 3.108 0 0 1-3.098-3.11V18.31c0-1.714 1.39-3.109 3.098-3.109h50.397a.62.62 0 0 1 .62.622v39.796c0 4-3.243 7.255-7.23 7.255zm0-46.43a1.864 1.864 0 0 0-1.859 1.866v41.455c0 1.028.834 1.865 1.86 1.865h43.787c3.303 0 5.99-2.696 5.99-6.01V16.443z"/></g><g><path fill="#fff" d="M64.842 55.134c0-3.66-2.884-6.626-6.442-6.626V8.75c3.558 0 6.442 2.967 6.442 6.626z"/></g><g><path fill="#fff" d="M65.503 55.945v-.309a.073.073 0 0 1-.017-.013c.004.108.017.214.017.322"/></g><g><path fill="url(#cnroc)" d="M64.835 15.362c-1.057-.907-2.396-1.452-3.855-1.452v35.286c2.209.96 3.778 3.245 3.855 5.936a.032.032 0 0 0 .01.008V15.567c0-.07-.008-.137-.01-.205"/></g><g><path fill="#00bda2" d="M64.91 55.8c0-3.314-2.646-6.01-5.9-6.01a.616.616 0 0 1-.61-.622V9.372c0-.343.273-.622.61-.622 3.927 0 7.12 3.253 7.12 7.255V55.8a.616.616 0 0 1-.61.622.616.616 0 0 1-.61-.622zm-5.29-7.229c2.2.19 4.117 1.404 5.29 3.17V16.005c0-3.104-2.322-5.668-5.29-5.98z"/></g><g><path fill="#00bda2" d="M24.241 58.998h-7.703a.651.651 0 0 1-.658-.644c0-.355.295-.644.658-.644h7.703c.363 0 .658.289.658.644a.651.651 0 0 1-.658.644"/></g><g><path fill="#00bda2" d="M28.247 58.998H26.71c-.287 0-.52-.288-.52-.644 0-.355.233-.644.52-.644h1.537c.287 0 .52.289.52.644 0 .356-.233.644-.52.644"/></g><g><path fill="#fff" d="M34.563 48.697c-5.336 0-9.663-4.327-9.663-9.664a9.663 9.663 0 0 1 9.663-9.663 9.663 9.663 0 0 1 9.664 9.663c0 5.337-4.327 9.664-9.664 9.664"/></g><g><path fill="url(#cnrod)" d="M45.523 38.689c0-1.241-.236-2.423-.649-3.521a9.979 9.979 0 0 0-3.519-.648C35.83 34.52 31.35 39 31.35 44.524c0 1.241.236 2.423.649 3.52a9.942 9.942 0 0 0 3.519.649c5.525 0 10.005-4.48 10.005-10.004"/></g><g><path fill="#00bda2" d="M35.208 48.695c-5.684 0-10.308-4.623-10.308-10.307 0-5.683 4.624-10.308 10.308-10.308 5.683 0 10.307 4.625 10.307 10.308 0 5.684-4.624 10.307-10.307 10.307m0-19.402c-5.015 0-9.095 4.08-9.095 9.095 0 5.014 4.08 9.095 9.095 9.095 5.014 0 9.095-4.08 9.095-9.095 0-5.015-4.08-9.095-9.095-9.095"/></g><g><path fill="#00bda2" d="M32.667 41.145a.514.514 0 0 1 .288-.68.55.55 0 0 1 .71.277c.287.657 1.033 1.097 1.857 1.097 1.092 0 1.98-.753 1.98-1.681 0-.767-.344-1.682-1.989-1.682-2.259 0-3.063-1.406-3.063-2.723 0-1.337 1.09-2.451 2.522-2.68v-.733c0-.287.242-.52.541-.52.3 0 .542.233.542.52v.733c1.042.163 1.92.79 2.314 1.693a.513.513 0 0 1-.29.68.55.55 0 0 1-.708-.277c-.288-.657-1.034-1.097-1.858-1.097-1.092 0-1.98.755-1.98 1.681 0 .768.343 1.683 1.98 1.683 2.265 0 3.072 1.406 3.072 2.722 0 1.34-1.094 2.456-2.53 2.68v.733c0 .287-.243.52-.542.52a.531.531 0 0 1-.541-.52v-.734c-1.039-.165-1.912-.792-2.305-1.692z"/></g></g></svg>