<svg xmlns="http://www.w3.org/2000/svg" width="51" height="51" viewBox="0 0 51 51"><defs><linearGradient id="7kaja" x1="48.97" x2="6.23" y1="32.22" y2="32.22" gradientUnits="userSpaceOnUse"><stop offset="0" stop-color="#3effe3"/><stop offset="1" stop-color="#00ea99"/></linearGradient><linearGradient id="7kajb" x1="49.2" x2="45.63" y1="24.43" y2="24.43" gradientUnits="userSpaceOnUse"><stop offset="0" stop-color="#3effe3"/><stop offset="1" stop-color="#00ea99"/></linearGradient><linearGradient id="7kajc" x1="31.16" x2="18.07" y1="32.44" y2="32.44" gradientUnits="userSpaceOnUse"><stop offset="0" stop-color="#3effe3"/><stop offset="1" stop-color="#00ea99"/></linearGradient></defs><g><g><g/></g><g><path fill="#fff" d="M49.22 7.63H2.337A2.31 2.31 0 0 0 .03 9.944v38.564a2.31 2.31 0 0 0 2.306 2.314h40.736c3.396 0 6.149-2.763 6.149-6.17z"/></g><g><path fill="url(#7kaja)" d="M49.222 14.83h-8.336c-19.25 0-34.856 15.578-34.856 34.793h37.13a6.057 6.057 0 0 0 6.062-6.05z"/></g><g><path fill="#fff" d="M2.915 50.822A2.894 2.894 0 0 1 .03 47.926v-38.6A2.893 2.893 0 0 1 2.915 6.43h46.928c.319 0 .577.26.577.579v37.057c0 3.725-3.02 6.756-6.731 6.756zm0-43.234c-.955 0-1.731.78-1.731 1.737v38.592c0 .957.776 1.737 1.731 1.737h40.783c3.076 0 5.578-2.51 5.578-5.596V7.588z"/></g><g><path fill="#fff" d="M49.219 43.622c0-3.408-2.686-6.17-5.999-6.17V.43c3.313 0 5.999 2.763 5.999 6.17z"/></g><g><path fill="#fff" d="M49.828 44.37v-.288a.068.068 0 0 1-.016-.012c.004.1.016.2.016.3"/></g><g><path fill="url(#7kajb)" d="M49.21 6.582c-.985-.844-2.232-1.352-3.59-1.352v32.858c2.057.893 3.518 3.021 3.59 5.527l.01.008V6.773c0-.065-.009-.128-.01-.191"/></g><g><path fill="#fff" d="M49.282 44.243c0-3.087-2.464-5.598-5.494-5.598a.574.574 0 0 1-.568-.579V1.01c0-.32.255-.579.568-.579 3.656 0 6.63 3.03 6.63 6.755v37.058c0 .32-.254.579-.568.579a.574.574 0 0 1-.568-.58zm-4.925-6.741c2.043.178 3.825 1.307 4.915 2.951V7.183c0-2.889-2.158-5.275-4.915-5.566z"/></g><g><path fill="#00bda2" d="M11.416 47.22H4.242a.607.607 0 0 1-.612-.6c0-.331.274-.6.612-.6h7.174c.338 0 .612.269.612.6 0 .331-.274.6-.612.6"/></g><g><path fill="#00bda2" d="M15.145 47.22h-1.43c-.268 0-.485-.269-.485-.6 0-.331.217-.6.485-.6h1.43c.267 0 .485.269.485.6 0 .331-.218.6-.485.6"/></g><g><path fill="#fff" d="M21.554 37.627a8.474 8.474 0 1 1 0-16.948 8.474 8.474 0 0 1 0 16.948"/></g><g><path fill="url(#7kajc)" d="M31.227 29.722c0-1.156-.22-2.256-.604-3.279a9.292 9.292 0 0 0-3.277-.603 9.317 9.317 0 0 0-9.316 9.316c0 1.155.22 2.256.604 3.277a9.258 9.258 0 0 0 3.277.604 9.317 9.317 0 0 0 9.316-9.315"/></g><g><path fill="#00bda2" d="M21.628 39.036c-5.292 0-9.598-4.305-9.598-9.598 0-5.291 4.306-9.598 9.598-9.598 5.292 0 9.598 4.307 9.598 9.598 0 5.293-4.306 9.598-9.598 9.598m0-18.067c-4.67 0-8.47 3.8-8.47 8.47 0 4.669 3.8 8.468 8.47 8.468 4.67 0 8.47-3.8 8.47-8.469 0-4.67-3.8-8.469-8.47-8.469"/></g><g><path fill="#00bda2" d="M19.252 32.014a.478.478 0 0 1 .268-.634.512.512 0 0 1 .661.258c.257.587.907.989 1.637 1.02a.516.516 0 0 1 .172 0c.98-.034 1.765-.722 1.765-1.564 0-.714-.321-1.566-1.852-1.566-2.104 0-2.853-1.31-2.853-2.536 0-1.247 1.017-2.285 2.352-2.496v-.68c0-.268.224-.486.5-.486s.5.218.5.486v.68c.973.15 1.792.735 2.16 1.576a.478.478 0 0 1-.27.635.511.511 0 0 1-.66-.259c-.258-.59-.912-.991-1.644-1.02a.516.516 0 0 1-.17 0c-.978.038-1.76.725-1.76 1.564 0 .715.32 1.567 1.845 1.567 2.108 0 2.86 1.31 2.86 2.535 0 1.25-1.021 2.29-2.36 2.498v.678a.493.493 0 0 1-.5.486.493.493 0 0 1-.5-.486v-.68c-.97-.153-1.784-.737-2.151-1.576z"/></g></g></svg>